<?xml version="1.0"?>
<svg width="98" height="158" xmlns="http://www.w3.org/2000/svg">
 <metadata id="metadata62">image/svg+xml</metadata>

 <g>
  <title>Layer 1</title>
  <path id="RI" d="m43.255554,142.237152l-3.695801,-14.955978l6.269287,-1.845154l2.191162,1.927124l3.306458,4.320648l2.687927,4.4021l-2.99939,1.624786l-1.293274,-0.161667l-1.131592,1.778275l-2.424927,1.939926l-2.909851,0.96994z" stroke-miterlimit="4" stroke-width="0.75" stroke="#ffffff" fill="#d3d3d3"/>
  <path id="NH" d="m49.984558,105.766556l0.869019,-1.076492l1.09021,-3.291023l-2.543091,-0.913475l-0.484985,-3.071556l-3.879822,-1.131615l-0.323364,-2.748245l-7.274719,-23.440819l-4.60144,-14.542992l-0.897093,-0.005062l-0.646606,1.6166l-0.646667,-0.48497l-0.969971,-0.969971l-1.454895,1.93993l-0.048523,5.032051l0.311707,5.667221l1.93988,2.748238l0,4.041519l-3.718201,5.062782l-2.586548,1.131638l0,1.131622l1.131592,1.778267l0,8.568024l-0.808289,9.214676l-0.161682,4.849815l0.969971,1.293297l-0.161621,4.526489l-0.484978,1.778275l0.968811,0.709229l16.787649,-4.424538l2.174866,-0.60247l1.843567,-2.773315l3.605225,-1.613129z" stroke-miterlimit="4" stroke-width="0.75" stroke="#ffffff" fill="#d3d3d3"/>
  <path id="VT" d="m13.669678,117.399704l0.316711,-5.345627l-2.890686,-10.784157l-0.646667,-0.323326l-2.909851,-1.293304l0.808289,-2.909882l-0.808289,-2.101593l-2.700081,-4.639977l0.969986,-3.87986l-0.808296,-5.173149l-2.424927,-6.466446l-0.805604,-4.922508l26.419373,-6.731819l0.308716,5.522209l1.91626,2.742233l0,4.041519l-3.707153,5.057991l-2.586548,1.14267l-0.011047,1.120567l1.309938,1.519119l-0.310913,8.097984l-0.609428,9.25885l-0.227974,5.556938l0.969971,1.293289l-0.161674,4.570686l-0.484993,1.68988l1.014221,0.72718l-7.437561,1.506706l-4.50177,0.723824l-0.000002,0z" stroke-miterlimit="4" stroke-width="0.75" stroke="#ffffff" fill="#d3d3d3"/>
  <path id="ME" d="m92.02533,42.172516l1.93988,2.101582l2.263306,3.718201l0,1.939919l-2.101624,4.688148l-1.939941,0.646652l-3.394836,3.071548l-4.849854,5.496456c0,0 -0.646606,0 -1.293274,0c-0.646606,0 -0.969971,-2.101585 -0.969971,-2.101585l-1.778259,0.161659l-0.96991,1.454941l-2.424927,1.454948l-0.969971,1.454941l1.616577,1.454941l-0.484985,0.646652l-0.484924,2.748215l-1.939941,-0.161659l0,-1.6166l-0.323364,-1.293289l-1.454895,0.323334l-1.778259,-3.233215l-2.101624,1.293282l1.293274,1.454941l0.323364,1.13163l-0.80835,1.293282l0.323364,3.071548l0.161621,1.6166l-1.616577,2.586571l-2.909912,0.484978l-0.323303,2.909889l-5.334778,3.071564l-1.293274,0.48497l-1.616638,-1.454941l-3.071533,3.556541l0.969971,3.2332l-1.454956,1.293289l-0.161682,4.364822l-1.123291,6.259369l-2.462219,-1.15596l-0.484985,-3.071548l-3.879883,-1.131645l-0.323303,-2.748238l-7.274719,-23.440819l-4.698608,-14.63974l1.420532,-0.118172l1.513794,0.409901l0,-2.586552l1.308289,-4.49646l2.586609,-4.688141l1.454956,-4.041519l-1.939941,-2.424911l0,-5.981432l0.808292,-0.969967l0.808289,-2.74823l-0.161621,-1.45495l-0.161682,-4.849812l1.778259,-4.849812l2.909912,-8.891331l2.101563,-4.203169l1.293274,0l1.293289,0.16166l0,1.131619l1.29332,2.26325l2.748169,0.646639l0.80835,-0.8083l0,-0.96997l4.041504,-2.90989l1.778259,-1.77826l1.454956,0.16166l5.981441,2.42491l1.93988,0.96996l9.05304,29.90719l5.981384,0l0.80835,1.939941l0.161621,4.849796l2.909912,2.263264l0.808289,0l0.161682,-0.485004l-0.484985,-1.131622l2.74823,-0.161655l0,-0.000004zm-20.931763,30.14753l1.535767,-1.535782l1.374146,1.050804l0.565796,2.424919l-1.697449,0.88913l-1.778259,-2.829071zm6.708923,-5.90062l1.778259,1.8591c0,0 1.293274,0.080818 1.293274,-0.2425c0,-0.323318 0.242493,-2.02076 0.242493,-2.02076l0.88916,-0.808296l-0.808289,-1.778282l-2.020752,0.727478l-1.374146,2.26326z" stroke-miterlimit="4" stroke-width="0.75" stroke="#ffffff" fill="#d3d3d3"/>
  <path id="CT" d="m43.253845,142.204681l-3.677429,-14.878815l-4.718811,0.920303l-21.22876,4.743103l1.000183,3.225662l1.454956,7.274734l0.176765,8.966934l-1.220039,2.174866l1.920776,1.932343l4.271538,-3.90564l3.556519,-3.233215l1.939941,-2.101593l0.808289,0.646637l2.748238,-1.454941l5.173157,-1.131607l7.794678,-3.178772z" stroke-miterlimit="4" stroke-width="0.75" stroke="#ffffff" fill="#d3d3d3"/>
  <path id="MA" d="m68.809021,136.595734l2.171936,-0.685883l0.457275,-1.714661l1.028809,0.114304l1.028748,2.28624l-1.257385,0.457245l-3.886597,0.114319l0.457214,-0.571564zm-9.373535,0.800186l2.286255,-2.629166l1.600342,0l1.828979,1.486038l-2.400513,1.028809l-2.171936,1.028793l-1.143127,-0.914474zm-34.799126,-21.98819l17.646904,-4.640686l2.263245,-0.646637l1.914063,-2.795723l3.736755,-1.6633l2.889282,4.412849l-2.424927,5.173126l-0.323303,1.454933l1.93988,2.586586l1.131653,-0.808304l1.778259,0l2.263245,2.586563l3.879883,5.981445l3.556519,0.48497l2.263245,-0.969955l1.778259,-1.778275l-0.808289,-2.748215l-2.101624,-1.616615l-1.454956,0.808296l-0.96991,-1.293274l0.484924,-0.484993l2.101624,-0.161644l1.778259,0.808296l1.939941,2.424904l0.969971,2.909897l0.323303,2.424896l-4.203186,1.454956l-3.879822,1.939911l-3.879883,4.526505l-1.939941,1.454941l0,-0.969955l2.424927,-1.454956l0.484985,-1.778259l-0.808289,-3.071548l-2.909912,1.454941l-0.808289,1.454956l0.484982,2.263229l-2.066341,1.000443l-2.747192,-4.52713l-3.394897,-4.364853l-2.070496,-1.812469l-6.533264,1.876205l-5.092346,1.050797l-20.675119,4.592209l-0.667778,-4.767853l0.646661,-10.588776l4.289254,-0.889145l6.789724,-1.293289l0.000015,0l0.000002,0z" stroke-miterlimit="4" stroke-width="0.75" stroke="#ffffff" fill="#d3d3d3"/>
  <metadata id="svg_35">image/svg+xml</metadata>
 </g>
</svg>