<?xml version="1.0" encoding="utf-8"?>
<!-- Generator: Adobe Illustrator 19.2.1, SVG Export Plug-In . SVG Version: 6.00 Build 0)  -->
<svg version="1.1" id="Layer_1" xmlns="http://www.w3.org/2000/svg" xmlns:xlink="http://www.w3.org/1999/xlink" x="0px" y="0px"
	 viewBox="0 0 31.5 25.7" style="enable-background:new 0 0 31.5 25.7;" xml:space="preserve">
<style type="text/css">
	.st0{fill:#CEB168;}
</style>
<title>ViolentExtremism</title>
<path class="st0" d="M31.4,17.2c-0.2-0.4-0.5-0.6-0.9-0.6l0,0h-6.2L25,9.5c0-0.6-0.4-1-1-1c-0.2,0-0.4,0-0.5,0.1l-3.7,2.6L17,0.8
	c-0.1-0.5-0.7-0.9-1.2-0.7c-0.3,0.1-0.5,0.3-0.6,0.5l-4.5,9.7L4.9,5.1C4.5,4.7,3.9,4.8,3.5,5.3C3.4,5.5,3.3,5.7,3.3,5.9l1.9,10.3
	l-4.6,1.8c-0.5,0.2-0.7,0.8-0.5,1.3c0,0,0,0.1,0.1,0.1l3.3,5.9c0.2,0.3,0.6,0.4,0.9,0.2c0.3-0.2,0.4-0.6,0.2-0.9l-3-5.5l5.1-2
	L4.8,6.8l6.5,5.8l4.6-10l2.8,11.1l4.9-3.4l-0.7,7.8l6.7-0.1l-5.2,5l2.7,2.5c0.3,0.2,0.7,0.2,0.9-0.1c0.2-0.3,0.2-0.7-0.1-0.9
	L26.3,23l4.9-4.7C31.5,18,31.6,17.6,31.4,17.2z"/>
<path class="st0" d="M9.6,25.7l-0.2-0.3l-2-3.4l-0.1-0.3l0.1-0.4C7.4,21.2,7.6,21,7.8,21l2.3-0.9l-0.9-4.8c-0.1-0.4,0.2-0.8,0.6-0.8
	c0.2,0,0.4,0,0.6,0.2L13,17l2.1-4.5c0.1-0.3,0.4-0.4,0.7-0.4c0.3,0,0.5,0.2,0.6,0.5l1.2,4.9l1.8-1.2c0.3-0.2,0.8-0.2,1,0.2
	c0.1,0.1,0.1,0.3,0.1,0.5l-0.3,3.4H23l0,0c0.4,0,0.7,0.3,0.7,0.7c0,0.2-0.1,0.4-0.2,0.5l-4.4,4.1L9.6,25.7z M8.8,21.9
	c0.8,1.4,1.3,2.2,1.5,2.6h8.3l3.1-2.9h-2.8l0.3-3.7l-2.4,1.6l-1.3-5.3L13.4,19l-2.8-2.5l0.8,4.4L8.8,21.9z M23,21.6L23,21.6z
	 M20.1,17.3L20.1,17.3z M19.3,16.9L19.3,16.9z M9.5,15.5L9.5,15.5z"/>
</svg>
