<?xml version="1.0" encoding="utf-8"?>
<!-- Generator: Adobe Illustrator 16.0.4, SVG Export Plug-In . SVG Version: 6.00 Build 0)  -->
<!DOCTYPE svg PUBLIC "-//W3C//DTD SVG 1.1//EN" "http://www.w3.org/Graphics/SVG/1.1/DTD/svg11.dtd">
<svg version="1.1" id="Layer_1" xmlns="http://www.w3.org/2000/svg" xmlns:xlink="http://www.w3.org/1999/xlink" x="0px" y="0px"
	 width="510px" height="681px" viewBox="0 0 510 681" enable-background="new 0 0 510 681" xml:space="preserve">
<g>
	<polygon fill="#CCCCCC" points="416.483,620.642 413.667,619.816 409.229,619.823 407.583,619.34 406.063,618.27 403.373,615.649 
		401.852,614.588 401.032,614.59 399.632,615.42 398.937,615.421 398.817,614.945 397.877,612.441 397.402,611.603 396.009,610.765 
		392.843,609.352 391.439,607.794 388.393,600.281 386.746,597.661 385.702,599.694 384.998,598.384 383.591,594.212 
		381.941,591.71 381.59,590.516 381.821,588.849 381.237,585.753 380.654,584.551 379.591,583.96 380.41,582.283 380.767,581.808 
		379.946,581.809 379.829,581.691 380.403,577.638 380.874,575.613 381.567,573.465 380.166,572.871 380.05,572.394 
		379.934,571.671 379.932,570.25 379.455,568.929 379.337,568.812 378.292,567.746 377.472,567.747 376.881,568.46 376.186,568.933 
		376.071,569.052 373.962,569.42 372.92,569.304 372.92,568.938 372.084,568.465 371.503,567.401 371.154,565.961 370.687,565.37 
		370.571,565.253 369.162,566.436 368.116,566.566 367.18,566.687 366.36,568 366.013,569.783 366.015,570.031 365.319,572.171 
		363.911,573.604 360.413,575.287 359.474,576.235 358.886,576.826 358.539,577.792 358.423,579.214 358.311,580.289 
		358.194,580.892 358.078,581.365 357.848,581.721 357.5,582.193 356.09,583.4 355.858,583.756 355.513,584.346 355.627,585.542 
		355.63,587.327 355.4,588.41 355.4,588.528 355.285,588.646 354.693,589.24 352.83,590.071 352.239,590.921 352.126,592.942 
		352.836,593.779 353.183,594.607 352.131,596.643 351.669,597.114 351.312,597.471 349.919,597.826 349.215,598.312 
		348.627,599.15 348.394,599.624 348.162,600.099 348.047,600.334 347.931,600.819 347.817,601.054 347.584,601.777 345.48,605.469 
		344.312,607.618 344.198,608.211 343.959,609.058 345.021,609.65 345.373,609.885 347.123,611.194 347.946,612.506 
		345.489,612.273 345.49,612.983 345.377,613.339 345.377,613.456 345.26,613.82 345.144,614.305 345.957,615.132 344.801,615.844 
		344.442,617.284 344.56,619.067 344.919,620.024 345.153,620.973 346.083,622.647 347.022,623.119 347.14,623.119 348.077,623.235 
		348.424,623.473 349.248,623.946 349.839,624.665 349.955,624.79 350.538,625.976 352.174,629.317 352.291,630.035 
		352.535,632.061 352.535,632.416 353.003,632.777 354.278,633.133 354.521,633.247 354.405,633.247 354.994,633.364 
		355.344,633.245 355.576,633.132 356.154,633.131 356.736,633.958 356.737,635.041 356.621,635.279 357.741,635.633 
		357.28,636.106 357.164,636.936 357.165,637.903 356.936,638.378 356.819,638.851 358.403,642.147 358.521,642.631 
		359.102,643.113 360.979,643.349 361.677,643.938 360.556,645.13 360.801,646.089 362.917,647.4 360.637,649.594 359.933,650.423 
		359.229,652.458 358.765,653.875 358.073,655.315 357.021,656.266 357.957,656.865 358.538,657.219 358.077,658.415 
		357.605,659.488 355.51,661.879 353.286,662.957 356.211,666.88 357.856,668.436 360.188,669.5 363.336,666.871 365.091,668.654 
		366.38,672.823 368.025,672.229 375.972,671.748 377.375,671.26 378.307,669.828 379.47,669.354 379.702,668.517 379.7,667.561 
		380.172,666.729 380.878,666.492 383.45,666.242 382.858,664.933 388.244,664.332 390.934,664.567 393.505,665.627 
		398.065,669.212 400.523,670.629 402.391,670.865 402.389,669.797 402.036,665.383 402.84,659.304 402.833,654.648 
		403.422,653.096 404.821,650.839 407.275,647.848 408.209,645.826 408.915,644.738 409.144,644.146 409.027,643.199 408.436,642.6 
		407.845,642.233 407.729,641.759 409.139,639.737 416.029,635.201 415.797,634.836 415.206,634.116 415.551,633.406 
		416.026,633.166 417.078,633.642 416.382,632.813 415.909,631.728 415.672,630.547 415.789,629.224 416.726,628.394 
		416.726,627.803 416.491,627.2 416.49,626.125 416.949,622.909 417.065,622.793 417.062,621.479 417.295,621.233 416.832,620.642 	
		"/>
	<polygon fill="#CCCCCC" points="408.915,538.155 405.442,531.979 405.308,530.166 406.079,527.983 406.079,527.728 
		406.725,524.117 406.859,521.932 406.859,521.411 406.725,521.155 406.598,520.898 406.471,520.898 405.823,520.771 
		405.181,519.749 404.925,519.226 404.406,517.556 404.153,516.393 404.153,516.126 404.023,515.489 404.153,515.105 
		405.308,513.943 403.379,513.816 398.997,512.783 397.451,512.014 397.195,511.761 396.941,511.631 396.68,511.761 396.55,511.887 
		396.035,512.014 393.075,512.91 392.174,512.91 391.912,512.653 391.399,512.271 390.758,510.983 390.496,510.333 390.239,510.204 
		389.595,509.693 390.366,508.277 389.206,508.147 388.435,507.765 388.308,507.114 389.079,505.965 387.406,503.771 
		389.338,500.81 390.628,499.775 392.557,498.104 395.134,495.78 395.134,495.271 396.294,493.854 396.55,493.46 397.068,492.436 
		396.807,491.531 389.725,491.404 387.663,490.241 386.506,487.791 387.922,486.896 382.766,479.163 381.611,477.501 
		379.55,475.562 377.872,475.435 373.749,476.585 372.333,476.457 372.206,475.945 371.949,475.051 372.333,473.368 
		372.333,472.984 372.206,471.834 371.693,471.568 370.53,470.918 370.403,470.79 370.403,470.152 370.53,470.022 370.66,469.896 
		369.37,470.152 368.599,470.278 361.128,470.022 360.998,470.022 360.227,469.769 362.158,472.219 361.871,472.684 
		359.971,470.278 358.684,469.896 349.797,470.152 348.763,469.384 346.575,467.317 346.187,467.189 345.542,466.934 
		344.641,467.572 344.514,467.829 343.906,468.791 343.869,468.734 343.351,469.513 342.709,469.639 342.196,469.769 
		341.808,469.769 341.036,469.639 340.135,469.129 339.619,468.734 339.231,468.605 339.104,468.605 339.746,466.295 
		340.135,464.866 340.135,464.229 340.265,462.94 338.846,462.545 338.719,462.545 337.302,461.777 336.913,461.65 336.527,461.522 
		336.205,461.329 336.396,461.139 334.726,459.978 333.309,457.784 333.047,457.401 332.92,456.239 332.791,453.789 
		334.207,452.245 340.265,445.543 340.521,445.417 341.419,445.033 342.579,444.648 343.098,444.266 344.387,442.327 
		346.187,438.472 347.085,437.043 347.347,436.532 346.448,435.893 345.415,435.893 343.098,436.532 347.085,430.098 
		348.763,426.092 347.347,424.175 347.477,422.875 347.603,422.108 347.732,421.469 347.991,420.425 348.893,419.914 
		350.053,420.948 350.824,419.914 350.824,419.785 351.343,418.763 352.114,416.568 351.987,416.441 351.726,415.93 
		351.599,415.408 351.472,414.63 351.343,414.247 352.37,414.375 353.53,414.247 354.175,413.991 354.559,413.862 354.82,413.735 
		355.46,413.352 353.142,410.902 353.403,408.963 354.043,408.323 354.82,407.557 354.559,406.779 353.66,404.595 351.987,404.595 
		350.436,404.979 348.893,405.362 348.763,405.235 347.477,404.2 345.288,401.241 343.612,400.206 343.098,400.078 342.323,399.951 
		340.392,400.334 337.946,400.856 336.269,400.856 335.753,400.463 335.111,399.951 334.08,398.801 333.436,398.278 
		332.661,397.757 326.869,396.094 324.551,394.156 324.16,390.427 323.391,387.2 323,386.688 321.457,384.762 320.167,383.983 
		319.012,383.333 316.821,383.078 315.272,383.716 314.76,383.983 310.511,386.944 308.32,387.721 296.209,387.2 292.478,388.105 
		292.348,388.105 290.543,387.721 290.543,381.927 288.74,379.604 287.327,379.349 286.809,379.349 282.813,379.732 
		281.141,378.827 281.014,378.827 280.887,378.699 280.369,377.794 279.338,374.193 278.825,372.776 275.345,368.909 
		274.703,367.364 274.957,365.181 275.086,363.754 276.246,361.176 276.635,358.343 275.345,355.903 274.573,354.485 
		271.608,352.419 271.479,352.291 271.352,352.036 269.809,352.419 269.161,353.324 269.034,353.848 268.78,354.869 268.39,355.774 
		268.001,356.808 267.103,358.343 266.458,359.387 265.687,360.409 264.014,362.603 262.597,364.148 261.435,365.309 
		259.246,365.948 257.185,364.926 255.25,364.009 254.223,363.754 253.321,363.498 246.106,363.242 243.916,362.348 
		244.561,360.409 245.724,360.281 250.229,362.348 249.973,361.176 249.582,359.514 249.328,358.609 249.582,356.937 
		249.838,356.03 250.229,354.485 249.973,352.036 248.939,350.618 247.65,349.713 247.138,349.458 246.106,349.075 245.335,348.818 
		243.916,348.691 240.567,350.363 232.582,360.153 231.554,360.919 230.138,361.442 228.332,361.442 225.243,360.666 
		223.05,361.049 222.275,361.176 221.631,361.176 220.859,361.049 219.574,360.153 218.933,359.642 219.06,358.863 219.187,358.086 
		220.087,356.03 220.087,353.324 219.315,351.908 218.026,351.651 217.643,351.651 214.937,352.164 213.002,352.941 209.525,354.23 
		204.12,357.32 205.402,358.736 205.148,359.897 204.502,361.176 204.502,362.859 205.021,363.882 205.275,364.275 207.593,367.109 
		208.108,368.398 208.236,368.654 207.854,370.848 207.727,371.487 205.791,372.521 205.021,372.521 201.024,372.254 
		200.253,371.999 199.092,371.615 196.521,370.197 195.357,369.548 192.395,369.421 193.942,371.36 194.713,372.648 
		195.103,374.321 194.971,377.794 195.357,379.221 196.13,379.988 199.606,381.405 198.19,384.505 197.419,385.399 197.029,385.527 
		196.259,385.911 197.162,384.505 197.419,383.333 197.289,382.311 196.902,381.277 195.613,379.732 193.812,378.049 
		192.133,375.993 191.364,373.033 190.59,371.487 188.662,369.688 188.528,369.688 188.528,370.327 187.759,374.193 
		187.629,374.576 187.246,375.738 183.251,381.277 178.096,385.271 165.477,391.706 161.482,394.922 160.838,395.445 160.066,395.7 
		158.521,396.223 146.414,396.351 146.28,396.351 145.126,395.839 143.581,394.029 143.447,392.356 143.581,390.556 143.064,388.36 
		141.132,387.071 128.636,382.949 126.063,382.565 123.741,382.694 123.485,382.694 119.362,383.588 117.689,383.716 
		116.273,384.111 116.146,384.111 114.983,385.271 114.857,386.551 114.857,387.2 115.112,389.257 114.983,390.171 114.857,390.811 
		114.084,390.938 109.961,391.578 108.928,391.45 106.612,391.194 105.195,390.556 103.906,390.033 103.522,389.906 101.073,387.2 
		100.555,385.782 99.655,383.078 99.655,379.349 100.045,375.343 99.783,373.16 99.139,369.037 76.215,376.517 55.607,390.033 
		34.35,402.529 20.443,413.096 16.577,414.375 14.516,415.802 15.804,419.02 15.932,419.402 16.837,425.324 16.965,426.614 
		17.993,429.842 21.598,433.826 23.276,436.275 23.661,439.493 23.405,439.878 23.016,440.527 21.471,441.943 20.57,442.838 
		19.926,444.266 20.955,447.866 21.988,451.339 21.859,452.511 21.088,454.311 21.088,455.089 21.215,455.216 21.471,455.599 
		22.243,455.983 22.632,456.111 22.888,456.366 23.016,456.751 23.532,457.922 23.921,458.817 24.434,459.711 24.565,459.711 
		25.205,459.978 26.622,460.361 27.528,460.361 29.455,460.107 30.488,460.107 31.906,460.755 32.422,461.65 32.805,462.811 
		33.45,463.974 36.8,467.189 37.183,467.572 37.828,468.734 39.246,471.962 39.634,472.602 39.889,472.984 41.177,474.145 
		41.695,474.668 42.723,475.18 49.901,478.379 49.94,478.523 50.067,478.523 50.452,478.652 50.579,478.652 50.839,478.78 
		51.483,478.907 51.867,479.036 53.285,478.013 55.091,474.925 56.379,472.729 57.279,471.695 58.18,470.662 59.34,470.022 
		60.63,469.256 65.009,467.957 66.037,467.701 66.037,467.572 66.297,467.189 66.297,467.317 66.425,467.317 66.68,467.189 
		69.515,466.295 74.409,464.739 74.927,464.866 76.986,465.517 78.793,467.062 80.336,469.769 80.592,470.152 80.076,470.535 
		80.336,471.045 81.494,473.113 82.782,476.201 83.554,477.107 84.971,477.234 86.388,477.629 86.515,477.758 87.294,479.163 
		87.938,481.356 88.449,482.902 87.677,484.192 86.904,485.608 87.677,490.241 90.382,499.254 90.51,504.41 91.027,506.222 
		91.282,506.475 92.698,508.277 94.116,509.311 98.627,511.631 100.428,512.144 101.971,512.014 102.878,511.887 103.906,511.504 
		107.384,510.204 108.417,509.438 108.8,509.182 109.445,508.542 109.833,508.147 110.09,508.021 110.989,507.498 111.379,507.498 
		112.407,507.371 113.439,507.765 113.956,507.895 114.596,508.798 114.467,510.077 114.34,510.204 113.439,511.887 
		114.728,512.783 121.296,512.783 123.612,513.293 125.935,514.467 127.862,516.649 129.541,519.749 130.44,525.928 130.44,533.396 
		131.342,539.968 134.947,543.311 135.335,542.288 135.465,542.161 135.591,542.288 136.109,541.897 136.236,541.641 
		136.363,541.374 136.492,541.117 136.881,540.225 138.686,537.133 139.459,536.229 140.23,535.846 140.875,535.578 
		145.382,535.195 149.632,535.708 151.692,536.879 152.466,537.389 153.499,538.028 154.914,538.668 155.299,538.808 
		157.615,538.808 159.81,537.901 164.061,536.1 165.215,535.973 166.123,535.835 168.05,536.752 168.179,536.752 171.528,540.479 
		172.3,540.99 173.717,541.897 175.778,543.697 176.422,545.124 178.484,549.746 179.129,550.013 180.417,550.522 180.934,550.14 
		181.19,549.875 181.19,547.819 182.479,547.31 183.378,547.689 183.894,547.957 184.795,548.467 186.084,549.492 186.73,550.652 
		186.601,551.429 186.47,552.195 185.695,553.231 185.569,553.358 183.125,555.287 182.09,556.842 182.09,556.968 181.577,558.12 
		181.062,561.08 180.289,563.403 178.999,567.398 178.999,567.919 178.737,570.358 179.646,570.755 180.289,571.009 
		182.351,570.102 183.378,569.976 184.414,570.498 186.084,577.443 186.341,578.083 186.73,578.997 187.374,580.276 187.374,581.31 
		186.341,581.833 184.922,582.47 184.279,582.982 182.605,584.143 181.835,584.793 180.674,585.815 179.9,586.722 179.9,586.849 
		179.512,587.882 179.129,589.682 179.646,589.811 179.9,591.101 180.157,592.261 180.157,593.167 180.289,594.573 179.512,594.573 
		185.184,597.662 185.442,597.789 186.601,598.183 191.496,597.406 194.457,597.022 197.162,597.789 209.654,601.272 
		210.686,601.539 213.647,601.019 224.339,595.606 227.943,593.807 232.198,593.167 232.582,592.9 233.355,592.391 234.128,590.844 
		234.128,590.715 234.899,588.139 235.417,584.793 235.671,583.109 235.671,581.96 235.417,581.439 235.288,581.053 
		235.288,580.789 235.031,580.149 235.288,578.604 235.933,577.313 246.879,566.236 249.582,564.959 249.582,565.086 
		249.973,567.27 251.128,567.79 254.35,567.143 255.25,568.432 255.25,571.265 254.735,574.61 254.605,575.771 254.479,577.313 
		253.451,576.164 252.806,576.291 251.39,579.254 250.871,580.403 250.871,580.789 250.744,581.833 250.871,583.109 
		250.744,584.539 250.744,584.793 249.582,587.625 246.752,594.7 246.365,597.279 247.523,599.602 249.582,600.368 252.417,601.539 
		253.966,604.502 254.096,605.524 254.223,606.428 253.966,607.845 253.707,608.484 253.451,609.134 253.062,610.551 
		252.936,611.061 252.679,611.703 252.679,611.829 251.772,613 251.519,614.025 251.772,614.803 252.806,616.473 253.062,617.368 
		253.062,623.301 253.963,624.464 254.994,624.591 256.54,624.845 257.185,624.718 258.857,624.464 261.308,623.685 
		263.368,623.034 264.658,622.907 265.687,622.78 265.812,622.907 265.942,623.034 267.359,623.301 271.099,627.041 273.157,628.19 
		275.992,628.97 276.764,629.227 278.054,630.387 279.854,633.092 282.43,636.691 283.458,637.725 283.976,638.121 285.91,639.527 
		288.226,640.178 291.188,639.397 292.866,638.888 295.054,638.888 297.242,641.081 299.177,643.521 299.821,645.843 
		299.56,646.227 299.433,646.493 298.788,646.876 298.661,646.876 298.404,649.188 298.531,649.966 298.661,650.732 
		299.177,651.382 300.85,651.636 301.364,651.509 301.494,651.509 302.01,650.732 302.393,649.839 302.783,649.453 303.426,649.453 
		304.073,649.839 304.583,650.222 307.678,651.371 309.609,653.055 314.501,661.939 314.89,663.496 314.89,665.028 314.501,666.582 
		314.372,667.988 314.501,668.256 315.017,669.415 317.207,670.055 317.85,669.672 319.913,668.512 321.33,667.479 322.617,666.582 
		323.262,666.329 324.551,665.679 327.768,667.222 328.674,667.479 329.445,667.349 330.085,667.349 330.344,666.839 
		330.474,666.712 330.729,665.679 332.02,664.003 334.596,662.717 336.913,663.237 339.104,664.26 341.292,664.646 341.425,664.646 
		342.579,664.133 343.869,662.322 345.029,661.684 346.187,661.812 348.507,663.229 348.637,663.229 349.791,663.496 
		352.114,662.322 354.432,659.884 354.947,658.721 355.46,657.434 354.82,657.051 353.787,656.4 354.947,655.378 355.719,653.821 
		356.236,652.288 357.008,650.222 357.782,649.188 358.811,648.282 359.326,646.876 359.072,645.973 358.811,644.81 358.036,644.17 
		355.975,643.916 355.333,643.394 355.203,642.881 354.947,642.233 355.076,641.594 355.333,641.081 355.333,640.048 
		355.465,639.142 355.975,638.631 356.236,638.248 356.366,637.992 356.236,637.342 356.236,636.821 355.592,635.925 
		354.947,635.925 354.82,636.052 354.432,636.182 353.787,636.052 353.53,635.925 352.759,635.021 351.343,634.636 350.824,634.242 
		350.824,633.858 350.57,631.676 350.436,630.896 348.637,627.297 347.991,626.134 347.864,625.997 347.22,625.23 346.318,624.718 
		345.93,624.464 344.902,624.337 344.775,624.337 343.739,623.814 342.711,622.015 342.452,621.107 342.069,620.201 
		341.942,618.272 342.452,616.729 343.612,615.963 342.711,615.057 342.841,614.533 343.098,614.152 343.098,614.025 
		343.225,613.767 343.225,612.873 345.93,613.13 344.902,611.703 343.098,610.294 342.711,610.04 341.552,609.391 341.808,608.484 
		341.942,607.845 343.225,605.651 345.547,601.793 345.804,601.019 345.93,600.762 346.057,600.239 346.191,599.982 
		346.448,599.473 346.575,599.09 346.704,598.833 347.347,598.056 347.991,597.533 349.535,597.149 349.923,596.767 
		350.443,596.256 351.599,594.061 351.213,593.294 350.443,592.391 350.57,590.194 351.213,589.417 353.276,588.521 
		353.916,587.882 354.049,587.755 354.049,587.625 354.305,586.455 354.305,584.398 354.175,583.109 354.559,582.47 354.82,582.087 
		356.366,580.659 356.746,580.149 357.008,579.767 357.135,579.254 357.265,578.604 357.394,577.57 357.526,576.164 357.909,575.12 
		358.554,574.48 359.714,573.458 363.578,571.648 365.121,570.102 365.896,567.79 365.896,567.525 366.284,565.726 367.183,564.18 
		368.216,564.053 369.37,563.916 370.922,562.634 371.051,562.764 371.566,563.403 371.82,564.959 372.468,566.109 373.366,566.492 
		373.755,566.619 374.912,566.746 377.235,566.365 377.361,566.236 378.134,565.853 378.778,565.086 379.55,565.086 380.84,566.236 
		380.967,566.365 381.35,567.79 381.35,569.325 381.484,570.102 381.611,570.625 383.027,571.265 383.926,570.231 384.183,569.455 
		384.317,569.198 383.926,568.176 382.898,567.398 383.154,566.619 383.284,565.853 383.54,564.83 383.54,564.689 383.673,564.563 
		384.444,564.18 384.573,564.043 386.635,563.916 387.15,563.529 387.406,563.403 388.052,561.859 388.052,560.058 387.663,558.641 
		387.533,558.247 386.117,556.712 387.15,555.287 387.663,554.901 389.468,553.623 389.725,553.102 390.366,551.941 
		392.557,550.919 394.104,550.652 396.68,550.013 398.611,548.34 398.096,546.913 398.357,545.38 399.129,543.697 399.513,543.311 
		400.157,542.545 400.929,542.023 401.447,541.641 402.607,541.768 402.99,541.897 403.762,542.15 405.181,542.418 407.887,541.897 
		408.402,541.374 409.174,540.479 	"/>
	<path fill="#CCCCCC" d="M339.176,30.134l4.906-2.266l2.712-0.626h10.572l10.188-2.259l-4.129-2.144l-24.765,0.873l-1.539-0.619
		l-1.683,1.386l-0.649,2.504l1.802,2.504L339.176,30.134z M290.917,43.058l14.186-6.149l3.62-0.875l4.641-2.013l4.237-0.123
		l1.428-0.742l-0.255-0.633l-0.261-1.265l-0.251-0.627l6.06-0.246l2.837-1l2.453-3.286l-15.216,2.891l-1.43,1.022l-1.685,1.367
		l-13.793,2.763h-2.314l-1.816,1.646l-5.553,1.879l-1.149,2.878l1.276,2.511H290.917z M385.234,24.61v0.497l0.648,0.993l2.064-2.513
		l17.675-5.403h1.422v-1.123l-2.852-0.869l-10.175,0.869l-2.715,0.629l-3.87,1.639l-2.584,2.251l1.034,2.268L385.234,24.61z
		 M432.969,12.03l0.384-1.123l0.778-0.255l0.251-0.362h-2.322l-1.04,0.87l-0.244,0.87l1.543,0.764L432.969,12.03z M419.557,11.04
		l3.626,1.23l0.247-0.631l0.272-0.238l0.372-0.251h0.522l-5.689-2.506l-1.298,0.137l0.134,1.11L419.557,11.04z M262.93,64.175
		l2.32-3.282l8.137-7.669l2.961-1.12l1.283-0.748h2.707v-1.124l-5.139-0.748l-6.98,4.008l-6.708,6.029l-4.388,5.539l3.221,1.383
		L262.93,64.175z M255.747,361.233l0.912,0.241l1.026,0.256l-0.777,0.887l3.417,0.868l0.839-0.626l1.167-1.268l0.069-1.37
		l1.557-2.141l0.766-0.999l0.64-1.025l2.275-1.497l0.385-1.007l0.382-0.892l0.267-1l0.138-0.512l0.636-2.238l1.555,1.02l0.137,0.25
		l1.527,0.104l3.088,3.349l0.771,1.385l1.292,2.399l-0.386,2.641l-1.16,2.506l-0.133,1.247l-0.252,2.128l0.639,1.518l3.479,3.76
		l0.522,1.391l1.021,3.517l0.396,0.869v0.136h0.128l1.691,0.883l3.982-0.386h0.411l1.403,0.128l1.815,2.274v5.641l1.81,0.512
		l3.866-0.886l12.131,0.509l2.188-0.748l4.268-2.884l0.512-0.254l1.562-0.747l2.196,0.253l1.146,0.748l1.288,0.746l1.558,1.89
		l0.392,0.499l0.783,3.016l0.383,3.646l2.324,2.003l5.807,1.772l0.768,0.495l0.642,0.497l1.042,1.14l0.641,0.504l0.51,0.377h1.818
		l2.327-0.503l1.917-0.378h1.431l1.661,1.005l3.559,2.883l1.288,1.003l0.136,0.136l1.549-0.388l1.546-0.376h0.509l1.295,0.129
		l0.909,2.015l0.258,0.748l-0.782,0.75l-0.651,0.646l-0.384,1.756l3.679,3.729l-0.642,0.385l1.087,0.138l-0.383,0.123l-0.651,0.237
		l-1.152,0.137l-1.151-0.137l0.131,0.388l0.124,0.743l0.125,0.504l0.262,0.497v0.137l-0.784,2.126l-0.511,1.024v0.12l-0.772,1.007
		l-1.154-1.007l-0.782,0.512l-0.39,0.872l-0.133,0.625l-0.132,0.88l-0.121,1.258l0.053,1.904l-1.669,3.758l-4.007,6.288l2.2-0.635
		h1.022l1.047,0.498l-0.263,0.509l-0.914,1.384l-1.812,3.648l-1.294,1.877l-0.512,0.374l-1.161,0.375l0.46,1.742l-0.273,0.119
		l-7.421,7.896l-1.407,1.516l0.123,2.377v1.138l0.247,0.373l4.127,3.347l-0.383,0.163l0.387,0.125l1.815,0.89h0.125l0.081-0.977
		l-0.127,1.244v0.505l-0.411,1.391l0.718-1.795h0.127l0.919,0.501l0.762,0.499l0.784,0.135h0.392l0.516,2.572l0.635-0.133
		l1.433-2.134l0.126-0.24l0.896-0.736l-2.048,1.591l0.386,0.124l2.053-0.432l1.048,3.447l8.895-0.237l2.188,0.735h0.138l7.479,0.236
		l0.784-0.121l1.278-0.239l0.258-2.006l-0.641-1.01l-1.043-0.735l-0.769-1.271l-0.412-1.999l1.557,0.377l1.427-1.395l0.517-4.596
		l-0.251-1.369l-0.135-1.397l0.906-1.503l1.423-0.749l2.305,0.137l1.16-1.396l0.658-1.619v-1.266l-0.921-3.265l0.137-1.009
		l0.512-0.893l0.244-0.624l-3.347-1.126l-2.444-1.51l-0.777-0.876l-0.257-1.254v-2.395l0.517-1.76l0.637-1.396l-0.257-0.872
		l-3.733,0.375l-2.712-0.873l-1.424-0.127l-1.422,0.372l-0.002,2.612l-1.419,0.238l-0.137-4.02l-1.555-4.52l-0.638-3.647
		l2.839-1.504l-1.273-0.613l1.28,1.499l1.422,1.274l1.923-0.241l1.307-1.407l1.917-4.008l1.43-1.52l9.413-7.294l5.801-3.137
		l1.556-1.995l-2.191-2.015l2.315-1.894l0.772-0.504l-2.328-0.741l-5.149,3.384l-2.449-1.246l-0.785-2.888l0.259-3.523l0.913-3.139
		l1.028-1.755l2.201-2.516l5.291-9.42l1.02-1.017l2.57-1.761l1.037-1.372l0.517-2.003l0.265-3.528l0.649-1.378l-1.559-1.76
		l0.128-2.883l0.781-3.39l0.386-3.138l-0.512-2.892l-0.783-5.276l-4.113-4.654l-6.844-9.168l-0.396-2.012l0.518-2.246l1.158-3.66
		l-6.966-2.877l-2.328-2.875l1.431-4.533l-1.045-1.01l-2.316-1.635l-1.164-0.509l-2.949,0.137l-1.041-0.376l0.134-1.761l2.326-2.249
		l0.123-3.282l-1.43-3.145l-2.302-1.75l0.374-1.396l1.68-1.109l4.265-0.767l1.938-0.875l2.055-1.505l1.419-0.761l4.121-1.124
		l3.354,0.872l2.453,0.647l1.685,0.372l-1.429-2.138l-3.862-3.885l-1.291-0.897l3.477-1.875l3.349,1.515l3.362,2.627l3.479,1.394
		l3.223-0.645l0.922,0.123l0.767,0.768l1.147,1.994l0.515,0.511l3.874,0.636l1.677,0.873l0.251,2.514l3.87-1.01l0.399-1.629
		l-0.777-3.649l6.585,1.884h2.053l1.68-0.748l5.022-3.764l10.188-3.393l9.157-0.256l2.712-1.504l2.466-2.762l2.323-4.159
		l0.896-0.869l0.768-0.133l0.529-0.495l0.121-2.016l-0.254-1.123l-0.515-0.768l-2.571-2.763l-6.707-3.642l-2.188-0.617l-1.55-1.146
		l-0.266-2.497l0.781-1.629l0.907-0.373h1.021l1.294-0.633l0.777-1.021l0.886-2.143l0.53-0.871l1.802-1.765l1.549-0.875l6.714-0.737
		l1.289-1.131l2.313-4.524l1.942-2.002l4.39-1.893l2.046-1.75l2.467-3.776l1.148-1.252l4.515-2.763l0.259-0.884l-0.895-1.504
		l-0.909-3.512v-3.036l0.77-2.492l2.053-4.654l1.156-6.154l-1.418-4.156l-6.185-9.934l-0.655,0.25l-0.638,1.123l-0.91,0.884
		l-2.576,0.757l-2.712,0.125l-2.838-0.513l-5.297-2.002l-8.117-1.122l-2.701-1.259l-2.067-2.268l-0.646-2.394l-0.136-2.879
		l-0.394-2.878l-1.278-2.52l1.672-0.122l5.683-2.777l-3.361-2.763l-0.764-0.993v-1.41l0.514-1.366l0.13-1.521l-0.896-1.753
		l3.604-2.504l3.488-1.019l9.799-0.125l5.406,1.641l5.036-0.754l1.562,0.631l3.609,1.123l1.931-3.509l0.771-5.779l0.901-17.856
		l0.899-5.535l1.803-5.022l8.402-12.943l2.201-5.531l0.894-5.277l0.128-5.908l-0.9-11.95l-0.397-1.366l-0.507-0.884l-0.385-1.007
		l-0.124-2.008l0.241-1.379l1.421-3.648l0.907-2.773l0.254-2.619l-0.129-2.642l-0.261-4.666h-1.142l-7.504-1.887l-3.1-1.751
		l-0.242-2.775l-0.511-1.389v-0.742l0.384-0.503l0.756-0.748v-1.125h-0.636l-0.907,0.874l-1.164,0.374l-1.283-0.238l-0.892-1.009
		l-1.804,0.498l-4.139-2.268l-3.237-1.007l-0.753-0.732l-0.517-0.763l-0.532-0.38l-0.123-0.375l-2.463-1.757l-0.51-0.239
		l-3.484-13.822l-1.254-1.556l-2.054-1.019l-10.206-1.622l-24.246,3.636l-15.359,4.409l-2.57,1.995l-0.902,0.248l-1.048-0.377
		l-1.795-1.504l-1.042-0.374l-20.129,0.636l-9.926,0.493l-6.967,3.516l-2.32,0.127l-3.745,2.639l-16.386,6.418l-3.628,3.013
		l-4.897,0.749l-2.061,0.75l-1.811,1.891l-1.558,2.265l-1.679,1.895l-3.729,1.622l-2.204,1.888l-3.618,4.152l-2.055,5.01
		l-2.849,11.319l-2.063,4.142l-2.055,1.396l-4.78,1.124l-1.942,1.515l-1.538,1.747l-20.656,17.965l-4.003,1.757l-4.132,0.509
		l-2.191,0.761l-4.377,3.635l-2.325,1.259l-4.013,0.238l-4.244-1.245l-2.335-3.016l1.545-5.03l-0.771-1.246l-1.021,0.997
		l-6.329-0.997l-1.159,1.371l-0.771,3.392l-0.383,3.889l-0.127,3.019l-0.921,5.402l-4.375,11.057l-1.041,5.153l-0.251,2.505
		l-1.804,8.18l-4.398,31.763l-2.054,4.28v1.244l-0.906,4.656l-6.197,17.858l-10.461,18.341l-12.514,17.966l-14.704,17.33
		l-3.476,2.277l-4.001,0.622l-4.769-0.994l-0.657,1.109l-0.649,1.265l1.167,2.77l1.932,6.412l0.401,2.51l-0.263,0.498l-0.524,0.638
		l-0.51,0.872l-0.258,1.26l0.258,1.007l0.51,0.633l0.648,0.51l2.571,3.511l0.789,1.516l-1.3,0.995l-1.025,0.505l-0.768,0.135
		l-0.404-0.135l-2.84-1.5l-3.479-0.767l-1.942,0.142l-0.892,1.123l-6.445,1.893l-2.961,1.995l0.902,4.408h1.038l0.777-0.126
		l0.381-0.646l2.061-0.502h2.584l2.583-0.744l1.928-1.39l2.976,2.002l2.445,2.266l1.673,3.396l0.642,5.261l1.421,2.139l7.089,2.143
		l2.576,1.756l1.034,1.132l-3.485,0.241l-1.804,0.744l-1.296,1.394l-0.244,1.379v1.761l0.244,1.883l0.516,1.389l0.78,0.872
		l1.025,0.763l1.041,0.374l4.507,0.135l1.286,1.235l0.517,3.026l-2.459-1.997l-2.706-0.76l-9.15-0.51l-2.713,0.75l-5.423,2.517
		l8.136,7.397l2.438,1.399l1.557,0.242l3.225-0.377l1.55,0.135l4.257,1.872l1.945,0.76l2.838,1.619l2.194,2.64l0.894,3.53
		l-1.407,3.644l-3.093,0.869l-0.642-0.121l-2.068,0.619l-2.073-0.995l-5.291,0.75l-2.434-0.75l-1.558-2.007l-2.068-5.539
		l-1.419-2.505l-4.26-3.646l-5.028-2.003l-9.804-1.001v-1.005l0.643-0.646l1.812-1.126l1.041-0.372l-0.908-2.391l-1.422-2
		l-1.675-1.51l-1.544-0.893l-2.321-0.239l-27.607,2.88l-10.575,6.418l-1.041,1.382l0.386,2.637l1.164,1.761l3.36,2.89l1.283,1.867
		l1.42,2.518l1.549,2.265l1.812,1.022l5.805,1.243l2.327-0.127l4.256-1.517l1.546,0.127l4.004,3.784l6.198,3.009l2.837,2.878
		l1.027,0.497l1.145-0.129l1.309-0.877l3.729-0.373l1.554-0.757l1.16-1.616l3.094-5.646l1.408-0.897l4.267,0.373l1.685,0.761
		l5.681,4.774l2.065,1.251l2.197,0.625l9.411,0.138l2.316-0.636l-1.539-1.509l1.019,0.749l0.257,1.244v1.649l0.259,1.996
		l-1.931,0.533l0.399,0.496l5.664,1.492l1.156,0.632l2.582,1.37l1.153,0.375l0.77,0.253l1.305,0.252h0.77l1.939-1.003l0.133-0.633
		l0.383-2.145l-0.132-0.24l-1.875-1.264l0.392-2.625l-0.256-0.377l-0.513-1.007v-1.636l0.647-1.258l0.248-1.122l-1.28-1.389
		l6.774-3.013l3.479-1.247l1.944-0.763l6.758-0.237h0.385l1.282,0.237l0.771,1.409l-0.123,1.995v0.63l-0.896,2.002l-0.14,0.749
		l-0.13,0.748l0.64,0.497l1.291,0.887l0.64,0.133h0.653l0.774-0.133l0.849-0.382l1.736,0.769h0.386l1.425-0.135l1.419-0.51
		l-0.312-0.749l9.349-9.536l4.713-1.769l1.402,0.133l0.791,0.24l1.027,0.376l0.511,0.246l1.279,0.897l3.749,1.366l0.263,2.398
		l-0.405,1.514l-0.245,0.872l-1.626,1.639l-0.125,0.751l0.398,1.497l0.387,1.263 M359.167,183.801l-1.164,3.882l-1.931,3.274
		l-4.129,5.778l-2.194,2.389l-3.353,2.405l-3.485,1.767l-5.935,1.744l-3.104,2.503l-4.647,5.54l-3.345,7.669l-1.162,1.261
		l-8.89,2.13l-4.391-0.377l-4.518-2.129l-9.554-6.786l-2.066-0.251l-4.376,0.498l-2.454-0.247l-1.94-0.742l-5.152-3.53l-2.061-0.736
		l-4.651-0.373L273,208.973l-6.338-3.914l0.525-0.747l0.634-0.248l0.142-0.123v-1.256l1.551,0.245l0.647,0.387l0.771,0.625v-1.256
		l1.557,1.13l0.898-1.766l0.771-2.516l1.294-1.248l1.153-0.374l1.162-1.021l0.908-1.366l0.778-1.768l-1.674-0.875l-0.772-1.381
		l-0.647-1.381l-1.16-1.02l2.069-0.874l0.768-0.12l-0.511-1.646l-0.253-0.636l2.063-2.127l-0.766-4.008l-3.35-7.422l-1.433-4.763
		l-0.122-4.153l1.555-2.773l3.604-0.626l2.714,1.001l0.771,0.507l1.816,1.891l1.421-0.25l1.556-0.625l6.32-3.907l1.671-1.875
		l1.291-3.903l1.56-1.368l3.354-1.648l-0.386-1.626l-0.26-2.254l-0.386-2.019l-0.646-0.871l-5.287-2.27l-1.673-0.12l-1.419,0.246
		l-1.159,0.626l-1.027,1.019l-1.423,0.872l-1.285-0.747l-1.162-1.259l-1.025-0.637l-1.417-2.262l-0.271-10.556l-0.51-3.635
		l-5.167-10.188l-2.198-1.743l4.265-1.768l4.382-2.642l16.257-14.065l8.645-5.405l1.152,3.513l0.653,1.53l1.031,1.756l1.027,0.619
		l0.39,2.146l-0.122,2.13l-0.652,2.003l1.021,1.888l0.405,2.64l-0.512,2.643l-1.939,2.246l1.43,2.64l-0.922,1.264l-1.665,0.873
		l-1.156,1.891l-0.514,0.253L307.258,119v1.642l0.398,1.001l0.64,0.497l0.778,0.374l0.649,0.753l2.187,1.756l3.222,0.885
		l6.457,0.265l1.279,0.369l2.453,1.497l1.549,0.375l1.676-0.243l1.039-0.507l2.18-1.491l1.692-0.647h1.558l7.478,2.131l1.165,0.885
		l-3.737,0.74l-3.102,2.145l-2.447,3.274l-2.066,4.009l-0.909,4.158l-0.776,6.901l0.124,6.411l1.817,2.763l1.281,1.018l2.449,4.522
		l0.917,1.258l1.664,0.495l13.557-0.748l1.81,0.374l1.421,1.021l1.032,1.743l0.766,2.764l1.456,6.112l0.385,3.037L359.167,183.801z
		 M339.303,168.711l-2.84-2.886l-1.8,1.381l-5.934,1.88l-1.815,1.264l-4.516,4.391l-1.02,0.143l-2.072-0.259l-0.765,0.631
		l-2.473,6.17l-1.412,1.002l-3.865,1.517l-4.656,4.132l-7.722,3.015l-4.396,4.281l-6.442,3.388l-2.968,2.767l-1.802,1.005
		l1.035,2.505l0.381,2.389l0.644,1.891l2.193,1.124l4.655-0.248l1.662,0.248l7.098,2.64l3.225,1.768l6.177,4.778l2.705,1.111
		l6.853-0.238l3.606-1.392l2.198-2.876l0.644-4.151l-0.771-5.037l2.838-1.509l1.434-0.517l1.661-0.125l1.559-0.747l2.188-3.137
		l1.295-0.748l2.706-0.503l4.905-2.263l2.962-0.502l2.846-1.012l2.706-2.519l2.187-3.26l1.69-3.14l1.546-4.021v-3.274l-2.067-7.295
		L339.303,168.711z M138.049,317.613l4.635-0.269l0.649-0.497l2.586-2.883l1.416,0.121l0.897,0.754l0.646,0.886l0.651,0.625
		l3.991,1.635l1.682,1.251l0.646,2.021l1.021,2.133l2.202,1.505l3.867,1.38l1.804,0.123l7.874-1.503l1.805-0.626l1.675-1.131
		l1.038-1.636l-0.26-2.637l-1.93-1.389l-4.271-1.126l-1.019-0.882l-0.643-0.886l-0.524-0.871l-3.997-4.653l-1.681-1.246
		l-2.325-0.499l-9.803-0.266l-1.413-0.756l-1.682-0.127l-0.386,0.127l-8.646,1.266l-3.734,2.382l-0.263,5.155l1.42,1.879
		L138.049,317.613z M185.128,365.857l-3.348-0.733l-1.805,2.516l-0.78,1.102l-0.643-0.245l-1.022-0.763l-2.458-0.373l-1.175-0.38
		l-0.895-1.001l-1.16-2.512l-0.642-1l-1.417-0.884l-2.328-0.888l-2.194-0.119l-1.028,1.379l-0.511,3.151l-1.432,1.619l-10.05,4.158
		l-2.455,0.377l-3.867-1.138h-4.131l-2.202-0.879l-3.094-3.146l-10.064-2.76l-6.448-4.021l-1.539,0.126l-1.554,1.253l-15.297,5.283
		l0.522,4.02l0.256,2.133l-0.386,4.035l-0.131,3.758l0.915,2.638l0.511,1.384l1.098,2.64l1.665,0.756l1.431,0.625l0.708,0.251
		l1.035,0.123l4.129-0.625l0.776-0.123l0.133-0.633l0.124-0.884l-0.257-2.01l0.133-0.629l0.124-1.249l1.157-1.13h0.123l1.431-0.387
		l1.665-0.122l5.49-0.872h0.257l2.328-0.129l2.569,0.376l12.518,4.021l1.943,1.259l0.509,2.137l-0.126,1.756l0.126,1.634
		l1.553,1.756l1.16,0.51l0.124,0.123l12.126-0.123l1.555-0.51l0.773-0.246l0.634-0.509l4.009-3.017l12.765-6.274l2.33-5.253
		l4.001-5.402l0.388-1.133l0.124-0.372l0.778-3.642v-0.632l-2.197-1.262L185.128,365.857z M245.098,102.75l3.488-1.001l2.325-4.401
		l4.779-3.885l2.837-4.289l1.42-2.633l0.643-2.124h-2.048v-1.012l1.764-1.52v-2.638l-1.026-3.018l-1.418-2.254l0.523-0.758
		l0.125-0.752l-0.267-0.868l-0.382-1.022l-3.225-0.123l-2.569,4.16l-2.452,5.026l-4.916,4.013l-2.452,4.034l-2.048,4.893
		l-0.647,4.396l1.929,4.263L245.098,102.75z"/>
</g>
</svg>
