<svg width="261" height="180" xmlns="http://www.w3.org/2000/svg" xmlns:xlink="http://www.w3.org/1999/xlink">
 <defs>
  <path fill="#ffde00" d="m0,-1l0.58779,1.80902l-1.53885,-1.11804l1.90212,0l-1.53885,1.11804l0.58779,-1.80902z" id="s"/>
 </defs>
 <g>
  <title>background</title>
  <rect fill="none" id="canvas_background" height="182" width="263" y="-1" x="-1"/>
 </g>
 <g>
  <title>Layer 1</title>
  <g stroke="null" id="svg_22">
   <g stroke="null" id="svg_9">
    <rect stroke="null" x="13.872" y="2.65091" id="svg_1" fill="#de2910" height="132.24627" width="194.4018"/>
    <use stroke="null" x="-0.01374" y="-0.77921" id="svg_2" transform="matrix(16.899292813535855,0,0,16.84243928998024,42.62410042730718,41.48279066770155) " xlink:href="#s"/>
    <use stroke="null" id="svg_3" x="1.19875" y="-4.6425" transform="matrix(3.987831705393095,1.388034200643951,-1.695712016480619,3.2642611125597214,52.849158365083795,29.850055810368726) " xlink:href="#s"/>
    <use stroke="null" id="svg_4" x="14.08534" y="0.96794" transform="matrix(3.0172937359119283,2.545980887912593,-3.1103343011004165,2.4698220323559186,34.67969606671066,-14.797780485134911) " xlink:href="#s"/>
    <use stroke="null" id="svg_5" x="12.39128" y="4.19746" transform="matrix(1.485985607510332,3.332042047628884,-4.070637263088829,1.2163615194340964,72.84173049817652,-12.298681926119297) " xlink:href="#s"/>
    <use stroke="null" id="svg_6" x="13.17818" y="7.14497" transform="matrix(4.0547143083888,1.2514886895345145,-1.5288992218986555,3.3190082273314876,22.992060053768157,0.9829027395155652) " xlink:href="#s"/>
   </g>
   <g stroke="null" id="svg_18">
    <g stroke="null" transform="matrix(0.21146655378796947,0,0,0.20356239120693623,-105.6052057359819,-85.3798350030519) " id="svg_13" fill-rule="evenodd">
     <path stroke="null" id="svg_14" fill="#fe0000" d="m755.08235,671.53535l900,0l0,600l-900,0l0,-600z"/>
     <path stroke="null" id="svg_15" fill="#000095" d="m755.08235,671.53535l450,0l0,300l-450,0l0,-300z"/>
    </g>
    <path stroke="null" id="svg_16" fill="#fff" d="m101.64943,58.95309l-11.89499,42.73345l32.49776,-31.28306l-44.39275,11.45038l44.39275,11.45038l-32.49776,-31.28306l11.89499,42.73345l11.89499,-42.73345l-32.49776,31.28306l44.39275,-11.45038l-44.39275,-11.45038l32.49776,31.28306l-11.89499,-42.73345"/>
    <circle stroke="#000095" transform="matrix(0.21146655378796947,0,0,0.20356239120693623,-105.6052057359819,-85.3798350030519) " id="svg_17" stroke-width="7.5" fill="#fff" r="60" cx="980.08236" cy="821.53534"/>
   </g>
  </g>
 </g>
</svg>