<?xml version="1.0" standalone="no"?>
<!DOCTYPE svg PUBLIC "-//W3C//DTD SVG 20010904//EN"
 "http://www.w3.org/TR/2001/REC-SVG-20010904/DTD/svg10.dtd">
<svg version="1.0" xmlns="http://www.w3.org/2000/svg"
 width="1280.000000pt" height="1208.000000pt" viewBox="0 0 1280.000000 1208.000000"
 preserveAspectRatio="xMidYMid meet">
<metadata>
Created by potrace 1.15, written by Peter Selinger 2001-2017
</metadata>
<g transform="translate(0.000000,1208.000000) scale(0.100000,-0.100000)"
fill="#CCCCCC" stroke="none">
<path d="M10084 12062 c-22 -11 -56 -38 -76 -61 -19 -22 -38 -41 -41 -41 -3 0
-9 16 -13 35 -7 40 -18 50 -60 59 -46 10 -64 -12 -64 -80 0 -48 -2 -54 -21
-54 -12 0 -37 -10 -56 -21 -19 -12 -36 -19 -38 -17 -3 2 0 20 5 39 14 47 13
65 -6 83 -27 28 -66 19 -133 -30 -50 -36 -76 -48 -121 -54 -31 -4 -75 -17 -97
-29 -54 -27 -128 -111 -149 -169 -31 -83 -66 -108 -128 -91 -33 9 -40 7 -108
-39 -96 -65 -125 -95 -140 -147 -10 -31 -28 -56 -69 -91 -54 -47 -114 -113
-231 -254 -30 -36 -83 -87 -118 -114 -43 -31 -71 -62 -82 -86 -9 -21 -67 -91
-128 -155 -62 -64 -120 -135 -131 -158 -20 -46 -24 -93 -9 -117 7 -11 -3 -21
-48 -45 -79 -42 -106 -84 -99 -153 3 -30 13 -64 21 -77 17 -26 12 -33 -54 -73
-58 -34 -83 -67 -78 -100 4 -28 -1 -33 -95 -88 -175 -104 -271 -197 -284 -276
-11 -71 4 -72 92 -7 139 104 197 123 203 68 2 -21 -8 -36 -49 -73 -88 -79
-139 -96 -233 -76 -50 10 -64 9 -124 -10 -142 -46 -322 -141 -610 -323 -152
-96 -173 -113 -167 -131 12 -42 17 -95 11 -121 -4 -15 -26 -48 -50 -73 -36
-40 -45 -57 -54 -112 -6 -36 -17 -95 -23 -131 -17 -90 -12 -99 53 -99 69 0 98
-9 98 -28 0 -9 -44 -57 -97 -108 -87 -82 -96 -93 -83 -108 7 -10 25 -23 39
-31 26 -13 42 -10 115 20 17 8 19 5 13 -31 -6 -39 -21 -57 -94 -114 -32 -25
-37 -43 -34 -127 2 -50 42 -88 119 -113 37 -12 83 -31 101 -42 89 -51 272 34
565 262 101 79 111 90 147 163 22 42 41 77 44 77 2 0 14 -20 25 -44 14 -32 20
-66 20 -119 0 -91 23 -227 51 -302 11 -31 41 -86 64 -121 37 -55 43 -69 35
-90 -17 -45 -11 -63 30 -90 25 -17 40 -34 40 -47 0 -32 44 -99 93 -140 45 -37
45 -38 51 -115 13 -157 27 -287 34 -294 4 -3 45 1 92 11 97 19 90 11 110 146
7 44 18 91 25 105 12 23 18 25 92 25 64 1 87 5 128 27 127 66 274 284 275 406
0 20 -7 94 -17 164 -26 195 -19 208 168 309 113 61 160 95 167 122 3 11 25 60
49 109 55 114 55 124 1 138 -75 19 -74 18 -35 58 20 21 37 43 37 50 0 19 -34
31 -137 48 -141 22 -138 21 -151 49 -16 35 -15 94 3 188 8 43 15 99 15 123 0
41 10 60 112 207 225 324 399 555 493 654 31 32 46 41 63 36 28 -7 28 -7 -8
107 -16 52 -30 103 -30 112 0 22 17 31 115 58 111 31 109 29 80 72 -39 58 -34
71 49 127 l74 50 89 -40 c48 -23 107 -50 131 -61 42 -20 102 -71 102 -88 0 -5
-14 -11 -31 -15 -42 -9 -102 -66 -138 -129 -32 -56 -77 -183 -87 -245 -5 -33
-11 -40 -32 -43 -37 -4 -51 -32 -28 -57 17 -19 17 -20 -12 -35 -17 -9 -61 -50
-99 -92 -37 -42 -87 -87 -110 -101 -36 -21 -43 -30 -43 -55 0 -17 -11 -52 -25
-80 -25 -49 -25 -50 -11 -136 8 -48 19 -127 26 -177 13 -105 35 -227 48 -271
24 -79 37 -91 173 -159 73 -35 138 -70 145 -76 9 -7 40 -10 81 -7 97 6 168 42
376 190 196 140 281 186 362 197 65 9 106 39 251 187 108 109 170 194 235 322
52 104 61 172 29 234 -43 84 -115 142 -207 167 l-42 11 15 36 c10 24 13 50 9
74 -5 33 -2 45 25 82 l32 43 -87 7 c-48 3 -92 9 -100 11 -7 3 -16 27 -20 52
-6 43 -10 49 -43 62 -20 8 -47 28 -59 45 l-21 30 45 129 46 129 -110 117 c-60
65 -117 129 -126 143 -21 31 -21 64 0 152 l17 71 -70 67 c-51 48 -82 70 -116
79 l-46 13 -32 131 c-17 73 -32 137 -33 142 -1 6 20 15 47 22 40 10 63 25 118
80 l69 68 -22 18 c-14 11 -39 17 -73 17 -29 0 -61 6 -72 14 -18 14 -18 15 6
24 36 14 52 36 48 68 -3 25 1 28 47 41 83 23 80 21 56 47 -35 38 -136 86 -188
92 -35 3 -59 -1 -89 -14z"/>
<path d="M3056 11284 c-3 -9 -6 -24 -6 -35 0 -24 -8 -24 -36 2 l-23 21 -67
-31 c-91 -43 -181 -98 -188 -116 -15 -40 26 -76 119 -105 58 -18 61 -25 21
-55 -30 -23 -41 -26 -76 -20 -63 11 -155 8 -179 -5 -27 -14 -41 -47 -34 -83 5
-26 8 -27 62 -27 79 0 121 -27 121 -76 0 -28 -8 -44 -35 -71 -34 -34 -38 -35
-89 -29 -63 7 -71 0 -78 -65 l-5 -47 55 -6 c83 -10 144 -49 229 -146 84 -95
148 -141 208 -148 24 -2 84 6 150 23 134 32 232 42 275 27 27 -10 38 -8 73 10
23 11 111 40 197 65 177 50 241 77 292 122 73 63 89 160 43 251 -30 60 -32 91
-5 108 26 16 26 59 0 92 -19 24 -20 25 -49 9 l-29 -17 -6 37 c-6 42 -36 78
-71 87 -39 10 -54 -2 -66 -51 -13 -50 -20 -55 -34 -23 -18 38 -40 44 -82 23
-21 -11 -41 -21 -45 -23 -5 -2 -8 4 -8 12 0 33 -59 56 -140 55 -94 -1 -122 -9
-135 -37 -14 -31 -27 -28 -15 4 13 33 13 71 0 79 -6 4 -34 3 -63 0 -52 -7 -53
-8 -82 -63 -28 -53 -33 -57 -68 -60 l-38 -3 31 60 c46 93 36 186 -27 241 -37
33 -87 40 -97 14z"/>
<path d="M10408 8669 c-88 -10 -236 -47 -322 -79 -32 -12 -93 -46 -135 -74
-97 -66 -103 -88 -39 -149 42 -40 43 -42 39 -100 -5 -96 24 -111 119 -62 33
17 34 17 51 -6 16 -21 16 -26 2 -52 -18 -36 -19 -135 -3 -230 15 -81 3 -119
-40 -137 -61 -25 -124 7 -195 101 l-46 59 -69 0 c-38 0 -80 4 -94 10 -22 8
-29 5 -60 -32 -66 -77 -189 -344 -182 -395 2 -16 13 -49 25 -74 11 -25 28 -93
37 -150 14 -93 19 -107 46 -133 31 -28 32 -28 123 -22 105 8 105 8 105 -70 0
-28 -9 -63 -25 -95 -22 -43 -25 -57 -19 -113 l6 -63 -40 -10 c-39 -10 -40 -10
-56 24 l-17 35 -87 -6 c-135 -10 -249 -26 -339 -48 -96 -23 -103 -20 -202 62
-39 32 -70 50 -87 50 -45 0 -205 -59 -309 -114 -55 -30 -152 -81 -215 -115
-63 -34 -137 -69 -163 -79 -28 -10 -74 -39 -108 -70 -54 -49 -59 -52 -59 -30
0 37 -25 63 -82 88 -29 12 -54 24 -56 25 -2 2 8 14 22 28 14 15 26 36 26 49 0
37 -52 130 -85 150 -39 24 -48 23 -84 -8 -38 -32 -40 -66 -6 -84 33 -17 32
-24 -8 -54 -76 -58 -198 -87 -264 -63 -20 7 -27 2 -54 -41 -30 -49 -31 -49
-67 -41 -20 5 -40 9 -44 9 -5 0 -8 16 -8 35 0 34 -1 34 -67 54 -38 11 -92 25
-120 31 -29 7 -53 15 -53 18 1 4 7 18 15 32 8 14 14 42 15 63 0 37 -2 39 -62
67 -35 17 -69 30 -76 30 -8 0 15 31 50 69 66 72 147 198 175 274 15 41 23 47
99 85 110 55 102 76 -36 102 -30 6 -58 14 -63 19 -5 5 4 44 23 93 30 76 52
208 36 208 -24 0 -110 -56 -124 -81 -15 -26 -22 -29 -67 -29 -27 0 -79 -3
-115 -6 l-65 -7 -50 -69 c-27 -37 -51 -75 -53 -83 -6 -25 26 -28 61 -6 46 28
108 36 162 21 25 -7 45 -16 45 -20 0 -14 -91 -51 -139 -57 -28 -3 -72 1 -110
11 -35 9 -66 14 -69 11 -3 -3 -6 -97 -6 -208 -1 -193 0 -204 22 -238 19 -31
22 -50 22 -127 0 -98 19 -169 64 -235 21 -31 22 -37 10 -66 -16 -38 -56 -60
-78 -42 -22 18 -36 5 -36 -33 0 -18 -5 -47 -11 -65 -10 -27 -15 -31 -49 -31
-34 0 -44 6 -89 57 l-50 56 -57 -44 c-31 -24 -61 -51 -67 -60 -8 -13 -17 -14
-46 -8 -77 19 -259 -17 -324 -63 -31 -22 -31 -18 -11 -143 4 -32 1 -46 -16
-68 -20 -25 -28 -28 -74 -25 l-51 3 -10 89 -10 88 -33 -53 c-18 -30 -55 -92
-83 -139 -63 -106 -94 -139 -194 -205 -86 -56 -135 -98 -135 -115 0 -5 -7 -10
-15 -10 -18 0 -253 -96 -271 -111 -9 -7 -19 -7 -31 -1 -22 12 -184 0 -225 -16
-30 -12 -45 -38 -88 -148 -47 -122 -87 -161 -197 -194 -34 -10 -48 -10 -73 0
-42 17 -63 5 -120 -70 -50 -68 -73 -74 -138 -41 -48 25 -65 54 -67 116 -2 27
-3 51 -4 52 0 1 -23 -5 -51 -13 -47 -14 -52 -14 -88 7 -45 26 -61 22 -97 -24
-33 -45 -37 -120 -7 -171 17 -29 18 -40 10 -84 -6 -28 -19 -60 -30 -72 -19
-20 -27 -21 -117 -15 -53 4 -103 8 -111 11 -8 2 -27 24 -42 49 l-27 45 -238
-5 -238 -5 -28 -32 c-15 -18 -27 -38 -27 -45 0 -7 19 -22 42 -34 l43 -22 -44
-19 c-24 -10 -54 -21 -67 -24 -13 -3 -24 -10 -24 -16 0 -21 31 -67 69 -101 40
-36 42 -37 100 -31 52 6 64 3 111 -22 64 -35 120 -102 167 -200 27 -57 42 -75
71 -90 20 -11 39 -20 41 -21 2 -2 -8 -21 -23 -43 -14 -22 -26 -42 -26 -46 0
-4 14 -34 30 -68 23 -47 34 -89 46 -181 8 -66 22 -146 30 -177 14 -56 14 -57
-12 -95 -33 -49 -109 -209 -165 -348 -41 -103 -49 -115 -124 -190 -66 -66
-202 -179 -251 -208 -6 -4 -43 4 -81 17 -39 13 -135 38 -214 56 -280 62 -332
78 -470 144 -137 66 -220 92 -266 83 -14 -3 -44 3 -67 13 -22 10 -80 25 -128
34 -93 16 -124 29 -198 82 -33 23 -58 34 -83 34 -51 0 -64 -7 -97 -55 l-29
-42 -90 -6 c-134 -8 -180 -37 -210 -130 -12 -34 -10 -41 13 -83 14 -26 26 -53
26 -62 0 -8 -22 -41 -49 -71 -26 -31 -51 -65 -55 -77 -6 -19 -44 -50 -213
-173 -40 -29 -73 -57 -73 -61 0 -5 9 -25 21 -45 29 -49 19 -76 -49 -128 -91
-71 -114 -100 -119 -151 -5 -44 -14 -54 -269 -313 -145 -147 -264 -271 -264
-276 0 -5 7 -36 16 -70 18 -71 43 -122 80 -166 26 -32 27 -33 11 -66 -9 -19
-41 -52 -72 -75 -59 -44 -68 -67 -39 -108 30 -44 11 -85 -83 -183 -52 -54 -83
-93 -77 -99 5 -4 119 -27 254 -50 l244 -41 51 -48 c27 -26 88 -74 135 -106
149 -105 216 -188 236 -298 15 -83 88 -92 349 -43 237 46 377 54 539 32 91
-12 124 -20 141 -36 28 -26 47 -25 82 4 21 17 45 24 99 29 55 4 109 20 229 67
87 34 197 71 244 82 47 11 101 27 119 36 31 15 32 17 26 57 l-6 42 69 43 c37
24 124 73 192 108 106 56 125 70 138 99 26 64 27 122 3 203 -33 110 -30 177
11 246 43 71 144 167 297 283 67 50 150 118 184 150 80 74 108 88 203 100 67
8 101 21 249 93 l171 83 100 0 c55 0 106 4 112 8 7 4 19 29 26 55 13 43 17 47
52 53 46 8 65 31 65 80 0 27 -5 38 -18 42 -22 5 -32 45 -32 128 0 113 61 220
152 268 l43 23 115 -52 c180 -81 178 -80 246 -64 32 7 65 14 71 14 7 0 38 -23
69 -51 31 -28 72 -57 90 -65 45 -19 206 -19 242 0 15 8 92 83 171 166 128 135
147 151 171 147 34 -7 110 24 230 95 52 30 114 65 137 76 l41 22 55 -25 c30
-14 77 -31 103 -37 48 -12 51 -15 127 -129 91 -135 106 -173 114 -287 10 -135
49 -180 323 -362 123 -82 174 -123 249 -202 123 -129 162 -152 251 -150 59 1
74 -3 113 -28 37 -23 52 -42 82 -105 34 -71 40 -78 88 -100 29 -14 88 -30 132
-38 l80 -13 3 -35 c3 -49 34 -151 46 -154 6 -2 37 -8 68 -14 42 -9 68 -22 102
-53 74 -64 110 -139 171 -356 30 -105 31 -103 -45 -138 -32 -14 -37 -23 -49
-73 -7 -31 -25 -85 -39 -120 -24 -62 -25 -64 -7 -77 41 -30 101 -12 152 46 24
26 70 136 98 232 18 62 46 93 119 130 74 37 78 43 71 122 -9 107 -12 116 -39
116 -18 0 -99 46 -159 91 -19 14 71 208 130 278 l29 33 63 -16 c35 -9 91 -31
125 -49 58 -30 171 -130 195 -172 11 -20 11 -20 26 -1 24 31 29 97 10 144 -35
86 -95 125 -425 277 -168 77 -350 176 -350 189 0 6 20 36 45 66 25 30 45 58
45 61 0 16 -89 29 -197 29 -94 0 -132 4 -178 20 -182 63 -297 205 -329 407
-23 141 -49 179 -211 301 -55 42 -113 90 -129 107 -59 63 -70 129 -35 213 20
49 21 53 5 92 -22 55 -21 142 2 162 9 9 76 50 149 92 l132 75 45 -19 c24 -11
56 -21 70 -22 14 -1 26 -5 26 -8 0 -3 -15 -32 -33 -65 l-32 -60 28 -55 c15
-30 32 -74 37 -97 8 -30 15 -41 25 -37 20 8 75 93 75 116 0 11 14 34 31 51
l32 31 26 -34 c26 -35 50 -58 106 -104 29 -24 30 -27 30 -113 0 -48 5 -96 10
-105 6 -9 31 -32 57 -52 30 -23 49 -46 53 -66 8 -37 53 -75 127 -108 51 -21
59 -29 69 -63 l12 -38 57 0 c109 1 194 -40 320 -152 54 -48 82 -66 118 -75 77
-17 229 -105 301 -173 36 -34 40 -34 115 -15 23 5 26 3 26 -20 0 -19 6 -27 24
-32 23 -5 24 -8 19 -82 -5 -73 -3 -83 41 -196 l47 -118 -35 -67 -34 -67 17
-50 c23 -69 78 -141 159 -207 106 -87 129 -116 136 -169 5 -36 15 -53 38 -73
50 -42 107 -66 196 -85 l84 -16 -27 -18 c-15 -10 -33 -33 -41 -52 -13 -30 -13
-38 1 -64 18 -35 67 -73 114 -89 47 -15 193 -14 336 4 159 20 225 20 225 0 0
-32 -30 -73 -61 -84 -45 -16 -84 -14 -201 9 -133 26 -232 26 -278 1 -45 -24
-80 -89 -80 -151 0 -71 24 -94 126 -125 55 -17 88 -33 94 -46 6 -10 13 -74 15
-141 5 -106 8 -125 26 -144 27 -29 70 -46 105 -42 34 4 74 57 74 99 0 16 3 29
8 29 4 0 38 -43 76 -95 38 -52 72 -95 77 -95 16 0 37 45 43 94 3 27 8 52 11
54 3 3 36 -25 74 -61 43 -42 77 -67 91 -67 22 0 22 3 18 79 -5 94 -28 136
-102 191 -93 69 -87 60 -80 116 l7 52 93 -45 c133 -64 204 -62 204 8 0 35 -30
56 -127 93 l-73 28 0 74 0 75 28 -15 c16 -8 50 -20 77 -27 30 -7 70 -30 108
-61 71 -57 100 -67 136 -47 42 24 37 44 -28 112 -34 35 -61 71 -61 80 0 32
-79 93 -201 158 -148 78 -212 135 -258 232 -35 75 -49 127 -34 127 5 0 43 -11
83 -25 88 -30 106 -31 119 -6 16 29 -15 61 -127 129 -54 33 -117 81 -140 106
-47 51 -49 66 -32 191 14 97 18 105 45 105 31 0 68 -48 141 -183 81 -151 141
-199 178 -145 20 29 20 82 1 98 -25 20 -57 70 -47 70 6 0 40 -27 76 -60 69
-62 89 -70 121 -46 21 15 26 7 -90 142 -54 64 -21 63 86 -3 73 -45 93 -53 100
-42 21 34 5 68 -64 132 -32 29 -39 39 -19 26 45 -32 61 -19 90 67 13 38 33 79
44 91 23 25 127 63 170 63 16 0 65 10 111 21 63 17 99 20 161 16 47 -3 88 -1
102 5 13 6 27 9 30 6 3 -4 -11 -43 -30 -88 -35 -79 -44 -120 -28 -120 20 0
190 114 225 151 30 31 38 46 35 69 -2 26 4 34 52 65 90 57 134 74 286 116 171
46 195 57 211 99 l12 31 -117 56 c-121 58 -163 90 -341 260 l-76 73 33 60 c30
56 33 69 36 163 2 70 12 137 31 214 l28 112 -21 163 c-12 97 -17 165 -11 169
5 3 56 52 114 108 l104 103 -14 32 c-51 117 -85 199 -83 201 2 2 27 -2 56 -8
33 -7 55 -7 61 -1 5 5 15 50 24 100 27 164 92 266 202 316 41 19 67 23 151 23
l102 0 6 230 c3 127 9 367 12 533 l6 304 -26 -17 c-37 -24 -139 -16 -276 23
-191 53 -229 57 -309 33 -87 -26 -91 -26 -150 4 -27 13 -69 29 -93 35 l-45 12
10 55 c9 53 9 55 -22 87 -21 21 -39 57 -52 99 -19 64 -36 85 -109 137 -18 13
-22 29 -27 118 l-6 104 64 -42 c35 -23 68 -45 74 -51 17 -16 42 -10 59 16 10
14 28 30 42 35 53 20 17 128 -64 192 -26 21 -75 58 -108 82 -34 24 -75 61 -90
82 l-29 38 3 152 3 152 -31 35 c-37 43 -82 69 -217 126 -61 26 -120 59 -146
82 -50 44 -270 285 -305 334 l-23 32 21 64 c73 217 14 297 -241 327 -41 5 -94
19 -117 31 l-43 22 59 47 c64 51 103 98 96 116 -2 6 -19 20 -36 31 -17 11 -42
27 -55 35 -29 19 -29 35 1 63 13 12 26 33 30 47 4 14 14 42 23 63 16 36 15 39
-3 57 -17 17 -123 42 -164 39 -8 -1 -49 -6 -92 -10z"/>
<path d="M4150 8365 c-25 -8 -57 -27 -71 -42 -28 -30 -59 -101 -59 -135 0 -20
3 -21 65 -15 71 7 146 35 182 69 25 24 38 75 29 113 -6 22 -11 25 -54 24 -26
0 -67 -7 -92 -14z"/>
<path d="M4465 8273 c-50 -6 -113 -53 -251 -189 l-103 -101 -32 33 c-43 44
-88 59 -134 44 -19 -6 -35 -15 -35 -20 0 -5 18 -42 41 -84 27 -50 52 -82 75
-96 19 -12 34 -23 34 -24 0 -1 -42 -24 -94 -50 -111 -56 -181 -119 -197 -178
-15 -59 -8 -68 54 -68 96 0 147 -11 147 -31 0 -9 -35 -71 -78 -136 -43 -65
-81 -123 -85 -130 -6 -9 0 -9 25 -1 105 34 148 42 159 31 16 -16 -12 -62 -60
-98 -42 -31 -50 -51 -28 -77 40 -49 95 -59 202 -34 87 21 120 22 139 7 30 -25
16 -82 -37 -153 l-21 -28 22 -62 c38 -108 29 -140 -62 -226 -66 -63 -71 -63
-200 -1 -49 24 -89 37 -99 33 -21 -8 -22 -56 -3 -112 l15 -41 -42 -3 c-62 -4
-61 -30 2 -69 56 -34 61 -48 31 -96 -29 -48 -83 -78 -200 -113 -57 -17 -107
-34 -111 -38 -15 -17 -51 -123 -46 -135 4 -11 43 -15 157 -20 l152 -6 27 -32
c25 -30 31 -32 94 -33 37 -1 67 -4 67 -7 0 -11 -67 -67 -99 -83 -25 -14 -36
-13 -117 9 -49 14 -96 23 -105 20 -18 -6 -94 -84 -119 -123 -12 -17 -64 -39
-228 -93 -212 -71 -213 -71 -195 -91 48 -54 150 -62 321 -23 61 14 125 25 142
25 23 0 33 -6 42 -25 6 -14 15 -25 20 -25 4 0 30 16 57 35 98 71 147 78 212
29 43 -31 73 -30 189 6 51 17 97 30 102 30 4 0 21 -20 38 -45 42 -61 93 -99
123 -91 28 7 47 44 47 92 0 29 3 34 18 30 96 -29 202 -33 306 -11 95 20 226
95 226 130 0 21 -35 44 -95 65 -33 11 -63 24 -68 29 -5 5 13 24 40 44 27 19
57 45 67 56 11 12 29 21 40 21 53 0 197 90 246 153 19 24 21 31 10 57 -17 41
-81 97 -127 109 -21 6 -86 11 -145 11 -63 0 -108 4 -108 10 0 5 23 67 51 137
89 218 81 304 -37 412 l-65 60 6 44 c8 53 -2 63 -50 47 -35 -12 -75 -1 -75 20
0 6 18 52 39 103 48 113 57 157 41 198 -13 30 -55 59 -85 59 -10 0 -29 9 -45
20 -15 11 -39 24 -54 30 -26 9 -26 10 -12 45 27 64 73 118 220 263 139 137
166 173 152 207 -14 38 -140 45 -326 20 -58 -8 -109 -15 -115 -15 -22 0 99
109 222 201 72 54 134 103 137 107 2 4 1 14 -4 22 -7 12 -41 15 -167 16 -87 1
-176 -1 -198 -3z"/>
<path d="M3392 7334 c-66 -17 -101 -35 -131 -68 -16 -17 -35 -26 -56 -26 -40
0 -74 -32 -56 -54 6 -8 27 -17 46 -20 30 -6 35 -11 35 -35 0 -23 -7 -31 -41
-46 -33 -15 -44 -16 -57 -7 -71 52 -203 76 -276 52 -47 -15 -106 -66 -106 -90
0 -11 9 -25 19 -32 11 -8 25 -26 32 -41 16 -36 1 -52 -64 -67 -82 -18 -87 -21
-87 -34 0 -21 39 -65 72 -82 17 -9 62 -21 102 -28 l71 -12 -56 -19 c-67 -21
-101 -15 -117 21 -17 35 -34 26 -54 -30 -9 -27 -19 -50 -22 -53 -3 -3 -26 2
-52 11 -26 9 -56 16 -66 16 -27 0 -58 -36 -58 -68 0 -22 7 -32 32 -43 l32 -15
-62 -14 c-34 -7 -67 -19 -73 -26 -12 -14 -1 -42 25 -64 23 -19 20 -32 -20 -78
-19 -23 -34 -49 -32 -58 2 -10 44 -34 103 -61 l100 -44 120 11 c179 16 351 39
430 57 146 33 290 105 355 179 67 77 116 215 108 302 l-5 47 96 65 96 65 1
115 c1 88 -2 125 -16 160 -23 58 -39 68 -85 51 -24 -8 -40 -9 -48 -3 -7 6 -34
16 -61 23 -42 10 -47 14 -43 35 4 22 1 24 -37 23 -22 0 -65 -7 -94 -15z"/>
<path d="M6315 2544 c-153 -125 -171 -145 -191 -226 -11 -42 -19 -108 -19
-154 0 -70 4 -86 26 -120 32 -48 119 -99 154 -90 33 8 99 98 131 176 51 126
68 299 40 394 -14 44 -41 87 -55 85 -3 0 -42 -29 -86 -65z"/>
<path d="M6240 1855 c-25 -20 -88 -60 -141 -90 -127 -72 -133 -84 -131 -283 1
-121 -3 -161 -24 -255 -28 -123 -36 -229 -17 -248 9 -9 24 -8 65 1 41 10 65
25 110 67 58 56 80 62 108 28 7 -8 16 -15 21 -15 11 0 46 71 88 177 l33 82
-27 70 c-33 82 -29 111 19 140 41 26 50 72 35 176 -10 76 -55 179 -79 182 -8
2 -35 -13 -60 -32z"/>
<path d="M8067 699 c-31 -4 -122 -27 -202 -50 -178 -51 -253 -52 -348 -5 l-58
28 -67 -20 c-37 -11 -93 -25 -124 -32 -84 -17 -119 -44 -143 -112 -23 -68 -17
-84 53 -141 73 -58 201 -120 444 -213 123 -47 261 -102 307 -122 l84 -36 24
30 c52 63 58 83 53 184 -9 213 -7 263 16 295 28 40 43 89 46 150 3 57 3 57
-85 44z"/>
</g>
</svg>
