<?xml version="1.0" encoding="utf-8"?>
<!-- Generator: Adobe Illustrator 21.0.0, SVG Export Plug-In . SVG Version: 6.00 Build 0)  -->
<svg version="1.1"
	 id="svg3642" inkscape:version="0.48.2 r9819" sodipodi:docname="Map_of_India.svg" xmlns:cc="http://creativecommons.org/ns#" xmlns:dc="http://purl.org/dc/elements/1.1/" xmlns:inkscape="http://www.inkscape.org/namespaces/inkscape" xmlns:rdf="http://www.w3.org/1999/02/22-rdf-syntax-ns#" xmlns:sodipodi="http://sodipodi.sourceforge.net/DTD/sodipodi-0.dtd" xmlns:svg="http://www.w3.org/2000/svg"
	 xmlns="http://www.w3.org/2000/svg" xmlns:xlink="http://www.w3.org/1999/xlink" x="0px" y="0px" viewBox="0 0 1792 1780"
	 style="enable-background:new 0 0 1792 1780;" xml:space="preserve">
<style type="text/css">
	.st0{fill:#CCCCCC;}
</style>
<sodipodi:namedview  bordercolor="#666666" borderopacity="1" gridtolerance="10" guidetolerance="10" id="namedview3811" inkscape:current-layer="svg3642" inkscape:cx="996.14712" inkscape:cy="943.66424" inkscape:pageopacity="0" inkscape:pageshadow="2" inkscape:window-height="1156" inkscape:window-maximized="0" inkscape:window-width="1765" inkscape:window-x="71" inkscape:window-y="0" inkscape:zoom="0.50214133" objecttolerance="10" pagecolor="#ffffff" showgrid="false">
	</sodipodi:namedview>
<g>

	<g>
		<path class="st0" d="M372.6,865.8c0.2-0.1,0.5-0.2,0.7-0.3C373.1,865.5,372.9,865.6,372.6,865.8z"/>
		<path class="st0" d="M998.4,1024.1c-0.7,0.3-1.4,0.5-1.9,0.8C997.4,1024.9,998,1024.5,998.4,1024.1z"/>
		<polygon class="st0" points="1172.9,753.7 1172.9,753.7 1172.9,753.7 1172.9,753.7 1172.9,753.7 1172.9,753.8 		"/>
		<path class="st0" d="M1586.3,509.3c0-2.2-2.4-2.1-3.2-3.7c-0.4-0.9,0-3,0-4c0-2.2-0.2-2.5-2.1-3.7c-1.4-0.9-2.5-1.2-2.7-2.9
			c-1-0.3-1.7-0.7-2.5-1.4c-0.6-0.5-1.2-1.9-1.9-2.2c-1.3-0.5-4.8-0.1-5.9,0.2c-1.7,0.4-2.5,2.2-4.2,2.1c-1.3-0.1-1.9-1.7-3.2-2
			c-0.8-0.2-1.4,0.2-2.1,0.4c-2.7,0.8-3.5,1.3-6.2-0.2c-1.6-0.9-4-3-5.7-3.2c-1.9-0.3-4.3,1-6,1.9c-1.2,0.6-3.5,1.8-4.4,2.7
			c-1.2,1.2-0.3,2.2-0.9,3.8c-1-0.1-1.9-0.6-3-0.7c-1.3-0.2-2.5,0-3.7-0.3c-0.7-3.1,3.7-3.3,3.2-5.7c-1.8,0-1-4.4-0.4-5.5
			c1.6-0.1,2.3-1.4,3.1-2.3c1.7-1.8,0.5-1,0.6-3.2c0.1-3.3,3.8-3.4,5-5.2c0.3-0.4,0.1-1.3,0.5-1.8c0.4-0.5,1.3,0.2,1.5-1
			c0.2-1.2-4-3.1-4.8-4.1c-1.3-1.4-2.8-3.5-3.4-5.2c-0.5-1.5-0.2-3-0.9-4.5c-4.6-0.2-9.9,2.1-10,7c0,1.3,0.3,2.8-1,3.5
			c-1,0.5-1.9-0.2-2.3-1.2c-0.7-2,1.3-3.7,0.2-6c-1.4-0.1-2.7-0.5-4.2-0.6c0.1-1.2,1.2-1.8,1.5-2.9c0.5,0.1,1.2-0.2,1.7-0.1
			c0.1-0.9,3-5.7,3.8-6.2c1.2-0.6,2.6,0.7,3.2-0.8c0.4-1-0.6-2.2-0.5-3.2c-1.6-0.7-2.7,0-4.2,0.3c-2.4,0.4-3.4-1.1-4.5-3.3
			c-0.6-1.1-0.3-0.8-1.1-1.6c-0.9-1-2.3-1.2-3.1-2.1c-1.1-1.2-0.6-3.4-2.7-3.9c0,2.2-0.7,1.4-1.8,2.4c-0.7,0.6-0.3,1.2-0.8,1.8
			c-0.7,0.8-1.5,0.8-2.3,1.4c-2.4,1.7-5,3.2-7.5,4.6c-2.7,1.5-5.5,3-7.7,5c-1,0.9-3.3,1.9-3.2,3.3c0,0.5,1,1,1.2,1.8
			c0.1,0.5,0,1.2,0,1.7c-0.9,0.1-1.8,0-2.7,0.1c0.9,1.5,0.8,3.9-0.5,5.2c-1.1,1.1-3.3,1.3-4.8,1.4c-2.7,0.3-4.9-1.3-7.2-2.7
			c-2-1.2-3.8-1.6-6.2-1.7c-2.3-0.2-4.1,0.5-6.3,0.7c-3.3,0.4-4.8,0.1-7.6-1.9c-3.2-2.3-6.8-5.5-10.9-5.3c-0.2,2.9-0.1,4.4-2.8,5.5
			c-2.1,0.9-4.6,0.7-6.7,1.7c-2.7,1.1-3.4,3.4-5.5,5.3c-1.6,1.4-3.2,2.6-3.8,4.7c-0.3,0.8-1.3,5.2-2.3,5.2c-0.8,0.1-4-0.4-4.5,0.2
			c-0.9,1.1,1.7,2.5,1.3,3.8c-0.4,1.3-5,3.3-6.2,3.5c0.5,2.3-2.8,3.7-4.3,4.6c-1.1,0.7-1.7,1.1-2.6,2.1c-0.9,1.1-1.8,2.5-3.2,3
			c-1.6,0.6-3.4-0.1-5,0.2c-1.2,0.2-1.9,0.7-3,1.2c-2.2,1-4.6,1.9-6.8,2.9c-2.3,1-4.4,0.1-6.6,0.8c-2.1,0.7-1.3,3.4-1.3,5.5
			c0,2.5-0.1,4.1-1.3,6.3c-0.6,1-0.9,2.2-1.5,2.9s-1.3,0.9-1.9,1.6c-0.8,1-0.8,1.7-1.8,2.5c-0.8,0.7-2.3,0.9-3,1.7
			c-0.8,0.9-0.9,1.9-2.1,2.8c-0.8,0.6-1.7,1-2.5,1.5c-1.5,1-5,1.5-5.9,3.1c-0.6,1-0.1,1.9-1,3c-1,1.2-2.8,1.5-2.2,3.4
			c1,0.6,2.7,1,3.4,2c3.5,5.1-9.7,6.4-9,10.7c-1.9,1.4-4.8-0.3-7,1c-2.2,1.3-2.6,3.1-3.8-0.4c-1-0.3-2-0.4-3-0.2
			c0.1,0,0.3,0.1,0.5,0.2c0,0.8,0,1.6,0,2.4c-2.5,0.2-3.9,0-5.9,1.1c-1.1,0.6-2,0.7-2.8,1.7c-0.8,1-0.9,2.1-1.8,2.8
			c-0.9,0.7-1.9,0.4-2.9,0.1c-2.4-0.6-4.9-1.2-7.5-1.2c-2.6,0-5.2-0.1-7.8,0c-0.1,2,0.5,5.9-2.3,6.3c0.3,1.2,1.6,2.4,2,3.6
			c0.4,1.1,0.3,2.9,0.9,3.8c0.9,1.3,2.8,1.6,4.1,2.2c2.3,1.1,1.8,1.7,2.9,3.7c1.4-2.4,2.5-1.8,5.2-2c2.4-0.1,2.9-0.9,4.8-2
			c2.3-1.3,2.3,0.3,3.6,2c0.9,1.2,2.1,2.5,3.1,3.7c0.6,0.7,2,1.9,1.5,3c-0.3,0.6-1.6,0.6-2,1.3c-0.4,0.7,0.2,1.8-0.2,2.5
			c-0.5,0.9-1.7,0.7-2.3,1.6c-0.5,0.8-0.8,3.8-0.5,4.7c0.5,1.6,3.9,3.4,5.5,3.8c0.1,3.1,2.4,5.1,1.3,8.5c-0.8,2.5-3.9,2.6-6.5,2.5
			c0-0.3-0.1-0.7-0.1-0.9c-0.6-0.2-2.3-0.7-3-0.3c-1.2,0.7-0.4,0.7-0.4,1.7c0,1.9,0.4,3-1.5,4.2c-0.3-1.8,0.2-3.1-1.5-3.7
			c-2.5-0.8-2.5,1.2-3.5,2.2c-1.7,1.7-4.8,0.3-7,0.7c-2.2,0.5-3.5,2.5-6,2c0-1.1,0-2.1-0.1-3.2c-1,0-1.9-0.5-2.8-0.4
			c-0.4,0.1-1.7,0.6-2.2,0.8c-1.5,0.6-2.5,1.3-2.3,3.2c-2.4,1.1-6.1,1.2-8.8,0.8c-1.8-0.3-3.2-1.2-5.1-0.5c-2.3,0.8-2.6,1.8-5,1.5
			c-2.4-0.3-4.8-0.6-7.2-0.7c-2.7-0.2-5.8,0.5-8.2-0.5c-1.8-0.7-4.3-2.3-6-3.5c-1.7-1.1-3.3-2.2-5.3-2.4c-2.4-0.2-5.7,0.2-8.3,0.4
			c-0.1,2.9-0.1,4.6-3.1,5.6c-2.3,0.7-4.3,1.1-6.6,2c-2.2,0.8-3.9,0.8-6,1.4c-2.7,0.7-4.9,2.3-7.6,2.9c-2.8,0.5-6,0.5-8.9,0.4
			c-2.8-0.2-5.3,0.6-7.6,1.6c-0.5-1.6,1.1-2.8,1.9-3.9c-1.4-0.3-3.6-0.3-4.9-0.8c-1.6-0.7-2.7-2.8-4.4-3.3c-4.5-1.3-5.9,2.9-10,2.7
			c-2.2-0.1-3.5-0.4-4.7-2.3c-1.3-2-0.1-2.7-3.3-3.1c-2.5-0.3-2.8,0.2-4.6-1.4c-1-0.9-2.4-1.8-3.2-3c-0.9-1.3-0.5-3.1-1.5-4.3
			c-2.4-2.9-2.1-1.2-1.7-4.8c0.3-2.4-1-5,2.8-5c0.3-1.5,1.2-3.2,1.1-4.7c-0.2-2.1-1.3-1.9-2.7-2.9c-2.4-1.6-3-5.5-3.2-8.3
			c-0.1,0-0.3-0.1-0.4-0.1c-0.2-0.6-0.3-1.4-0.3-1.9c0.4,0.1,1-0.2,1.4-0.1c-0.2-2.1,1.5-3.6,2.2-5c0.7-1.5,1.2-3.8,1.3-5.4
			c-2.8-0.1-1-2.8-0.5-3.6c0.8-1.5,0.9-2.5,0.8-4.4c-3.5,0.3-2.1-1.7-2.2-4c-0.1-2.1-0.3-4.1-2.5-5c-0.7-0.3-2.6-1-3.3-1
			c-0.9,0-1.6,0.8-2.5,0.5c-1.9-0.5-0.1-1.4-1.2-2.5c-0.5-0.5-2.1-0.2-2.8-0.2c0.1,0.6-0.1,1.3-0.1,1.9c-0.7,0-1.5,0.1-2.2,0.1
			c0,1,0,2.1-0.1,3.2c-1.3,0.2-2-1.6-3.4-1.7c-0.4,1.2-1.1,1.9-1.7,2.9c-0.1,0.2-0.7,1.7-0.7,1.8c-1.9,1.3-0.9-1.6-1.7-1.8
			c-3.8-0.7-1.9,2.2-4.3,2.9c-1.1,0.4-5.1-1.5-4.7,0.3c-1.2,0.1-2.5,0-3.7,0.1c0,2.4,2.1,3.4,2.7,5.1c0.3,1-0.5,4.5-1,5.9
			c-0.4,1-1.1,2.1-1.5,3.2c-0.4,1.2-0.4,1.3-1,2.3c-0.5,0.8-0.6,1.9-1,2.8c-0.9,2-3.2,2.3-3.2,4.6c0,2,1.3,3.9,0.9,5.9
			c-0.3,1.5-1.4,2.5-1,4.3c0.6,3.2,1.8,4.7-1.5,6.3c0.2,0.2,1.5,0.7,1.6,0.7c0.7,2-0.8,8.1,0.6,9.4c1.1,1,2.8-0.3,3.8,0.9
			c1,1.2-0.6,3.4,1.9,3c0.1,1.7-0.2,3.6,0.1,5.3c0.4,2.3,1.6,2.8,2.8,4.7c0.8,1.2,2.9,4,2.4,5.5c-0.2,0.5-2.2,1.5-2.6,2.4
			c-0.6,1.2-0.5,2.8-0.5,4c0,4-0.4,4.9-4.6,4.6c0-0.5-0.2-1.2-0.1-1.6c-1.5,1.5-1.1,3.5-1.5,5.4c-0.4,1.7-1,4-1.8,5.5
			c-1.7,0.5-5.1-5.3-7.6-6.2c0.1,0.8-0.4,1.2-0.4,1.9c0-0.2-8.5,1.9-9.1,2c-1.3,0.2-2,0.9-3.1,1.3c-3.2,1-6.1-1.9-9-1.2
			c-3,0.7-1.5,4.2-3.7,5.1c-1.6,0.6-3-2.4-5.6-2.1c0-0.4-0.1-0.9-0.1-1.2c-1.5-0.7-3.5-0.3-5.2-0.4c-0.1-2.8-0.8-7.1-2.1-9.6
			c-1.7,0.3-1.2,2.4-2.6,3.3c-0.7,0.4-1.7-0.1-2.3,0.3c-0.9,0.5-0.7,1.1-1.3,1.7c-2.8,2.8-4.6,4.2-8.9,3.7c-0.1,0.7-0.6,0.9-0.8,1.5
			c-1.5,0.1-2.9-2.7-4.3-3.6c-1.8-1.3-4.1-1.8-5.7-2.7c-0.9-0.5-1.2-1-2.6-1.3c-1.2-0.3-2.1-0.3-3.3-0.7c-1.6-0.5-5.8-3.3-6.4-1.1
			c-2.6,0.9-5,0.4-7.3-0.9c-1.6-0.9-2.8-1.9-4.7-1.8c-1.9,0.2-1.5,0.6-3,1.7c-1,0.7-1.8,1.4-2.7,1.9c-0.4,0.3-2.5,2-3,2
			c-1.1,0-1.9-1.9-2.9-2.5c-1.2-0.9-2.8-1.2-4.3-1.1c-0.3-4.2,0.2-8.4-0.1-12.6c-2.3-0.2-5-0.4-7,0.5c-1.5,0.7-5.5,3.4-6,4.7
			c-2.2,1-2,2.1-4.9,2.1c-1.9,0-4.3,0.4-5.7-1.3c-1.4-1.7-0.1-4.1-2.3-5.1c-1.4-0.6-4.4,0.1-5.9-0.1c-1-3.4-3.6-4.8-6.8-6.2
			c-3.3-1.4-7.2-0.1-10.9-0.8c-4.9-0.9-3.3-4.8-2-8c0.7-1.7,0.8-3.2,0.4-5.1c-0.3-1.9-1.3-3.8-1.5-5.7c-5.2-1.3-13.5,1.1-17.4-3.5
			c-0.7-0.9-0.9-2.7-1.6-3.4c-1-0.9-2.7-0.3-3.9-0.7c-1.8-0.7-2-2.1-4.3-1.6c-0.9,2.5,0,2.8-2.7,3.3c-3.4,0.6-5.4,0.7-8.4,2
			c-1,0.4-1.8,1.4-2.9,1.7c-3.1,0.8-5.2-1.8-7.8-3c-3.9-1.8-8.3-1.3-12.5-1c-0.4,1.4-1.1,2.9-2.1,3.9c-1,1.1-3.5,1.6-4,3
			c-2.5,0.8-3.1-2.5-3.9-4c-0.8-1.4-1.8-2.8-3.6-3.4c-3-1.1-7.1,0.3-10.3,0.1c-0.3-3.3-7.5-1.9-10-2c-0.1-1.9,0.2-4,0-6
			c-0.3-2.1-1.8-3.6-2.4-5.6c-4.2-0.9-8.4,2.2-12.3,1.6c-2.5-0.4-2.8-2.2-4.4-3.9c-1.6-1.7-3-1.6-4.9-2.4c-3.2-1.3-6.5-3.3-9.9-4.8
			c-2.5-1.1-2.5-1.7-4.7-0.5c-1.4,0.8-2.4,3.1-4.4,2.5c-0.9-2.3-4.2-3.7-6.4-4.4c-2.4-0.7-4.3-1.6-6.6-2.6c0.1-0.5-0.2-1.4-0.1-1.9
			c-2.7-1.2-4.8-2.4-7.2-4.2c-2.5-1.8-3.5-4.4-6.7-3.2c0,0.2-0.1,0.4-0.1,0.6c-2.4,0.5-1.6-4.9-2.2-6.6c-0.8-2.5-2.2-4.9-4.5-5.7
			c-1.5-0.5-2.4-0.2-3.9-1c-1.1-0.6-2.1-1.3-3.4-1.9c-1-0.5-2.9-2.1-3.7-2.4c-1.2-0.4-3,0-4.2-0.1c0.1-0.7-0.2-1.6-0.1-2.2
			c-5.2-0.2-7.7-2.9-11.3-6.1c-1.7-1.5-2.4-4-4.7-4c-3.2-0.1-2.2,3.4-2.4,5.9c-2.3,0.3-2.8-3.1-4.7-3.9c-2.4-1-3.8,0.5-5.9-1.8
			c-0.9-1-1.1-2.3-1.9-3.4c-1.3-1.8-4.5-1.6-5.4-3.6c-1-2.2,1.2-4.7,2.6-6.2c2.5-2.7,4.2-5.8,5.9-9c1.3-2.3,1.9-6,3.7-7.6
			c0-0.6,0.3-1,0.4-1.6c1-0.1,2.2,0,3.2-0.1c0.4-1.3,0.2-2.5-1.2-2.7c-1-2.7-2.6-6-1.7-8.9c1.6-0.7,0.9-3.1,1.7-4.4
			c1.3-2.1,2.8-0.7,4.2-2.3c2.3-2.6-0.9-8.1,0.1-11c0.7-2,2.9-2,4.4-2.7c2.2-0.9,2.8-2.1,3.6-4.3c0.5-1.4,0.5-3.8,1.9-4.8
			c1.2-0.9,3.9-0.6,5.4-0.9c0.7-2.4,3.7-4.9,5-7.3c1.2-2.4,1.8-2.6,4.8-2.1c3,0.5-0.4-4.4-0.5-4.5c-1.3-1.6-1.9-2.9-4.3-3.3
			c-3.2-0.5-4,0.3-5.9-3c-1.3-2.2-1.3-4.6-3.7-5.3c-1.2-0.4-2.3-0.1-3.4-0.6c-1.9-0.9-2.7-2.4-4.6-3c-2.2-0.8-4.6-1.2-7-1.3
			c-1.9-0.1-5.4,0.3-6.6-1.4c-1.6-2.2-2.1-6.6-1.4-9.2c-2-0.1-2.8-1.6-3.7-2.9c-0.5-0.7-0.1-1.1-0.8-1.9c-0.6-0.7-1.9-1.3-2.8-1.5
			c-1.5-0.3-2.9,0.2-4.4-0.3c-1.5-0.5-5.7-5-5.7-6.9c-2.1-0.6-3.4-2.3-5.9-1.7c-1.8,0.4-3.1,2.1-4.9,2.4c0,0.2-0.1,0.4-0.1,0.6
			c-4.6,1.2-6.1-4.3-8.5-6.6c-1.4-1.3-3.7-1.1-4.9-3.1c-1-1.7-0.1-3.2-1.6-4.5c-4.3-0.7-2-4.9-3.2-8.5c-1.1,0.3-2.7-0.4-3.8-0.1
			c2.3-0.6-3.5-7-5.1-7.3c-0.2,0.9,0.4,2.8-0.2,3.6c-0.7,0.9-2,0.1-2.7,0.6c-2,1.4-0.3,2.9-1.5,4.8c-1.2,1.9-3.5,2.1-4.5,0.5
			c-1.1-1.6-0.8-4.7-1-6.6c-0.5,0.4-1.3,0.6-1.9,1c-0.7,0.6-1.9-5.9-1.8-6.6c0.4-1.8,1.6-2.2,2.4-3.7c0.8-1.7,0.5-5.3,0.3-7.3
			c-0.4-5.5-4.8-9.5-5.7-14.8c-0.1-0.9,0.1-2.5-0.4-3.2c-0.9-1.3-1.5-0.3-2.6-1.2c-1.6-1.3-1.2-3.2-1.1-5.1c0.1-1.2,0.5-2.4-0.2-3.5
			c-0.9-1.4-3.5-1.2-4-3.1c-0.5-1.8,1.4-2.1,2-3.3c0.5-1.1,0.5-2.8,0.3-4c-0.3-2.2-1-4-2.7-5.4c-0.5-0.4-2.6-0.7-2.8-1.5
			c-0.4-1.4,1.7-2,3-2.1c1-4,6.8-4.1,10-5c0.2-1.4,1.5-2,2.1-3.2c0.4-0.1,0.8-0.1,1.2,0c0.3,3.8-1.1,6.8-0.9,10.6
			c1,0.2,1.9,0.4,2.9,0.8c0.1,1.2,0,2.3,0.1,3.5c2.3,0.1,3.5,1.7,4.9,3.3c0.1,0.1,4.1,4,4,2.5c-0.2-2.8,1.3-2.8,2.8-4
			c0.3-0.3,1,0.1,1.4-0.2c0.4-0.3,0-1,0.3-1.3c0.6-0.6,0.6-1.4,1.5-2c0.4-0.2,4-0.6,4-0.6c-0.1-2.7,2.1-5.3,4.3-6.6
			c0.1,1.5,1.9,3,3.4,2.6c1.7-0.4,1.5-1.9,2.3-3.4c0.9-1.8,1.2-2,3.1-2.8c1.5-0.6,2.9-1.7,4.3-2.2c-1.7-2-0.7-4.3-2.2-6.3
			c-0.7-1-1.8-1.7-2.5-2.6c-0.7-1-1-2.2-1.7-3.3c-1.4-2.2-4-4.1-4.6-6.7c-0.7-3.4,0.9-5.3,2.4-7.6c4.4-7-6.3-5.9-10-6.4
			c-1.9-0.2-3.8-1.2-5.6-2.6c-2.4-1.9-4.2-4.6-4.7-7.1c-0.5-3,0.7-6.6-0.7-9.3c-0.1-0.3,7-0.7,7.2-0.7c0.8-2.1,0-2.2-0.7-3.6
			c-2.5-5-3.2-10.9-5.6-16c-0.1-0.2-0.2-0.5-0.3-0.7c0.8-0.7,3-2.8,4.4-3c1.5-0.3,2.1,0.8,3.3,1c1.1,0.2,2.3-0.3,3.3,0
			c2.3,0.5,3.6,1.7,6.3,1.4c2.3-0.3,4-0.5,6.3-0.4c-0.1-0.6-0.9-2.7-0.9-3c0.3-1.8,1.3-1.2,2.6-2c2.3-1.5,3.8-3.5,3.6-6.2
			c0-0.9-0.7-1.8-0.5-3.1c0.2-1.5,1.2-2.3,0.9-4c-0.2-1.4-1.6-3.8-2.6-4.9c2.5-0.4,4.5-1.1,7.3-1.1c1,0,3.9,0.5,4.7-0.3
			c0.9-0.9,0.1-3.2,0.3-4.4c0.5-2.4,3.6-4.3,5.7-5.6c2.5-1.5,5.3-1,8.3-1.1c0.2-3.4-0.2-5.8,1.7-8.5c0.9-1.3,1.4-2,2-3.4
			c0.6-1.6,0.5-3.3,2-4.1c0.2-3.5-1.4-10.4,3-11.3c2-3.6-0.5-8.4,1.1-12c0.9-2.1,3.3-2,1.7-5.1c-0.8-1.6-2.1-2.3-2.5-4.2
			c-0.7-0.3-1.3-0.8-1.9-1.1c-0.9-0.4-2.1,0-3-0.4c-1.8-0.9-2.9-3.4-3.9-5c-2.5-3.7-4.1-4.8-8.8-3.7c-4.6,1.2-7.1-0.5-11.4-1.8
			c-3-1-8.1-3.9-11.2-3.8c0.1-2.1-0.7-3.4-2.6-4c-2.5-0.7-3.7,1.6-5.7,1.4c-0.8,1.7-0.5,4-2.5,4.9c-1.6,0.7-5.1,0-6.7-0.2
			c-3.9-0.5-9.6-1.9-13.6-0.8c-2.2,0.6-3.9,2.7-6.3,3.3c-2.6,0.7-4.4,1.1-6.7,2.6c-1.2,0.8-1.9,1.4-3.3,1.8c-1,0.2-2.4-0.4-3.4,0
			c-1,0.4-1.5,1.8-2.4,2.3c-1,0.6-2.1,0.4-3.2,0.8c0,0.8-0.5,1.4-0.4,2.2c-2.9,0.2-6.4-0.8-9.1-0.2c-2.8,0.6-1.9,2.1-3.5,4
			c-0.8,0.9-1.4,1.2-1.9,1.2c-0.8,0-1.5-0.5-2.7-1c-2.5-1-2.3-0.2-4.7,0.5c-1.7,0.5-3.9,0.2-5.7,0.2c-1.8,0-3.6,0-5.3,0
			c-1.4,0-4.6,1.4-5.7,1c-0.6-0.2-1-0.5-1.1-0.9c-0.8-2,6.3-5.2,7.7-5.5c0.3-1.6,0-2.3-0.9-3.4c-0.4-0.5-1.3-0.1-1.8-0.6
			c-0.4-0.4-0.4-1.4-0.8-1.8c-2.3-2.2-4.1-1.5-7.1-1.9c-0.9-0.1-2.5-0.6-3.3-1.1c-1-0.8-1.1-2.3-2-3c-1.7-1.3-5.6-0.6-7.8-0.6
			c-3.9,0-5,0.1-7.7-2.7c-3.1-3.2-2-6.1-2.7-10c-0.4-2.1-1.5-4.4-3-5.9c-2.1-2.1-3.6-1.3-6.3-1.8c-4.5-0.8-4.8-4-6.6-7
			c-2.3-3.7-6.6-0.6-9.8-2.3c-1.6-0.9-2.2-2.7-3.3-3.9c-1.1-1.2-3-1.5-4.1-2.6c-1.3-1.4-2.7-4.3-3.5-6.1c-1.1-2.4-1.5-4.8-2.9-6.7
			c-2.8-3.8-7.3-8.2-12.7-5.9c-1.5,0.6-0.9,1.8-2.3,2.3c-1.6,0.7-2.9-0.5-3.3-1.7c-0.8-2.1,0-6.1,0-8.3c0-3.9-1.8-3.6-5.3-3.7
			c-3,0-5.4,0.2-7.9-1c-0.3-0.2-0.4-0.8-1.1-1c-0.6-0.2-1.7,0-2.3,0c-1.5,0-3-0.1-4.3,0.4c-3.2,1.1-5.7,3.2-7.1-1.3
			c-1.4-0.1-1.5-1.4-2.7-2c-1.1-0.5-3.5-0.1-4.6,0.3c-1.8,0.7-1.5,2.5-3,3.3c-1.5,0.7-2.5-0.7-3.7-1c-3.4-0.6-5.2,1.1-8,2
			c-3,1-5,1.8-8.3,2.1c-0.2,1-0.3,1.9-0.4,2.9c-4.4,0.3-6.8-1-10.9-2c-2.7-0.7-9.3-2.3-11.8-0.9c3.2,1.7,6.3-0.7,7.4,4.3
			c1,0.3,1.6,0.8,2.6,1.1c0.1,0.9,0.1,2,0,2.9c-1.4,0.7-2.7,0.7-4.3,0.7c-1.9,0.1-3.2,0.7-5,1c-3.9,0.7-6-1.3-9.3-2
			c-3.2-0.7-6.4,0.2-9.7,0.3c-1.4,0.1-3.8-0.5-5,0.1c-1.2,0.5-2.2,2.7-3.3,3.3c0.1,2.5-0.8,3.6-3.3,3.7c-0.5,2-1,3.9-1.4,5.9
			c-1.7,0.1-3.5,0-5.2,0.1c0.4,5.8-8.1,4.9-8.4,10.6c-0.3,0.3-0.4,0.3-0.7,0.7c-2.4,0.6-4-2.6-5.9,0.4c-0.7,1.1-0.3,2.5-0.5,3.7
			c-0.3,1.1-1.9,2.7-2,3.1c-0.2,1.2,0.7,1.1,1.1,2.4c0.7,1.9,0.3,3.4-0.1,5.4c-0.2,0.9-1.6,1.2-0.5,2.3c0.4,0.4,2.7,0.1,3.2,0.1
			c-0.6,2.9,3.9,1.7,3.8,4.9c2.2,0.1,2.4-3,5.2-2.2c0,0.2,0.1,0.4,0.1,0.6c2.4,0.5,3.8-1.7,6.3-1c0.5,0.2,0.3,1.2,1,1.4
			c0.5,0.2,1.2-0.1,1.7,0c1,0.2,2.2,0,3.3,0.1c0.1,1.8,1.8,3,2.4,4.3c0.5,1.2,0.1,2.9,0.7,4.3c0.9,2.4,2,0.8,3.4,1.9
			c1.5,1.2,0.6,3.4,3.2,2.8c0.8,1.9,3.1,0.7,4.7,1.6c1.1,0.6,1.5,1.9,2.6,2.6c0.9,0.7,2,0.8,3.1,1.1c3.9,0.8,7.9-1,11.3,1.4
			c0.1,0.7,0.1,1.8,0,2.5c-0.9,0.3-1.3,1-1.3,2c-3.6,0.2-4.4,8.7-1.3,10c0.9,0.4,2.1-0.2,3,0.1c1.5,0.6,1.2,1.8,2.4,2.5
			c1.7,1.1,4.1,1.4,5,3.7c2.3,0.1,4.7-0.7,5.6,1.4c0.8,2-0.7,4.4-1.4,6c-0.5,1-1,1.6-1.3,2.6c-0.2,1,0.4,2.4-0.2,3.4
			c-0.4,0.6-2,0.6-2.8,1.3c-0.6,0.5-1,2-1.4,2.6c-1.4,0.1-2.9,0-4.3,0.1c-0.9,0.1-1.5-0.1-2.3,0.3c-0.8,0.3-1.3,1.2-1.7,1.3
			c-1,0.4-3.7,0.2-4.4,1c-0.8,1-0.1,3.5-0.2,4.7c-0.2,1.9-0.5,2.7-1.3,4.4c-1.2,2.5-0.5,2-2.7,2c-1.8,0-7.3-1.1-8.7,0.3
			c-0.7,0.7-0.6,3-0.7,4c-0.1,1.8-2,6.1-0.4,6.7c0.2,3,0.1,5.8,1.1,8.6c0.3,0,0.6,0,0.9,0.1c0.3,5.1,0.1,9.9,1.7,14.6
			c0.8,2.2,1.7,4.5,1.4,6.8c-0.1,1-0.9,1.7-0.8,2.9c0.1,0.6,0.9,0.6,1,1.3c0.1,0.6,0,1.4,0,2c0,2.5-1.5,4.7-1.4,7
			c0.1,0.7,0.9,2.3,1.1,3.1c0.4,1.7,0.6,3.2,0.6,4.9c0,1.1,0.3,2.6,0,3.7c-0.3,1-2,2.2-2,3c-0.1,1.7,1,1.4,1.4,2.7
			c0.3,1.1,0,2.8,0.1,3.9c0.2,0,0.4,0.1,0.6,0.1c0.1,2.1-0.3,3.7-0.6,5.6c3.5,0.1,6.9,0.7,6.3,5c3.3,0.2,13.4,0,14.7,4.7
			c1.6,0.3,1.9,2.2,3.3,3c1.4,0.8,3.2,0,4.4,0.6c2.8,1.6,0.7,7.8,5.9,6.6c0.1-0.5,0.4-0.7,0.4-1.2c2.9-0.2,4.8,0.8,7.1,1.3
			c0.9,0.2,1.9,0.3,3.1,0.3c0.1-1.1,0-2.2,0.1-3.2c1.1-0.7,2.2-1.1,3.6-1c0.3,2.9-1.7,5-1.2,7.6c0.2,0,0.4,0.1,0.6,0.1
			c0.2,1.9,0.6,3-0.4,4.9c-0.4,0.7-3.5,2.7-0.6,3.4c0,1.3-0.2,2.7,0.7,3.6c1.8-2.6,7-1.8,10-1.7c0,1.2,0.6,2.2,1.1,3.2
			c0.4,0.1,0.9,0.1,1.2,0.1c0,0.2,0.1,0.4,0.1,0.6c0.7,0.2,1.8,0.2,2.6,0c0-1.1,0.5-1.7,1.6-1.7c0-0.2,0.1-0.4,0.1-0.6
			c0.9-0.1,2-0.1,2.9,0c0.1,1.8,2,2.3,1.8,4.2c1.3,0.1,3.1-0.3,4.3,0c1.6,0.5,5.1,3.4,5.4,5.1c0.4,2.6-1.1,6.4-1.2,9.1
			c0,1.9-0.4,2.3-1.8,3.5c-1,0.8-2.3,1.4-2.7,2.8c-3.7,0.2-7.3,0.3-11,0.3c-1.6,0-4.3-0.5-5.7,0.5c-1.2,0.9-1,3.2-2.8,3.3
			c0.1,4.4-3.5,2.7-6.5,3.7c-1.7,0.6-2.6,1.8-3.7,3.2c-1.3,1.5-0.9,1.7-1.5,3.6c-0.8,2.5-1.8,0.2-3.3,1.5c-1.2,1.1,1.6,5,2.1,6
			c1.3,2.3,2,4.5,1.9,7.2c-0.7,0.3-1.3,0.6-1.9,1.1c3-0.1,3.6,0.4,3.4,3.4c0,0.7-1.9,1.2-2.4,1.6c-0.9,0.8-2.1,2.1-2.6,3.2
			c-0.6,1.3-3.2,11.4-0.3,11.5c0,0.3,0.1,0.7,0.1,0.9c0.8,0,1.6,0,2.4,0c-0.1-0.4,0.2-1,0.1-1.4c1.2-0.5,2.8-0.5,3.9,0
			c0,0.7,0.3,2.2-0.2,2.7c-0.7,0.7-2,0-2.8,0.2c-1.3,0.4-0.8,0.9-1.6,1.8c-0.9,1-0.9,0.7-2.2,1.3c-1.1,0.5-1,0.3-1.8,1.5
			c-0.6,0.9-0.8,1.4-1.4,2c-1.5,1.5-2.8,3.1-4.2,4.8c-1.5,1.7-2.8,1.6-4.8,2.5c-2.7,1.1-1.4,2.3-2.2,4.5c-0.7,1.7-2.7,1.8-3.8,3.3
			c-1.5,1.9-1.6,2.5-4.2,2.5c-0.1,1,0,2.1-0.1,3.2c-1.7,0.4-2.2,3-3.9,3.3c0,0.1-0.1,0.3-0.1,0.4c-1.8,0.1-5.9-0.5-5.4,2.5
			c1.3-0.2,2.3,0.7,1.9,2c0,0.1-3,0.7-3.4,1.1c-2,2,0.1,3.8,1.9,4.5c0.2,3-0.2,5.7-0.7,8.4c-0.4,2.3,0,2.5-2.2,3.6
			c-1.9,1-3.5,1.8-4.6,3.6c-1.5,2.4-1.8,4.8-4.8,5c-2.7,0.2-5.4-0.6-8.1-0.7c-4,0-6.1,1.3-9.4,3.1c-0.4,5.8-2.1,10.8-4,16.4
			c-1,3-1.8,6.2-2.9,9.1c-1.1,3-2.6,5.9-4.8,7.8c-5.9,5.1-6.8,12.8-13.4,17.6c-5.1,3.8-11.1,4.9-16.2,8.9c-2.6,2-4.9,1.6-7.9,2.6
			c-5.1,1.7-7.8,7.4-10.1,11.9c-3.8,0.7-1,6-1.9,8.6c-1,2.6-2.6,3-5.1,4.4c-2.3,1.3-5,2.3-6.5,4.5c-3,4.4-2.6,9.8-6.7,13.7
			c-6.5,6-15.2,3.4-23.5,3.4c-4.9,0-9.1,0.5-13.4,2.3c-4.7,1.9-9.6,6.7-15,5.4c-3-0.7-8.3-6.2-9-9.2c-1-4,0.8-5.9-2.1-8.5
			c-6.6-5.7-15.9-0.3-20.5,4.9c-1.2,1.4-1.4,3.3-2.5,4.6c-2.4,3-4.5,5.7-6.8,8.8c-2.4,3.1-5.8,7.8-8.8,10.1c-3.5,2.7-8,4.7-11.8,7.2
			c-5.8,3.9-4.9,6.2-6.1,12.9c-0.5,2.9-2.3,4.2-3,7c-2.4,9.8,4.9,10.1,11.1,14.9c1.3,1,2.2,2.2,3.5,3.1c1,0.8,0.9,1.8,2.4,2.1
			c1.3,0.3,1.1-1.3,2-1.4c3.4-0.4,8.3,0.6,11,2.5c3.6,2.5,2.5,7.1,2.5,11.4c0,2.5,0.2,4.1-1,6c-1.2,1.9-2.9,2.4-4,4.1
			c-1.4,2.2-2,8.9-0.9,11.5c0.8,1.8,2.7,1.9,3.3,3.1c0.7,1.5,0.1,4.2,0.2,5.8c3.5,0.7,1.9,2.2,3.4,3.6c1,0.9,2.6,1.5,4,2
			c3.5,1.1,7.1,1.5,11,1.5c6.3,0,6,1,6,7c0,4,0.4,7.3,1.5,11c1.1,3.6,2.8,7.1,4.5,10.5c1.6,3.3,4.2,5.5,5,9c1,4.6,2.9,5.5,5.4,9.5
			c2,3.1,7.8,9.3,7,13c-2.5-0.1-5.8,0.4-6.1,3.4c0.5,0.1,0.7,0.4,1.2,0.5c0.2,3-1.4,5.8-0.9,8.6c2.4,0.2,4.8,0,7.2,0.1
			c0,0.2,0,0.7,0,0.9c-0.5,0.4-0.6,0.7-1,1c-1.8,0-3.8,2.2-5.3,3.4c-1.1-1-2.8-0.8-4.3-0.7c0,0.2-0.1,0.4-0.1,0.6
			c-2.9,0.2-4,2.3-4.1,5c-3.7,0.2-8.6,0.7-11.9-0.6c-4.5-1.8-1.6-6.6-2-10.6c-2.9-0.2-6-0.2-9-0.1c-1.2,0.1-3.1,0.2-4.3,0.7
			c-1.5,0.6-2.3,2-4,2.6c-1.5,0.6-2.7,0.6-4.3,0.7c-2.4,0.1-2.2,0.2-3.9,1.7c-1.7,1.5-3.8,2.8-5.7,4.4c-0.2,2.3-7.4,1.3-9.4,1.3
			c-4.8,0-6.4-0.9-9.1-4.7c-0.6-0.9-2.3-3.6-3.3-4c-1.2-0.5-4,0-5.3,0c-1.8,0-3.1-0.5-4.6-0.8c-1.7-0.4-2.6-0.8-3.1,1.7
			c-1.6,0.4-2-0.7-3.3-1.2c-1.7-0.6-1.4-0.5-3-0.1c-2.2,0.6-4.3,1.7-6.9,0.6c-0.8-0.3-1.9-2.1-2.8-2.2c-1-0.1-1.7,1.2-2.6,1.6
			c-3.6,1.5-3.6-1-4.4-3.6c-2-0.3-3.5,3.9-4,5.6c-2.5,0-1.8-5-2.6-6.6c-2.1-4.2-2.3,2-2.3,4c0,3-0.6,5.1-1.4,7.7
			c-0.8,2.4-0.4,5.4-1.7,7.6c-5.4,0.4-10.9,0-16.3,0c-1.1,0-2.6,0.3-3.7,0c-0.9-0.2-1.9-1.3-2.7-1.3c-2,0.1-1.1,1.3-2.3,2.2
			c-0.9,0.6-2.4,0.4-3.5,0.4c-0.5,1.2-1.6,1.4-2.1,2.6c-0.5,1.5,0.8,3.3-0.9,4.1c-0.5,1.8-1.2,3.5-1.8,5.6c0,0.1-0.5,0.1-1.3,0.2
			c0.2,0.3,0.4,0.6,0.3,1c-0.4,2.5-2.3,3-0.1,4.4c1.6,1,5.9,1.1,7.7,1.2c4.9,0.2,3.3-3.8,5.3-6.7c2-2.8,6-0.7,8.9-1.7
			c1-0.3,3.1-1.6,4-2.3c1.2-0.9,1.9-3.1,3.7-2.6c-0.8,1.3-0.7,3.8-1.5,4.7c-1,1.2-2.8,0.7-4.1,1.3c-1,0.5-2,2-3.1,2.7
			c-1.5,1-1.4,1.1-3.6,1.3c-1.7,0.1-2.1-0.1-2.5,0.6c-0.1,0.2-0.3,0.6-0.5,1.1c-0.7,1.9-0.5,6-0.3,8c1.7-0.6,3.4-0.1,3.9,1.8
			c0.6,2.2-0.7,1-2.2,2.9c1.9,0,4.2,0.9,5.9,1.7c2.6,1.2-1.9,3.2-1.3,5.6c2,0,2-2.8,3.9-2.9c0.1,1.5,0.1,2.4-0.6,3.6
			c-0.6,1.1-2.4,0.7-1.3,2.4c1.8-0.8,3.5-4,5.6-3.3c0,0.3,0,0.6,0,0.9c-2.8,0.2-1.8,4.4-4.2,4.1c1.5,1.9,2.6,2.7,3.4,5.2
			c3.2,0.1,6.5,4.7,9.3,6.1c3.7,1.9,6.6,3.3,9.7,6c1.4,1.2,3,2.4,4.4,3.6c1.5,1.3,2.7,3.3,4.7,3.9c3,0.9,8-1.2,8.2,3.7
			c1.1,0.1,2.3,0.2,3.4-0.3c-0.4-2.2,6.1-0.5,7.9-0.4c2,0.2,4,1,6.1,0.7c1.7-0.3,2.6-1.3,4.5-1.1c0-0.3,0.1-0.6,0.1-0.9
			c3.2-2.3,7.4-0.4,10.9-1.7c2.1-0.8,2.1-3,4.4-3.7c1.5-0.4,3.8,0.5,5,0c0.4-0.2,2.4-2.9,1.3-2.9c-0.9,0-2-0.1-2.9-0.1
			c-0.2-1.5,1.7-3,3.3-2.3c2.2,1,0.9,3.6,3.9,1.3c-0.3-3.7,4.2-5.6,7.3-5.2c-0.1,3.6,3.4,4.3,5.7,2.3c-0.8,1.3-1.2,2.4-2.4,3.6
			c-1.4,1.3-2.1,1.1-3,3c-1.5,3.2-2.4,5.9-2.6,9.7c-2.7,1-4.7,4.4-6.9,6.4c-0.9,0.8-2.9,1.8-3.4,3c-0.6,1.1-0.3,2.7-0.7,4
			c-2,0.1-4-0.5-5.9-0.2c-1.1,0.1,0,1.5-1.7,0.9c-1.2-0.4-1-1.9-2.3-2.4c-0.6-0.2-2.1,0.2-2.7,0.3c-1.4,0.4-2.6,1.2-3.9,2
			c1.1,0,2.1,0,3.2,0c-0.4,2.4-4.2,3.9-4.3,6.2c-0.8,0-1.4,0.5-2.2,0.4c0,0.2-0.1,0.4-0.1,0.6c-0.5,0.2-1.1,0.1-1.6,0
			c0.7-4-4.5-1.9-5.8-0.7c-0.5,0.4,0,1.1-0.5,1.5c-0.4,0.3-1.1,0-1.4,0.2c-1,0.8-2.5-0.3-2.1,1.9c-0.3,0.2-0.9,0.3-1.2,0.3
			c-0.1-0.7-0.6-1.4-0.5-2.2c-3-0.2-5.6,0.5-8.5,0.7c0.3,0.1,0.6,0.2,0.9,0.3c0.2,0.6,0.2,1.7,0,2.2c-2.6,0.8-2.2-2-4-2.3
			c-1.1-0.2-3,1-4,1.4c-1.5,0.6-3.3,0.5-4.8,1.2c-1.1,0.5-1.9,1.6-3.1,2.1c0.3-1.7,2.6-1.1,2.2-3.2c-5.7,0.4-0.8-4.7,0.4-7.3
			c-1.4,1.2-2.7-0.1-4.4,0.2c-1.1,0.2-1.9,1.5-3.3,1.3c-2-0.2-3.1-1.9-1.4-3.4c1.1-1,3,0.1,3-1.9c-1.5-0.1-3.6-0.5-4.6,0.6
			c-0.7,0.7,0,1.6-0.4,2.3c-0.5,1-1,0.9-1.3,1.9c-5.1,1.9,1.4,9.3,3,11.8c1.3,2.2,2.3,4.7,3.7,6.9c3.5,5.2,8.1,9.5,11.9,14.7
			c1.8,2.5,2.7,4,5.4,5.9c2.7,1.9,4.3,4.3,6.6,6.3c2.5,2.2,4,3.6,5.8,6.4c1.3,2.2,2.4,4.4,5.2,4.1c-0.4,0.4-0.2,0.6-0.9,1
			c0.4,5.5,7.4,11,11.3,14.3c2.3,2,4.2,4.3,6.6,6.1c1.8,1.3,2.9,1.7,4.4,3.3c1.1,1.2,2.2,2.5,3.4,3.6c2.3,2.2,5.2,2.9,7.6,4.9
			c1.2,1,2.1,2.5,3.4,3.4c1.6,1,2,0.7,4,1.1c2.9,0.5,4,3.9,7.3,3.7c0.7-0.1,1.2-0.4,1.7-0.7c0.2-0.2,0.4-0.3,0.6-0.4
			c0.1-0.1,0.3-0.1,0.4-0.1c0.2-0.1,0.4-0.1,0.7-0.2c1.8-0.1,2.5,1.1,4,1.7c2-1.1,4.8,0.3,6.5,1.6c1.3-1.7,4-1.8,4.8-3.2
			c2.9-0.2,5.6,0.3,7.9-1.1c1.7-1,2.1-2.1,4.4-2.4c1.3-0.2,2.7,0,3.9,0c1.3-2.1,2.4-3.3,5.1-3.6c1.8-0.2,5.8,0.3,5.6-2.3
			c-1.7,0.1-3.7,0.1-4.3,2c-1.8-2.7,4.2-3.8,5.7-3.7c3.1,0.2,5.8,0.9,8.3-1.1c1.3-2.1,3.6-1.8,5.7-2.2c2.2-0.4,3.9-1.2,5.7-2.5
			c1.8-1.3,3.2-3.5,5.6-3.2c0.1-1.1,0-2.2,0.1-3.2c0.3,0,0.6-0.1,0.9-0.1c1.7-4.2,4.2-6.8,7.3-9.7c3.1-2.9,2.2-7.1,2.5-11.2
			c2.4-0.6,1-4.7,0.9-6.4c-0.1-1.3,0.3-2.8,0-4c-0.2-1.2-1.2-1.8-1.4-2.6c-0.6-2.3,0.2-4.6,1.3-6.4c0.8-1.3,2.5-2.9,2.8-4.6
			c0.6-0.3,0.6-0.6,1.2-1.1c-1.4,0.2-3,0-4.2-0.7c1.9-1.2,2.2-3,2.7-5.2c2.4-0.4,3.1,1.9,5.3,1.9c2.5,0,1.9-2,4.6-1.7
			c0.1-0.4,0.1-0.8,0-1.2c-1.7-0.1-3.5,0-5.3-0.1c0.5-1.4,1.9-1.4,3.2-1.3c0.9-6.1,9.1,0.5,11.1,1.6c3.1,1.7,9.5,0.9,13-0.6
			c0.3-0.2,0.5-0.3,0.7-0.3c-0.2,0.1-0.4,0.2-0.7,0.3c-1.3,1-3.4,3.9-4.8,4.6c-2,1-1.9,0.1-3.7-0.4c-1.4-0.4-2.9-0.2-4.2-1
			c-2.7-1.7-3.3-5.9-6.3-1.7c-1.3,1.8-0.8,5.8-2.5,6.7c0.9,0.7,2.1,1.3,2,2.6c-2,0.4-2,5.9-1.9,7.7c1.2,0.1,2.4,0.1,3.6,0
			c0.8-2.1,9.1-2.6,11-1.5c-2.7,1-4.6,2.7-7.4,2.9c-1.9,0.1-5.4-0.9-6.5,1.4c-0.8,1.7,0,3.8,0.1,5.6c0,1.8-1.4,4.1-0.9,5.6
			c1,0.2,10.1,0.7,10.2,1.9c0,0.3,0,0.6,0,0.9c-3,0.2-6.3-0.4-9.3,0.4c0.5,0.4,0.6,0.7,1.3,1c0,0.8,0.5,1.4,0.4,2.2
			c2.4,0.1,4.5-0.2,6.3-1.6c1.7-1.3,2.2-2.7,4.6-1.8c-0.4,0-0.9,0.1-1.3,0.1c-0.3,2.2-2.9,3.5-4.1,5.2c-0.8,1.2-0.9,1.7-2,2.7
			c-1,1-2.9,0.5-2.2,2.7c0.2,0,0.4,0.1,0.6,0.1c0.2,2.2-0.1,3.5-0.9,5.4c-0.4,1-1.3,0.9-1,2.6c0.2,1.1,0.3,1.7,1.3,2.3
			c-1,1.1-1.6,2.4-1.2,4c1.5,0.1,5.1-0.6,5.2,1c-1.3,0.1-3,1.4-3.2,2.7c2.1,0.2,4.4-0.4,6.6-0.2c0.1,0.4,0.1,0.8,0,1.2
			c-1.5-0.1-2.9,0.2-4.2,1.1c1.8,0.9,1.2,3.2,1.3,4.9c2.1,0.1,4.3-0.6,6.3-0.2c-0.4,0.8-0.4,1.9-0.4,2.9c-2.1,0.2-3.8,0.8-5.8,1.4
			c0.6,1.1,1.3,3.5,2.3,4.3c1.2,0.9,2.5,0.6,4.2,0.7c0.5,2.7-2.3,2.1-3.9,3c-0.3,4.3-0.1,8.2-1.4,12.3c-0.2,0.7-0.7,1.5-1,2.3
			c-0.4,1.3-0.1,2.2-1,3.4c-0.6,0.8-1.8,0.8-2.3,1.6c-0.9,1.3-0.2,3.1-1,4.3c-1.2,1.6-4.3,0.5-4.8,2.2c-0.4,1.3,1.7,2.6,1.4,4.3
			c-0.6,2.8-2.2,1.1-3.3,3.3c-1.9,3.8,3.5,5.7,3,9.2c-0.8-1.1-1.9-1.5-2.1-2.9c-0.7-0.2-1.8-0.1-2.6,0c-1.2,1.6-0.5,2.5,0.3,3.9
			c0.1,0.1,2.3,2.9,2,3c-0.7,0.1-1.4,0.6-2.2,0.4c-0.1,2.8-1.3,4.8-1,7.6c4.2-0.4-1.2,10.1,0.7,10.3c0.9,0.1,2,0.1,2.9,0
			c0.1-1.2-0.6-3.8,1.1-4c0.6,0,2.7,2.7,3.6,3.1c-1.5,1.9-5.7,1.4-6.3,3.9c-0.4,1.7,1,1.9,1.3,3.1c0.3,1.4,0,3.1,0.1,4.5
			c2.2,0.3,4.7,0,6.9,0.2c-2,1.3-6.8-0.2-7.7,2.2c-0.4,1.1,0.7,7.1,1.6,7.4c0.1,1.1,0.1,2.2,0,3.2c-1.8,0.7,0.1,2.1-0.3,3.7
			c-1.6,0.6-1.7,5.5,0.7,5c0.9-2.1,2.1-3.5,2.4-5.9c1.5-0.1,3.1,0,4.6-0.1c0.6-1.6-0.5-6.5,1.7-6.2c-0.2,1.6,0.8,2.6,1.1,3.9
			c0.3,1.3,0,2.8-0.4,3.9c-0.8,0.1-2.5-0.3-3.3,0c-1.4,0.6-0.6,1-1.4,1.9c-0.9,1.1-4.2,3.8-1,4.8c-0.1,0.5,0.2,1.4,0.1,1.9
			c1.3,0.2,2.2-0.4,3.4,0c0.7,0.3,1.5,1.4,2.2,1.8c-1.2,1.1-4.2,0.6-5.9,0.5c0-0.3-0.1-0.6-0.1-0.9c-4.7-0.8-4.8,5.6-3.2,8.5
			c0.3,0.6,1.2,1.1,1.6,1.7c0.5,0.9,0.3,1.8,0.7,2.7c0.7,1.6,1.7,3.1,2.9,4.4c-0.5,0.1-1.4,0-1.8-0.1c-0.1-0.3-0.1-0.6-0.1-0.9
			c-0.4-0.1-0.8,0-1.2,0c-0.7,2.6-0.5,5.8-0.3,8.6c0.8,0.1,1.5,0.6,2.2,0.8c0.1,1.5,0.4,3.2-0.6,4.2c1,0.1,2,0.1,2.9,0
			c0.3-1.2,1.2-1.8,2.4-1.6c-0.7,1.7,0.1,3.1-0.3,4.3c-0.3-2.5-4.1-1.8-6.3-1.7c-0.6,3.4,1.6,2.9,3.6,4.3c0.4,1.9-1.3,3.8-1.9,5.2
			c0.6,0,1,0.4,1.6,0.4c0.1,1.8,0.8,6.6,3.6,5.7c-4.6,1.4-1.3,6.5,0.4,8.9c2.9,4,0.9,7.7,1.4,12.3c1.2-0.1,2.5,0,3.3,0.7
			c-0.8,0.8-2.2,1.1-3.1,1.7c1.3,3.7,3.9,10.4,0.7,13.9c1.1,0.1,2.2,0,3.3,0.1c0.4,1.9-1.2,1.2-1.6,2.3c-0.3,1-0.1,2.6,0,3.6
			c1.5,0.5,3.3,0.9,2.6,3c-1.6-0.1-2,1.3-1.6,2.7c2.7-0.1,0.5,5,0.7,7c0.9-0.1,1.5,0.4,2.2,0.4c0.4,1.7-1.2,1.8-2.6,1.7
			c2.2,2.7,1.8,9.5,2,12.9c0.1,1.7-0.4,4-0.4,6c0.1,2.6,1.3,4.5,1.7,7c0.3,2.1-0.2,4.3,0.6,6.4c1,2.4,1.4,4,1.7,6.7
			c0.1,1.1-0.1,3.2,0.1,4.3c0.3,1.2,1.7,1.7,1.9,2.5c0.4,1.8-1.6,2.9-2.5,4c0.3,1.9,1.7,2.1,3,3.2c1.1,0.9,2.1,2.2,3,3.4
			c1.9,2.8,2.2,6.2,3.7,9.2c1.4,2.9,2.7,5.8,3.9,8.8c0.9,2.2,0.9,4.6,2.8,6.2c0.9,0.7,5.4,2.1,6.5,2c-1.4,0.1-6.3,0.2-3.6,3
			c1.5,1.5,4.8-0.7,6.2,1.3c-1.6,0.1-3.9-0.4-5.2,0.5c2.4,4.4,5.5,8.3,5.1,13.9c-0.2,0-0.4,0.1-0.6,0.1c-0.4,1.7,1.7,2.6,2.5,3.9
			c1,1.6,1.6,3.1,2.8,4.7c1.3,1.8,0.8,3.4,1.6,5c0.8,1.7,3.3,1.8,3.6,3.3c-2,0.1-7-1.1-5.9,2.3c2.1,0.3,1.5,1.8,2.6,2.3
			c1.1,0.5,2.9-0.4,4,0c1.3,0.5,1.3,2.2,2.3,2.7c1.2,0.6,2.6-0.7,3.6,0.8c0.6,0.8,0.1,3.1,0.5,4.1c0.5,1.2,1.3,1.1,1.6,2.8
			c0.6,2.9,0.5,5.1,4.3,4.7c0.5,1.2-1.4,1.6-1.6,2.8c-0.2,1,0.8,2.5,1.1,3.5c0.4,1.1,0.7,1.8,1.3,2.8c0.6,1.2,1.9,0.8,1.3,2.9
			c-0.2,0-0.4,0.1-0.6,0.1c-0.1,0.4,0,0.8,0,1.2c3.5,0.1,1.1,6.9-0.1,8.4c2.7,1.5,6.4,5.9,7.7,8.6c0.4,0.9,0.6,2.3,1,3.4
			c0.4,1,0.8,1.1,1,2.3c0.4,1.8-0.1,4.1,0.1,5.9c1.5-0.1,4.1-0.1,3.6,2c-4.5,1.6-1.2,3.5-0.6,6.7c0.6,3.2,0.6,5.7,0.3,8.6
			c-0.6,0.1-3.8,1.2-3.9,1.8c-0.2,1.1,1.8,1.4,2.6,1.9c1.6,1,1.5,0.7,2,2.7c0.4,1.6,0.9,2.8,1.6,4.3c0.8,1.6,1,2.3,1,4.4
			c0,1.6,0,3.1,0,4.7c0,1.4-0.3,3,0.4,4.3c0.8,1.6,1.6,1.1,3.2,2.3c-2.9,1.7,0.4,5.8,1.4,8.4c1.3,3.7,1.3,7.5,3.6,11.1
			c2.1,3.3,4.5,6.4,5,10.3c0.5,3.7,1.5,6.9,3,10.3c1.3,3,1.7,6.4,3.4,9.2c0.8,1.3,1.2,2.5,1.4,4c0.1,1.2-0.2,3,0.3,4
			c0.7,1.4,0.6,0.3,1.3,0.3c0.7,0,1.1,0.3,1.8,0.5c0.5,0.1,1.8-0.3,2.2,0.1c0.5,0.5,0,1.2-0.6,1.2c0,0.4,4.7,2.9,5.5,3.4
			c-0.9,0.1-1.9,0-2.8,0.1c-0.1,1.1,1.1,1.8,1.6,2.7c0.9,1.4,0.2,1.9,1.7,2.8c1.2,0.7,2.4,1.1,3.5,1.9c0.8,0.6,1.4,1.1,2.4,1.2
			c0.5,1.3,1.3,2.1,2.2,3.2c0.7,0.8,2.3,2,2.7,3c0.5,1.4-0.1,2.5,0.8,3.9c0.5,0.8,0.7,2.4,2,2.1c0.1,0.2,0.1,0.5,0,0.8
			c-0.6,0-1.2,0-1.8,0.1c0.2,1,1.1,1.4,1.3,2.5c0.1,0.8-0.1,1.6,0.1,2.3c0.3,0.9,0.8,1.1,1.5,1.3c1.2,0.4,0.9-0.1,1.7,0.8
			c0.5,0.6,1.2,1.3,1.6,2c0.3,0.6,0.3,1.7,0.8,2.1c0.8,0.6,4.1-0.5,3.9,1c-0.9,0.1-1.9,0-2.8,0.1c-0.2,0.9,0.8,1,1.1,1.6
			c0.4,0.7,0.3,1.4,0.3,2.2c0,1.8,0.8,3.2,1,4.9c0.2-0.2,0.3-0.1,0.5-0.4c0.9-0.1,1.9-0.2,2.8-0.2c0.2,1.3-2,1.2-2.1,2.5
			c-0.1,1,1.2,2.5,1.5,3.5c0.4,1.3,0.2,2.5,0.6,3.7c0.4,1.2,0.4,2.5,0.8,3.6c0.3,1.2,0.9,2.5,1.3,3.7c0.4,1.2,0.3,2.5,0.5,3.8
			c0.2,1.4,1.2,2.6,1.4,4c0.1,1.2-0.1,2.7,0.3,3.6c0.1-0.9-0.2-1.9,0.4-2.6c0.1,0,0.3,0,0.4-0.1c0.1-0.6,0.3-1.1,0.4-1.6
			c0.1,0.2,0.2,0.2,0.3,0.5c0.8,0.3,1.2,0.2,1.5,1c0.2,0.7,0.1,1.5-0.6,1.6c-0.2,0.8,0.1,1.4,0.6,2c-0.7-0.3-1.6-0.4-2.4-0.3
			c-0.1,1,0.5,1.7,0.5,2.6c0.8,0.1,2.3,2.1,2.6,2.9c0.3,0.7,0.2,1.5,0.5,2.2c0.3,0.8,0.8,2.7,2,2.4c-0.1-1.4,1.3-0.7,1.9-0.1
			c0.7,0.9,1,2.1,1.7,2.9c-2.2,0.2-2.4,0-2.5-2.1c-0.2-0.1-0.7-0.1-0.9,0c0.2,1.6,1.5,2.6,2,4.1c0.3,0.9,0.2,1.5,0.6,2.3
			c0.3,0.7,0.8,1.2,1,1.9c0.2,0.7,0.3,1.7,0.4,2.5c0,0.4-0.1,1,0,1.3c0.2,0.4,0.7,0.5,0.8,0.8c0.6,1.3,0.9,3.3,0.9,4.8
			c0.5-0.7,1.7-0.4,2.5-0.5c0-0.9-0.3-1.8-0.3-2.8c1.1,0.9,2.1,6,3.4,5.8c-1.3,0.2-1.5-1-2.6-1c0-0.2-0.1-0.4-0.1-0.6
			c-1.7-0.5-0.7,1.7-0.8,2.4c-0.3,0.1-0.5,0.4-0.9,0.5c0.4,0.7,0.6,1.5,0.7,2.2c0.2,1.8,0.3,2.5,1.7,4c1,1,1.6,2.5,2.5,3.5
			c1,1.1,1.9,1.8,2.8,3c0.7,1.1,2,1.7,2.2,3.1c0.2,1.4-0.2,2.8-0.2,4.2c0.1,1.6,1.4,2,1.5,3.7c0.2,3,0.2,5.8,0.4,8.8
			c0.7,0.1,1.5,0.1,2.3,0.1c0-0.4,0.2-0.7,0.2-1c1.5,1.1,2.8,1.7,2.4,3.8c-1.8,0.1-2.9-0.8-4.6-1c-1.9-0.2-3.2,0.2-3.3-2
			c-0.1-1.4,0-2.8,0.4-4c0.3-1,1.4-2.3,1.1-3.4c-0.3-1.5-2.3-0.4-2.7-2.3c-0.3-1.5-0.1-2.8-0.6-4.2c-0.5-1.4-0.8-2.6-1-4.1
			c-0.2-1.3-1-2-1.6-3.2c-0.3-0.6-0.6-1.4-1.1-1.9c-0.5-0.5-1.1-0.6-1.1-1.4c0,4.6,2.7,8.1,3.2,12.6c0.3,2.6,0.8,4.9,0.8,7.6
			c0,2.1,0.2,4.4,0.5,6.5c0.3,1.9,1.2,3.6,1.9,5.4c0.8,2,0.3,3.7,0.7,5.8c0.4,1.8,1.5,3.6,2.3,5.2c0.9,1.8,1.6,3.8,2.5,5.6
			c0.8,1.7,0.7,4,1.4,5.4c0.2-0.5,0.3-1.3,0.3-2c1.3,0,2.4,0.9,2.4,2.2c-0.9,0.4-2,0.3-2.2,1.2c1.5,0.6,1.1,2.6,1.7,3.6
			c0.5-1.1,1.4-0.2,2-0.8c0.5-0.5-0.1-1.5,0.8-1.9c1.3-0.6,3.2,1.3,3.7,2.2c-1,1-2.8,0.9-3.8,2c0.4,0.4,0.9,1,1.3,1.2
			c-0.2-0.2-1.6,0.2-2.1,0c-0.1,1.3,1.3,2.9,2.5,3.2c0.4,0.1,3.4-0.3,3.5,0.1c0.2,0.6,0.3,1.4,0.2,1.9c-0.8-0.2-1.4-0.4-2.2-0.4
			c-0.3,2.7,4.9,7.4,6.4,9.5c2.5,3.4,5.7,6.4,8.6,9.8c1.5,1.7,2.2,3.1,2.9,5.1c1,2.7,2,2.4,4.3,3.4c1.4,0.6,2.8,2,3.7,3.2
			c1.2,1.7,1.5,3.6,3.2,4.9c2,1.5,4.9,2.5,7.3,3.4c3.4,1.3,6.9,2.9,10.5,3.5c1.5,0.2,3.1,0.3,4.6,0.3c0.5,0,1.2,0.2,1.7,0
			c0.3-0.2,0.8-1.2,0.9-1.2c0.1,0,0.2,0,0.3-0.1c0.3-1,0.7-2.5,1.9-3c0.9-0.3,2.7,0,3.7,0c1.7,0,3.2-0.8,4.7-1.4c1-0.4,1.8-1,2.4-2
			c0.7-1.2,1.1-2.8,2.4-3.6c0.7-0.5,2.3-0.9,3.2-1.1c0.6-0.2,1.4,0,2-0.2c0.7-0.3,1.4-1,2.2-1.3c1.8-0.7,2.9-1.2,4.3-2.7
			c1.3-1.4,2.2-3,2.9-4.8c0.3-0.8,0.5-1.9,1.1-2.7c0.7-0.9,1.2-0.8,1.4-2.1c0.1-0.7,0.2-2.6-0.2-3.2c-0.5-0.6-2.4-0.9-2.7,0
			c-1.2,0.1-2.4,0.1-3.6,0c0.1-2.2,4.6-1.2,6.1-1.3c0.5-1.5,0.2-2.6,1.2-3.8c0.7-0.8,1.6-1.9,1.8-2.9c0.6-2.6-0.1-5.8,0-8.4
			c0.1-1.2,0.4-4.1,1.3-5c0.4-0.4,1.3-0.3,1.8-0.6c0.9-0.4,1-0.9,1.7-1.5c1.3-1,2.9-0.5,4-1.4c1.1-1,1.8-2.8,3-3.6
			c1.1-0.9,3.2-0.8,4.6-1.1c3.6-0.6,7.3-1.1,10.7-2.5c1.1-0.4,1.8-0.5,3-0.5c0-0.3,0.2-0.8,0.1-1.1c1-0.5,2.6-1,3.6-1.1
			c0.5-0.9,0.6-1.1,1.5-1.5c0.7-0.3,1.4-0.2,2.2-0.3c2.9-0.7,5.4-1.7,8.7-1.3c2,0.2,3.7,0.8,5.8,0.8c1.9,0,3.9-0.2,5.7,0.2
			c2.6,0.5,5.5-0.1,7.7,1.3c1,0.6,2.2,1.4,3,2.1c0.1,0.1,0.2,0.2,0.3,0.2c0.2-0.5,0.4-1.1,0.6-1.6c-0.4-0.2-0.9-0.4-1.4-0.6
			c-2.1-1.2-1.5-2.8-1.7-5c-1.4-0.3-1.5,0.8-2.1,1.5c-0.9,0.9-2.1,0.9-3.4,1c-1.6,0.1-2.9-0.6-4.5-0.7c-1.2-0.1-2.3-0.2-3.5-0.4
			c-0.4-1.5-1.9-1.5-3.1-2.2c-1.4-0.9-2.7-1.5-4.3-2.2c-5.7-2.5-2.5-11-0.7-15c1.1-2.4,4-3.8,4.9-6.3c0.7-2,1.5-3.7,3.6-4.9
			c0.3-3.4,3.6-5.2,5.4-7.6c0.5-0.7,1-1.6,1.7-2.2c0.6-0.6,1.5-0.5,2.1-1c1.8-1.5-0.4-1.9-1.6-2c-0.1-1.3,0-6.8,1.8-6.5
			c0.1-1-0.1-1.9,0.5-2.9c0.7-1.1,2.4-3.4,3.6-3.9c1.3-0.6,2.8-0.7,4.3-0.7c3.5,0,6.8,1.5,10.3,1.5c2.3,0,4.3-0.6,6.6-0.1
			c0.9,0.2,1.7,0.7,2.7,0.8c0.9,0.1,2,0,2.9,0c-0.8-1.4-2.6-1.8-3.9-2.1c-1.8-0.5-4.3-1.4-6.2-1.5c-0.9,0-1.9-0.1-2.8,0
			c-1,0.1-1.9,0.2-2.8,0.2c-0.4,0-1.1-0.1-1.5,0c-0.4,0.1-0.8,0.4-1.2,0.6c-0.5-1.3,1.6-1.7,2.5-1.7c1.1,0,2.3-0.1,3.3,0
			c1,0.1,1.9,0.4,3,0.3c1.1,0,2.1-0.8,3.2-0.9c1.2,0,2.4,0.7,3.4,1.3c0.9,0.6,1.2,0.6,2.3,0.7c2.4,0.3,1.5,2.1,2.3,3.6
			c1.2-1.9,1.1-3.6,1.1-5.8c0.1-3.4-0.1-6.9-0.3-10.3c-0.4-6.6-1.1-13.3-1.5-19.9c-0.3-5.7-0.3-11.3-0.3-17.1c0-2.9-0.1-6.2-0.7-9
			c-0.1-0.7-0.6-0.9-0.8-1.4c-0.3-0.8,0.1-1.9,0-2.8c-0.2-1.1-0.6-0.9-1.1-1.7c-1.8-2.4-0.7-8-0.2-10.7c0.4-2,0.6-3.8,0.6-6
			c0-1.9,0.1-4.4,0.5-6.3c0.4-1.9,1.6-3.5,2.1-5.4c0.3-1.2,0.5-2.5,0.6-3.8c0.1-0.6,0.7-2.2,0.5-2.7c-0.5-1.2-2.9,0.2-3-1
			c-0.1-1.1,1.8-2.8,2.9-2.4c0.6,0.2,1.3,2.1,0.9,2.1c1.1,0,1.4-0.5,1.7-1.3c0.1-0.2-0.2-0.6-0.1-0.9c0.1-0.5,0.5-0.8,0.6-1.3
			c0.2-0.9,0-1.3,0.5-2.1c0.4-0.6,1.2-1.2,1.7-1.7c1.8-1.6,3.8-3.1,5.4-4.9c0.8-1,0.8-1.6,1.2-2.6c0.4-0.9,1.2-1.5,1.8-2.3
			c0.7-0.9,0.9-2.2,0.5-3.3c-0.5-1.2-1.2-1-2.3-1.6c-0.5-0.3-1.1-1-1.7-1c0.7,0,1.5-0.1,2.1,0c0.5,0.1,1.1,0.8,1.5,0.8
			c2.9,0.3,5.6-8.1,6.2-10.2c0.7-2.6,1.9-3.9,2-6.7c0.1-2.3-0.1-4.7,0-7c0.2-4.5,3.8-7.4,4-12c0.2-3.9,0.1-7.9-0.9-11.7
			c-0.8-3-3.5-4.1-4.1-7.1c-0.4-2.1-0.7-2.7-3.2-2.5c-0.4-1.8-2.4-3.3-2.5-4.9c3.5,0.2-0.8-5.8-1-6.8c-0.6-2.4-0.1-6.1,0-8.5
			c0.4-0.1,1.1-0.1,1.4,0c0.1,4.8,3.6,8.4,4.3,13.2c0.2,1.5,0.9,2.1,1.5,3.4c0.4,1,0,2.3,0.3,3.3c0.2,0.8,1.5,2.8,2.7,1.7
			c1.1-1-0.7-1.8-0.9-2.3c-0.7-1.8,0.3-4.3-0.1-6.2c-0.6-3.8-1.7-7.4-2.2-11.4c-0.3-2.9,0.1-5.4-0.6-8.2c-0.8-2.9-1.5-5.4-1.7-8.4
			c-0.2-2.7-1.5-4.7-1.7-7.3c-1.3-0.4-2.6,0.1-2.9,1.3c-0.9-2.6,1.4-2.3,3.2-2.4c0.1-1.9,0.1-2.4,1.1-3.9c0.8-1.3,1.9-1.6,2.3-3.4
			c0.7-2.8,0.3-6.1,0.3-9c0-1.3,0.2-2.7,0-4c-0.5-3.1-2.6-6.2-3.3-9.3c-1-3.9-2.1-8-2.7-12c-0.5-3.7-0.2-8.3,1.2-11.9
			c0.5-1.2,1.4-2.2,1.7-3.4c1.1-4.1,1.8-9.7,5.5-12.7c3.2-2.6,2.9-6.5,5-9.7c1.2-1.8,2.6-4.7,5-5.3c1.4-0.3,2.9,0.2,4.3-0.2
			c1.5-0.5,2.3-1.6,3.6-2.1c0-0.3,0-0.6,0.1-0.9c3-2,7.3-1.6,10.9-1.3c-0.1,1.9,0.9,3.4,1.1,5.3c0.1,1.5-0.9,4.9,1.6,4.3
			c-0.1-1.5-0.1-3.2,1.7-3.6c0.2,1.4-0.4,2.5-0.2,3.9c2.7,0.2,2.2-4.8,2.4-6.6c0.9,1.4,0.4,4.2,2.9,3.7c0.1,0.3,0.1,0.6,0.1,0.9
			c0.4,0.1,0.8,0,1.2,0c0-0.7,0.2-1.5,0-2.2c0.4,1,1.3,1.2,2.4,0.9c-2-0.6-1.4-3.9,0-5.3c2.6-2.5,5.6-3.1,6.9-6.8
			c0.5-1.5,0.3-2.9,1.1-4.3c0.8-1.4,2.4-2.1,3.3-3.3c1.4-1.8,1.2-2,1.4-4.3c0.2-3.8,1.6-4.3,5-4.7c2.4-0.3,5-0.9,7.3-1.7
			c0.2-2-3.4-2.1-4.9-1.6c-2.4,0.7-2.3,2.3-5.3,2c0.6-2.8,7.2-2.3,9.6-2.3c2,0,3.8,0,5.7,0.4c2.1,0.5,3.6,2,5.6,2.3
			c0.1,0.4,0.3,0.9,0.3,1.2c0.1-1.4,0-2.8,0.1-4.2c1.9,0.3,1.2,3,1.3,4.6c3,0.5,6.6-1.2,9.3-2.3c3.3-1.4,4.7-3.6,7.6-5
			c2.8-1.4,6.1-1.7,8.7-3.4c1.3-0.8,1.9-1.2,2.5-2.5c0.6-1.5-0.2-3.4,1.3-4.6c0,1.4-0.1,2.8,0,4.2c0.4,0.1,0.8,0.1,1.2,0
			c0.9-0.2-0.2-6.1,0-6.9c0.3-1.7,1-4.4,1.6-6.1c0.7-2,2.2-2.9,1.8-5.3c-0.2-1.3-2.3-3.6-3.6-3.9c-0.2,0.6-0.1,1.6,0,2.2
			c0.3,0,0.6,0.1,0.9,0.1c0.1,2.3,0.5,5.2-0.7,7.2c-4.9,1.4-0.7-11.8,0.4-13.3c1.5-2.1,4.3-2.7,6.4-4c2.8-1.8,4.8-4.2,7.6-5.9
			c2.3-1.4,3.9-2.2,5.3-4.4c2.2-3.4,4.2-4,7.9-5.8c3.1-1.5,6.4-3.2,9.8-4.1c2.2-0.6,4.5-1.2,6.4-2.3c1.8-1.1,2.1-3,3.5-4.4
			c1.2-1.2,3.2-1.7,4-3c0.8-1.4,0.7-3.6,1.6-5.2c1.9-3.2,4.8-5.5,7.4-8.1c4-4.1,9.2-5.9,14-9.3c1.3-0.9,2.1-1.9,3.3-2.8
			c1.2-0.9,2.4-1.3,3.8-2c2.3-1.2,5.4-2,7.4-3.8c1.5-1.4,2.2-3.9,4.5-4.5c2.5-0.7,1.1-4.8,1.8-6.2c0.7-1.5,2.5-1.7,3.8-2.5
			c2-1.2,4.7-4.3,6.8-4.6c0.2-1,1-1.8,2-2c1.1-2.1,2.1-4.3,3.7-6.3c0.9-1.1,2.2-1.8,3-3.1c0.7-1.2,0.9-2.4,1.7-3.6
			c1.1-1.7,3.1-3.6,4.6-4.9c1.9-1.6,3.8-3.2,5.3-5.1c1-1.3,0.7-2.9,1.3-4.3c1.3-2.9,4.4-4.1,5.7-6.5c1-1.8,1.1-3.3,2.3-4.9
			c1.4-1.9,2.7-4.5,4.4-6.4c1.5-1.7,4.4-2.1,6.3-3.8c1.9-1.8,1.7-3.3,4.3-4.7c2.4-1.2,3.4-2.9,6-3.6c0.1-0.4,0.1-0.8,0-1.2
			c-1,0-2-0.2-2.9-0.3c-0.6,1.5-2.4,0.8-3.7,1.2c0.3-1.8,2.7-2.3,3.6-3.6c-0.9-0.3-1.7-0.6-2.5-0.9c-0.7,1.8-2.1,4.5-3.5,5.8
			c-0.5,0.5-1.4,0.8-2.2,1.2c-0.4,0.5-1,0.8-1.9,0.8c0.5-0.3,1.2-0.6,1.9-0.8c1.4-1.7,0.6-5.6,1.3-7.4c0.3-0.8,2.2-3,2.9-3.7
			c2.1-2.2,5.1-3,7.5-4.7c2.8-2,6.9-5.8,10.1-1.5c1.8,2.5-1,5.2-2.8,6.7c-0.5,0.4-7.4,4-7.3,3.6c-0.1,1.2-0.1,2.4,0,3.6
			c1.8,0.2,1.5-1.2,2.6-1.9c1-0.7,2.5-1.3,4-1.7c2.6-0.6,5-1.1,7.4-2.2c4.3-2.1,9.1-4.4,13.6-6.4c4.9-2.2,10.6-1.8,15.6-4.3
			c4-2,8.8-3.4,10.4-8.3c0.7-2.4,1.1-5.5,3.9-6.1c0.4-3.3,7.2-4.9,10.1-6.6c1.3-0.8,4.2-1.7,5.2-2.7c1.5-1.5,1.2-4.5,1-6.6
			c-1,0-1.9,0.2-2.9,0.2c-1-5.2,5-7.5,8.6-9.7c3.9-2.4,7.3-6.8,8.9-10.9c-0.5-0.1-1.4-0.2-1.9-0.1c-1.2,0.3-0.5,1.1-1.2,1.5
			c-0.4,0.2-1.5,0-1.8,0.2c-0.4,0.3-1.1,1.1-1.6,1.4c-1.5,0.7-2.1,0.6-3.7,1c-1.3,0.3-1.9,1.1-3,1.9c0.1-5.3,1.3-5.8,6.4-6.2
			c6.1-0.5,1.7-5.3-0.1-8.3c-1.7-2.8-3.2-6.2-3.9-9.3c-0.5-2.1-1-9.8,1.3-10.4c0.6-2.4,2.7-4.7,4.7-6.4c2.3-1.9,4-4.5,6.3-6
			c2.2-1.4,5.8-2.9,8.3-3.6c1.4-0.3,2.9-0.5,4.3-0.3c2,0.2,4,1.7,5.9,1.3c0,0,2.5-4.4,3.3-5c2.4-1.6,3.6-3.6,6.5-4.4
			c3.3-0.9,6.2-0.7,7.2-4.5c0.4-1.4-0.3-2,0.6-3.3c0.9-1.2,2.8-1.4,3.7-2.9c0.6-1,1-2.2,1.7-3.1c0.6-0.7,1.5-1,2.1-1.6
			c0.7-0.7,1-2,2-2.6c1.5-1,1.7,0.4,2.9-1.4c1.1-1.6-0.1-1.6,1.8-2.7c0.8-0.4,2-0.6,2.9-0.7c0.1-1.8,0.4-4.2,0.1-6
			c-0.4-1.9-2.2-2.6-2.6-4.3c5-1.4,5.4,5.1,5,8.3c-0.3,2.2-1.9,2.7-2.4,4.7c-0.5,2,0.9,2.9,2,4.7c0.8,1.3,1.1,1.2,1.4,2.7
			c0.1,0.6-0.4,2.6,0.1,3c1.3,1.3,3.2-1.4,3.9-2.4c1-1.5,1-2.8,2.7-3.6c2.5-1.1,3.6,0.2,3.4,2.6c0.7,0.2,1.8,0.2,2.6,0
			c0.3-3.9,0.1-3.7,4-4c-0.4-1.1-0.9-4.4-0.6-5.6c0.4-1.9,1.3-2.7,1.4-4.9c2.5-0.2,7.6,0.7,7.3-3c2.4-1.2,3.4-1.7,4.6-4.1
			c0.8-1.5-0.3-1.5,1.4-2.3c0.9-0.4,2.8-0.1,3.6,0.3c1.6,0.6,4.1,3,5.2,4.1c0.9,0.9,1.5,1.7,2.3,2.3c-0.3-1.8-1-3.6-2.3-5.6
			c-2.4-3.7-3.4-5.7-3.4-10.3c0-4.4-1.5-6.8-3-10.7c-0.7-1.9-0.7-3.6-1-5.6c-0.3-1.8-2.2-3.6-0.1-4.4c0.1-1.5,0.4-3.4,0-4.8
			c-0.5-1.5-1.8-1.7-2.2-2.5c-0.5-1-1.2-1.8-2.3-1.9c0.8-2.7-0.4-8.6,2.8-10.1c0.4-1.6,1.2-3.5,3.3-2.9c-1.1-0.7-5.9-2-7.2-2
			c-3.2,0.1-5.4,5-6.9,1.5c-1-2.3,0.2-6.4,0.6-8.8c0.2-0.9,0-1.6,0.3-2.4c0.4-1,1.3-0.9,1.5-1.9c0.5-2.5-1.6-2.3-3.4-3.1
			c-1.8-0.7-3-1.8-4.4-2.9c-0.5-0.4-0.2-1.3-1-1.7c-0.6-0.3-2.3,0-3,0c-0.2-3.3-0.7-6.7-0.4-10c0.1-1.1,0.1-3.5,1.1-4.2
			c1.1-0.9,2.8,0.3,4.1-0.4c1.4-0.9,0.8-1.5,1.3-3c1-2.9,2.8-4.9,3.1-7.9c0.2-2.4-0.5-6.3-1.9-9.2c-0.8-0.7-1.9-0.7-2.8-0.9
			c-1.2-0.2-2.2-1-3.5-1.2c-1.2-0.2-2.3-0.2-3.5-0.5c1.6,0,3.2,0,4.9,0c1.3,0,2.6,0.5,3.8,1v0h0v0h0v0c0,0,0,0,0,0v0h0v0h0v0h0v0.1
			h0l0,0c0.1,0.1,0.3,0.1,0.4,0.2c-0.6-0.9-1.2-1.6-2-2c-1.8-1.1-4-0.4-6.3-0.7c-2.2-0.2-3.2-1.3-5.1-1.9c-2.2-0.8-4.6-0.6-6.9-0.8
			c0.3-2.4-1.9-3.5-4-3.7c-1-1.8-4.6-2.2-6-4.4c-0.7-1.1-0.7-2.4-1.5-3.5s-3.2-2-3.6-3.1c-0.9-2.1,0.9-1.7,1.6-3.1
			c0.3-0.7-0.1-1.5,0.3-2.3c0.5-0.9,1.2-1.3,1.7-2.1c1.7-2.6,0.9-5.7,1.1-8.9c1.4-0.1,5.6-0.7,6.6,0.3c0.8,0.8-0.2,2.2,0.7,3
			c0.7,0.6,2.3,0.4,3.2,0.3c-1.4-0.8-2.3-1.7-1.9-3.6c1.4-0.1,2.8,0,4.2-0.1c0.2-3.5-0.6-4.5,3.3-4.7c0.3-3.3-1.5-5.1-0.9-8.6
			c1.9-0.9,5.5-0.7,7.6-1.1c2.8-0.5,5.7,0.1,8.6-0.1c0.7-2.9,5.1,0.2,6.6-0.9c1.1-0.9,2.7-8.2,2.4-9.6c-2.8-0.6-1.6,2.2-3,2.9
			c-1.2,0.6-3.4-1.5-4.3-2.6c-1.1-1.3-1.2-2.8-1.9-4.4c-0.6-1.4-1.7-2.8-2.1-4.2c-1.6,1.5-2,2.6-4.3,3.4c-2.5,0.8-3.2,0.5-5.3-0.5
			c-2.7-1.3-6.4-2.6-7.4-5.9c-0.3-0.8,0.3-1.9,0-2.7c-0.4-1-1.9-1.9-2.6-2.6c-1.2-1.2-2.3-2.2-4-2.8c-1.3-0.4-2.7-0.8-4.1-1.2
			c-1.8-0.6-3.3,0.2-5.2-0.1c-0.2-3.5-1.5-11.1,2.9-12c0.3-1.8-1-2.3-1.4-3.9c-0.4-2,0.4-2.8,1.5-4.3c1.7-2.3,4.4-2.2,6.4-3.8
			c2-1.6,1.1-3.8,2.8-5.6c1.1-1.3,2.6-1.9,4.6-1.8c0.3-1.5-0.7-2.8-1-4.2c-3.4-0.2-3.9-0.3-5.4-3.3c-0.8-1.5-1.6-2.1-1.3-4.1
			c0.3-1.3,1.2-1.8,1-3.4c0.1,0.2,0.4,1.5,0.4,2.4c0.9-0.1,1.5,0.3,2.2,0.4c-0.1,1.9,3.9,4.3,5.7,4c-0.1,0.8,0.2,1.8,0.1,2.6
			c1.5,0.1,3.1,0,4.6,0.1c-0.2,0.9-0.6,1.8-0.9,2.6c1.8,0.3,3.4,0.3,5.3,0.4c0.1,1.4,0.4,3.6,0.1,4.9c-0.4,1.7-2.1,2.8-2,4.6
			c1.3,0.2,2.7-0.1,3.9-0.2c0.1,1.7-0.3,4.2,0.3,5.6c0.2-1.4,0.5-2.8,0.5-4.3c1.9-0.9-0.2-5.2,2.6-5c0.4,1,0.6,2.2,1.1,3
			c0.3-0.5,0-2.2,0.4-2.7c1.5-1.8,1.6-0.6,2.9,0c1.1,0.5,1,1.1,2.7,1.3c1.1,0.1,2.3,0,3.3-0.1c-1.2-1.6-2.1-3.3-3.3-4.9
			c-1.3-1.8-3.6-2.7-2.9-5.3c1.7-1,3.6-0.8,5.6-0.7c-0.3,2.9,2.7,2.1,3.7,3.6c0.6,0.9,0.9,4,1,5c0.3,2.2,0.2,3,1,4.7
			c1.1,2.2,1.9,2.9,4,4c3,1.6,6.2,4.2,9.6,4.7c1.5,0.2,6.4,1,7.6-0.1c0.4-0.4,0.4-2.2,0.6-2.8c0.4-0.8,1.5-1.6,1.7-2.4
			c0.1-0.4-0.1-1.7,0-1.9c0.8-1.6,1.5-1.2,3-2.5c0.7-0.6,0.8-1.3,2-2c7-4,3.8,10.5,7.9,12.1c0.2,3-0.8,4.9-0.9,7.6
			c0,0.9,0.1,1.8,0.2,2.7c0.2-0.7,0.3-1.3,0.5-1.9c0.1,1-0.2,1.7-0.4,2.5c0.3,1.5,0.6,2.9,0.7,4.4c0.3,5.6-1.5,13.9,1.6,19
			c1.7,2.9,5.2,1.2,7.8,0.9c3.5-0.4,4.9,1.9,8.1,3.2c1.6,0.6,5.1,0.8,6.6,1.2c2.6,0.7,4.1,1.6,7.1,1.7c4.3,0.1,9.3,0,13.6-0.8
			c4.9-0.8,9.8-0.5,14.7-0.5c2,0,4-0.7,5.8-0.7c2.1,0,3.9,1.5,6,1.6c2.7,0.1,4.7-2.1,7.4-1.5c0.5,1.5,6.6,1.5,8.4,1.6
			c2.4,0.1,6.9,1.6,7.6-1.1c-0.1,0.5,3.7,2.4,4.3,2.4c1.3,0.1,2.5-0.6,3.8-1.1c2.7-1.1,5.6-1.9,8.5-2.4c5.1-1,12.5-1.4,15.2,4.1
			c2,0.2,5.7-0.7,7.5,0.3c1.6,1,1.4,4,1.5,5.7c1.4,0.4,3.2,0,4.2,1.1c0.8,0.9,1.1,3.7,0.4,4.6c-2.4,3.3-9-2.8-12.2-2.6
			c-1.1,3.4,0.6,3.7,1.9,6.3c1.7,3.4-0.9,4.2-2.5,6c-0.6,1.5-0.7,2.9-0.7,4.6c0,2.5,0,2.9-1.4,4.6c-1.6,1.9-4.6,3.6-4.6,6.3
			c0-1.2-4.8,2.1-5.4,2.6c-3,2.3-2.6,6.1-5.5,8.6c-0.9-0.8-1.5-2.1-2.5-2.7c-0.8-0.5-1.7-0.7-2.6-0.8c-2-0.2-1.4,1.5-2.8,2.5
			c-0.7,0.5-1.7,0.8-2.5,1.3c-0.5,0.3-1.3,0.7-1.7,1.2c-0.2,0.2,0,0.7-0.1,0.8c-0.7,0.8-1.9,1-2.8,1.7c-2.7,2-5.6,0.7-8.8,1.4
			c-1.7,0.4-1.8,0.9-2.6,2.2c-0.7,1.2-2.2,1.9-2.6,3.2c-0.4,1.4-0.4,2.9-0.6,4.3c-0.2,2.2-0.9,4-1.7,5.9c-0.7,1.6-1.6,2.7-2.1,4.3
			c-0.3,0.9-0.1,1.8-0.2,2.7c-0.1,1-0.5,1.4-0.7,2.3c-0.3,1.5,1.4,4,2.3,5.1c1.4,1.6,2.5,3.3,3.5,5.2c0.4,0.7,1,1.6,1.2,2.3
			c0.1,0.7,0,1.6,0,2.3c0,2.4,0,4.5,0.9,6.7c0.6,1.5,1.9,3,2.1,4.6c0.1,1.4-0.4,3-0.2,4.5c0.3,1.9,1.7,3.8,2.4,5.6
			c2.8,0.2,4.2,0.2,4-2.8c-0.1-1.8-0.2-3.9-0.8-5.6c-0.9-2.4-1-4.5-0.8-7.1c0.1-2.3,1.4-1.4,2.8-0.5c3.5,2,1.5,6.4,2.7,9.6
			c0.7,1.8,2,3,3.4,4.3c1.4,1.2,2.2,2.4,3.2,4c1.4,2.3,2,1.8,3.5-0.2c1-1.4,2.3-2.4,3.2-3.8c1-1.6,2.8-3.1,3.4-4.7
			c0.6-1.7,0.2-4.8-0.3-6.5c-0.6-1.6-1.9-2.9-2.1-4.7c-0.2-1.1,0-2.3,0-3.5c0-2.5,0.9-2.7,3.2-2.8c2.3-0.2,2.4-0.7,2.2-2.8
			c-0.2-2.1-0.4-4.1,0.3-5.9c0.5-1.1,0.6-2.4,0.8-3.6c0.1-0.4,0-1.7,0.3-2c0.6-0.6,4,0.7,5,0.6c0.5-1.5,1.7-3.3,2.7-4.4
			c0.8-0.8,0.7-1.2,1.8-0.4c0.5,0.5,0.9,1.3,1.2,1.9c0.4-2.8,3.1-4.2,5.8-3.9c0.3,0.6,0.4,1.3,0.5,2c0.4,1.8,0.6,3,1.6,4.7
			c0.8,1.5,0.6,2.9,0.4,4.5c-0.2,1.4-0.4,3.1,0.3,4.3c1,1.5,2.8,2.1,3.2,4c0.6,3.1-0.1,6.8-0.2,9.9c0,1.8-0.2,3.5-0.2,5.3
			c0,2.2,0.9,3.5,1.6,5.4c0.6,1.7,0.7,3.8,1.8,5.4c0.6,1,1.5,1.7,2,2.7c1.4,2.5,2.3,4.9,3.4,7.5c0.4,1,0.5,2,0.8,3
			c0.4,1.3,1.2,2.4,1.8,3.5c0.5,1,0.8,2.1,1,3.1c0.5,1.9,1.8,3.5,1.8,5.5c0,4.8,0.8,9.8,1.3,14.5c0.2,1.9,1.8,2.8,2,4.7
			c0.2,1.8,0.1,2.5,2.2,2c2.2-0.6,1.3-1.9,1.2-3.8c-0.1-1.4-0.4-4.2,1.4-4.2c1.1,0,1.1,0.8,1.8,1.5c0.6,0.6,1.4,1,2,1.5
			c1.6,1.3,2.3,2.5,3.1,4.3c0.6,1.4,0.6,3.1,2.2,3.3c1.2,0.2,3-0.3,4.3-0.5c0.6-1.8,0.5-3.8,1.7-5.4c1.2-1.5,2.7-0.5,3-2.7
			c0.2-1.8-0.4-3.2,0.9-4.5c2-2,3.4,1.3,5.1,0.3c0.4-0.2,0.6-1.3,0.7-1.5c0.3-0.5,0.5-0.7,0.7-1.3c0.6-1.8-0.9-7.1,1.1-8
			c0.2-1.2-0.9-2-1.5-2.8c-0.7-1.1-1.2-1.7-2.1-2.5c-1.7-1.5-1.3-4-1.5-6.1c-0.3-2.2-1.4-4.3-0.7-6.5c0.8-2.7,0-5.5,0.1-8.4
			c-1.6,0.8-2.4,0.8-3.2-1.1c-0.5-1.2-1-3.7-0.8-5c1.5-0.9,1.9-0.1,3.5,0.3c1.4,0.4,2.7-0.3,4.2-0.3c2,0,3.3,0.1,3.8-2
			c0.4-1.7,0.4-3.3,1.5-4.7c0.7-0.9,1.1-1.4,1.4-2.6c0.6-2.3,0.8-4.7,1-7.1c0.3-4.2,0.5-8.4,0.4-12.7c0-3.5-1.1-6.9-2.5-10.1
			c-1.1-2.6-0.7-5.4-2.2-8c-1.1-1.9-3-3.7-3.6-5.7c-0.3-0.9-0.4-2-0.5-3c-0.2-1.7-0.2-1.7-1.4-2.9c-1.1-1.1-1.7-3.1,0.2-3.7
			c0.7-0.2,3-0.1,3.5,0.4c0.9,0.8,0.3,2.1,0.8,3.1c1.1,2,3.7,1.5,5.4,1.2c2.6-0.4,5.3-0.9,8-0.8c0.2-1.2,1.1-1.9,1.2-3.4
			c3.1,1,7.1,9.3,10.5,2.5c3.6,0.5,5.6,2.8,9.8,2.5c-0.2,2.5,0.8,4.4,3,4.8c1.9-1.8,2.4-4.4,2.2-7.2c0.5-0.2,0.9,0,1.4-0.3
			c0.4-9.5,2-15.7,5.6-23.6c0.9-1.9,0.9-4.4,1.9-6.1c1.1-1.9,2.9-2.8,3.1-5.3c0.2-2.1,1-3.4,2.1-5.1c1.2-1.9,2.2-3.9,3.2-5.8
			c1.7-3.2,5-6.1,5.9-9.7c0.5-2.1-0.2-4.3,0.5-6.3c0.4-1.4,0.9-3.3-0.2-4.5c-1-1-3.6-1-5-1.1c-1.2-0.1-3.5-0.3-4.2-1.4
			c-0.6-0.9-0.1-2.2,0-3.2c0.2-3-0.3-6.3,0.7-9.2c1-2.8,2.4-2.8,5-3.4c0.8-0.2,1.9-0.4,2.6-0.7c1.8-0.8,1.7-3.8,3.7-4.5
			c0.1-0.2,0.2-0.5,0.3-0.7c0.7-1.5-0.1-3.6-0.1-5.3c0-1.9-0.4-3.9-0.3-5.8c0.1-1.9,1.6-3.1,2-4.8c0.5-2.3,1.9-4.3,3.5-6.3
			c0.7-0.9,1.7-0.9,2.4-1.6c0.6-0.6,0.7-2,0.8-2.8c0.1-1,0-2,0.1-3c0.2-1.2,0.8-2.3,1.1-3.4c0.6-2,0-4.3-0.2-6.3
			c-0.1-1,0.1-2.7-1-3.3c-0.5-0.3-1.6,0-2.1,0c-0.1-1.1,0-2.1-0.5-3.1c-0.9-1.9-1.8-4.3-0.6-6.4c0.3-0.6,0.8-0.6,1.1-1
			c0.5-0.7,0.6-1.8,1.1-2.5c0.9-1.6,2-3,3.3-4.3c1.3-1.3,2.5-2.6,4.4-2.9c1.2-0.2,2.8,0.1,3.8-0.4c0.1-3.3,3.1-4.9,4.4-7.8
			c0.7-1.6,2.4-3.1,4.1-3.5c1.3-0.3,1.4-0.2,2.6-0.8c0.8-0.4,1.4-0.6,2-1.1c3-2.5,3.6-7.5,7.8-7.8c3.1-0.3,3.3-1.4,4.3-4
			c1.3-3.3,4.7-8.5,7.9-10.5c0.9-0.6,2.3-0.9,3.4-1.4c1.3-0.6,3.2-1.3,4.7-1.6c0.8-0.2,2,0,2.8-0.2c1-0.3,1.8-1.3,2.7-1.6
			c1.6-0.6,3.9-0.7,5.5-1.4c1.8-0.8,1.2-2.7,2.4-4.2c0.2,1,1.3,1.9,2.3,2.1c1.8,0.4,1-0.5,2.3-1.4c1.2-0.8,3.6-0.8,4.8-0.1
			c0.6,0.4,1,1.2,1.6,1.6c0.7,0.5,1.8,0.5,2.4,1.2c1.2,1.3,0.6,3.4,0.7,5c2.9,0.2,5.1,1.3,7.6,2.6c1,0.5,2.9,2.1,4.1,1.7
			c1.1-0.4,1.1-2.2,2.5-2.6c-0.2-2-3-4.6-4.2-6.2c-0.7-0.9-1.4-1.5-2.1-2.6c-0.3-0.4-2.4-2-2.4-2c-0.2-0.8-1.3-1.2-1.7-2
			c-0.4-0.7-0.4-1.4-1-1.9c-0.4-0.4-2-0.4-2.2-0.8c-0.8-1.8-4-12.1-0.1-12c0.6-1.2,1.7-3.7,3.3-3.7c1.3-2.8,7.3-5.5,6.6-9.7
			c1.4-0.9,2.3-1.9,4.5-2c1.6-0.1,3.3,0.3,5,0.2c0.1-2.1-0.6-5.3,0.3-7.2C1585.9,509.3,1586.1,509.3,1586.3,509.3z"/>
	</g>
	<polygon class="st0" points="1172.9,753.7 1172.9,753.7 1172.9,753.7 1172.9,753.7 1172.9,753.7 1172.9,753.8 	"/>
	<path class="st0" d="M998.4,1024.1c-0.7,0.3-1.4,0.5-1.9,0.8C997.4,1024.9,998,1024.5,998.4,1024.1z"/>
	<path class="st0" d="M372.6,865.8c0.2-0.1,0.5-0.2,0.7-0.3C373.1,865.5,372.9,865.6,372.6,865.8z"/>
	<path class="st0" d="M255.9,943.1c0.3-0.2,0.6-0.4,0.9-0.5c-0.1,0-0.3,0.1-0.4,0.1C256.3,942.8,256.1,942.9,255.9,943.1z"/>
</g>
</svg>
