<svg width="60" height="60" xmlns="http://www.w3.org/2000/svg">
 <g>
  <title>background</title>
  <rect x="-1" y="-1" width="62" height="62" id="canvas_background" fill="none"/>
 </g>

 <g>
  <title>Layer 1</title>
  <g id="svg_29" stroke="null">
   <path d="m37.97982,23.97743c-0.15369,-0.73063 -0.5613,-1.37952 -1.09903,-1.89658c-0.77231,-0.74256 -2.17169,-1.46604 -3.79157,-1.46604c-2.47238,0 -4.88955,0 -4.88955,0s-2.41717,0 -4.88955,0c-1.61989,0 -3.01926,0.72348 -3.79157,1.46604c-0.53773,0.51706 -0.94499,1.16629 -1.09903,1.89658c-0.31054,1.47626 0.51241,2.38299 1.27523,2.88882c0.50081,0.33211 1.08708,0.49901 1.68425,0.56441c1.51086,0.1652 2.35597,0.9735 2.80825,1.65781c0.2919,0.44145 0.45579,0.95306 0.53387,1.47694c0.43645,2.93208 1.55834,4.65494 2.41084,5.57837c0.57572,0.62334 1.5601,0.62334 2.13546,0c0.85285,-0.92309 1.97439,-2.64595 2.41084,-5.57837c0.07808,-0.52354 0.24196,-1.03549 0.53387,-1.47694c0.45227,-0.68465 1.29739,-1.49261 2.80825,-1.65781c0.59717,-0.0654 1.18344,-0.2323 1.68425,-0.56441c0.76317,-0.50582 1.58612,-1.41256 1.27523,-2.88882l-0.00004,0z" fill="#CBD4D8" id="svg_1" stroke="null"/>
   <path d="m38.04734,24.35212l-0.01372,-0.00068c0.11043,1.25656 -0.63234,2.05327 -1.32833,2.51481c-0.50081,0.33211 -1.08708,0.49901 -1.68425,0.56441c-0.7804,0.08516 -1.38003,0.34335 -1.84286,0.66592l0.09953,0.99836c0,0 0.60139,5.40636 2.02328,6.76442c0.68509,0.65434 1.27628,0.42748 1.63993,0.14136c0.2402,-0.18939 0.41957,-0.44008 0.53668,-0.71803c1.59808,-3.79079 0.65168,-10.54294 0.56974,-10.93057z" fill="#AFB6BB" id="svg_2" stroke="null"/>
   <path d="m21.37898,27.431c-0.59717,-0.0654 -1.18344,-0.2323 -1.68425,-0.56441c-0.696,-0.46154 -1.43877,-1.25826 -1.32833,-2.51481l-0.01372,0.00068c-0.08194,0.38763 -1.02869,7.13944 0.56974,10.93057c0.11711,0.27761 0.29648,0.52865 0.53668,0.71803c0.3633,0.28612 0.95484,0.51298 1.63993,-0.14136c1.42188,-1.35806 2.02328,-6.76442 2.02328,-6.76442l0.09953,-0.99836c-0.46282,-0.32291 -1.06246,-0.58076 -1.84286,-0.66592z" fill="#AFB6BB" id="svg_3" stroke="null"/>
   <path d="m33.12368,20.61481l-9.84733,0l0.37631,-0.91116c0.20539,-0.49731 0.645,-0.86893 1.18133,-0.9987l0.36259,-0.08788c2.04367,-0.5358 4.03494,-0.47755 6.00687,0l0.36259,0.08788c0.53633,0.12978 0.97594,0.5014 1.18133,0.9987l0.37631,0.91116z" fill="#AFB6BB" id="svg_4" stroke="null"/>
   <circle cx="31.01354" cy="23.33979" r="0.87008" fill="#43B05C" id="svg_5" stroke="null"/>
   <circle cx="33.12368" cy="25.38352" r="0.87008" fill="#1081E0" id="svg_6" stroke="null"/>
   <path d="m24.79917,23.68041l-0.58381,0c-0.13013,0 -0.23563,-0.10219 -0.23563,-0.22822l0,-0.56543c0,-0.12603 -0.10551,-0.22822 -0.23563,-0.22822l-0.9355,0c-0.13013,0 -0.23563,0.10219 -0.23563,0.22822l0,0.56543c0,0.12603 -0.10551,0.22822 -0.23563,0.22822l-0.58381,0c-0.13013,0 -0.23563,0.10219 -0.23563,0.22822l0,0.90606c0,0.12603 0.10551,0.22822 0.23563,0.22822l0.58381,0c0.13013,0 0.23563,0.10219 0.23563,0.22822l0,0.56543c0,0.12603 0.10551,0.22822 0.23563,0.22822l0.9355,0c0.13013,0 0.23563,-0.10219 0.23563,-0.22822l0,-0.56543c0,-0.12603 0.10551,-0.22822 0.23563,-0.22822l0.58381,0c0.13013,0 0.23563,-0.10219 0.23563,-0.22822l0,-0.90606c0,-0.12603 -0.10551,-0.22822 -0.23563,-0.22822z" fill="#38454F" id="svg_7" stroke="null"/>
   <circle cx="28.20001" cy="29.47099" r="1.1601" fill="#E7ECED" id="svg_8" stroke="null"/>
   <path d="m151.08989,154.46605c-0.05433,8.90054 -7.51319,16.10024 -16.71545,16.10024s-16.65684,-7.19982 -16.71545,-16.10024c-2.60053,3.37314 -4.18926,7.51557 -4.18926,12.0509c0,11.18033 9.36108,20.24682 20.90471,20.24682s20.90471,-9.06649 20.90471,-20.24682c0.00416,-4.53129 -1.58873,-8.67371 -4.18926,-12.0509z" fill="#546A79" id="svg_9" stroke="null"/>
   <circle cx="34.88213" cy="22.31792" r="0.29003" fill="#EBBA16" id="svg_10" stroke="null"/>
   <circle cx="34.88213" cy="23.68041" r="0.29003" fill="#EBBA16" id="svg_11" stroke="null"/>
   <circle cx="34.17875" cy="22.99917" r="0.29003" fill="#EBBA16" id="svg_12" stroke="null"/>
   <circle cx="35.58551" cy="22.99917" r="0.29003" fill="#EBBA16" id="svg_13" stroke="null"/>
   <g id="svg_14" stroke="null"/>
   <g id="svg_15" stroke="null"/>
   <g id="svg_16" stroke="null"/>
   <g id="svg_17" stroke="null"/>
   <g id="svg_18" stroke="null"/>
   <g id="svg_19" stroke="null"/>
   <g id="svg_20" stroke="null"/>
   <g id="svg_21" stroke="null"/>
   <g id="svg_22" stroke="null"/>
   <g id="svg_23" stroke="null"/>
   <g id="svg_24" stroke="null"/>
   <g id="svg_25" stroke="null"/>
   <g id="svg_26" stroke="null"/>
   <g id="svg_27" stroke="null"/>
   <g id="svg_28" stroke="null"/>
  </g>
 </g>
</svg>