<svg id="Capa_1" enable-background="new 0 0 512.49 512.49" height="512" viewBox="0 0 512.49 512.49" width="512" xmlns="http://www.w3.org/2000/svg"><g><path d="m59.244 97.988c0 28.949 23.551 52.5 52.5 52.5s52.5-23.551 52.5-52.5c0-17.992-9.101-33.894-22.936-43.358 4.851-4.13 7.936-10.275 7.936-17.131 0-20.678-16.822-37.5-37.5-37.5s-37.5 16.822-37.5 37.5c0 6.856 3.086 13 7.936 17.131-13.835 9.465-22.936 25.367-22.936 43.358zm52.5-82.988c12.407 0 22.5 10.093 22.5 22.5 0 4.136-3.364 7.5-7.5 7.5h-30c-4.136 0-7.5-3.364-7.5-7.5 0-12.407 10.093-22.5 22.5-22.5zm0 45.488c12.242 0 23.131 5.898 29.98 15h-59.96c6.849-9.102 17.738-15 29.98-15zm36.745 30c.494 2.424.755 4.932.755 7.5 0 20.678-16.822 37.5-37.5 37.5s-37.5-16.822-37.5-37.5c0-2.568.261-5.076.755-7.5z"/><path d="m474.116 497.873-24.872-8.291v-159.903c9.27-9.473 15-22.426 15-36.698l-.025-25.989 3.371 2.242c1.254.833 2.701 1.255 4.153 1.255 1.215 0 2.433-.295 3.543-.89 2.437-1.306 3.957-3.846 3.957-6.61v-70c0-11.617-7.244-21.567-17.449-25.59 1.617-5.674 2.449-11.717 2.449-18.087v-51.324c0-28.949-23.552-52.5-52.5-52.5s-52.5 23.551-52.5 52.5v51.324c0 6.37.833 12.413 2.449 18.087-10.205 4.023-17.449 13.973-17.449 25.59v69.999c0 2.765 1.521 5.306 3.96 6.612 2.434 1.304 5.396 1.164 7.697-.37l3.351-2.232-.008 25.991c0 14.269 5.73 27.22 15 36.692v159.902l-24.872 8.291c-3.93 1.31-6.053 5.557-4.743 9.487 1.048 3.143 3.974 5.13 7.114 5.13.786 0 1.586-.125 2.373-.387l30-10c3.063-1.021 5.128-3.887 5.128-7.115v-154.577c6.824 3.251 14.452 5.076 22.5 5.076s15.676-1.825 22.5-5.076v154.576c0 3.228 2.065 6.094 5.128 7.115l30 10c.787.262 1.587.387 2.373.387 3.141 0 6.066-1.988 7.114-5.13 1.311-3.93-.812-8.177-4.742-9.487zm-99.872-399.885c0-20.678 16.822-37.5 37.5-37.5s37.5 16.822 37.5 37.5v2.5h-18.13c-4.389-6.2-11.545-10-19.37-10s-14.982 3.8-19.371 10h-18.129zm0 17.5h22.499c3.026 0 5.757-1.819 6.922-4.613 1.365-3.272 4.536-5.387 8.079-5.387 3.542 0 6.713 2.115 8.078 5.387 1.165 2.793 3.896 4.613 6.922 4.613h22.5v33.824c0 34.194-29.966 45.056-37.5 47.246-7.534-2.189-37.5-13.052-37.5-47.246zm-3.324 131.262c-2.521-1.681-5.802-1.681-8.32-.003l-3.355 2.234v-55.992c0-5.447 3.508-10.079 8.379-11.787 4.214 7.087 9.979 13.329 17.23 18.566 12.362 8.928 24.743 11.75 25.265 11.866.536.119 1.081.179 1.627.179s1.091-.06 1.627-.179c.521-.116 12.902-2.938 25.265-11.866 7.251-5.237 13.015-11.479 17.23-18.566 4.871 1.709 8.379 6.34 8.379 11.787v56.006l-3.385-2.251c-2.521-1.675-5.798-1.673-8.316.006l-10.828 7.225-10.851-7.229c-2.521-1.678-5.802-1.677-8.321.003l-10.824 7.223-10.824-7.223c-2.521-1.682-5.805-1.682-8.326 0l-10.824 7.223zm40.824 83.738c-18.11 0-33.262-12.905-36.746-30h73.491c-3.484 17.096-18.635 30-36.745 30zm-37.498-45 .006-18.482 3.329 2.221c2.521 1.682 5.805 1.682 8.326 0l10.824-7.223 10.824 7.223c2.521 1.682 5.805 1.682 8.326 0l10.828-7.225 10.851 7.229c2.521 1.678 5.802 1.677 8.321-.003l3.338-2.227.018 18.488h-74.991z"/><path d="m336.744 135.364h-60c-2.841 0-5.438 1.605-6.708 4.146l-8.292 16.583-8.292-16.583c-1.27-2.541-3.867-4.146-6.708-4.146h-60c-2.599 0-5.013 1.346-6.38 3.557s-1.491 4.972-.328 7.297l14.208 28.417v88.229c0 4.142 3.358 7.5 7.5 7.5h120c4.143 0 7.5-3.358 7.5-7.5v-88.229l14.208-28.417c1.163-2.325 1.038-5.086-.328-7.297-1.366-2.212-3.78-3.557-6.38-3.557zm-137.865 15h43.229l7.5 15h-43.23zm115.365 105h-105v-75h105zm2.865-90h-43.23l7.5-15h43.23z"/><path d="m167.268 264.62c7.531-6.807 11.976-16.443 11.976-26.631v-45c0-15.164-12.336-27.5-27.5-27.5h-80c-15.164 0-27.5 12.336-27.5 27.5v45c0 10.188 4.445 19.824 11.976 26.631-7.224 10.878-20.108 35.115-22.955 72.804-.212 2.805 1.163 5.492 3.562 6.961.748.458 13.501 8.091 37.417 12.682v132.517l-24.872 8.291c-3.93 1.31-6.053 5.558-4.744 9.487 1.048 3.143 3.974 5.13 7.114 5.13.786 0 1.586-.125 2.373-.387l30-10c3.063-1.021 5.128-3.887 5.128-7.115v-135.694c6.857.741 14.35 1.192 22.5 1.192s15.643-.451 22.5-1.192v135.692c0 3.228 2.066 6.094 5.128 7.115l30 10c.787.262 1.586.387 2.373.387 3.14 0 6.066-1.988 7.114-5.13 1.31-3.929-.814-8.177-4.744-9.487l-24.872-8.291v-132.516c23.916-4.59 36.669-12.224 37.417-12.682 2.398-1.469 3.773-4.156 3.562-6.961-2.845-37.688-15.728-61.925-22.953-72.803zm-108.024-71.632c0-6.893 5.607-12.5 12.5-12.5h80c6.893 0 12.5 5.607 12.5 12.5v45c0 6.967-3.645 13.52-9.613 17.5h-85.774c-5.968-3.98-9.613-10.533-9.613-17.5zm52.5 152.5c-33.186 0-54.671-8.022-63.077-11.876 3.654-35.014 16.779-56.2 21.753-63.124h82.673c4.988 6.874 18.066 27.86 21.73 63.122-8.425 3.862-29.907 11.878-63.079 11.878z"/><path d="m258.753 119.741c.954.415 1.973.623 2.991.623s2.037-.208 2.991-.623c1.716-.746 42.009-18.641 42.009-50.655 0-15.838-12.897-28.723-28.75-28.723-5.87 0-11.514 1.783-16.25 5.033-4.736-3.25-10.379-5.033-16.25-5.033-15.853 0-28.75 12.885-28.75 28.723 0 32.014 40.293 49.909 42.009 50.655zm-13.259-64.377c4.058 0 7.892 1.785 10.518 4.897 1.425 1.689 3.522 2.663 5.732 2.663s4.307-.974 5.731-2.663c2.627-3.112 6.461-4.897 10.519-4.897 7.582 0 13.75 6.156 13.75 13.723 0 18.143-21.871 31.205-30 35.432-8.137-4.231-30-17.292-30-35.432 0-7.567 6.168-13.723 13.75-13.723z"/></g></svg>