<?xml version="1.0" standalone="no"?>
<!DOCTYPE svg PUBLIC "-//W3C//DTD SVG 20010904//EN"
 "http://www.w3.org/TR/2001/REC-SVG-20010904/DTD/svg10.dtd">
<svg version="1.0" xmlns="http://www.w3.org/2000/svg"
 width="312.000000pt" height="318.000000pt" viewBox="0 0 312.000000 318.000000"
 preserveAspectRatio="xMidYMid meet">

<g transform="translate(0.000000,318.000000) scale(0.100000,-0.100000)"
fill="#000000" stroke="none">
<path d="M1352 3039 c-244 -31 -527 -155 -722 -314 -206 -169 -373 -403 -458
-645 -66 -189 -77 -255 -77 -485 0 -230 10 -300 66 -470 144 -434 499 -788
933 -930 836 -272 1711 234 1898 1098 30 139 32 438 4 567 -122 564 -509 985
-1046 1137 -174 49 -415 66 -598 42z m445 -174 c253 -52 471 -165 652 -340
207 -200 333 -432 387 -711 22 -118 23 -329 0 -454 -77 -433 -375 -802 -785
-975 -139 -59 -268 -86 -432 -92 l-147 -6 -8 109 c-5 60 -8 147 -6 194 2 93
40 339 74 487 19 81 25 96 46 104 39 15 115 10 162 -12 67 -30 156 -49 236
-49 59 0 75 4 104 25 25 18 46 25 80 25 63 0 187 33 265 70 72 34 168 131 202
202 11 24 35 74 53 112 38 78 44 148 16 191 -11 17 -80 56 -210 119 -187 91
-195 96 -233 149 -37 52 -65 127 -78 209 -7 46 -56 106 -144 176 -133 106
-356 222 -457 238 -96 14 -516 -53 -641 -103 -58 -23 -82 -42 -198 -157 -145
-145 -221 -250 -306 -424 -51 -105 -126 -317 -150 -424 -22 -103 -32 -68 -26
90 13 327 115 586 325 828 205 235 507 394 825 434 97 12 297 4 394 -15z
m-149 -345 c122 -47 347 -192 416 -268 10 -12 24 -54 32 -94 18 -92 55 -170
113 -232 38 -41 75 -63 208 -128 l162 -78 -9 -29 c-7 -25 -5 -30 17 -40 28
-13 28 -13 -14 -113 -38 -91 -115 -182 -178 -212 -99 -48 -191 -69 -267 -63
-66 6 -69 5 -78 -18 -5 -14 -21 -27 -36 -31 -46 -12 -147 4 -234 36 -73 28
-95 31 -155 27 -39 -2 -87 -12 -110 -23 l-40 -19 -27 -120 c-68 -300 -90 -530
-72 -737 8 -93 15 -90 -132 -53 -248 63 -446 178 -626 363 -144 149 -238 303
-302 494 -32 95 -32 102 0 174 15 33 41 115 60 184 39 148 76 253 132 370 40
85 123 219 167 272 l23 27 5 -117 c6 -133 23 -209 70 -301 43 -87 92 -115 187
-108 80 6 175 41 212 78 25 25 28 34 28 99 0 84 -3 78 144 308 62 98 124 196
137 219 27 48 54 58 46 18 -4 -25 -3 -26 42 -23 40 3 46 6 49 26 5 32 -16 79
-42 97 -11 8 -38 15 -59 15 -53 0 -75 -25 -220 -255 -173 -273 -187 -302 -187
-381 l0 -65 -47 -20 c-59 -26 -142 -35 -171 -20 -50 27 -102 196 -102 334 0
63 6 92 30 155 17 42 43 95 58 117 51 73 181 109 567 158 84 11 128 6 203 -23z"/>
<path d="M1817 2142 l-48 -3 7 -37 c10 -53 11 -54 69 -47 46 6 55 4 74 -16 11
-12 21 -25 21 -28 0 -3 5 -13 10 -21 8 -12 16 -8 47 26 21 22 45 43 53 46 13
4 12 8 -4 26 -35 40 -129 62 -229 54z"/>
</g>
</svg>
