<?xml version="1.0" encoding="utf-8"?>
<!-- Generator: Adobe Illustrator 17.0.0, SVG Export Plug-In . SVG Version: 6.00 Build 0)  -->
<!DOCTYPE svg PUBLIC "-//W3C//DTD SVG 1.1//EN" "http://www.w3.org/Graphics/SVG/1.1/DTD/svg11.dtd">
<svg version="1.1" id="Capa_1" xmlns="http://www.w3.org/2000/svg" xmlns:xlink="http://www.w3.org/1999/xlink" x="0px" y="0px"
	 width="114.551px" height="114.551px" viewBox="0 0 114.551 114.551" enable-background="new 0 0 114.551 114.551"
	 xml:space="preserve">
<rect x="0" y="0" fill="none" width="114.551" height="114.551"/>
<g>
	<polygon fill="#E83F4B" points="92.06,72.401 70.68,72.401 72.874,62.631 73.095,61.648 80.063,30.614 84.096,12.651 
		63.273,12.651 45.162,12.651 50.818,30.594 58.761,26.051 48.635,56.128 61.285,45.858 61.285,52.526 68.911,52.526 64.915,60.394 
		71.914,62.361 55.307,72.401 46.39,77.791 51.311,86.019 39.497,83.269 37.931,82.904 29.805,81.013 28.127,88.831 25.321,101.901 
		64.057,101.901 86.166,101.901 92.789,72.401 	"/>
	<polygon fill="#FFFFFF" points="29.805,81.013 37.931,82.904 39.497,83.269 51.311,86.019 46.39,77.791 55.307,72.401 
		71.914,62.361 64.915,60.394 68.911,52.526 61.285,52.526 61.285,45.858 48.635,56.128 58.761,26.051 50.818,30.594 45.162,12.651 
		44.479,12.651 40.92,12.651 28.094,72.401 27.99,72.888 21.762,101.901 25.321,101.901 28.127,88.831 	"/>
</g>
</svg>
