<?xml version="1.0" encoding="iso-8859-1"?>
<!-- Generator: Adobe Illustrator 19.0.0, SVG Export Plug-In . SVG Version: 6.00 Build 0)  -->
<svg version="1.1" id="Capa_1" xmlns="http://www.w3.org/2000/svg" xmlns:xlink="http://www.w3.org/1999/xlink" x="0px" y="0px"
	 viewBox="0 0 512 512" style="enable-background:new 0 0 512 512;" xml:space="preserve">
<rect x="252.468" y="260.534" style="fill:#E2C271;" width="7.053" height="23.51"/>
<path style="fill:#F4D787;" d="M295.083,356.484v58.502h-78.168v-58.502c0-13.663,7.014-25.679,17.621-32.661
	c7.272-4.776,12.426-12.006,14.437-20.225c0.603-2.485,0.925-5.067,0.925-7.703v-0.99h12.199v0.99c0,2.635,0.323,5.217,0.925,7.703
	c2.011,8.219,7.175,15.449,14.437,20.225C288.08,330.804,295.083,342.822,295.083,356.484z"/>
<g>
	<path style="fill:#E2C271;" d="M263.025,303.597c-1.291,0.323-2.635,0.484-4.012,0.484h-6.025c-1.377,0-2.722-0.161-4.012-0.484
		c0.603-2.485,0.925-5.067,0.925-7.703v-0.99h12.199v0.99C262.1,298.531,262.423,301.112,263.025,303.597z"/>
	<rect x="216.921" y="396.935" style="fill:#E2C271;" width="78.158" height="18.051"/>
</g>
<g>
	<path style="fill:#F4D787;" d="M259.012,297.63h-6.021c-9.363,0-16.955-7.59-16.955-16.954v-0.666c0-2.135,1.73-3.866,3.866-3.866
		h32.197c2.135,0,3.866,1.73,3.866,3.866v0.666C275.967,290.04,268.376,297.63,259.012,297.63z"/>
	<path style="fill:#F4D787;" d="M258.57,267.419h-5.137c-7.988,0-14.463-6.475-14.463-14.463l0,0c0-2.135,1.73-3.866,3.866-3.866
		h26.331c2.135,0,3.866,1.73,3.866,3.866l0,0C273.034,260.942,266.558,267.419,258.57,267.419z"/>
</g>
<g>
	<path style="fill:#E2C271;" d="M256,423.052c-4.456,0-8.069-3.612-8.069-8.069v-41.428c0-4.456,3.612-8.069,8.069-8.069
		c4.456,0,8.069,3.612,8.069,8.069v41.428C264.069,419.44,260.456,423.052,256,423.052z"/>
	<path style="fill:#E2C271;" d="M275.967,423.052c-4.457,0-8.069-3.612-8.069-8.069v-41.428c0-4.456,3.612-8.069,8.069-8.069
		s8.069,3.612,8.069,8.069v41.428C284.036,419.44,280.423,423.052,275.967,423.052z"/>
	<path style="fill:#E2C271;" d="M236.033,423.052c-4.456,0-8.069-3.612-8.069-8.069v-41.428c0-4.456,3.612-8.069,8.069-8.069
		c4.456,0,8.069,3.612,8.069,8.069v41.428C244.102,419.44,240.49,423.052,236.033,423.052z"/>
	<path style="fill:#E2C271;" d="M256,363.013c-4.456,0-8.069-3.612-8.069-8.069v-2.103c0-4.457,3.612-8.069,8.069-8.069
		c4.456,0,8.069,3.612,8.069,8.069v2.103C264.069,359.401,260.456,363.013,256,363.013z"/>
	<path style="fill:#E2C271;" d="M275.967,363.013c-4.457,0-8.069-3.612-8.069-8.069v-2.103c0-4.457,3.612-8.069,8.069-8.069
		s8.069,3.612,8.069,8.069v2.103C284.036,359.401,280.423,363.013,275.967,363.013z"/>
	<path style="fill:#E2C271;" d="M236.033,363.013c-4.456,0-8.069-3.612-8.069-8.069v-2.103c0-4.457,3.612-8.069,8.069-8.069
		c4.456,0,8.069,3.612,8.069,8.069v2.103C244.102,359.401,240.49,363.013,236.033,363.013z"/>
</g>
<path style="fill:#AEAEAF;" d="M211.326,429.147h89.347c2.971,0,5.379-2.408,5.379-5.379v-9.87c0-2.971-2.408-5.379-5.379-5.379
	h-89.347c-2.971,0-5.379,2.408-5.379,5.379v9.87C205.947,426.738,208.356,429.147,211.326,429.147z"/>
<path style="fill:#E2C271;" d="M437.791,198.449v166.997l-54.543,0.032l-16.201,0.01V116.075c0-2.971,2.409-5.379,5.379-5.379
	h10.823L437.791,198.449z"/>
<polygon style="fill:#D3B36A;" points="437.791,198.449 437.791,365.446 383.249,365.478 383.249,110.697 "/>
<path style="fill:#F4D787;" d="M371.861,197.095l-10.845,1.225c-2.72,0.307-4.775,2.608-4.775,5.345v161.822h21.603V202.441
	C377.843,199.231,375.05,196.734,371.861,197.095z"/>
<rect x="356.247" y="362.882" style="fill:#F1EFF0;" width="86.413" height="51.114"/>
<rect x="356.247" y="362.882" style="fill:#E0D7D0;" width="86.413" height="16.913"/>
<rect x="356.237" y="393.205" style="fill:#F4D787;" width="86.413" height="20.79"/>
<rect x="390.969" y="362.882" style="fill:#E0D7D0;" width="51.691" height="51.114"/>
<rect x="390.969" y="362.882" style="fill:#CEC6C0;" width="51.691" height="16.913"/>
<rect x="390.959" y="393.205" style="fill:#E2C271;" width="51.691" height="20.79"/>
<path style="fill:#AEAEAF;" d="M453.992,419.375v11.457c0,2.971-2.408,5.379-5.379,5.379h-98.339c-2.971,0-5.379-2.408-5.379-5.379
	v-11.457c0-2.971,2.408-5.379,5.379-5.379h98.339C451.585,413.996,453.992,416.404,453.992,419.375z"/>
<rect x="379.946" y="413.998" style="fill:#A5A5A5;" width="74.048" height="22.216"/>
<path style="fill:#F4D787;" d="M494.024,173.135v196.032h-9.585l-4.39,0.01h-13.178l-51.337,0.032V81.166
	c0-2.971,2.408-5.379,5.379-5.379h9.608c1.859,0,3.586,0.96,4.568,2.539l19.001,30.563l10.834,17.428l22.57,36.319L494.024,173.135z
	"/>
<path style="fill:#E2C271;" d="M484.438,369.168l-17.568,0.043l-2.604-29.186l-2.281-16.073l-1.42-10.102l-2.27-15.965
	l-2.173-15.427l-2.27-16.051l-2.872-20.257l-2.313-16.341l-3.228-22.829l-2.367-16.75l-0.646-4.497v-0.022l-0.333-2.389h-14.577
	v-15.577h15.589c2.011,0,3.927,0.441,5.658,1.237c4.067,1.851,7.09,5.637,7.811,10.295l0.344,2.206l2.7,17.375l3.754,24.109
	l2.582,16.599l3.464,22.301l2.507,16.083l2.635,16.965l2.485,15.955l2.087,13.448l2.517,16.213L484.438,369.168z"/>
<path style="fill:#FFE8AE;" d="M421.535,157.275l-13.209,1.491c-2.72,0.307-4.775,2.608-4.775,5.345v205.103h23.967V162.62
	C427.517,159.41,424.724,156.914,421.535,157.275z"/>
<path style="fill:#F1EFF0;" d="M403.55,412.272h95.867v-48.439c0-2.971-2.408-5.379-5.379-5.379H403.55V412.272z"/>
<path style="fill:#E0D7D0;" d="M499.425,363.833v12.428h-95.87v-17.807h90.491C497.016,358.454,499.425,360.863,499.425,363.833z"/>
<rect x="403.55" y="390.383" style="fill:#F4D787;" width="95.869" height="21.89"/>
<path style="fill:#AEAEAF;" d="M396.346,436.209h110.274c2.971,0,5.379-2.408,5.379-5.379v-13.182c0-2.971-2.408-5.379-5.379-5.379
	H396.346c-2.971,0-5.379,2.408-5.379,5.379v13.182C390.967,433.801,393.376,436.209,396.346,436.209z"/>
<g>
	<path style="fill:#E2C271;" d="M494.024,324.748v16.137h-0.237l-12.135-0.355l-17.385-0.506l-2.281-16.073
		c0.441-0.075,0.904-0.108,1.367-0.097l15.782,0.463L494.024,324.748z"/>
	<path style="fill:#E2C271;" d="M494.024,291.495v16.276l-16.976,3.098l-16.04,2.926c-0.15,0.022-0.29,0.043-0.441,0.053
		l-2.27-15.965l16.266-2.97l18.009-3.291C493.055,291.538,493.55,291.495,494.024,291.495z"/>
	<path style="fill:#E2C271;" d="M494.024,255.037v16.471l-22.096,6.444l-14.674,4.271c-0.376,0.108-0.753,0.193-1.13,0.237
		l-2.27-16.051l15.567-4.54l22.344-6.509C492.517,255.144,493.27,255.037,494.024,255.037z"/>
	<path style="fill:#E2C271;" d="M494.024,208.647v17.848l-28.068,13.071l-12.694,5.906c-0.742,0.344-1.506,0.571-2.281,0.678
		l-2.313-16.341l14.706-6.842L494.024,208.647z"/>
	<path style="fill:#E2C271;" d="M494.024,173.135v4.002c-0.053,0.053-0.118,0.086-0.183,0.13l-34.221,21.592l-11.006,6.95
		c-1,0.634-2.076,1.022-3.173,1.172l-2.367-16.75l13.846-8.746l28.304-17.869c0.721-0.451,1.485-0.774,2.27-0.979L494.024,173.135z"
		/>
	<polygon style="fill:#E2C271;" points="464.923,126.317 448.765,168.983 442.428,185.712 442.094,183.323 427.518,183.323 
		427.518,179.536 431.982,167.746 454.09,108.889 	"/>
	<path style="fill:#E2C271;" d="M74.209,198.449v166.997l54.543,0.032l16.201,0.01V116.075c0-2.971-2.408-5.379-5.379-5.379H128.75
		L74.209,198.449z"/>
</g>
<polygon style="fill:#D3B36A;" points="74.209,198.449 74.209,365.446 128.751,365.478 128.751,110.697 "/>
<path style="fill:#F4D787;" d="M140.139,197.095l10.845,1.225c2.72,0.307,4.775,2.608,4.775,5.345v161.822h-21.603V202.441
	C134.157,199.231,136.95,196.734,140.139,197.095z"/>
<rect x="69.339" y="362.882" style="fill:#F1EFF0;" width="86.413" height="51.114"/>
<rect x="69.339" y="362.882" style="fill:#E0D7D0;" width="86.413" height="16.913"/>
<rect x="69.339" y="393.205" style="fill:#F4D787;" width="86.413" height="20.79"/>
<rect x="69.339" y="362.882" style="fill:#E0D7D0;" width="51.691" height="51.114"/>
<rect x="69.339" y="362.882" style="fill:#CEC6C0;" width="51.691" height="16.913"/>
<rect x="69.339" y="393.205" style="fill:#E2C271;" width="51.691" height="20.79"/>
<path style="fill:#AEAEAF;" d="M58.008,419.375v11.457c0,2.971,2.408,5.379,5.379,5.379h98.338c2.971,0,5.379-2.408,5.379-5.379
	v-11.457c0-2.971-2.408-5.379-5.379-5.379h-98.34C60.415,413.996,58.008,416.404,58.008,419.375z"/>
<rect x="58.013" y="413.998" style="fill:#A5A5A5;" width="74.048" height="22.216"/>
<path style="fill:#F4D787;" d="M17.976,173.135v196.032h9.585l4.39,0.01h13.178l51.337,0.032V81.166
	c0-2.971-2.408-5.379-5.379-5.379h-9.608c-1.859,0-3.586,0.96-4.568,2.539l-19.001,30.563l-10.832,17.428l-22.57,36.319
	L17.976,173.135z"/>
<path style="fill:#E2C271;" d="M27.562,369.168l17.568,0.043l2.604-29.186l2.281-16.073l1.42-10.102l2.27-15.965l2.173-15.427
	l2.27-16.051l2.872-20.257l2.313-16.341l3.228-22.829l2.367-16.75l0.646-4.497v-0.022l0.333-2.389h14.577v-15.577h-15.59
	c-2.011,0-3.927,0.441-5.659,1.237c-4.067,1.851-7.09,5.637-7.811,10.295l-0.344,2.206l-2.7,17.375l-3.754,24.109l-2.582,16.599
	l-3.464,22.301l-2.507,16.083l-2.635,16.965l-2.485,15.955l-2.087,13.448L30.35,340.53L27.562,369.168z"/>
<path style="fill:#FFE8AE;" d="M90.465,157.275l13.209,1.491c2.72,0.307,4.775,2.608,4.775,5.345v205.103H84.483V162.62
	C84.483,159.41,87.276,156.914,90.465,157.275z"/>
<path style="fill:#F1EFF0;" d="M108.45,412.272H12.583v-48.439c0-2.971,2.408-5.379,5.379-5.379h90.488
	C108.45,358.453,108.45,412.272,108.45,412.272z"/>
<path style="fill:#E0D7D0;" d="M12.575,363.833v12.428h95.87v-17.807H17.954C14.984,358.454,12.575,360.863,12.575,363.833z"/>
<rect x="12.581" y="390.383" style="fill:#F4D787;" width="95.869" height="21.89"/>
<path style="fill:#AEAEAF;" d="M115.653,436.209H5.379c-2.971,0-5.379-2.408-5.379-5.379v-13.182c0-2.971,2.408-5.379,5.379-5.379
	h110.274c2.971,0,5.379,2.408,5.379,5.379v13.182C121.033,433.801,118.624,436.209,115.653,436.209z"/>
<g>
	<path style="fill:#E2C271;" d="M17.976,324.748v16.137h0.236l12.135-0.355l17.385-0.506l2.281-16.073
		c-0.441-0.075-0.904-0.108-1.367-0.097l-15.782,0.463L17.976,324.748z"/>
	<path style="fill:#E2C271;" d="M17.976,291.495v16.276l16.976,3.098l16.04,2.926c0.15,0.022,0.29,0.043,0.441,0.053l2.27-15.965
		l-16.266-2.97l-18.009-3.291C18.945,291.538,18.45,291.495,17.976,291.495z"/>
	<path style="fill:#E2C271;" d="M17.976,255.037v16.471l22.096,6.444l14.674,4.271c0.376,0.108,0.753,0.193,1.13,0.237l2.27-16.051
		l-15.567-4.54l-22.344-6.509C19.483,255.144,18.73,255.037,17.976,255.037z"/>
	<path style="fill:#E2C271;" d="M17.976,208.647v17.848l28.068,13.071l12.694,5.906c0.742,0.344,1.506,0.571,2.281,0.678
		l2.313-16.341l-14.706-6.842L17.976,208.647z"/>
	<path style="fill:#E2C271;" d="M17.976,173.135v4.002c0.053,0.053,0.118,0.086,0.183,0.13l34.221,21.592l11.006,6.95
		c1,0.634,2.076,1.022,3.173,1.172l2.367-16.75l-13.846-8.746l-28.304-17.869c-0.721-0.451-1.485-0.774-2.27-0.979L17.976,173.135z"
		/>
	<polygon style="fill:#E2C271;" points="47.077,126.317 63.235,168.983 69.572,185.712 69.906,183.323 84.482,183.323 
		84.482,179.536 80.018,167.746 57.91,108.889 	"/>
</g>
<g>
</g>
<g>
</g>
<g>
</g>
<g>
</g>
<g>
</g>
<g>
</g>
<g>
</g>
<g>
</g>
<g>
</g>
<g>
</g>
<g>
</g>
<g>
</g>
<g>
</g>
<g>
</g>
<g>
</g>
</svg>
