<?xml version="1.0" encoding="iso-8859-1"?>
<!-- Generator: Adobe Illustrator 19.1.0, SVG Export Plug-In . SVG Version: 6.00 Build 0)  -->
<svg version="1.1" id="Capa_1" xmlns="http://www.w3.org/2000/svg" xmlns:xlink="http://www.w3.org/1999/xlink" x="0px" y="0px"
	 viewBox="0 0 470 470" style="enable-background:new 0 0 470 470;" xml:space="preserve">
<g>
	<path style="fill:#D5E6DA;" d="M242.5,56.47v91.324h38.767C279.589,98.451,261.498,63.843,242.5,56.47z"/>
	<path style="fill:#D5E6DA;" d="M227.5,254.119v-91.325h-38.767C190.411,212.138,208.502,246.746,227.5,254.119z"/>
	<path style="fill:#D5E6DA;" d="M188.733,147.794H227.5V56.47C208.502,63.843,190.411,98.451,188.733,147.794z"/>
	<path style="fill:#D5E6DA;" d="M134.986,147.794h38.744c1.167-35.708,10.619-66.532,24.891-85.963
		C163.469,75.561,137.899,108.572,134.986,147.794z"/>
	<path style="fill:#D5E6DA;" d="M281.267,162.794H242.5v91.325C261.498,246.746,279.589,212.138,281.267,162.794z"/>
	<path style="fill:#D5E6DA;" d="M335.014,162.794h-38.744c-1.167,35.709-10.619,66.532-24.891,85.964
		C306.531,235.028,332.101,202.017,335.014,162.794z"/>
	<path style="fill:#D5E6DA;" d="M271.38,61.831c14.272,19.432,23.724,50.255,24.891,85.963h38.744
		C332.101,108.572,306.531,75.561,271.38,61.831z"/>
	<path style="fill:#D5E6DA;" d="M198.62,248.758c-14.272-19.432-23.724-50.255-24.891-85.964h-38.744
		C137.899,202.017,163.469,235.028,198.62,248.758z"/>
	<path style="fill:#D7B0CD;" d="M343.758,243.908c20.337-24.923,31.537-56.394,31.537-88.614C375.294,77.936,312.358,15,235,15
		S94.706,77.936,94.706,155.294c0,69.893,52.147,129.654,121.3,139.011c3.719,0.503,6.494,3.679,6.494,7.432v61.058
		c0,4.142-3.358,7.5-7.5,7.5h-52.4v25H215c4.142,0,7.5,3.358,7.5,7.5V455h25v-52.205c0-4.142,3.358-7.5,7.5-7.5h52.4v-25H255
		c-4.142,0-7.5-3.358-7.5-7.5v-61.058c0-3.753,2.775-6.929,6.494-7.432c25.509-3.452,49.583-13.914,69.618-30.257
		c3.161-2.578,7.787-2.146,10.428,0.933c3.727-3.367,7.279-6.922,10.646-10.648C341.61,251.692,341.18,247.068,343.758,243.908z
		 M235,270.589c-63.574,0-115.294-51.721-115.294-115.295S171.426,40,235,40s115.294,51.721,115.294,115.294
		S298.574,270.589,235,270.589z"/>
	<path style="fill:#3E2C3A;" d="M235,40c-63.574,0-115.294,51.721-115.294,115.294S171.426,270.589,235,270.589
		s115.294-51.721,115.294-115.295S298.574,40,235,40z M227.5,162.794v91.325c-18.998-7.373-37.089-41.981-38.767-91.325H227.5z
		 M188.733,147.794c1.679-49.343,19.77-83.951,38.767-91.324v91.324H188.733z M242.5,147.794V56.47
		c18.998,7.373,37.089,41.981,38.767,91.324H242.5z M281.267,162.794c-1.679,49.344-19.77,83.952-38.767,91.325v-91.325H281.267z
		 M173.729,147.794h-38.744c2.913-39.222,28.484-72.234,63.634-85.963C184.348,81.263,174.896,112.086,173.729,147.794z
		 M173.729,162.794c1.167,35.709,10.619,66.532,24.891,85.964c-35.151-13.73-60.721-46.741-63.634-85.964H173.729z M296.271,162.794
		h38.744c-2.913,39.222-28.484,72.234-63.634,85.964C285.652,229.326,295.104,198.503,296.271,162.794z M296.271,147.794
		c-1.167-35.708-10.619-66.532-24.891-85.963c35.151,13.73,60.721,46.741,63.634,85.963H296.271z"/>
	<path style="fill:#3E2C3A;" d="M235,0C149.371,0,79.706,69.665,79.706,155.294c0,37.808,13.747,74.239,38.708,102.582
		c23.274,26.428,54.707,44.118,89.087,50.273v47.146h-52.4c-4.142,0-7.5,3.358-7.5,7.5v40c0,4.142,3.358,7.5,7.5,7.5h52.4V462.5
		c0,4.142,3.358,7.5,7.5,7.5h40c4.142,0,7.5-3.358,7.5-7.5v-52.205h52.4c4.142,0,7.5-3.358,7.5-7.5v-40c0-4.142-3.358-7.5-7.5-7.5
		h-52.4v-47.146c25.835-4.624,50.121-15.778,70.594-32.477c3.209-2.618,3.689-7.343,1.071-10.553
		c-0.04-0.049-0.084-0.091-0.125-0.138c-2.641-3.079-7.267-3.511-10.428-0.933c-20.035,16.343-44.109,26.805-69.618,30.257
		c-3.719,0.503-6.494,3.679-6.494,7.432v61.058c0,4.142,3.358,7.5,7.5,7.5h52.4v25H255c-4.142,0-7.5,3.358-7.5,7.5V455h-25v-52.205
		c0-4.142-3.358-7.5-7.5-7.5h-52.4v-25H215c4.142,0,7.5-3.358,7.5-7.5v-61.058c0-3.753-2.775-6.929-6.494-7.432
		c-69.153-9.356-121.3-69.118-121.3-139.011C94.706,77.936,157.642,15,235,15s140.294,62.936,140.294,140.294
		c0,32.22-11.2,63.69-31.537,88.614c-2.578,3.16-2.148,7.784,0.928,10.425c0.048,0.042,0.091,0.087,0.141,0.127
		c3.208,2.618,7.934,2.14,10.553-1.069c22.515-27.593,34.915-62.431,34.915-98.097C390.294,69.665,320.629,0,235,0z"/>
</g>
<g>
</g>
<g>
</g>
<g>
</g>
<g>
</g>
<g>
</g>
<g>
</g>
<g>
</g>
<g>
</g>
<g>
</g>
<g>
</g>
<g>
</g>
<g>
</g>
<g>
</g>
<g>
</g>
<g>
</g>
</svg>
