<?xml version="1.0" standalone="no"?>
<!DOCTYPE svg PUBLIC "-//W3C//DTD SVG 20010904//EN"
 "http://www.w3.org/TR/2001/REC-SVG-20010904/DTD/svg10.dtd">
<svg version="1.0" xmlns="http://www.w3.org/2000/svg"
 width="512.000000pt" height="512.000000pt" viewBox="0 0 512.000000 512.000000"
 preserveAspectRatio="xMidYMid meet">

<g transform="translate(0.000000,512.000000) scale(0.100000,-0.100000)"
fill="#000000" stroke="none">
<path d="M2335 5049 c-177 -103 -584 -304 -790 -391 -294 -125 -647 -251 -830
-298 l-70 -18 0 -1078 c0 -1076 0 -1079 23 -1203 71 -394 256 -714 627 -1086
226 -227 429 -401 913 -783 l243 -192 107 0 107 0 280 221 c749 593 1037 869
1258 1209 120 186 207 402 249 621 21 112 21 133 25 1199 l4 1085 -188 58
c-492 153 -1034 388 -1492 646 l-144 81 -101 -1 -101 -1 -120 -69z m303 -331
l2 -238 80 0 80 0 0 188 0 188 263 -131 c378 -189 696 -321 1085 -450 l172
-57 0 -709 0 -710 -82 3 -83 3 -6 71 c-34 381 -244 785 -537 1039 -502 434
-1178 524 -1755 234 -317 -159 -567 -409 -726 -726 -85 -169 -144 -371 -160
-547 l-6 -71 -82 -3 -83 -3 0 710 0 709 173 57 c388 129 706 261 1085 450
l262 131 0 -188 0 -188 80 0 80 0 0 233 c0 129 3 237 7 241 4 4 39 5 78 4 l70
-3 3 -237z m242 -591 c496 -118 873 -451 1038 -918 61 -174 77 -273 77 -489 0
-216 -16 -315 -77 -489 -144 -407 -462 -725 -869 -869 -174 -61 -273 -77 -489
-77 -168 0 -210 3 -299 23 -576 129 -984 537 -1113 1113 -20 89 -23 131 -23
299 0 216 16 315 77 489 144 407 462 725 869 869 76 27 225 63 314 76 17 2
111 3 210 1 149 -3 198 -8 285 -28z m-1909 -1563 c34 -381 244 -785 537 -1039
335 -289 767 -435 1175 -396 151 14 243 33 375 77 259 86 523 261 697 462 223
259 366 582 394 896 l6 71 84 3 83 3 -5 -253 c-4 -205 -9 -270 -26 -346 -114
-510 -402 -866 -1256 -1549 l-230 -184 -3 326 -2 325 -80 0 -80 0 0 -388 c0
-288 -3 -391 -12 -400 -12 -12 -104 -17 -132 -6 -14 5 -16 50 -16 400 l0 394
-80 0 -80 0 0 -325 c0 -179 -2 -325 -5 -325 -6 0 -243 188 -420 334 -203 167
-339 289 -485 436 -338 337 -503 610 -581 962 -17 76 -22 141 -26 346 l-5 253
83 -3 84 -3 6 -71z"/>
<path d="M2406 3989 c-296 -41 -549 -171 -762 -391 -239 -247 -358 -540 -358
-878 0 -354 132 -660 393 -913 250 -242 542 -361 881 -361 339 0 631 119 881
361 261 253 393 559 393 913 0 354 -132 660 -393 913 -187 180 -394 290 -646
342 -98 20 -296 27 -389 14z m74 -394 l0 -235 -191 0 -190 0 6 23 c13 45 85
188 124 245 48 71 134 152 193 180 23 12 46 21 51 22 4 0 7 -106 7 -235z m216
214 c60 -29 146 -108 195 -181 39 -57 111 -200 124 -245 l6 -23 -190 0 -191 0
0 235 c0 129 2 235 5 235 3 0 26 -10 51 -21z m-553 -51 c-4 -7 -24 -38 -44
-68 -45 -68 -105 -186 -134 -265 l-23 -60 -151 -3 c-83 -1 -151 0 -151 4 0 4
26 38 57 76 95 117 247 234 386 298 73 34 70 33 60 18z m1012 -83 c98 -61 200
-150 268 -232 31 -39 57 -73 57 -77 0 -4 -68 -5 -151 -4 l-151 3 -23 60 c-29
79 -89 197 -134 265 -20 30 -40 61 -44 68 -12 18 97 -32 178 -83z m-1266 -512
c-15 -63 -39 -235 -39 -285 0 -83 12 -78 -211 -78 -162 0 -199 3 -199 14 0 61
49 264 85 350 l15 36 179 0 179 0 -9 -37z m591 -163 l0 -200 -241 0 -241 0 6
88 c7 87 32 262 42 295 5 15 24 17 220 17 l214 0 0 -200z m594 183 c10 -33 35
-208 42 -295 l6 -88 -241 0 -241 0 0 200 0 200 214 0 c196 0 215 -2 220 -17z
m528 -38 c26 -65 64 -215 73 -287 l6 -58 -199 0 c-224 0 -212 -5 -212 78 0 50
-24 222 -39 285 l-9 37 180 -2 180 -3 20 -50z m-1758 -521 c3 -9 6 -37 6 -62
0 -50 24 -222 39 -285 l9 -37 -180 2 -180 3 -20 50 c-26 65 -64 215 -73 288
l-6 57 199 0 c173 0 201 -2 206 -16z m636 -184 l0 -200 -214 0 c-196 0 -215 2
-220 18 -10 32 -35 207 -42 295 l-6 87 241 0 241 0 0 -200z m636 113 c-7 -88
-32 -263 -42 -295 -5 -16 -24 -18 -220 -18 l-214 0 0 200 0 200 241 0 241 0
-6 -87z m559 30 c-9 -73 -47 -223 -73 -288 l-20 -50 -180 -3 -180 -2 9 37 c15
63 39 235 39 285 0 83 -12 78 212 78 l199 0 -6 -57z m-1710 -568 c29 -79 89
-197 134 -265 20 -30 40 -61 44 -68 12 -18 -97 32 -178 83 -98 61 -200 150
-268 232 -31 39 -57 73 -57 77 0 4 68 5 151 4 l151 -3 23 -60z m515 -170 c0
-129 -2 -235 -5 -235 -3 0 -26 10 -51 21 -60 29 -146 108 -195 181 -39 57
-111 200 -124 246 l-6 22 190 0 191 0 0 -235z m535 213 c-13 -46 -85 -189
-124 -246 -49 -73 -135 -152 -195 -181 -25 -11 -48 -21 -51 -21 -3 0 -5 106
-5 235 l0 235 191 0 190 0 -6 -22z m465 16 c0 -4 -26 -38 -57 -77 -68 -82
-170 -171 -268 -232 -81 -51 -190 -101 -178 -83 4 7 24 38 44 68 55 84 112
201 152 313 6 15 23 17 157 17 82 0 150 -3 150 -6z"/>
<path d="M330 3050 l0 -80 75 0 75 0 0 80 0 80 -75 0 -75 0 0 -80z"/>
<path d="M4650 3050 l0 -80 75 0 75 0 0 80 0 80 -75 0 -75 0 0 -80z"/>
<path d="M330 2730 l0 -80 75 0 75 0 0 80 0 80 -75 0 -75 0 0 -80z"/>
<path d="M4650 2730 l0 -80 75 0 75 0 0 80 0 80 -75 0 -75 0 0 -80z"/>
<path d="M330 2400 l0 -80 75 0 75 0 0 80 0 80 -75 0 -75 0 0 -80z"/>
<path d="M4650 2400 l0 -80 75 0 75 0 0 80 0 80 -75 0 -75 0 0 -80z"/>
</g>
</svg>
