<?xml version="1.0" encoding="iso-8859-1"?>
<!-- Generator: Adobe Illustrator 16.0.0, SVG Export Plug-In . SVG Version: 6.00 Build 0)  -->
<!DOCTYPE svg PUBLIC "-//W3C//DTD SVG 1.1//EN" "http://www.w3.org/Graphics/SVG/1.1/DTD/svg11.dtd">
<svg version="1.1" id="Capa_1" xmlns="http://www.w3.org/2000/svg" xmlns:xlink="http://www.w3.org/1999/xlink" x="0px" y="0px"
	 width="440.845px" height="440.845px" viewBox="0 0 440.845 440.845" style="enable-background:new 0 0 440.845 440.845;"
	 xml:space="preserve">
<g>
	<g>
		<path d="M440.396,358.752l-46.431-177.643c-1.732-7.194-8.168-12.264-15.565-12.264c-0.381,0-2.724,0.001-6.576,0.083
			c-1.033-1.178-2.259-2.166-3.613-2.944c0.127-2.51,0.199-5.032,0.199-7.574c-0.002-81.73-66.256-147.987-147.988-147.987
			c-81.733,0-147.987,66.257-147.987,147.987c0,2.542,0.072,5.064,0.2,7.574c-1.355,0.778-2.58,1.767-3.613,2.944
			c-3.856-0.082-6.198-0.083-6.577-0.083c-7.399,0-13.834,5.069-15.567,12.264L0.448,358.752
			c-2.052,8.528,3.137,17.118,11.639,19.271l204.408,51.74l0.013,0.006c0.009,0.002,0.017,0.004,0.024,0.007
			c0.378,0.095,2.43,0.646,3.891,0.646c1.46,0,3.515-0.553,3.894-0.648c0.009-0.002,0.016-0.002,0.021-0.004
			c0.006-0.003,0.011-0.003,0.015-0.006l204.406-51.74C437.261,375.87,442.449,367.28,440.396,358.752z M332.172,141.728
			l-52.06-0.002c-1.423-31.771-6.526-62.432-15.673-85.682C299.584,70.911,325.698,103.03,332.172,141.728z M217.209,57.446
			l6.426-0.001c7.13,11.566,16.76,39.838,18.939,84.28h-44.304C200.45,97.283,210.079,69.014,217.209,57.446z M176.403,56.044
			c-9.146,23.25-14.25,53.903-15.67,85.682h-52.061C115.146,103.033,141.26,70.911,176.403,56.044z M206.159,377.897L55.524,339.763
			l35.368-146.917c12.853,0.43,35.02,1.635,57.004,5.021c46.087,7.105,58.264,18.713,58.264,23.856L206.159,377.897L206.159,377.897
			z M220.422,193.587c-4.127-3.463-9.359-6.813-16.002-9.883c-1.911-0.881-3.938-1.733-6.054-2.563
			c-0.037-0.641-0.071-1.272-0.104-1.919h44.311c-0.032,0.647-0.068,1.28-0.104,1.922c-2.111,0.827-4.138,1.68-6.047,2.56
			C229.783,186.774,224.549,190.124,220.422,193.587z M234.685,377.897V221.723c0-5.129,12.12-16.706,57.996-23.815
			c22.026-3.412,44.353-4.625,57.271-5.06l35.367,146.915L234.685,377.897z"/>
	</g>
</g>
<g>
</g>
<g>
</g>
<g>
</g>
<g>
</g>
<g>
</g>
<g>
</g>
<g>
</g>
<g>
</g>
<g>
</g>
<g>
</g>
<g>
</g>
<g>
</g>
<g>
</g>
<g>
</g>
<g>
</g>
</svg>
