<?xml version="1.0" encoding="iso-8859-1"?>
<!-- Generator: Adobe Illustrator 19.0.0, SVG Export Plug-In . SVG Version: 6.00 Build 0)  -->
<svg version="1.1" id="Layer_1" xmlns="http://www.w3.org/2000/svg" xmlns:xlink="http://www.w3.org/1999/xlink" x="0px" y="0px"
	 viewBox="0 0 512 512" style="enable-background:new 0 0 512 512;" xml:space="preserve">
<circle style="fill:#007699;" cx="256" cy="256" r="256"/>
<path style="fill:#005E8B;" d="M342.037,497.164C441.096,461.822,512,367.199,512,256c0-9.095-0.483-18.077-1.408-26.927
	l-55.48-55.482l-76.672-4.892l-14.264-14.264l-16.082,19.999l-26.364-26.364l-20.858,22.145l-24.419-24.419L257.2,177.319
	l-24.611-24.609l-16.905,50.981l-34.957-34.957l-94.856,4.856l70.387,70.387l-58.766,7.344l66.827,66.617l-0.969,0.538
	L342.037,497.164z"/>
<path style="fill:#F2C664;" d="M359.789,201.464v94.408c0,16.381-13.279,29.658-29.658,29.658h-11.697v62.033H194.369v-82.711
	V180.786h165.421V201.464z"/>
<path style="fill:#D8AC5D;" d="M255.426,180.788v206.777h63.007v-62.033h11.697c16.381,0,29.658-13.279,29.658-29.658v-94.408
	v-20.678L255.426,180.788L255.426,180.788z"/>
<path style="fill:#FFFFFF;" d="M178.086,235.108h184.808c9.692,16.2,27.401,27.052,47.652,27.052
	c18.254,0,34.449-8.818,44.563-22.423h-43.722l-21.582-16.536v-33.073l21.582-16.537h43.723
	c-10.114-13.605-26.309-22.423-44.563-22.423c-20.251,0-37.962,10.85-47.652,27.052H178.088c-9.692-16.2-27.403-27.05-47.652-27.05
	c-18.256,0-34.449,8.818-44.565,22.423h43.722l21.582,16.536v33.073l-21.582,16.536H85.871
	c10.114,13.605,26.307,22.423,44.563,22.423C150.685,262.16,168.395,251.309,178.086,235.108z"/>
<path style="fill:#D0D1D3;" d="M389.808,223.201v-33.073l21.582-16.537h43.722c-10.114-13.605-26.309-22.423-44.563-22.423
	c-20.251,0-37.962,10.85-47.652,27.052h-107.47v56.889h107.47c9.692,16.2,27.401,27.052,47.652,27.052
	c18.254,0,34.449-8.818,44.563-22.423h-43.722L389.808,223.201z"/>
<path style="fill:#FCD37A;" d="M186.425,178.102c4.258,11.971,7.942,31.832,7.942,64.717h6.475c19.265,0,34.88,15.617,34.88,34.88
	v47.83h-53.26c-16.265,0-29.449-13.186-29.449-29.449v-135.97h7.982C172.43,160.109,182.591,167.327,186.425,178.102z"/>
<path style="fill:#FFEBB4;" d="M153.012,160.109c0,0,20.259-1.879,20.678,20.678v20.678h-20.678V160.109z"/>
<path style="fill:#FCD37A;" d="M219.953,229.057h-9.818c-8.709,0-15.769-7.059-15.769-15.769v-51.174
	c0-8.709,7.059-15.769,15.769-15.769h9.818c8.709,0,15.769,7.059,15.769,15.769v51.172
	C235.723,221.996,228.662,229.057,219.953,229.057z"/>
<path style="fill:#FFEBB4;" d="M197.501,193.967v17.949c0,7.39,5.991,13.379,13.379,13.379h8.33c7.389,0,13.379-5.991,13.379-13.379
	v-17.949L197.501,193.967L197.501,193.967z"/>
<path style="fill:#FCD37A;" d="M263.814,242.821h-9.818c-8.709,0-15.769-7.059-15.769-15.769v-71.851
	c0-8.709,7.059-15.769,15.769-15.769h9.818c8.709,0,15.769,7.059,15.769,15.769v71.851
	C279.585,235.76,272.524,242.821,263.814,242.821z"/>
<path style="fill:#E5BF73;" d="M263.816,139.431h-8.389v103.388h8.389c8.709,0,15.769-7.059,15.769-15.769v-71.849
	C279.585,146.492,272.524,139.431,263.816,139.431z"/>
<path style="fill:#FFEBB4;" d="M241.362,207.731v17.949c0,7.39,5.991,13.379,13.379,13.379h8.33c7.389,0,13.379-5.991,13.379-13.379
	v-17.949H241.362z"/>
<path style="fill:#FFDC86;" d="M255.426,207.731v31.33h7.646c7.389,0,13.379-5.991,13.379-13.379v-17.951H255.426z"/>
<path style="fill:#E5BF73;" d="M307.678,236.554h-9.818c-8.709,0-15.769-7.059-15.769-15.769v-65.584
	c0-8.709,7.059-15.769,15.769-15.769h9.818c8.709,0,15.769,7.059,15.769,15.769v65.584
	C323.446,229.495,316.387,236.554,307.678,236.554z"/>
<path style="fill:#FFDC86;" d="M285.224,201.464v17.949c0,7.39,5.991,13.379,13.379,13.379h8.33c7.389,0,13.379-5.991,13.379-13.379
	v-17.949L285.224,201.464L285.224,201.464z"/>
<path style="fill:#E5BF73;" d="M351.539,230.781h-9.818c-8.709,0-15.769-7.059-15.769-15.769v-51.174
	c0-8.709,7.059-15.769,15.769-15.769h9.818c8.709,0,15.769,7.059,15.769,15.769v51.172
	C367.307,223.72,360.248,230.781,351.539,230.781z"/>
<path style="fill:#FFDC86;" d="M329.085,195.691v17.949c0,7.39,5.991,13.379,13.379,13.379h8.33c7.389,0,13.379-5.991,13.379-13.379
	v-17.949L329.085,195.691L329.085,195.691z"/>
<rect x="170.667" y="338.541" style="fill:#FFFFFF;" width="170.667" height="56.889"/>
<rect x="255.431" y="338.541" style="fill:#D0D1D3;" width="85.907" height="56.889"/>
<path style="fill:#00E4ED;" d="M170.667,497.412C197.36,506.847,226.076,512,256,512s58.64-5.153,85.333-14.588V366.987H170.667
	V497.412z"/>
<path style="fill:#00D2DE;" d="M255.426,366.987v145.006c0.191,0,0.383,0.007,0.574,0.007c29.924,0,58.64-5.153,85.333-14.588
	V366.987H255.426z"/>
<g>
</g>
<g>
</g>
<g>
</g>
<g>
</g>
<g>
</g>
<g>
</g>
<g>
</g>
<g>
</g>
<g>
</g>
<g>
</g>
<g>
</g>
<g>
</g>
<g>
</g>
<g>
</g>
<g>
</g>
</svg>
