<?xml version="1.0" encoding="utf-8"?>
<!-- Svg Vector Icons : http://www.onlinewebfonts.com/icon -->
<!DOCTYPE svg PUBLIC "-//W3C//DTD SVG 1.1//EN" "http://www.w3.org/Graphics/SVG/1.1/DTD/svg11.dtd">
<svg version="1.1" xmlns="http://www.w3.org/2000/svg" xmlns:xlink="http://www.w3.org/1999/xlink" x="0px" y="0px" viewBox="0 0 1000 1000" enable-background="new 0 0 1000 1000" xml:space="preserve">
<metadata> Svg Vector Icons : http://www.onlinewebfonts.com/icon </metadata>
<g><g transform="translate(0.000000,512.000000) scale(0.100000,-0.100000)"><path d="M448.3,4571.2c-181.8-241.1-329.2-444-329.2-449.7s99.5-9.6,220.1-9.6h220.1V131.5V-3849H329.6H100v-229.6v-229.6h229.6h229.6v-229.6v-229.6h229.6h229.6v229.6v229.6H4999h3980.5v-220.1c0-120.6,5.7-220.1,11.5-220.1c17.2,0,888,656.4,888,669.8c0,11.5-872.6,669.8-888,669.8c-5.7,0-11.5-99.5-11.5-220.1V-3849H4999H1018.6V131.5V4112h227.7h229.6L1141,4557.8c-185.6,243-342.5,445.9-350.2,449.7C783.2,5009.5,628.2,4814.3,448.3,4571.2z"/><path d="M2358.2,3863.2c-183.7-95.7-457.4-235.4-606.6-310l-273.7-139.7v-252.6c0-139.7,3.8-254.5,7.7-254.5c1.9,0,264.1,134,577.9,294.7l572.2,296.6l82.3-166.5c44-91.9,258.3-532,472.7-979.8c239.2-495.6,411.4-830.5,440.1-855.4c59.3-51.7,126.3-70.8,191.4-55.5c26.8,7.6,306.2,206.7,621.9,444c313.8,237.3,579.8,428.7,591.3,426.7c9.6-3.8,260.3-222,558.8-486.1c574.1-507.1,669.8-583.7,732.9-583.7c23,0,225.8,55.5,451.6,122.5l411.4,120.6l187.5-172.2c176.1-160.8,189.5-170.3,212.4-135.9c15.3,19.1,74.6,101.4,134,179.9l107.2,143.5l-231.6,223.9C7431.3,1886.3,7351,1951.4,7307,1961c-45.9,7.6-179.9-23-486.1-112.9L6396,1723.7l-618.1,545.4c-338.7,298.5-637.3,553.1-664.1,564.5c-103.3,40.2-158.8,7.7-708.1-407.6c-294.7-223.9-543.5-400-551.1-392.3c-7.7,7.6-220.1,442.1-472.7,964.5c-398,824.8-466.9,954.9-524.4,993.2c-36.4,24.9-88,44-114.8,44C2716,4035.4,2541.9,3957,2358.2,3863.2z"/><path d="M8328.9,1536.1c-857.3-1182.7-1565.4-2151-1573.1-2151c-7.6,0-262.2,195.2-564.5,432.5c-302.4,237.3-576,445.9-608.5,463.1c-34.4,17.2-101.4,30.6-162.7,30.6c-200.9,0-197.1,3.8-859.2-886c-329.2-444-600.9-805.7-604.7-805.7c-1.9,0-176.1,78.5-384.7,176.1c-447.8,204.8-505.2,218.2-652.6,135.9c-84.2-45.9-200.9-176-769.3-847.8l-669.8-794.2l-1.9-338.7v-340.6h216.2l214.3,1.9l631.5,754c348.3,413.4,641.1,754,652.6,754c13.4,1.9,193.3-78.5,401.9-174.2c336.8-156.9,392.3-178,486.1-176c166.5,0,235.4,49.7,434.4,321.5c95.7,126.3,354,474.6,574.1,771.2l401.9,537.7l562.6-440.1c310-241.1,583.7-451.6,610.5-465c139.7-72.7,304.3-47.8,422.9,63.1c42.1,38.3,690.8,918.6,1442.9,1955.8l1368.3,1885V3046c0,354-1.9,644.9-3.8,643C9890.4,3689,9186.2,2720.7,8328.9,1536.1z"/><path d="M8818.8,257.8L8690.6,76l187.5-179.9c103.3-97.6,373.2-354,599-566.4l411.4-388.5l5.7,302.4l5.7,302.4l-63.1,65.1c-90,93.8-859.2,815.2-874.6,822.9C8954.6,435.8,8889.6,357.3,8818.8,257.8z"/></g></g>
</svg>