<?xml version="1.0" encoding="iso-8859-1"?>
<!-- Generator: Adobe Illustrator 19.0.0, SVG Export Plug-In . SVG Version: 6.00 Build 0)  -->
<svg version="1.1" id="Layer_1" xmlns="http://www.w3.org/2000/svg" xmlns:xlink="http://www.w3.org/1999/xlink" x="0px" y="0px"
	 viewBox="0 0 503.919 503.919" style="enable-background:new 0 0 503.919 503.919;" xml:space="preserve">
<g>
	<g>
		<g>
			<path d="M351.834,456.009V223.847c0-11.81-6.941-22.587-17.693-27.48l-8.939-4.062c-5.338-2.417-10.769-4.516-16.267-6.371
				l0.512-0.512c7.722-7.73,9.266-19.229,4.835-28.58l14.051-14.051c3.341,1.595,6.975,2.518,10.786,2.518
				c6.732,0,13.052-2.619,17.802-7.369l23.753-23.745c7.714-7.722,9.266-19.221,4.826-28.571l14.067-14.067
				c3.408,1.62,7.076,2.518,10.777,2.518c6.446,0,12.892-2.451,17.802-7.361l23.745-23.737c9.804-9.82,9.804-25.785-0.008-35.605
				c-9.82-9.829-25.785-9.829-35.605,0l-23.745,23.737c-4.751,4.751-7.369,11.079-7.369,17.802c0,3.811,0.923,7.453,2.518,10.794
				L373.64,73.747c-9.35-4.432-20.858-2.887-28.588,4.843l-23.737,23.737c-4.759,4.759-7.378,11.088-7.378,17.802
				c0,3.819,0.932,7.453,2.526,10.794l-14.051,14.051c-9.35-4.44-20.849-2.896-28.58,4.843l-22.721,22.721l-22.721-22.721
				c-7.73-7.73-19.238-9.283-28.588-4.851l-14.042-14.042c1.595-3.341,2.526-6.975,2.526-10.794c0-6.715-2.619-13.043-7.378-17.802
				L157.173,78.59c-7.739-7.73-19.238-9.275-28.588-4.843l-14.042-14.042c1.595-3.341,2.518-6.983,2.518-10.794
				c0-6.723-2.619-13.052-7.369-17.802L85.946,7.372c-9.829-9.829-25.801-9.829-35.613,0c-9.804,9.82-9.804,25.785,0.008,35.605
				l23.737,23.737c4.91,4.91,11.356,7.369,17.811,7.361c3.701,0,7.361-0.898,10.769-2.518l14.059,14.067
				c-4.432,9.35-2.879,20.849,4.843,28.571l23.745,23.745c4.751,4.751,11.071,7.369,17.802,7.369c3.811,0,7.445-0.923,10.786-2.518
				l14.034,14.034c-1.595,3.341-2.526,6.983-2.526,10.794c0,6.715,2.619,13.043,7.378,17.802l0.529,0.52
				c-5.573,1.897-11.037,3.978-16.283,6.362l-8.939,4.062c-10.744,4.885-17.693,15.671-17.693,27.48v232.163
				c0,11.81,6.95,22.595,17.685,27.48l10.299,4.675c23.115,10.509,47.927,15.755,72.738,15.755c24.811,0,49.622-5.246,72.738-15.755
				l10.29-4.675C344.892,478.596,351.834,467.819,351.834,456.009z M404.402,42.977l23.745-23.737
				c1.637-1.637,3.785-2.451,5.934-2.451s4.297,0.814,5.934,2.451c3.273,3.273,3.273,8.595,0,11.868l-23.737,23.737
				c-3.282,3.273-8.612,3.257-11.877,0c-1.586-1.578-2.451-3.685-2.451-5.934C401.951,46.678,402.824,44.563,404.402,42.977z
				 M333.183,114.195l23.737-23.737c1.645-1.637,3.794-2.451,5.943-2.451c2.149,0,4.297,0.814,5.934,2.451
				c3.265,3.273,3.265,8.603,0,11.868l-23.745,23.745c-3.164,3.173-8.687,3.181-11.868-0.008c-1.586-1.586-2.459-3.685-2.459-5.934
				C330.724,117.896,331.597,115.79,333.183,114.195z M97.823,54.845c-3.282,3.273-8.612,3.273-11.877,0L62.209,31.108
				c-3.273-3.273-3.273-8.595,0-11.868c1.628-1.637,3.785-2.451,5.934-2.451c2.149,0,4.297,0.814,5.934,2.451l23.737,23.737
				c1.586,1.586,2.459,3.702,2.459,5.934C100.274,51.16,99.409,53.267,97.823,54.845z M169.033,126.072
				c-3.164,3.173-8.696,3.173-11.86,0l-23.745-23.745c-3.265-3.265-3.265-8.595,0-11.868c1.637-1.637,3.785-2.451,5.934-2.451
				c2.149,0,4.306,0.814,5.943,2.451l23.737,23.737c1.586,1.595,2.459,3.701,2.459,5.934
				C171.5,122.378,170.627,124.477,169.033,126.072z M285.702,161.685c3.282-3.282,8.603-3.282,11.868,0
				c3.273,3.265,3.273,8.595,0.008,11.868l-7.143,7.134c-0.621-0.134-1.251-0.227-1.88-0.361c-0.386-0.084-0.789-0.151-1.175-0.227
				c-5.733-1.183-11.507-2.149-17.332-2.761L285.702,161.685z M204.646,161.685c1.637-1.645,3.794-2.451,5.934-2.451
				c2.157,0,4.306,0.806,5.943,2.451l23.737,23.737c0.755,0.755,1.326,1.645,1.737,2.594c0.126,0.294,0.151,0.596,0.243,0.898
				c0.193,0.655,0.361,1.318,0.395,2.014c0.017,0.352-0.017,0.697-0.042,1.049c-0.05,0.688-0.176,1.351-0.394,1.989
				c-0.092,0.294-0.168,0.596-0.302,0.881c-0.411,0.881-0.923,1.729-1.637,2.442c-1.586,1.586-3.76,2.384-5.934,2.384
				c-1.083,0-2.174-0.201-3.19-0.596c-1.007-0.395-1.947-0.99-2.745-1.788l-13.287-13.287c0-0.008-0.008-0.008-0.008-0.008
				l-10.45-10.441c-1.586-1.595-2.459-3.701-2.459-5.934C202.187,165.37,203.06,163.271,204.646,161.685z M293.079,428.059h-83.934
				c-4.633,0-8.393-3.752-8.393-8.393c0-4.642,3.76-8.393,8.393-8.393h83.934c4.633,0,8.393,3.752,8.393,8.393
				C301.473,424.307,297.713,428.059,293.079,428.059z M293.079,377.699h-83.934c-4.633,0-8.393-3.752-8.393-8.393
				c0-4.642,3.76-8.393,8.393-8.393h83.934c4.633,0,8.393,3.752,8.393,8.393C301.473,373.947,297.713,377.699,293.079,377.699z
				 M293.079,327.338h-83.934c-4.633,0-8.393-3.752-8.393-8.393c0-4.642,3.76-8.393,8.393-8.393h83.934
				c4.633,0,8.393,3.752,8.393,8.393C301.473,323.586,297.713,327.338,293.079,327.338z M293.079,276.977h-83.934
				c-4.633,0-8.393-3.752-8.393-8.393c0-4.642,3.76-8.393,8.393-8.393h83.934c4.633,0,8.393,3.752,8.393,8.393
				C301.473,273.225,297.713,276.977,293.079,276.977z"/>
			<path d="M458.932,410.977l-83.397-216.668c-5.028-13.077-22.864-17.517-32.096-18.054l-13.203-0.034
				c0.63,0.269,1.276,0.512,1.905,0.797l8.947,4.071c16.728,7.604,27.531,24.383,27.531,42.756v119.993l1.326-0.512
				c4.314-1.645,9.182,0.487,10.844,4.826c1.67,4.323-0.495,9.182-4.818,10.853l-7.353,2.82v35.966l19.414-7.47
				c4.323-1.645,9.174,0.495,10.844,4.818c1.67,4.331-0.487,9.182-4.818,10.853l-25.44,9.795v40.221
				c0,18.382-10.802,35.16-27.531,42.756l-9.216,4.197c42.311-3.106,82.382-21.286,112.497-51.922l7.923-8.066
				C460.569,434.546,463.171,421.989,458.932,410.977z"/>
		</g>
	</g>
</g>
<g>
</g>
<g>
</g>
<g>
</g>
<g>
</g>
<g>
</g>
<g>
</g>
<g>
</g>
<g>
</g>
<g>
</g>
<g>
</g>
<g>
</g>
<g>
</g>
<g>
</g>
<g>
</g>
<g>
</g>
</svg>
