<svg id="svg" version="1.1" xmlns="http://www.w3.org/2000/svg" xmlns:xlink="http://www.w3.org/1999/xlink" width="400" height="400" viewBox="0, 0, 400,194.66666666666666"><g id="svgg"><path id="path0" d="M275.316 0.135 C 274.701 0.178,274.197 0.284,274.197 0.370 C 274.197 0.456,272.965 0.587,271.459 0.662 C 269.953 0.736,268.502 0.881,268.233 0.983 C 267.965 1.085,267.400 1.168,266.979 1.168 C 266.557 1.168,266.212 1.256,266.212 1.363 C 266.212 1.472,265.677 1.558,264.995 1.557 C 263.469 1.557,259.024 2.105,258.571 2.349 C 258.385 2.449,257.706 2.532,257.062 2.532 C 256.418 2.532,255.891 2.607,255.891 2.698 C 255.891 2.790,255.080 2.926,254.090 3.000 C 253.099 3.075,252.259 3.219,252.223 3.320 C 252.188 3.422,251.640 3.505,251.006 3.505 C 250.372 3.505,249.854 3.580,249.854 3.671 C 249.854 3.763,248.912 3.898,247.760 3.972 C 246.609 4.046,245.638 4.190,245.602 4.293 C 245.566 4.395,244.849 4.479,244.007 4.479 C 243.165 4.479,242.423 4.567,242.356 4.674 C 242.290 4.781,241.504 4.869,240.608 4.869 C 239.713 4.869,238.952 4.953,238.916 5.057 C 238.880 5.161,237.515 5.306,235.881 5.379 C 234.248 5.453,232.911 5.587,232.911 5.677 C 232.911 5.768,232.053 5.842,231.003 5.842 C 229.953 5.842,229.006 5.931,228.898 6.039 C 228.790 6.147,227.192 6.292,225.346 6.362 C 223.501 6.431,221.945 6.562,221.889 6.652 C 221.756 6.868,204.922 6.866,204.789 6.650 C 204.733 6.559,204.063 6.432,203.300 6.368 C 202.538 6.304,201.812 6.178,201.687 6.088 C 201.413 5.889,200.328 5.532,199.464 5.356 C 199.116 5.285,198.832 5.146,198.832 5.048 C 198.832 4.949,198.656 4.869,198.442 4.869 C 198.228 4.869,198.053 4.781,198.053 4.674 C 198.053 4.567,197.833 4.479,197.566 4.479 C 197.298 4.479,197.079 4.396,197.079 4.294 C 197.079 4.192,196.553 4.049,195.910 3.977 C 195.268 3.904,194.742 3.768,194.742 3.675 C 194.742 3.582,194.304 3.505,193.768 3.505 C 193.233 3.505,192.795 3.426,192.795 3.328 C 192.795 3.231,192.050 3.089,191.139 3.013 C 190.229 2.937,189.484 2.798,189.484 2.703 C 189.484 2.609,189.046 2.532,188.510 2.532 C 187.975 2.532,187.537 2.460,187.537 2.372 C 187.537 1.599,163.141 1.594,162.837 2.367 C 162.801 2.457,159.186 2.532,154.804 2.532 C 149.621 2.532,146.835 2.600,146.835 2.726 C 146.835 2.846,145.862 2.921,144.304 2.921 C 142.746 2.921,141.772 2.846,141.772 2.726 C 141.772 2.619,141.465 2.532,141.091 2.532 C 140.716 2.532,140.409 2.463,140.409 2.379 C 140.409 2.294,139.703 2.066,138.841 1.872 C 136.294 1.297,126.582 1.700,126.582 2.381 C 126.582 2.464,126.100 2.532,125.511 2.532 C 124.922 2.532,124.440 2.608,124.440 2.701 C 124.440 2.795,124.002 2.929,123.466 3.000 C 122.931 3.071,122.493 3.214,122.493 3.317 C 122.493 3.421,122.361 3.505,122.201 3.505 C 122.040 3.505,121.908 3.593,121.908 3.700 C 121.908 3.807,121.725 3.895,121.500 3.895 C 120.961 3.895,119.750 4.466,119.354 4.907 C 119.181 5.100,118.981 5.258,118.909 5.258 C 118.838 5.258,118.527 5.499,118.219 5.794 C 117.347 6.627,117.079 6.816,116.769 6.816 C 116.611 6.816,116.426 6.991,116.358 7.205 C 116.281 7.450,116.064 7.595,115.775 7.595 C 115.522 7.595,115.184 7.726,115.023 7.887 C 114.862 8.048,114.593 8.179,114.425 8.179 C 114.257 8.179,114.119 8.267,114.119 8.374 C 114.119 8.481,113.922 8.569,113.681 8.569 C 113.440 8.570,112.811 8.789,112.284 9.056 C 111.758 9.324,111.171 9.542,110.981 9.542 C 110.792 9.542,110.582 9.630,110.516 9.737 C 110.450 9.844,110.155 9.932,109.860 9.932 C 109.566 9.932,109.155 10.061,108.947 10.218 C 108.739 10.375,108.415 10.506,108.228 10.510 C 108.040 10.513,107.887 10.594,107.887 10.690 C 107.887 10.785,107.690 10.913,107.449 10.975 C 106.664 11.175,103.213 14.408,103.213 14.944 C 103.213 15.032,103.041 15.228,102.831 15.379 C 102.621 15.531,102.390 15.923,102.318 16.250 C 102.246 16.577,102.034 16.953,101.846 17.084 C 101.659 17.215,101.447 17.638,101.374 18.024 C 101.302 18.409,101.073 19.027,100.865 19.397 C 100.657 19.767,100.487 20.282,100.487 20.540 C 100.487 20.798,100.402 21.062,100.298 21.126 C 100.194 21.190,100.051 21.677,99.981 22.209 C 99.910 22.740,99.776 23.174,99.683 23.174 C 99.589 23.174,99.513 23.595,99.513 24.109 C 99.513 24.623,99.420 25.137,99.305 25.252 C 99.191 25.366,99.046 26.615,98.983 28.027 L 98.869 30.595 98.372 30.536 C 97.965 30.488,97.837 30.326,97.671 29.654 C 97.560 29.201,97.315 28.652,97.128 28.434 C 96.940 28.217,96.787 27.956,96.787 27.855 C 96.787 27.754,96.568 27.452,96.300 27.184 C 96.032 26.916,95.813 26.616,95.813 26.516 C 95.813 26.416,95.522 26.197,95.167 26.028 C 94.195 25.567,93.150 24.491,92.997 23.793 C 92.922 23.453,92.780 23.174,92.682 23.174 C 92.583 23.174,92.502 22.955,92.502 22.687 C 92.502 22.385,92.392 22.201,92.210 22.201 C 92.050 22.201,91.918 22.127,91.918 22.037 C 91.918 21.781,90.988 21.422,90.325 21.422 C 89.574 21.422,88.218 21.817,88.218 22.037 C 88.218 22.127,87.999 22.201,87.731 22.201 C 87.463 22.201,87.244 22.278,87.244 22.374 C 87.244 22.469,86.938 22.604,86.563 22.675 C 86.188 22.745,85.881 22.886,85.881 22.988 C 85.881 23.091,85.706 23.174,85.492 23.174 C 85.278 23.174,85.102 23.262,85.102 23.369 C 85.102 23.476,84.934 23.564,84.729 23.564 C 84.306 23.564,83.158 24.168,83.156 24.391 C 83.155 24.472,83.050 24.537,82.921 24.537 C 82.604 24.537,80.818 26.461,80.818 26.802 C 80.818 27.077,80.758 27.224,80.169 28.399 C 79.990 28.756,79.844 29.211,79.844 29.410 C 79.844 29.610,79.757 29.827,79.649 29.893 C 79.542 29.959,79.455 30.832,79.455 31.840 C 79.455 32.848,79.542 33.721,79.649 33.788 C 79.757 33.854,79.844 34.117,79.844 34.372 C 79.844 34.627,79.922 34.884,80.017 34.943 C 80.112 35.001,80.247 35.357,80.318 35.733 C 80.388 36.109,80.530 36.417,80.632 36.417 C 80.734 36.417,80.818 36.539,80.818 36.688 C 80.818 36.838,81.035 37.166,81.301 37.419 C 81.567 37.671,81.788 37.965,81.792 38.072 C 81.795 38.179,82.155 38.617,82.590 39.046 L 83.382 39.825 82.347 39.885 C 81.738 39.921,81.284 39.861,81.244 39.739 C 81.204 39.620,80.603 39.533,79.825 39.533 C 79.083 39.533,78.324 39.450,78.138 39.350 C 77.952 39.250,76.375 39.013,74.635 38.824 C 72.894 38.635,71.470 38.410,71.470 38.325 C 71.470 38.239,71.317 38.167,71.130 38.163 C 70.942 38.160,70.619 38.028,70.411 37.871 C 70.203 37.714,69.838 37.585,69.599 37.585 C 69.361 37.585,69.137 37.518,69.101 37.436 C 68.995 37.194,66.917 36.611,66.158 36.611 C 65.772 36.611,65.402 36.524,65.336 36.417 C 65.270 36.310,64.875 36.222,64.460 36.222 C 64.044 36.222,63.649 36.134,63.583 36.027 C 63.517 35.920,63.161 35.833,62.793 35.833 C 62.424 35.833,62.123 35.757,62.123 35.665 C 62.123 35.572,61.627 35.438,61.021 35.367 C 60.323 35.285,59.806 35.107,59.609 34.881 C 59.439 34.685,59.080 34.457,58.812 34.374 C 58.544 34.290,58.281 34.168,58.228 34.102 C 57.999 33.821,57.224 33.496,56.781 33.496 C 56.519 33.496,56.249 33.408,56.183 33.301 C 56.026 33.047,54.528 33.047,54.528 33.301 C 54.528 33.408,54.195 33.496,53.788 33.496 C 53.381 33.496,52.943 33.601,52.814 33.729 C 52.272 34.271,52.715 37.317,53.405 37.796 C 53.495 37.858,53.569 38.428,53.571 39.062 C 53.574 40.363,54.137 43.427,54.373 43.427 C 54.458 43.427,54.528 43.641,54.528 43.903 C 54.528 44.164,54.606 44.426,54.701 44.485 C 54.796 44.544,54.933 44.826,55.005 45.112 C 55.141 45.657,57.824 48.491,58.204 48.491 C 58.324 48.491,58.423 48.572,58.423 48.672 C 58.423 48.772,58.601 48.911,58.818 48.980 C 59.235 49.112,60.175 49.905,60.175 50.125 C 60.175 50.361,62.529 52.559,62.912 52.681 C 63.121 52.747,63.291 52.883,63.291 52.983 C 63.291 53.083,63.423 53.165,63.583 53.165 C 63.744 53.165,63.875 53.252,63.875 53.359 C 63.875 53.466,64.165 53.554,64.518 53.554 C 64.871 53.554,65.268 53.661,65.399 53.793 C 65.563 53.956,66.687 54.056,68.956 54.108 L 72.274 54.184 71.904 54.599 C 71.424 55.138,70.886 56.325,70.886 56.845 C 70.886 57.070,70.798 57.254,70.691 57.254 C 70.576 57.254,70.497 57.968,70.497 59.007 C 70.497 59.971,70.572 60.759,70.664 60.759 C 70.756 60.759,70.883 61.262,70.947 61.876 C 71.010 62.490,71.154 63.023,71.266 63.061 C 71.378 63.098,71.470 63.324,71.470 63.563 C 71.470 63.802,71.699 64.471,71.978 65.049 C 72.497 66.126,72.533 67.564,72.053 68.045 C 71.947 68.151,71.860 68.565,71.860 68.966 C 71.860 69.367,71.772 69.749,71.665 69.815 C 71.558 69.881,71.470 70.219,71.470 70.567 C 71.470 70.914,71.380 71.288,71.270 71.398 C 71.160 71.508,71.017 72.051,70.951 72.605 C 70.886 73.159,70.756 73.612,70.664 73.612 C 70.572 73.612,70.497 74.051,70.497 74.586 L 70.497 75.560 234.642 75.560 L 398.787 75.560 398.891 75.024 C 398.948 74.730,399.087 74.138,399.200 73.710 C 399.314 73.281,399.409 72.576,399.411 72.142 C 399.414 71.708,399.525 71.244,399.659 71.110 C 399.842 70.927,399.903 69.589,399.903 65.780 C 399.903 61.885,399.846 60.675,399.659 60.613 C 399.525 60.569,399.416 60.306,399.416 60.030 C 399.416 59.377,398.807 57.449,398.601 57.449 C 398.514 57.449,398.442 57.292,398.442 57.101 C 398.442 56.709,397.797 54.791,397.598 54.592 C 397.527 54.521,397.468 54.258,397.468 54.008 C 397.468 53.759,397.392 53.554,397.299 53.554 C 397.205 53.554,397.070 53.028,396.997 52.386 C 396.924 51.743,396.782 51.217,396.680 51.217 C 396.578 51.217,396.495 50.910,396.495 50.536 C 396.495 50.161,396.415 49.854,396.317 49.854 C 396.219 49.854,396.080 49.504,396.008 49.076 C 395.936 48.648,395.797 48.249,395.699 48.188 C 395.601 48.128,395.521 47.821,395.521 47.506 C 395.521 47.191,395.433 46.933,395.326 46.933 C 395.219 46.933,395.129 46.779,395.125 46.592 C 395.122 46.405,394.990 46.081,394.833 45.873 C 394.676 45.665,394.547 45.325,394.547 45.117 C 394.547 44.909,394.391 44.597,394.201 44.424 C 394.010 44.251,393.690 43.737,393.490 43.281 C 393.289 42.826,393.051 42.454,392.960 42.454 C 392.869 42.454,392.795 42.322,392.795 42.162 C 392.795 42.001,392.707 41.870,392.600 41.870 C 392.493 41.870,392.405 41.759,392.405 41.624 C 392.405 41.489,392.197 41.154,391.942 40.880 C 391.688 40.605,391.419 40.190,391.345 39.957 C 391.271 39.723,391.129 39.533,391.029 39.533 C 390.929 39.533,390.847 39.401,390.847 39.241 C 390.847 39.080,390.759 38.948,390.652 38.948 C 390.545 38.948,390.458 38.773,390.458 38.559 C 390.458 38.343,390.328 38.169,390.166 38.169 C 390.005 38.169,389.873 38.057,389.873 37.920 C 389.873 37.783,389.698 37.545,389.484 37.390 C 389.270 37.236,389.094 37.012,389.094 36.893 C 389.094 36.774,388.744 36.297,388.315 35.833 C 387.887 35.368,387.537 34.878,387.537 34.742 C 387.537 34.607,387.361 34.440,387.147 34.372 C 386.933 34.304,386.758 34.163,386.758 34.059 C 386.758 33.789,379.387 26.095,379.128 26.095 C 379.079 26.095,378.441 25.526,377.709 24.830 C 376.978 24.133,376.303 23.564,376.209 23.564 C 376.115 23.564,375.549 23.082,374.950 22.493 C 374.351 21.904,373.793 21.422,373.709 21.422 C 373.625 21.422,373.286 21.181,372.957 20.886 C 372.627 20.592,371.953 20.044,371.460 19.669 C 370.966 19.294,370.284 18.748,369.945 18.455 C 369.606 18.162,369.238 17.921,369.128 17.919 C 369.017 17.918,368.801 17.741,368.647 17.527 C 368.492 17.313,368.263 17.137,368.138 17.137 C 368.012 17.137,367.859 17.006,367.797 16.845 C 367.735 16.685,367.551 16.553,367.387 16.553 C 367.223 16.553,367.089 16.465,367.089 16.358 C 367.089 16.251,366.995 16.164,366.880 16.164 C 366.765 16.164,366.549 16.054,366.400 15.920 C 365.755 15.342,365.535 15.190,365.344 15.190 C 365.233 15.190,365.141 15.112,365.141 15.018 C 365.141 14.923,364.988 14.794,364.800 14.731 C 364.364 14.585,363.831 14.233,363.206 13.681 C 362.934 13.440,362.566 13.242,362.389 13.242 C 362.212 13.242,362.020 13.120,361.962 12.970 C 361.905 12.820,361.545 12.594,361.163 12.468 C 360.780 12.342,360.467 12.158,360.467 12.059 C 360.467 11.960,360.336 11.879,360.175 11.879 C 360.015 11.879,359.883 11.811,359.883 11.728 C 359.883 11.645,359.490 11.404,359.009 11.193 C 358.528 10.981,358.133 10.742,358.132 10.662 C 358.131 10.582,357.999 10.516,357.838 10.516 C 357.678 10.516,357.546 10.438,357.546 10.343 C 357.546 10.248,357.240 10.112,356.865 10.042 C 356.490 9.972,356.183 9.831,356.183 9.728 C 356.183 9.626,356.008 9.542,355.794 9.542 C 355.579 9.542,355.404 9.455,355.404 9.348 C 355.404 9.241,355.273 9.153,355.112 9.153 C 354.951 9.153,354.820 9.069,354.820 8.967 C 354.820 8.865,354.513 8.723,354.138 8.653 C 353.763 8.583,353.457 8.447,353.457 8.352 C 353.457 8.257,353.303 8.176,353.116 8.173 C 352.928 8.170,352.605 8.038,352.397 7.881 C 352.189 7.724,351.729 7.595,351.375 7.595 C 351.020 7.595,350.730 7.507,350.730 7.400 C 350.730 7.293,350.516 7.205,350.255 7.205 C 349.993 7.205,349.725 7.118,349.659 7.011 C 349.593 6.904,349.286 6.816,348.978 6.816 C 348.669 6.816,348.366 6.734,348.304 6.634 C 348.242 6.534,347.492 6.392,346.637 6.317 C 345.782 6.242,345.083 6.105,345.083 6.012 C 345.083 5.919,344.338 5.842,343.427 5.842 C 342.517 5.842,341.772 5.768,341.772 5.677 C 341.772 5.586,340.304 5.450,338.510 5.374 C 336.716 5.299,335.165 5.154,335.063 5.053 C 334.962 4.951,333.800 4.869,332.483 4.869 C 331.016 4.869,330.088 4.793,330.088 4.674 C 330.088 4.553,329.022 4.479,327.280 4.479 C 325.598 4.479,324.447 4.402,324.408 4.286 C 324.369 4.171,322.482 4.041,319.718 3.963 C 317.174 3.891,315.093 3.759,315.093 3.669 C 315.093 3.579,313.917 3.505,312.480 3.505 C 310.922 3.505,309.841 3.427,309.802 3.312 C 309.766 3.205,308.926 3.061,307.936 2.991 C 306.945 2.920,306.134 2.788,306.134 2.697 C 306.134 2.606,305.616 2.532,304.982 2.532 C 304.348 2.532,303.801 2.463,303.765 2.378 C 303.676 2.169,299.658 1.554,298.393 1.556 C 297.831 1.557,297.371 1.479,297.371 1.382 C 297.371 1.188,296.706 1.090,293.087 0.749 C 291.748 0.623,290.590 0.425,290.514 0.309 C 290.376 0.099,277.840 -0.044,275.316 0.135 M197.079 20.341 C 197.079 20.497,196.996 20.826,196.895 21.072 C 196.794 21.318,196.264 22.965,195.716 24.732 C 195.169 26.500,194.645 28.165,194.552 28.432 C 194.460 28.700,193.927 30.365,193.370 32.132 C 192.812 33.900,192.244 35.696,192.108 36.125 C 191.811 37.056,191.798 37.030,192.951 37.810 C 193.454 38.150,194.830 39.145,196.008 40.020 C 197.186 40.895,199.859 42.861,201.947 44.390 C 204.036 45.918,205.773 47.291,205.808 47.440 C 205.861 47.669,204.704 47.712,198.486 47.712 C 194.424 47.712,190.450 47.767,189.656 47.834 L 188.211 47.956 186.799 52.264 C 182.262 66.105,182.616 65.227,182.143 63.827 C 182.025 63.479,180.814 59.820,179.452 55.696 C 178.089 51.573,176.886 48.089,176.779 47.955 C 176.628 47.767,174.621 47.712,167.941 47.712 C 158.389 47.712,158.533 47.734,160.224 46.541 C 160.733 46.182,161.938 45.307,162.902 44.596 C 164.747 43.236,173.181 36.982,173.282 36.899 C 173.338 36.853,172.737 34.871,171.955 32.522 C 171.759 31.933,170.926 29.348,170.104 26.777 C 169.282 24.206,168.493 21.753,168.352 21.324 C 168.042 20.386,168.254 20.038,168.895 20.433 C 169.286 20.675,180.353 28.504,180.818 28.869 C 182.151 29.912,182.553 30.159,182.740 30.049 C 183.079 29.847,188.168 26.204,192.600 22.990 C 196.584 20.100,197.079 19.808,197.079 20.341 M283.383 23.723 C 286.203 25.739,289.318 27.973,290.306 28.689 C 292.577 30.334,292.161 30.420,296.180 27.488 C 302.043 23.211,306.517 20.058,306.723 20.058 C 306.977 20.058,306.873 20.475,305.731 24.051 C 305.217 25.657,304.345 28.418,303.792 30.185 C 303.239 31.952,302.527 34.166,302.211 35.105 C 301.535 37.111,301.438 36.862,303.456 38.312 C 304.340 38.947,306.422 40.463,308.082 41.681 C 309.742 42.899,312.108 44.631,313.340 45.531 C 316.536 47.867,317.087 47.673,307.029 47.746 C 299.624 47.800,298.320 47.852,298.094 48.101 C 297.949 48.262,297.311 50.009,296.676 51.983 C 294.213 59.639,292.591 64.335,292.387 64.402 C 292.261 64.443,291.114 61.266,289.580 56.627 C 288.153 52.313,286.867 48.542,286.721 48.247 L 286.455 47.712 277.780 47.712 C 270.321 47.712,269.114 47.672,269.168 47.431 C 269.202 47.276,270.852 45.957,272.833 44.499 C 274.815 43.041,276.655 41.683,276.923 41.482 C 277.191 41.280,278.659 40.189,280.185 39.057 C 283.371 36.694,283.233 37.009,282.306 34.207 C 281.946 33.120,281.428 31.529,281.155 30.672 C 280.881 29.815,280.030 27.166,279.263 24.785 C 278.062 21.054,277.834 20.058,278.185 20.058 C 278.223 20.058,280.562 21.708,283.383 23.723 M115.257 21.464 C 116.184 22.130,117.058 22.787,117.200 22.925 C 117.341 23.062,117.522 23.174,117.601 23.174 C 117.681 23.174,117.915 23.328,118.123 23.517 C 118.331 23.705,120.341 25.168,122.590 26.767 C 124.839 28.365,126.907 29.839,127.185 30.041 L 127.690 30.408 130.204 28.581 C 131.586 27.576,133.593 26.123,134.664 25.352 C 135.735 24.582,137.781 23.110,139.210 22.081 C 142.101 20.000,142.359 19.965,141.794 21.725 C 141.590 22.362,140.968 24.328,140.412 26.095 C 139.856 27.863,139.241 29.791,139.044 30.380 C 138.848 30.969,138.318 32.634,137.867 34.080 C 137.416 35.526,137.010 36.808,136.964 36.929 C 136.896 37.105,139.615 39.237,142.722 41.444 C 142.976 41.624,143.414 41.952,143.695 42.171 C 143.976 42.391,145.614 43.589,147.334 44.834 C 150.538 47.152,151.065 47.602,150.781 47.778 C 150.691 47.833,146.704 47.942,141.921 48.019 L 133.224 48.160 132.816 49.543 C 132.592 50.303,132.332 51.100,132.239 51.315 C 132.145 51.529,131.119 54.591,129.958 58.119 C 128.798 61.648,127.754 64.564,127.638 64.600 C 127.517 64.637,126.298 61.262,124.758 56.626 C 123.290 52.204,122.012 48.464,121.920 48.314 C 121.781 48.089,120.228 48.025,113.066 47.947 C 106.882 47.879,104.383 47.790,104.388 47.636 C 104.393 47.455,106.935 45.518,113.033 41.048 C 113.577 40.650,114.177 40.202,114.368 40.053 C 114.559 39.904,115.497 39.222,116.454 38.538 C 118.712 36.922,118.684 37.901,116.657 31.646 C 114.937 26.335,113.358 21.332,113.229 20.789 C 113.042 19.995,113.359 20.101,115.257 21.464 M225.484 21.778 C 227.464 23.235,236.879 29.966,237.311 30.233 C 237.425 30.304,238.913 29.355,240.619 28.125 C 253.354 18.940,252.322 19.564,251.709 21.422 C 251.359 22.480,250.320 25.741,249.568 28.140 C 249.266 29.104,248.820 30.506,248.577 31.256 C 246.729 36.962,246.705 37.051,246.968 37.304 C 247.109 37.439,249.635 39.313,252.580 41.468 C 259.847 46.783,260.818 47.537,260.629 47.722 C 260.540 47.810,256.556 47.944,251.775 48.021 L 243.082 48.160 241.570 52.756 C 237.918 63.860,237.673 64.557,237.417 64.557 C 237.248 64.557,236.211 61.700,234.440 56.359 L 231.723 48.161 228.781 48.034 C 227.163 47.964,223.224 47.907,220.027 47.907 C 213.479 47.907,213.461 47.902,215.239 46.616 C 216.163 45.947,217.472 44.984,223.369 40.635 C 227.165 37.836,228.043 37.136,228.043 36.909 C 228.043 36.781,227.877 36.157,227.674 35.524 C 227.472 34.890,226.760 32.663,226.093 30.574 C 225.427 28.486,224.453 25.463,223.931 23.856 C 222.537 19.570,222.518 19.595,225.484 21.778 M338.083 23.812 C 340.820 25.764,343.292 27.537,343.576 27.751 C 343.860 27.965,344.405 28.359,344.788 28.627 C 345.171 28.895,345.873 29.408,346.348 29.768 L 347.212 30.422 350.188 28.314 C 351.825 27.155,353.208 26.154,353.262 26.089 C 353.686 25.577,361.499 20.236,361.625 20.372 C 361.714 20.467,361.308 22.035,360.723 23.856 C 360.138 25.677,359.216 28.569,358.674 30.282 C 358.132 31.996,357.425 34.229,357.103 35.244 L 356.517 37.089 357.178 37.634 C 357.784 38.133,362.455 41.572,368.111 45.685 C 371.240 47.959,371.291 47.901,366.164 47.933 C 363.834 47.947,359.885 48.013,357.388 48.079 L 352.848 48.199 352.295 49.854 C 351.990 50.764,350.811 54.357,349.674 57.838 C 347.454 64.638,347.339 64.927,347.035 64.460 C 346.930 64.299,345.654 60.576,344.199 56.187 C 342.743 51.798,341.449 48.140,341.322 48.059 C 341.194 47.979,337.257 47.911,332.571 47.910 C 325.494 47.907,324.051 47.861,324.051 47.640 C 324.051 47.370,324.447 47.066,333.057 40.720 C 335.708 38.767,337.877 37.062,337.877 36.933 C 337.877 36.804,337.668 36.043,337.412 35.243 C 336.448 32.230,333.917 24.366,333.308 22.493 C 332.354 19.559,331.970 19.453,338.083 23.812 M347.959 187.872 C 348.309 187.916,348.835 187.915,349.127 187.870 C 349.420 187.826,349.133 187.791,348.491 187.792 C 347.848 187.793,347.609 187.829,347.959 187.872 M351.463 187.869 C 351.705 187.916,352.056 187.914,352.242 187.865 C 352.428 187.816,352.230 187.778,351.801 187.780 C 351.373 187.783,351.221 187.822,351.463 187.869 " stroke="none" fill="#1404bc" fill-rule="evenodd"></path><path id="path1" d="M168.452 20.566 C 168.452 20.744,170.044 25.804,171.081 28.919 C 173.857 37.264,173.822 36.935,172.057 38.169 C 168.579 40.602,159.747 47.244,159.821 47.371 C 159.868 47.451,163.702 47.517,168.342 47.517 C 174.953 47.517,176.823 47.571,176.985 47.766 C 177.098 47.903,178.378 51.597,179.829 55.974 C 181.280 60.352,182.503 63.970,182.547 64.014 C 182.591 64.058,182.994 62.972,183.441 61.599 C 183.888 60.227,184.326 58.929,184.413 58.715 C 184.500 58.500,185.339 55.959,186.276 53.067 C 187.214 50.175,188.078 47.745,188.197 47.666 C 188.316 47.587,192.188 47.522,196.803 47.520 C 201.418 47.518,205.248 47.462,205.316 47.395 C 205.446 47.264,203.062 45.463,196.082 40.419 C 194.756 39.461,193.627 38.624,193.574 38.559 C 193.520 38.494,193.060 38.146,192.551 37.786 C 192.042 37.425,191.626 37.046,191.626 36.944 C 191.626 36.771,193.145 31.872,193.963 29.406 C 194.158 28.817,194.770 26.889,195.321 25.122 C 195.873 23.354,196.415 21.618,196.526 21.263 C 196.824 20.311,196.705 20.336,195.017 21.581 C 194.169 22.206,191.767 23.932,189.679 25.417 C 187.590 26.902,185.837 28.169,185.784 28.233 C 185.532 28.534,182.844 30.380,182.658 30.380 C 182.478 30.380,177.770 27.066,171.276 22.368 C 168.975 20.704,168.452 20.370,168.452 20.566 M278.132 20.561 C 278.245 20.755,279.675 25.131,281.594 31.159 C 282.259 33.247,282.936 35.373,283.099 35.882 C 283.480 37.075,284.083 36.511,276.253 42.287 C 272.572 45.003,269.601 47.291,269.650 47.371 C 269.700 47.451,273.537 47.517,278.177 47.517 C 284.695 47.517,286.655 47.572,286.801 47.760 C 286.904 47.894,288.164 51.572,289.600 55.933 C 291.035 60.294,292.289 63.839,292.386 63.810 C 292.482 63.782,292.816 62.974,293.127 62.016 C 296.258 52.376,297.819 47.795,298.014 47.671 C 298.142 47.590,302.023 47.522,306.637 47.520 C 315.174 47.517,315.617 47.487,314.848 46.962 C 314.608 46.798,313.447 45.951,312.269 45.081 C 311.091 44.210,308.169 42.066,305.775 40.315 C 301.489 37.180,301.426 37.124,301.542 36.531 C 301.654 35.956,303.473 30.118,303.793 29.309 C 303.877 29.094,304.165 28.218,304.433 27.361 C 304.700 26.504,305.289 24.636,305.741 23.210 C 306.193 21.784,306.525 20.579,306.478 20.532 C 306.400 20.454,303.634 22.301,303.408 22.583 C 303.354 22.649,301.602 23.923,299.513 25.414 C 297.425 26.905,295.029 28.632,294.190 29.252 C 293.350 29.872,292.570 30.380,292.456 30.380 C 292.342 30.380,289.173 28.179,285.413 25.488 C 278.924 20.845,277.889 20.144,278.132 20.561 M113.615 21.149 C 113.764 21.768,115.727 27.968,116.753 31.061 C 117.108 32.132,117.682 33.924,118.029 35.042 L 118.660 37.076 117.899 37.735 C 117.480 38.098,116.261 39.020,115.190 39.785 C 114.119 40.550,112.361 41.836,111.284 42.642 C 110.207 43.449,108.305 44.854,107.056 45.764 C 105.807 46.675,104.783 47.485,104.778 47.566 C 104.774 47.646,108.616 47.712,113.316 47.712 C 119.922 47.712,121.904 47.767,122.049 47.955 C 122.153 48.089,123.412 51.767,124.848 56.128 C 126.284 60.489,127.532 64.035,127.622 64.009 C 127.779 63.963,128.580 61.625,131.638 52.290 C 132.409 49.934,133.143 47.942,133.268 47.863 C 133.393 47.783,137.340 47.716,142.039 47.715 C 149.487 47.712,150.553 47.675,150.349 47.429 C 150.219 47.273,149.048 46.379,147.744 45.442 C 146.441 44.505,145.331 43.687,145.278 43.624 C 145.224 43.562,144.523 43.040,143.720 42.465 C 139.275 39.284,136.709 37.314,136.709 37.082 C 136.709 36.938,136.833 36.444,136.985 35.985 C 137.137 35.526,137.712 33.705,138.264 31.938 C 138.816 30.170,139.344 28.505,139.438 28.238 C 140.237 25.957,141.782 20.782,141.690 20.691 C 141.627 20.628,141.379 20.753,141.138 20.970 C 140.898 21.186,139.182 22.450,137.325 23.778 C 135.468 25.106,132.577 27.179,130.901 28.384 C 129.225 29.589,127.761 30.574,127.647 30.574 C 127.534 30.574,126.087 29.596,124.432 28.401 C 119.137 24.578,115.411 21.910,114.431 21.238 L 113.478 20.585 113.615 21.149 M223.369 21.014 C 223.369 21.228,223.452 21.605,223.553 21.851 C 223.728 22.275,225.945 29.166,227.393 33.788 C 227.762 34.966,228.147 36.131,228.248 36.377 C 228.350 36.623,228.432 36.908,228.432 37.009 C 228.432 37.178,226.518 38.628,217.519 45.278 L 214.356 47.614 223.098 47.712 L 231.840 47.809 234.567 55.928 C 236.066 60.394,237.343 64.095,237.405 64.154 C 237.466 64.213,237.927 63.013,238.428 61.488 C 238.929 59.963,240.130 56.308,241.097 53.367 C 242.064 50.426,242.962 47.952,243.092 47.869 C 243.223 47.786,247.185 47.716,251.897 47.715 L 260.463 47.712 259.979 47.270 C 259.712 47.028,259.012 46.484,258.423 46.062 C 257.261 45.230,251.995 41.369,248.637 38.886 C 246.358 37.202,246.373 37.230,246.916 35.651 C 247.121 35.055,247.739 33.121,248.289 31.353 C 248.840 29.586,249.368 27.921,249.463 27.653 C 249.558 27.386,249.997 25.983,250.438 24.537 C 250.880 23.092,251.335 21.665,251.450 21.367 C 251.565 21.069,251.608 20.774,251.547 20.713 C 251.447 20.613,250.304 21.306,250.049 21.620 C 249.995 21.686,248.155 23.026,245.959 24.598 C 243.763 26.170,241.003 28.161,239.825 29.023 C 238.647 29.885,237.545 30.556,237.378 30.513 C 237.210 30.470,234.406 28.512,231.146 26.161 C 223.066 20.335,223.369 20.536,223.369 21.014 M333.102 20.983 C 333.228 21.302,333.570 22.367,335.230 27.605 C 335.595 28.756,336.355 31.100,336.918 32.814 C 337.482 34.528,337.980 36.243,338.024 36.625 L 338.106 37.320 332.490 41.452 C 329.402 43.724,326.743 45.691,326.582 45.823 C 326.422 45.955,325.874 46.361,325.365 46.726 C 324.856 47.090,324.440 47.460,324.440 47.548 C 324.440 47.636,328.318 47.731,333.057 47.758 L 341.675 47.809 344.421 56.065 C 345.931 60.606,347.219 64.238,347.282 64.135 C 347.345 64.033,347.984 62.158,348.702 59.969 C 351.897 50.231,352.497 48.438,352.686 48.086 C 352.879 47.726,353.201 47.712,361.464 47.712 C 366.431 47.712,370.015 47.638,369.977 47.537 C 369.895 47.317,368.116 45.990,358.749 39.164 C 355.870 37.066,355.941 37.709,357.936 31.743 C 358.133 31.154,358.660 29.489,359.107 28.043 C 359.555 26.597,360.225 24.471,360.597 23.318 C 361.516 20.472,361.485 20.440,359.299 22.027 C 358.281 22.766,355.696 24.635,353.554 26.179 C 351.412 27.724,349.177 29.342,348.588 29.775 C 347.999 30.208,347.423 30.565,347.309 30.568 C 347.133 30.573,342.378 27.225,334.934 21.853 C 333.151 20.566,332.888 20.441,333.102 20.983 " stroke="none" fill="#f8f8fb" fill-rule="evenodd"></path><path id="path2" d="M69.231 79.455 C 69.311 79.584,124.186 79.649,233.226 79.649 C 342.427 79.649,397.062 79.584,396.981 79.455 C 396.901 79.325,342.026 79.260,232.986 79.260 C 123.785 79.260,69.151 79.325,69.231 79.455 M192.844 168.549 C 192.846 168.978,192.886 169.130,192.932 168.888 C 192.979 168.645,192.977 168.295,192.928 168.109 C 192.880 167.923,192.841 168.121,192.844 168.549 M201.993 172.152 C 201.993 172.527,202.033 172.680,202.082 172.493 C 202.131 172.305,202.131 171.999,202.082 171.811 C 202.033 171.624,201.993 171.777,201.993 172.152 M347.760 187.677 C 348.109 187.721,348.678 187.721,349.026 187.677 C 349.374 187.634,349.090 187.599,348.393 187.599 C 347.697 187.599,347.412 187.634,347.760 187.677 M351.048 187.691 C 350.995 187.775,351.275 187.814,351.669 187.777 C 352.873 187.663,353.015 187.583,352.056 187.559 C 351.554 187.547,351.100 187.606,351.048 187.691 M327.653 189.679 C 327.727 189.798,329.339 189.873,331.840 189.873 C 334.341 189.873,335.953 189.798,336.027 189.679 C 336.106 189.551,334.662 189.484,331.840 189.484 C 329.018 189.484,327.575 189.551,327.653 189.679 M223.102 193.728 C 223.050 193.812,223.307 193.847,223.675 193.804 C 224.042 193.761,224.343 193.691,224.343 193.650 C 224.343 193.503,223.196 193.575,223.102 193.728 M210.565 194.681 C 210.752 194.730,211.059 194.730,211.246 194.681 C 211.434 194.632,211.280 194.592,210.906 194.592 C 210.531 194.592,210.377 194.632,210.565 194.681 " stroke="none" fill="#cc0c0c" fill-rule="evenodd"></path><path id="path3" d="M46.038 78.090 C 45.932 78.197,45.599 78.304,45.299 78.329 C 44.734 78.376,43.643 79.414,43.598 79.948 C 43.584 80.105,43.561 80.387,43.546 80.574 C 43.531 80.762,43.456 81.014,43.379 81.135 C 43.129 81.527,43.387 85.516,43.681 85.811 C 43.756 85.885,43.817 86.129,43.818 86.352 C 43.818 86.575,43.983 87.028,44.185 87.358 C 44.386 87.688,44.612 88.324,44.688 88.771 C 44.779 89.312,44.901 89.538,45.051 89.447 C 45.179 89.371,45.163 89.453,45.016 89.634 C 44.766 89.942,44.638 92.762,44.841 93.476 C 44.887 93.637,44.997 94.031,45.085 94.352 C 45.174 94.674,45.402 95.193,45.592 95.507 C 45.783 95.821,45.894 96.150,45.840 96.237 C 45.786 96.325,45.834 96.397,45.948 96.397 C 46.061 96.397,46.154 96.500,46.154 96.625 C 46.154 96.751,46.299 97.014,46.476 97.210 C 46.865 97.639,43.902 97.768,43.475 97.340 C 43.307 97.173,43.181 97.171,42.984 97.335 C 42.665 97.600,36.710 97.683,36.359 97.428 C 36.066 97.215,34.757 96.765,34.536 96.802 C 34.271 96.846,33.496 96.558,33.496 96.416 C 33.496 96.344,33.306 96.271,33.075 96.254 C 32.844 96.236,32.603 96.141,32.539 96.041 C 32.476 95.942,32.052 95.798,31.597 95.722 C 31.142 95.646,30.769 95.504,30.769 95.406 C 30.769 95.309,30.550 95.229,30.282 95.229 C 30.015 95.229,29.796 95.151,29.796 95.055 C 29.796 94.907,29.213 94.665,28.530 94.529 C 28.005 94.426,27.459 94.196,27.459 94.079 C 27.459 94.007,27.269 93.934,27.038 93.917 C 26.807 93.899,26.556 93.786,26.481 93.664 C 26.405 93.542,26.287 93.457,26.216 93.474 C 25.921 93.547,24.927 93.236,24.927 93.071 C 24.927 92.973,24.752 92.892,24.537 92.892 C 24.323 92.892,24.148 92.804,24.148 92.697 C 24.148 92.590,24.082 92.514,24.002 92.529 C 23.729 92.578,22.201 91.860,22.201 91.682 C 22.201 91.585,22.109 91.562,21.997 91.631 C 21.885 91.700,21.579 91.616,21.316 91.444 C 21.053 91.271,20.837 91.182,20.837 91.245 C 20.837 91.309,20.583 91.179,20.272 90.958 C 19.961 90.736,19.610 90.555,19.493 90.555 C 19.375 90.555,19.097 90.373,18.875 90.150 C 18.652 89.928,18.359 89.789,18.224 89.841 C 18.088 89.893,17.856 89.768,17.709 89.564 C 17.561 89.359,17.336 89.192,17.207 89.192 C 16.893 89.192,15.777 88.547,15.775 88.364 C 15.775 88.284,15.653 88.218,15.506 88.218 C 15.358 88.218,15.128 88.087,14.995 87.926 C 14.862 87.765,14.583 87.634,14.376 87.634 C 14.168 87.634,14.053 87.546,14.119 87.439 C 14.185 87.332,14.099 87.244,13.927 87.244 C 13.755 87.244,13.395 87.025,13.127 86.758 C 12.860 86.490,12.513 86.271,12.357 86.271 C 12.201 86.271,12.074 86.183,12.074 86.076 C 12.074 85.969,11.943 85.881,11.782 85.881 C 11.621 85.881,11.490 85.799,11.490 85.700 C 11.490 85.600,11.305 85.459,11.079 85.388 C 10.854 85.316,10.525 85.138,10.349 84.992 C 9.723 84.472,8.459 83.539,7.692 83.030 C 7.264 82.745,6.884 82.438,6.848 82.347 C 6.813 82.256,6.673 82.181,6.538 82.181 C 6.194 82.181,5.616 81.502,5.793 81.306 C 5.874 81.218,5.842 81.201,5.722 81.269 C 5.603 81.337,5.348 81.220,5.157 81.008 C 4.965 80.796,4.652 80.623,4.462 80.623 C 4.272 80.623,4.063 80.456,3.998 80.252 C 3.802 79.634,2.677 79.234,1.314 79.299 L 0.097 79.357 0.066 81.255 C 0.048 82.299,0.110 83.200,0.203 83.257 C 0.296 83.315,0.318 83.505,0.251 83.680 C 0.169 83.892,0.204 83.951,0.356 83.857 C 0.557 83.733,0.693 84.221,0.607 84.761 C 0.595 84.842,0.662 84.907,0.757 84.907 C 0.852 84.907,0.988 85.214,1.058 85.589 C 1.129 85.964,1.270 86.271,1.372 86.271 C 1.474 86.271,1.558 86.402,1.558 86.563 C 1.558 86.723,1.651 86.855,1.764 86.855 C 1.878 86.855,1.917 86.941,1.853 87.046 C 1.788 87.151,1.845 87.435,1.980 87.679 C 2.115 87.922,2.206 88.186,2.184 88.267 C 2.161 88.347,2.230 88.413,2.337 88.413 C 2.444 88.413,2.532 88.588,2.532 88.802 C 2.532 89.017,2.597 89.192,2.678 89.193 C 2.883 89.195,3.505 90.328,3.505 90.701 C 3.505 90.870,3.559 90.956,3.623 90.891 C 3.787 90.728,4.267 91.198,4.144 91.401 C 4.003 91.633,4.502 92.511,4.703 92.387 C 4.794 92.331,4.869 92.465,4.869 92.686 C 4.869 92.906,4.948 93.087,5.044 93.087 C 5.141 93.087,5.312 93.350,5.424 93.671 C 5.536 93.992,5.717 94.255,5.827 94.255 C 5.937 94.255,6.173 94.540,6.351 94.888 C 6.530 95.236,6.759 95.575,6.861 95.641 C 6.963 95.707,7.148 95.931,7.272 96.140 C 8.004 97.370,8.426 97.933,8.687 98.034 C 8.850 98.096,8.928 98.235,8.862 98.343 C 8.795 98.451,8.833 98.539,8.947 98.539 C 9.060 98.539,9.153 98.671,9.153 98.832 C 9.153 98.992,9.239 99.124,9.345 99.124 C 9.451 99.124,9.771 99.494,10.058 99.947 C 10.344 100.401,10.783 100.933,11.034 101.130 C 11.285 101.327,11.490 101.609,11.490 101.756 C 11.490 101.903,11.644 102.137,11.834 102.277 C 12.023 102.417,12.285 102.775,12.416 103.073 C 12.547 103.370,12.787 103.664,12.949 103.726 C 13.110 103.788,13.242 103.999,13.242 104.194 C 13.242 104.389,13.462 104.720,13.729 104.931 C 13.997 105.142,14.216 105.404,14.216 105.514 C 14.216 105.624,14.567 106.068,14.995 106.501 C 15.424 106.934,15.774 107.385,15.774 107.504 C 15.774 107.798,16.283 108.287,16.433 108.137 C 16.544 108.026,16.630 108.373,16.576 108.715 C 16.563 108.795,16.685 108.861,16.845 108.861 C 17.006 108.861,17.137 108.956,17.137 109.072 C 17.137 109.188,17.444 109.581,17.819 109.945 C 18.194 110.309,18.500 110.678,18.500 110.764 C 18.500 110.851,19.202 111.644,20.058 112.525 C 20.915 113.406,21.616 114.213,21.616 114.318 C 21.616 114.423,21.733 114.508,21.876 114.508 C 22.018 114.508,22.252 114.727,22.395 114.995 C 22.539 115.263,22.758 115.482,22.882 115.482 C 23.007 115.482,23.224 115.698,23.365 115.962 C 23.507 116.226,23.691 116.400,23.775 116.348 C 23.859 116.296,24.083 116.519,24.274 116.842 C 24.465 117.165,24.693 117.429,24.781 117.429 C 24.869 117.429,25.325 117.824,25.793 118.306 C 26.262 118.788,26.742 119.182,26.861 119.182 C 26.980 119.182,27.177 119.401,27.299 119.669 C 27.421 119.937,27.676 120.156,27.866 120.156 C 28.056 120.156,28.267 120.331,28.335 120.545 C 28.403 120.759,28.540 120.935,28.639 120.935 C 28.738 120.935,29.053 121.198,29.339 121.519 C 29.626 121.840,29.982 122.103,30.131 122.103 C 30.281 122.103,30.363 122.169,30.314 122.249 C 30.266 122.330,30.348 122.508,30.498 122.646 C 30.647 122.785,30.769 122.840,30.769 122.769 C 30.769 122.698,31.101 122.980,31.507 123.394 C 31.912 123.809,32.571 124.395,32.972 124.697 C 33.372 124.999,33.907 125.453,34.161 125.707 C 34.415 125.961,34.676 126.116,34.741 126.051 C 34.806 125.986,34.859 126.063,34.859 126.222 C 34.859 126.381,35.200 126.702,35.617 126.937 C 36.034 127.171,36.423 127.487,36.481 127.638 C 36.539 127.789,36.833 128.035,37.135 128.185 C 37.436 128.335,37.658 128.569,37.629 128.703 C 37.600 128.838,37.654 128.900,37.750 128.840 C 37.846 128.781,38.198 128.993,38.532 129.313 C 38.866 129.632,39.184 129.893,39.239 129.893 C 39.427 129.893,40.214 130.770,40.163 130.923 C 40.135 131.008,40.195 131.234,40.298 131.425 C 40.400 131.616,40.502 132.401,40.525 133.170 C 40.547 133.938,40.640 134.567,40.731 134.567 C 40.821 134.567,40.896 134.917,40.896 135.346 C 40.896 135.774,40.970 136.125,41.061 136.125 C 41.151 136.125,41.204 136.453,41.179 136.855 C 41.153 137.257,41.208 137.679,41.301 137.794 C 41.394 137.909,41.479 139.596,41.489 141.543 C 41.500 143.579,41.585 145.083,41.689 145.083 C 41.788 145.083,41.870 145.336,41.870 145.645 C 41.870 145.954,41.996 146.451,42.152 146.751 C 42.307 147.050,42.389 147.367,42.334 147.456 C 42.279 147.545,42.371 147.670,42.539 147.734 C 42.706 147.798,42.843 148.066,42.843 148.328 C 42.843 148.591,42.915 148.761,43.003 148.707 C 43.091 148.653,43.313 149.024,43.496 149.533 C 43.678 150.041,44.001 150.582,44.212 150.734 C 44.423 150.886,44.596 151.123,44.596 151.260 C 44.596 151.397,44.698 151.509,44.823 151.509 C 44.948 151.509,44.997 151.562,44.932 151.627 C 44.867 151.692,45.033 151.977,45.301 152.260 C 45.569 152.543,46.016 153.016,46.295 153.311 C 46.575 153.605,46.881 153.846,46.977 153.846 C 47.072 153.846,47.096 153.934,47.030 154.041 C 46.964 154.148,47.046 154.236,47.213 154.236 C 47.380 154.236,47.517 154.322,47.517 154.427 C 47.517 154.532,47.736 154.673,48.004 154.740 C 48.272 154.807,48.491 154.921,48.491 154.993 C 48.491 155.065,48.723 155.144,49.007 155.167 C 49.290 155.191,49.619 155.286,49.737 155.380 C 50.083 155.654,54.945 156.043,56.403 155.913 C 58.440 155.731,59.472 155.566,59.699 155.387 C 59.812 155.298,60.264 155.199,60.703 155.168 C 61.142 155.137,61.460 155.046,61.411 154.966 C 61.361 154.886,61.479 154.813,61.673 154.805 C 61.990 154.792,62.402 154.729,63.138 154.579 C 63.276 154.551,63.440 154.458,63.503 154.372 C 63.567 154.286,63.808 154.202,64.039 154.184 C 64.270 154.167,64.460 154.084,64.460 153.999 C 64.460 153.794,65.383 153.802,65.511 154.009 C 65.566 154.099,65.926 154.184,66.311 154.198 C 66.696 154.213,67.116 154.291,67.244 154.372 C 67.853 154.755,74.247 154.848,74.616 154.479 C 74.749 154.345,75.060 154.236,75.307 154.236 C 75.553 154.236,75.755 154.148,75.755 154.041 C 75.755 153.934,75.908 153.846,76.095 153.845 C 76.504 153.843,77.557 153.182,77.400 153.025 C 77.340 152.965,77.554 152.798,77.876 152.656 C 78.198 152.513,78.568 152.197,78.699 151.953 C 78.829 151.709,79.068 151.509,79.228 151.509 C 79.388 151.509,79.469 151.458,79.406 151.396 C 79.271 151.261,79.958 150.536,80.221 150.536 C 80.320 150.536,80.456 150.365,80.523 150.156 C 80.633 149.807,81.299 149.432,81.646 149.523 C 81.726 149.544,81.792 149.474,81.792 149.367 C 81.792 149.260,81.962 149.172,82.170 149.172 C 82.378 149.172,82.605 149.080,82.674 148.967 C 82.744 148.855,82.900 148.795,83.022 148.836 C 83.143 148.876,83.457 148.798,83.720 148.661 C 83.983 148.525,84.270 148.458,84.358 148.512 C 84.446 148.567,84.518 148.518,84.518 148.405 C 84.518 148.291,84.737 148.199,85.005 148.199 C 85.273 148.199,85.492 148.122,85.492 148.029 C 85.492 147.935,85.842 147.803,86.271 147.734 C 86.699 147.666,87.050 147.523,87.050 147.417 C 87.050 147.312,87.313 147.225,87.634 147.225 C 87.955 147.225,88.218 147.144,88.218 147.046 C 88.218 146.947,88.480 146.809,88.800 146.739 C 89.120 146.668,89.432 146.530,89.493 146.431 C 89.554 146.332,89.735 146.251,89.895 146.251 C 90.055 146.251,90.509 146.032,90.903 145.764 C 91.297 145.497,91.774 145.278,91.963 145.278 C 92.153 145.278,92.308 145.202,92.308 145.111 C 92.308 145.019,92.870 144.693,93.558 144.386 C 94.246 144.079,94.767 143.760,94.715 143.676 C 94.664 143.593,94.723 143.525,94.846 143.525 C 94.970 143.525,95.326 143.344,95.637 143.122 C 95.948 142.901,96.203 142.760,96.203 142.811 C 96.203 142.861,96.474 142.648,96.807 142.338 C 97.139 142.028,97.511 141.831,97.634 141.901 C 97.757 141.972,97.797 141.962,97.724 141.880 C 97.596 141.739,98.493 140.930,99.828 139.984 C 100.162 139.747,100.623 139.278,100.854 138.941 C 101.085 138.604,101.491 138.212,101.756 138.070 C 102.022 137.928,102.202 137.775,102.158 137.731 C 102.059 137.632,102.437 137.163,103.651 135.876 C 104.160 135.337,104.577 134.843,104.577 134.780 C 104.577 134.716,105.862 134.664,107.433 134.664 C 109.545 134.664,110.310 134.601,110.370 134.421 C 110.415 134.287,110.619 134.177,110.824 134.177 C 111.030 134.177,111.198 134.099,111.198 134.004 C 111.198 133.909,111.491 133.776,111.849 133.709 C 112.285 133.627,112.575 133.426,112.722 133.103 C 112.843 132.837,113.075 132.619,113.238 132.619 C 113.401 132.619,113.535 132.530,113.535 132.421 C 113.535 132.311,113.732 131.895,113.974 131.496 C 114.215 131.096,114.443 130.550,114.480 130.282 C 114.516 130.015,114.640 129.682,114.754 129.543 C 114.868 129.403,114.998 128.746,115.043 128.082 C 115.125 126.877,115.263 126.462,115.428 126.924 C 115.476 127.059,115.595 127.119,115.693 127.059 C 115.791 126.998,115.871 127.022,115.871 127.112 C 115.871 127.358,116.989 128.530,117.224 128.530 C 117.337 128.530,117.429 128.617,117.429 128.724 C 117.429 128.832,117.554 128.919,117.707 128.919 C 117.860 128.919,118.149 129.116,118.348 129.357 C 118.750 129.843,119.296 130.234,119.815 130.408 C 120.002 130.471,120.156 130.600,120.156 130.695 C 120.156 130.789,120.292 130.867,120.459 130.867 C 120.639 130.867,120.706 130.958,120.624 131.091 C 120.542 131.225,120.570 131.264,120.694 131.187 C 120.809 131.116,121.039 131.193,121.204 131.359 C 121.370 131.524,121.574 131.669,121.658 131.681 C 121.742 131.693,122.132 131.905,122.525 132.153 C 122.918 132.401,123.457 132.658,123.723 132.725 C 123.989 132.792,124.375 133.004,124.581 133.195 C 125.331 133.893,129.309 133.749,129.309 133.024 C 129.309 132.951,129.747 132.733,130.282 132.541 C 130.818 132.348,131.256 132.115,131.256 132.022 C 131.256 131.929,131.497 131.722,131.792 131.562 C 132.086 131.402,132.248 131.268,132.151 131.264 C 131.938 131.254,132.614 130.477,132.836 130.477 C 132.921 130.477,133.440 130.741,133.988 131.064 C 134.535 131.387,135.079 131.593,135.195 131.521 C 135.321 131.443,135.350 131.481,135.267 131.615 C 135.179 131.758,135.275 131.840,135.529 131.840 C 135.749 131.840,135.930 131.928,135.930 132.035 C 135.930 132.142,136.100 132.230,136.308 132.230 C 136.516 132.230,136.741 132.319,136.808 132.428 C 136.875 132.537,137.006 132.579,137.098 132.522 C 137.191 132.465,137.321 132.507,137.388 132.616 C 137.456 132.725,137.769 132.814,138.084 132.814 C 138.399 132.814,138.656 132.902,138.656 133.009 C 138.656 133.116,138.837 133.204,139.057 133.204 C 139.278 133.204,139.404 133.291,139.339 133.397 C 139.272 133.504,139.419 133.586,139.668 133.582 C 140.559 133.564,141.957 133.841,141.850 134.015 C 141.785 134.119,143.192 134.182,145.263 134.168 C 147.345 134.155,148.741 134.072,148.676 133.966 C 148.615 133.868,148.822 133.788,149.137 133.788 C 149.451 133.788,149.982 133.733,150.316 133.666 C 150.876 133.554,150.935 133.592,151.044 134.139 C 151.109 134.467,151.311 134.894,151.492 135.089 C 151.847 135.472,152.174 136.133,152.124 136.368 C 152.107 136.448,152.181 136.514,152.288 136.514 C 152.395 136.514,152.483 136.646,152.483 136.806 C 152.483 136.967,152.571 137.098,152.678 137.098 C 152.785 137.098,152.872 137.194,152.872 137.311 C 152.872 137.428,153.047 137.745,153.259 138.016 C 153.472 138.286,153.597 138.587,153.537 138.684 C 153.477 138.781,153.530 138.837,153.655 138.807 C 153.780 138.778,153.984 138.919,154.108 139.120 C 154.232 139.322,154.655 139.848,155.049 140.289 C 155.443 140.730,155.749 141.168,155.731 141.263 C 155.712 141.358,155.893 141.508,156.133 141.597 C 156.373 141.686,156.745 142.047,156.959 142.398 C 157.173 142.750,157.388 142.994,157.436 142.941 C 157.484 142.887,157.699 143.031,157.913 143.261 C 158.127 143.490,158.249 143.731,158.184 143.796 C 158.119 143.861,158.214 143.914,158.396 143.914 C 158.578 143.914,158.777 144.046,158.839 144.206 C 158.901 144.367,159.062 144.499,159.198 144.499 C 159.333 144.499,159.706 144.805,160.026 145.180 C 160.347 145.555,160.664 145.862,160.733 145.862 C 160.801 145.862,161.018 146.015,161.215 146.203 C 161.412 146.390,161.854 146.762,162.196 147.030 C 163.227 147.835,163.975 148.660,164.095 149.122 C 164.158 149.363,164.287 149.511,164.383 149.452 C 164.479 149.392,164.557 149.423,164.557 149.521 C 164.557 149.618,164.730 149.897,164.942 150.141 C 165.154 150.386,165.281 150.662,165.223 150.755 C 165.165 150.849,165.239 150.925,165.387 150.925 C 165.534 150.925,165.870 151.341,166.132 151.850 C 166.394 152.359,166.673 152.797,166.751 152.824 C 166.830 152.851,166.872 152.896,166.845 152.926 C 166.818 152.955,166.997 153.194,167.242 153.457 C 167.487 153.720,167.740 154.143,167.803 154.396 C 167.890 154.741,167.961 154.791,168.085 154.595 C 168.206 154.404,168.252 154.449,168.254 154.760 C 168.256 154.994,168.346 155.241,168.455 155.309 C 168.564 155.376,168.607 155.506,168.551 155.597 C 168.494 155.688,168.600 155.914,168.785 156.099 C 169.238 156.552,169.620 157.314,169.620 157.763 C 169.620 157.965,169.713 158.130,169.826 158.130 C 169.940 158.130,169.979 158.218,169.912 158.325 C 169.846 158.432,169.885 158.520,169.998 158.520 C 170.112 158.520,170.204 158.638,170.204 158.782 C 170.204 158.926,170.331 159.299,170.485 159.610 C 170.639 159.921,170.796 160.413,170.834 160.703 C 170.873 160.994,170.966 161.293,171.041 161.369 C 171.116 161.444,171.178 161.667,171.178 161.863 C 171.178 162.059,171.254 162.220,171.346 162.220 C 171.439 162.220,171.571 162.636,171.641 163.145 C 171.836 164.577,172.224 166.115,172.391 166.115 C 172.474 166.115,172.541 166.991,172.541 168.062 C 172.541 169.416,172.472 170.010,172.314 170.010 C 172.189 170.010,172.137 170.060,172.199 170.122 C 172.261 170.183,172.223 170.512,172.115 170.852 C 172.007 171.192,171.891 171.646,171.857 171.860 C 171.823 172.074,171.780 172.249,171.763 172.249 C 171.745 172.249,171.689 172.502,171.639 172.810 C 171.589 173.118,171.333 173.686,171.071 174.072 C 170.809 174.458,170.594 174.845,170.594 174.931 C 170.594 175.017,170.202 175.457,169.723 175.908 C 168.506 177.054,168.302 177.215,168.071 177.215 C 167.959 177.215,167.868 177.303,167.868 177.410 C 167.868 177.517,167.687 177.605,167.467 177.605 C 167.246 177.605,167.115 177.685,167.176 177.783 C 167.295 177.975,165.548 178.417,165.294 178.260 C 165.210 178.208,165.141 178.259,165.141 178.372 C 165.141 178.486,164.977 178.578,164.776 178.578 C 164.574 178.578,164.302 178.709,164.169 178.868 C 164.037 179.028,163.851 179.110,163.756 179.052 C 163.661 178.993,163.583 179.043,163.583 179.163 C 163.583 179.282,163.512 179.336,163.424 179.282 C 163.336 179.228,163.142 179.354,162.992 179.563 C 162.841 179.771,162.606 179.942,162.469 179.942 C 162.332 179.942,162.220 180.088,162.220 180.266 C 162.220 180.445,162.166 180.536,162.100 180.470 C 161.929 180.300,161.520 180.751,161.346 181.299 C 161.265 181.553,161.034 181.938,160.833 182.154 C 160.515 182.496,160.367 183.006,160.444 183.496 C 160.457 183.576,160.381 183.642,160.276 183.642 C 160.171 183.642,160.116 183.902,160.153 184.221 C 160.190 184.540,160.166 184.768,160.100 184.729 C 159.769 184.529,159.494 185.146,159.494 186.087 C 159.494 186.500,159.415 186.732,159.299 186.660 C 159.181 186.587,159.104 186.853,159.104 187.330 C 159.104 187.765,159.192 188.121,159.299 188.121 C 159.406 188.121,159.494 188.258,159.494 188.427 C 159.494 188.998,160.866 189.873,161.763 189.873 C 162.014 189.873,162.220 189.951,162.220 190.046 C 162.220 190.141,163.162 190.238,164.314 190.261 C 165.465 190.285,166.517 190.309,166.650 190.316 C 166.784 190.322,166.894 190.445,166.894 190.587 C 166.894 190.730,166.996 190.847,167.121 190.847 C 167.246 190.847,167.291 190.904,167.222 190.973 C 167.060 191.135,167.843 191.821,168.189 191.821 C 168.334 191.821,168.452 191.908,168.452 192.016 C 168.452 192.129,169.097 192.210,169.998 192.210 C 170.849 192.210,171.599 192.298,171.665 192.405 C 171.828 192.669,180.266 192.669,180.428 192.405 C 180.495 192.298,181.359 192.210,182.348 192.210 C 183.338 192.210,184.235 192.123,184.342 192.016 C 184.449 191.909,185.477 191.764,186.628 191.694 C 187.778 191.624,188.765 191.492,188.821 191.401 C 188.877 191.311,189.426 191.237,190.041 191.237 C 190.656 191.237,191.242 191.157,191.344 191.060 C 191.445 190.963,192.054 190.834,192.695 190.773 C 193.337 190.713,193.892 190.573,193.929 190.463 C 193.965 190.353,194.122 190.263,194.277 190.263 C 194.433 190.263,194.616 190.116,194.685 189.937 C 194.753 189.758,194.976 189.445,195.178 189.242 C 195.690 188.730,195.468 184.067,194.915 183.726 C 194.820 183.667,194.742 183.449,194.742 183.241 C 194.742 183.033,194.649 182.863,194.536 182.863 C 194.422 182.863,194.390 182.765,194.463 182.646 C 194.537 182.527,194.519 182.374,194.424 182.305 C 194.329 182.237,193.876 181.436,193.419 180.526 C 192.962 179.615,192.330 178.389,192.014 177.799 C 191.434 176.717,191.150 174.099,191.612 174.099 C 192.054 174.099,192.405 173.442,192.405 172.613 C 192.405 172.080,192.481 171.786,192.600 171.860 C 192.784 171.974,192.873 170.536,192.806 168.549 C 192.786 167.963,192.828 167.842,192.979 168.062 C 193.126 168.278,193.179 168.060,193.181 167.235 C 193.183 166.578,193.269 166.115,193.390 166.115 C 193.504 166.115,193.540 166.024,193.471 165.912 C 193.320 165.668,193.759 162.978,193.993 162.717 C 194.222 162.460,194.200 162.171,193.963 162.317 C 193.856 162.384,193.768 162.345,193.768 162.232 C 193.768 162.118,193.856 162.025,193.963 162.025 C 194.070 162.025,194.158 161.803,194.158 161.532 C 194.158 160.484,195.618 161.187,196.011 162.425 C 196.077 162.633,196.213 162.804,196.313 162.804 C 196.413 162.804,196.495 162.931,196.495 163.085 C 196.495 163.240,196.689 163.503,196.927 163.670 C 197.166 163.836,197.283 163.973,197.189 163.973 C 197.095 163.973,197.240 164.170,197.512 164.411 C 197.783 164.652,198.112 165.057,198.243 165.311 C 198.374 165.565,198.713 166.033,198.997 166.352 C 199.281 166.670,199.471 166.944,199.420 166.961 C 199.368 166.978,199.560 167.254,199.845 167.575 C 200.589 168.413,201.345 169.467,201.484 169.864 C 201.550 170.051,201.664 170.204,201.738 170.204 C 201.812 170.204,201.853 170.489,201.829 170.836 C 201.805 171.183,201.859 171.513,201.949 171.569 C 202.040 171.625,202.133 172.370,202.157 173.226 C 202.180 174.081,202.269 174.827,202.354 174.882 C 202.438 174.938,202.519 175.858,202.532 176.927 C 202.562 179.389,202.562 179.399,202.379 179.286 C 202.295 179.234,202.021 179.492,201.770 179.859 C 201.519 180.226,201.193 180.526,201.046 180.526 C 200.899 180.526,200.779 180.610,200.779 180.714 C 200.779 180.817,200.538 181.155,200.243 181.465 C 199.949 181.775,199.684 182.134,199.655 182.264 C 199.626 182.393,199.429 182.685,199.217 182.912 C 199.005 183.140,198.832 183.430,198.832 183.557 C 198.832 183.685,198.700 183.898,198.539 184.031 C 198.379 184.164,198.247 184.438,198.247 184.639 C 198.247 184.840,198.160 185.005,198.053 185.005 C 197.945 185.005,197.858 185.312,197.858 185.686 C 197.858 186.061,197.779 186.368,197.683 186.368 C 197.586 186.368,197.457 186.784,197.396 187.293 C 197.229 188.679,197.222 188.705,197.038 188.705 C 196.944 188.705,196.881 188.815,196.899 188.948 C 196.970 189.500,196.872 189.889,196.689 189.776 C 196.565 189.699,196.495 190.330,196.495 191.529 C 196.495 192.579,196.571 193.355,196.669 193.294 C 196.764 193.235,196.895 193.394,196.958 193.647 C 197.222 194.699,197.670 194.752,205.803 194.692 C 210.894 194.654,213.305 194.570,213.398 194.425 C 213.487 194.289,215.170 194.176,218.182 194.105 C 221.120 194.036,222.907 193.918,223.041 193.785 C 223.157 193.669,223.853 193.574,224.588 193.574 C 225.429 193.574,225.879 193.501,225.803 193.379 C 225.729 193.258,226.093 193.184,226.766 193.184 C 227.361 193.184,227.848 193.106,227.848 193.010 C 227.848 192.914,228.045 192.835,228.286 192.834 C 228.527 192.834,228.900 192.787,229.114 192.731 C 229.328 192.675,229.650 192.623,229.828 192.615 C 230.007 192.607,230.598 192.152,231.143 191.605 L 232.132 190.610 232.132 189.268 C 232.132 188.450,232.052 187.926,231.925 187.926 C 231.812 187.926,231.736 187.773,231.758 187.585 C 231.838 186.909,231.482 185.523,231.141 185.182 C 230.922 184.963,230.874 184.808,231.013 184.761 C 231.159 184.713,231.122 184.532,230.903 184.219 C 230.722 183.961,230.574 183.594,230.574 183.404 C 230.574 183.213,230.487 183.057,230.380 183.057 C 230.273 183.057,230.185 182.892,230.185 182.690 C 230.185 182.148,229.666 181.218,229.540 181.534 C 229.483 181.676,229.430 181.549,229.421 181.252 C 229.413 180.956,229.187 180.366,228.919 179.942 C 228.651 179.517,228.432 179.037,228.432 178.874 C 228.432 178.712,228.345 178.578,228.238 178.578 C 228.130 178.578,228.057 178.513,228.074 178.432 C 228.121 178.211,227.805 177.540,227.516 177.248 C 227.376 177.106,227.310 176.908,227.371 176.810 C 227.432 176.712,227.396 176.631,227.291 176.631 C 227.186 176.631,227.042 176.367,226.971 176.045 C 226.901 175.723,226.773 175.502,226.689 175.554 C 226.604 175.607,226.377 175.237,226.185 174.732 C 225.992 174.228,225.496 173.292,225.083 172.652 C 224.669 172.013,224.377 171.371,224.432 171.226 C 224.488 171.082,224.446 171.017,224.341 171.082 C 224.235 171.148,224.148 171.028,224.148 170.816 C 224.148 170.605,224.038 170.387,223.905 170.333 C 223.715 170.256,223.720 170.193,223.925 170.049 C 224.104 169.923,224.122 169.822,223.980 169.734 C 223.864 169.663,223.712 169.171,223.642 168.642 C 223.572 168.113,223.438 167.728,223.344 167.785 C 223.251 167.843,223.174 167.715,223.174 167.501 C 223.174 167.287,223.087 167.057,222.980 166.991 C 222.872 166.925,222.785 166.739,222.785 166.579 C 222.785 166.397,222.877 166.342,223.028 166.433 C 223.214 166.545,223.220 166.513,223.053 166.298 C 222.684 165.825,222.574 164.773,222.588 161.860 C 222.601 159.189,222.359 157.620,221.970 157.860 C 221.883 157.914,221.811 157.783,221.811 157.569 C 221.811 157.355,221.723 157.126,221.616 157.059 C 221.509 156.993,221.422 156.769,221.422 156.561 C 221.422 156.353,221.340 156.183,221.241 156.183 C 221.142 156.183,220.923 155.907,220.754 155.569 C 220.388 154.836,220.281 142.620,220.643 142.843 C 220.756 142.913,220.837 142.720,220.837 142.381 C 220.837 141.272,221.662 139.852,221.994 140.389 C 222.104 140.568,224.256 140.657,230.650 140.744 C 235.330 140.808,239.204 140.934,239.260 141.024 C 239.394 141.241,249.413 141.237,249.497 141.020 C 249.533 140.927,252.271 140.800,255.582 140.737 C 259.520 140.662,261.646 140.550,261.730 140.414 C 261.807 140.289,262.723 140.198,264.035 140.186 C 265.233 140.176,266.212 140.099,266.212 140.015 C 266.212 139.932,267.330 139.808,268.695 139.740 C 270.061 139.671,271.529 139.597,271.957 139.574 C 272.386 139.551,272.780 139.476,272.833 139.406 C 272.887 139.337,273.500 139.229,274.197 139.167 C 274.893 139.105,275.901 138.965,276.436 138.855 C 277.551 138.626,280.165 138.221,280.672 138.198 C 280.859 138.190,281.013 138.114,281.013 138.030 C 281.013 137.946,281.368 137.877,281.803 137.877 C 282.238 137.877,282.547 137.802,282.490 137.710 C 282.434 137.618,282.976 137.488,283.695 137.421 C 284.414 137.354,285.033 137.210,285.069 137.101 C 285.105 136.993,285.348 136.904,285.608 136.904 C 285.868 136.904,286.233 136.824,286.419 136.727 C 286.865 136.494,288.774 135.930,289.117 135.930 C 289.265 135.930,289.387 135.842,289.387 135.735 C 289.387 135.628,289.698 135.540,290.080 135.540 C 290.492 135.540,290.724 135.462,290.652 135.346 C 290.586 135.239,290.721 135.151,290.952 135.151 C 291.377 135.151,292.154 134.851,293.574 134.140 C 294.002 133.925,294.572 133.709,294.839 133.660 C 295.107 133.610,295.355 133.488,295.391 133.387 C 295.427 133.286,295.624 133.204,295.829 133.204 C 296.035 133.204,296.203 133.128,296.203 133.035 C 296.203 132.943,296.597 132.716,297.079 132.532 C 297.561 132.348,297.955 132.127,297.955 132.041 C 297.955 131.954,298.247 131.829,298.603 131.762 C 298.959 131.695,299.437 131.467,299.666 131.254 C 299.894 131.041,300.172 130.867,300.284 130.867 C 300.396 130.867,300.487 130.779,300.487 130.672 C 300.487 130.565,300.618 130.477,300.779 130.477 C 300.940 130.477,301.071 130.392,301.071 130.288 C 301.071 130.185,301.203 130.150,301.363 130.212 C 301.524 130.274,301.655 130.227,301.655 130.108 C 301.655 129.990,301.792 129.893,301.959 129.893 C 302.126 129.893,302.215 129.815,302.156 129.720 C 302.068 129.579,302.718 129.269,302.881 129.374 C 302.908 129.392,303.140 129.211,303.396 128.973 C 303.652 128.734,304.195 128.374,304.603 128.172 C 305.011 127.970,305.289 127.749,305.220 127.680 C 305.152 127.612,305.242 127.556,305.420 127.556 C 305.599 127.556,305.745 127.474,305.745 127.374 C 305.745 127.274,305.926 127.135,306.147 127.065 C 306.368 126.995,306.837 126.685,307.187 126.377 C 307.538 126.069,308.058 125.729,308.343 125.620 C 308.628 125.512,308.861 125.290,308.861 125.127 C 308.861 124.963,308.978 124.830,309.121 124.830 C 309.384 124.830,310.433 124.020,311.455 123.028 C 311.758 122.734,312.109 122.493,312.235 122.493 C 312.361 122.493,312.708 122.186,313.007 121.811 C 313.306 121.436,313.679 121.130,313.835 121.130 C 313.991 121.130,314.119 121.017,314.119 120.880 C 314.119 120.743,314.294 120.505,314.508 120.351 C 314.722 120.196,314.898 119.955,314.898 119.815 C 314.898 119.674,315.029 119.509,315.190 119.447 C 315.351 119.386,315.482 119.213,315.482 119.064 C 315.482 118.915,315.650 118.793,315.855 118.793 C 316.061 118.793,316.265 118.683,316.310 118.549 C 316.409 118.250,319.961 118.065,319.961 118.359 C 319.961 118.463,320.312 118.604,320.740 118.673 C 321.168 118.741,321.519 118.884,321.519 118.990 C 321.519 119.095,321.678 119.182,321.872 119.182 C 322.066 119.182,322.436 119.379,322.695 119.620 C 322.954 119.861,323.189 120.037,323.218 120.010 C 323.248 119.983,323.294 119.968,323.320 119.976 C 323.347 119.983,323.582 120.029,323.843 120.077 C 324.104 120.125,324.597 120.378,324.939 120.638 C 325.281 120.899,325.615 121.058,325.682 120.991 C 325.749 120.924,325.803 121.016,325.803 121.194 C 325.803 121.373,325.933 121.519,326.090 121.519 C 326.248 121.519,326.505 121.766,326.662 122.069 C 326.818 122.371,327.083 122.732,327.251 122.872 C 327.419 123.011,327.556 123.380,327.556 123.691 C 327.556 124.014,327.681 124.306,327.847 124.369 C 328.007 124.431,328.095 124.550,328.043 124.635 C 327.990 124.720,328.078 125.039,328.237 125.345 C 328.397 125.651,328.528 126.178,328.528 126.517 C 328.529 126.857,328.617 127.163,328.723 127.199 C 328.829 127.235,328.939 127.723,328.966 128.285 C 328.994 128.846,329.060 129.306,329.114 129.307 C 329.167 129.308,329.205 129.655,329.196 130.078 C 329.188 130.502,329.254 130.803,329.342 130.748 C 329.431 130.694,329.514 130.983,329.527 131.391 C 329.540 131.799,329.558 132.373,329.567 132.668 C 329.575 132.963,329.641 133.204,329.712 133.204 C 329.842 133.204,330.187 135.478,330.109 135.815 C 330.086 135.912,330.151 136.043,330.253 136.107 C 330.355 136.170,330.466 136.573,330.498 137.001 C 330.530 137.429,330.616 137.911,330.688 138.072 C 331.066 138.912,331.507 140.529,331.493 141.023 C 331.484 141.332,331.558 141.534,331.658 141.472 C 331.758 141.410,331.843 141.562,331.847 141.809 C 331.851 142.057,331.979 142.478,332.132 142.746 C 332.285 143.014,332.414 143.409,332.418 143.625 C 332.421 143.841,332.689 144.559,333.011 145.220 C 333.334 145.882,333.652 146.691,333.717 147.019 C 333.783 147.346,333.913 147.614,334.007 147.614 C 334.101 147.614,334.177 147.785,334.177 147.992 C 334.177 148.200,334.265 148.425,334.372 148.491 C 334.479 148.557,334.567 148.787,334.567 149.003 C 334.567 149.219,334.698 149.526,334.859 149.687 C 335.117 149.945,335.252 150.512,335.169 150.988 C 335.154 151.076,335.231 151.093,335.341 151.025 C 335.463 150.950,335.540 151.175,335.540 151.607 C 335.540 152.027,335.619 152.263,335.735 152.191 C 335.905 152.086,336.039 152.825,335.943 153.340 C 335.925 153.436,335.970 153.655,336.043 153.827 C 336.115 153.998,336.156 154.520,336.134 154.987 C 336.106 155.555,336.162 155.793,336.303 155.706 C 336.419 155.634,336.514 155.707,336.514 155.868 C 336.514 156.029,336.431 156.211,336.330 156.274 C 336.228 156.337,336.173 156.868,336.207 157.454 C 336.241 158.040,336.209 158.520,336.137 158.520 C 336.065 158.520,336.001 158.717,335.995 158.958 C 335.974 159.891,335.909 160.046,335.248 160.746 C 334.873 161.144,334.567 161.610,334.567 161.783 C 334.567 161.956,334.399 162.279,334.193 162.500 C 333.786 162.938,332.236 165.886,332.232 166.231 C 332.231 166.348,332.051 166.605,331.833 166.803 C 331.615 167.000,331.478 167.267,331.527 167.396 C 331.645 167.702,330.888 169.231,330.619 169.231 C 330.505 169.231,330.464 169.283,330.528 169.347 C 330.769 169.588,329.862 170.913,328.286 172.623 C 327.885 173.059,327.556 173.492,327.556 173.586 C 327.556 173.680,327.155 174.140,326.666 174.610 C 326.176 175.079,325.891 175.470,326.033 175.478 C 326.174 175.487,326.071 175.597,325.803 175.723 C 325.536 175.849,325.290 176.073,325.258 176.222 C 325.227 176.371,324.986 176.661,324.723 176.868 C 324.460 177.074,324.245 177.412,324.245 177.619 C 324.245 177.825,324.158 177.994,324.051 177.994 C 323.944 177.994,323.856 178.088,323.856 178.202 C 323.856 178.316,323.615 178.728,323.320 179.117 C 323.026 179.506,322.888 179.762,323.013 179.686 C 323.139 179.610,323.076 179.877,322.874 180.280 C 321.964 182.091,321.908 182.326,321.908 184.344 C 321.908 186.234,321.937 186.379,322.404 186.846 C 322.677 187.119,322.853 187.342,322.795 187.342 C 322.737 187.342,322.874 187.554,323.100 187.813 C 323.450 188.216,324.168 188.556,324.551 188.501 C 324.614 188.492,324.811 188.644,324.990 188.838 C 325.170 189.033,325.448 189.235,325.609 189.288 C 326.127 189.459,336.160 189.586,338.169 189.447 C 339.241 189.372,340.533 189.291,341.042 189.266 C 341.551 189.240,341.967 189.148,341.967 189.060 C 341.967 188.972,342.230 188.900,342.551 188.900 C 342.887 188.900,343.137 188.796,343.138 188.656 C 343.141 188.477,343.186 188.483,343.309 188.677 C 343.418 188.850,343.520 188.871,343.602 188.737 C 343.729 188.531,345.360 188.199,345.813 188.286 C 345.947 188.311,346.056 188.241,346.056 188.129 C 346.056 188.017,346.368 187.926,346.750 187.926 C 347.162 187.926,347.394 187.847,347.322 187.731 C 347.247 187.610,347.645 187.537,348.382 187.537 C 349.039 187.537,349.562 187.623,349.562 187.731 C 349.562 187.985,350.865 187.985,351.022 187.731 C 351.089 187.624,351.554 187.538,352.056 187.539 C 352.718 187.542,352.889 187.595,352.678 187.731 C 352.502 187.845,352.478 187.921,352.618 187.923 C 352.745 187.925,352.904 187.838,352.970 187.731 C 353.036 187.624,353.287 187.537,353.527 187.537 C 353.767 187.537,354.048 187.451,354.152 187.347 C 354.256 187.243,354.559 187.125,354.824 187.085 C 355.090 187.044,355.318 186.910,355.331 186.787 C 355.344 186.664,355.366 186.470,355.380 186.357 C 355.393 186.243,355.492 186.204,355.599 186.271 C 355.706 186.337,355.794 186.240,355.794 186.055 C 355.794 185.870,355.851 185.777,355.922 185.848 C 356.454 186.380,356.891 180.073,356.366 179.440 C 356.186 179.224,356.192 179.163,356.393 179.163 C 356.593 179.163,356.599 179.111,356.417 178.929 C 356.288 178.800,356.183 178.488,356.183 178.236 C 356.183 177.979,356.097 177.830,355.988 177.897 C 355.881 177.963,355.794 177.875,355.794 177.702 C 355.794 177.529,355.882 177.442,355.990 177.508 C 356.177 177.624,355.876 176.762,355.582 176.339 C 355.508 176.232,355.396 175.772,355.334 175.318 C 355.272 174.863,355.045 174.074,354.831 173.565 C 354.085 171.797,354.014 171.019,354.473 169.678 C 354.701 169.014,354.951 168.510,355.028 168.557 C 355.196 168.661,355.404 168.172,355.404 167.673 C 355.404 167.477,355.485 167.287,355.584 167.251 C 355.683 167.215,355.793 167.058,355.828 166.901 C 355.862 166.745,356.050 166.438,356.245 166.220 C 356.440 166.001,356.648 165.583,356.707 165.290 C 356.766 164.998,356.876 164.796,356.950 164.842 C 357.025 164.888,357.209 164.755,357.359 164.547 C 357.509 164.338,357.837 164.167,358.088 164.167 C 358.338 164.167,358.490 164.082,358.426 163.978 C 358.362 163.874,358.534 163.733,358.808 163.664 C 359.481 163.495,361.246 161.670,361.381 161.003 C 361.441 160.708,361.566 160.467,361.660 160.467 C 361.754 160.467,361.831 160.342,361.831 160.189 C 361.831 160.036,361.940 159.795,362.074 159.654 C 362.208 159.512,362.348 159.133,362.385 158.812 C 362.421 158.491,362.531 158.199,362.628 158.163 C 362.725 158.127,362.804 157.976,362.804 157.827 C 362.804 157.677,363.016 157.417,363.274 157.247 C 363.533 157.078,363.888 156.638,364.062 156.269 C 364.237 155.900,364.464 155.599,364.566 155.599 C 364.668 155.599,364.741 155.533,364.729 155.453 C 364.659 155.013,364.777 154.618,364.946 154.722 C 365.056 154.790,365.141 154.631,365.141 154.356 C 365.141 154.088,365.217 153.822,365.310 153.765 C 365.403 153.707,365.496 152.237,365.516 150.498 C 365.538 148.614,365.637 147.234,365.760 147.086 C 365.873 146.950,365.924 146.618,365.873 146.350 C 365.821 146.081,365.858 145.862,365.954 145.862 C 366.050 145.862,366.029 145.676,365.908 145.449 C 365.752 145.158,365.750 145.075,365.901 145.168 C 366.038 145.253,366.115 145.091,366.115 144.716 C 366.115 144.395,366.203 144.078,366.310 144.012 C 366.417 143.945,366.507 143.524,366.511 143.075 C 366.515 142.626,366.643 142.040,366.796 141.772 C 366.950 141.504,367.078 141.049,367.082 140.761 C 367.086 140.473,367.176 140.183,367.283 140.117 C 367.390 140.051,367.478 139.778,367.478 139.511 C 367.478 139.245,367.613 138.765,367.778 138.446 C 367.943 138.127,368.030 137.788,367.972 137.693 C 367.913 137.599,367.959 137.490,368.074 137.452 C 368.188 137.413,368.332 137.013,368.392 136.563 C 368.453 136.112,368.568 135.784,368.649 135.834 C 368.822 135.941,369.196 135.101,369.344 134.272 C 369.401 133.952,369.531 133.661,369.632 133.625 C 369.733 133.590,369.815 133.305,369.815 132.993 C 369.815 132.680,369.889 132.425,369.978 132.425 C 370.210 132.425,370.547 131.614,370.485 131.206 C 370.457 131.019,370.513 130.914,370.611 130.975 C 370.709 131.035,370.789 130.920,370.789 130.720 C 370.789 130.520,370.951 130.182,371.149 129.969 C 371.347 129.756,371.570 129.258,371.645 128.861 C 371.719 128.465,371.864 128.140,371.966 128.140 C 372.068 128.140,372.152 128.009,372.152 127.848 C 372.152 127.687,372.230 127.556,372.325 127.556 C 372.419 127.556,372.556 127.162,372.629 126.680 C 372.701 126.198,372.842 125.803,372.943 125.803 C 373.043 125.803,373.126 125.667,373.126 125.500 C 373.126 125.333,373.215 125.252,373.325 125.319 C 373.435 125.387,373.512 125.371,373.497 125.282 C 373.407 124.767,373.542 124.409,373.789 124.504 C 373.952 124.566,374.379 124.262,374.839 123.757 C 375.265 123.288,375.682 122.965,375.764 123.039 C 375.847 123.114,375.859 123.021,375.792 122.833 C 375.711 122.608,375.766 122.493,375.955 122.493 C 376.113 122.493,376.223 122.427,376.201 122.347 C 376.122 122.065,376.870 120.745,377.047 120.854 C 377.145 120.914,377.201 120.883,377.171 120.785 C 377.142 120.687,377.424 120.133,377.798 119.554 C 378.172 118.974,378.479 118.438,378.480 118.361 C 378.480 118.284,378.634 118.042,378.822 117.823 C 379.009 117.604,379.163 117.338,379.163 117.232 C 379.163 117.127,379.243 117.040,379.342 117.040 C 379.440 117.040,379.579 116.777,379.649 116.456 C 379.720 116.134,379.848 115.871,379.933 115.871 C 380.019 115.871,380.198 115.609,380.331 115.287 C 380.464 114.966,380.647 114.703,380.738 114.703 C 380.829 114.703,380.853 114.572,380.791 114.411 C 380.729 114.250,380.758 114.119,380.855 114.119 C 380.952 114.119,381.149 113.790,381.293 113.389 C 381.437 112.987,381.641 112.602,381.746 112.534 C 381.851 112.466,381.938 112.174,381.938 111.886 C 381.938 111.598,382.058 111.315,382.205 111.259 C 382.353 111.202,382.473 110.946,382.473 110.690 C 382.473 110.434,382.561 110.224,382.668 110.224 C 382.775 110.224,382.848 110.158,382.831 110.078 C 382.765 109.777,383.107 108.861,383.285 108.861 C 383.387 108.861,383.420 108.780,383.359 108.682 C 383.298 108.583,383.369 108.382,383.517 108.234 C 383.815 107.937,384.128 107.124,384.069 106.804 C 384.048 106.690,384.206 106.409,384.421 106.179 C 384.635 105.949,384.810 105.587,384.810 105.375 C 384.810 105.163,384.898 104.935,385.005 104.869 C 385.112 104.802,385.200 104.578,385.200 104.370 C 385.200 104.162,385.287 103.992,385.394 103.992 C 385.501 103.992,385.589 103.896,385.589 103.778 C 385.589 103.515,386.201 102.179,386.383 102.045 C 386.456 101.991,386.578 101.569,386.656 101.107 C 386.733 100.644,386.839 100.309,386.892 100.362 C 387.016 100.486,388.121 98.392,388.121 98.033 C 388.121 97.883,388.208 97.760,388.315 97.760 C 388.423 97.760,388.494 97.695,388.474 97.614 C 388.454 97.534,388.586 97.129,388.766 96.714 C 388.947 96.300,389.094 95.878,389.094 95.778 C 389.094 95.677,389.165 95.639,389.250 95.692 C 389.336 95.745,389.519 95.406,389.657 94.938 C 389.795 94.471,390.044 94.036,390.211 93.973 C 390.377 93.909,390.459 93.802,390.393 93.736 C 390.327 93.670,390.398 93.388,390.552 93.108 C 390.705 92.829,391.048 92.104,391.314 91.498 C 391.581 90.893,391.885 90.344,391.990 90.279 C 392.095 90.214,392.241 89.885,392.315 89.547 C 392.390 89.209,392.612 88.758,392.810 88.546 C 393.008 88.333,393.129 88.092,393.078 88.010 C 393.027 87.927,393.103 87.743,393.247 87.599 C 393.485 87.361,393.757 86.603,393.747 86.207 C 393.745 86.119,393.924 85.889,394.145 85.698 C 394.366 85.506,394.547 85.249,394.547 85.127 C 394.547 84.763,395.262 83.545,395.396 83.679 C 395.508 83.791,395.604 83.290,395.544 82.911 C 395.531 82.831,395.609 82.765,395.716 82.765 C 395.823 82.765,395.910 82.640,395.910 82.487 C 395.910 82.334,396.025 82.093,396.164 81.952 C 396.426 81.686,397.079 80.179,397.079 79.840 C 397.079 79.716,340.071 79.649,233.215 79.649 C 119.124 79.649,69.313 79.587,69.225 79.445 C 69.026 79.123,68.549 79.627,68.549 80.160 C 68.549 80.415,68.462 80.623,68.354 80.623 C 68.247 80.623,68.160 80.804,68.160 81.024 C 68.160 81.281,68.078 81.374,67.932 81.284 C 67.778 81.189,67.745 81.251,67.831 81.475 C 67.984 81.873,67.729 82.378,66.841 83.436 C 66.705 83.599,66.595 83.777,66.598 83.833 C 66.615 84.255,66.578 84.331,66.407 84.226 C 66.300 84.160,66.212 84.198,66.212 84.312 C 66.212 84.758,66.176 84.815,65.807 84.952 C 65.597 85.029,65.370 85.248,65.302 85.438 C 65.156 85.850,64.231 86.731,63.852 86.821 C 63.704 86.856,63.554 86.965,63.518 87.064 C 63.483 87.163,63.329 87.244,63.178 87.244 C 63.026 87.244,62.902 87.332,62.902 87.439 C 62.902 87.770,62.218 87.654,61.783 87.249 C 61.555 87.037,61.260 86.840,61.128 86.810 C 60.995 86.781,60.447 86.341,59.909 85.833 C 59.372 85.324,58.847 84.907,58.742 84.907 C 58.638 84.907,58.601 84.859,58.661 84.799 C 58.806 84.654,56.419 82.218,56.232 82.320 C 56.151 82.363,56.086 82.270,56.086 82.112 C 56.086 81.765,54.574 80.116,54.319 80.185 C 54.219 80.212,54.138 80.097,54.138 79.930 C 54.138 79.763,54.051 79.681,53.944 79.747 C 53.836 79.813,53.749 79.788,53.749 79.692 C 53.749 79.596,53.406 79.351,52.987 79.147 C 52.569 78.943,52.258 78.725,52.297 78.661 C 52.336 78.598,52.263 78.536,52.134 78.524 C 51.183 78.435,50.243 78.207,50.243 78.066 C 50.243 77.830,46.276 77.853,46.038 78.090 " stroke="none" fill="#dc0404" fill-rule="evenodd"></path><path id="path4" d="M192.600 22.990 C 188.168 26.204,183.079 29.847,182.740 30.049 C 182.553 30.159,182.151 29.912,180.818 28.869 C 180.353 28.504,169.286 20.675,168.895 20.433 C 168.254 20.038,168.042 20.386,168.352 21.324 C 168.493 21.753,169.282 24.206,170.104 26.777 C 170.926 29.348,171.759 31.933,171.955 32.522 C 172.737 34.871,173.338 36.853,173.282 36.899 C 173.181 36.982,164.747 43.236,162.902 44.596 C 161.938 45.307,160.733 46.182,160.224 46.541 C 158.533 47.734,158.389 47.712,167.941 47.712 C 174.621 47.712,176.628 47.767,176.779 47.955 C 176.886 48.089,178.089 51.573,179.452 55.696 C 180.814 59.820,182.025 63.479,182.143 63.827 C 182.616 65.227,182.262 66.105,186.799 52.264 L 188.211 47.956 189.656 47.834 C 190.450 47.767,194.424 47.712,198.486 47.712 C 204.704 47.712,205.861 47.669,205.808 47.440 C 205.773 47.291,204.036 45.918,201.947 44.390 C 199.859 42.861,197.186 40.895,196.008 40.020 C 194.830 39.145,193.454 38.150,192.951 37.810 C 191.798 37.030,191.811 37.056,192.108 36.125 C 192.244 35.696,192.812 33.900,193.370 32.132 C 193.927 30.365,194.460 28.700,194.552 28.432 C 194.645 28.165,195.169 26.500,195.716 24.732 C 196.264 22.965,196.794 21.318,196.895 21.072 C 197.532 19.520,197.146 19.693,192.600 22.990 M277.992 20.257 C 277.924 20.367,278.496 22.404,279.263 24.785 C 280.030 27.166,280.881 29.815,281.155 30.672 C 281.428 31.529,281.946 33.120,282.306 34.207 C 283.233 37.009,283.371 36.694,280.185 39.057 C 278.659 40.189,277.191 41.280,276.923 41.482 C 276.655 41.683,274.815 43.041,272.833 44.499 C 270.852 45.957,269.202 47.276,269.168 47.431 C 269.114 47.672,270.321 47.712,277.780 47.712 L 286.455 47.712 286.721 48.247 C 286.867 48.542,288.153 52.313,289.580 56.627 C 291.114 61.266,292.261 64.443,292.387 64.402 C 292.591 64.335,294.213 59.639,296.676 51.983 C 297.311 50.009,297.949 48.262,298.094 48.101 C 298.320 47.852,299.624 47.800,307.029 47.746 C 317.087 47.673,316.536 47.867,313.340 45.531 C 312.108 44.631,309.742 42.899,308.082 41.681 C 306.422 40.463,304.340 38.947,303.456 38.312 C 301.438 36.862,301.535 37.111,302.211 35.105 C 302.527 34.166,303.239 31.952,303.792 30.185 C 304.345 28.418,305.217 25.657,305.731 24.051 C 306.873 20.475,306.977 20.058,306.723 20.058 C 306.517 20.058,302.043 23.211,296.180 27.488 C 292.161 30.420,292.577 30.334,290.306 28.689 C 286.517 25.943,278.252 20.058,278.185 20.058 C 278.146 20.058,278.059 20.148,277.992 20.257 M113.229 20.789 C 113.358 21.332,114.937 26.335,116.657 31.646 C 118.684 37.901,118.712 36.922,116.454 38.538 C 115.497 39.222,114.559 39.904,114.368 40.053 C 114.177 40.202,113.577 40.650,113.033 41.048 C 106.935 45.518,104.393 47.455,104.388 47.636 C 104.383 47.790,106.882 47.879,113.066 47.947 C 120.228 48.025,121.781 48.089,121.920 48.314 C 122.012 48.464,123.290 52.204,124.758 56.626 C 126.298 61.262,127.517 64.637,127.638 64.600 C 127.754 64.564,128.798 61.648,129.958 58.119 C 131.119 54.591,132.145 51.529,132.239 51.315 C 132.332 51.100,132.592 50.303,132.816 49.543 L 133.224 48.160 141.921 48.019 C 146.704 47.942,150.691 47.833,150.781 47.778 C 151.065 47.602,150.538 47.152,147.334 44.834 C 145.614 43.589,143.976 42.391,143.695 42.171 C 143.414 41.952,142.976 41.624,142.722 41.444 C 139.615 39.237,136.896 37.105,136.964 36.929 C 137.010 36.808,137.416 35.526,137.867 34.080 C 138.318 32.634,138.848 30.969,139.044 30.380 C 139.241 29.791,139.856 27.863,140.412 26.095 C 140.968 24.328,141.590 22.362,141.794 21.725 C 142.359 19.965,142.101 20.000,139.210 22.081 C 137.781 23.110,135.735 24.582,134.664 25.352 C 133.593 26.123,131.586 27.576,130.204 28.581 L 127.690 30.408 127.185 30.041 C 126.907 29.839,124.839 28.365,122.590 26.767 C 120.341 25.168,118.331 23.705,118.123 23.517 C 117.915 23.328,117.681 23.174,117.601 23.174 C 117.522 23.174,117.341 23.062,117.200 22.925 C 116.649 22.391,113.559 20.253,113.337 20.253 C 113.181 20.253,113.145 20.431,113.229 20.789 M222.980 20.594 C 222.980 20.781,223.408 22.249,223.931 23.856 C 224.453 25.463,225.427 28.486,226.093 30.574 C 226.760 32.663,227.472 34.890,227.674 35.524 C 227.877 36.157,228.043 36.781,228.043 36.909 C 228.043 37.136,227.165 37.836,223.369 40.635 C 217.472 44.984,216.163 45.947,215.239 46.616 C 213.461 47.902,213.479 47.907,220.027 47.907 C 223.224 47.907,227.163 47.964,228.781 48.034 L 231.723 48.161 234.440 56.359 C 236.211 61.700,237.248 64.557,237.417 64.557 C 237.673 64.557,237.918 63.860,241.570 52.756 L 243.082 48.160 251.775 48.021 C 256.556 47.944,260.540 47.810,260.629 47.722 C 260.818 47.537,259.847 46.783,252.580 41.468 C 249.635 39.313,247.109 37.439,246.968 37.304 C 246.705 37.051,246.729 36.962,248.577 31.256 C 248.820 30.506,249.266 29.104,249.568 28.140 C 250.320 25.741,251.359 22.480,251.709 21.422 C 252.322 19.564,253.354 18.940,240.619 28.125 C 238.913 29.355,237.425 30.304,237.311 30.233 C 236.879 29.966,227.464 23.235,225.484 21.778 C 223.327 20.190,222.979 20.026,222.980 20.594 M332.756 20.399 C 332.711 20.480,332.960 21.422,333.308 22.493 C 333.917 24.366,336.448 32.230,337.412 35.243 C 337.668 36.043,337.877 36.804,337.877 36.933 C 337.877 37.062,335.708 38.767,333.057 40.720 C 324.447 47.066,324.051 47.370,324.051 47.640 C 324.051 47.861,325.494 47.907,332.571 47.910 C 337.257 47.911,341.194 47.979,341.322 48.059 C 341.449 48.140,342.743 51.798,344.199 56.187 C 345.654 60.576,346.930 64.299,347.035 64.460 C 347.339 64.927,347.454 64.638,349.674 57.838 C 350.811 54.357,351.990 50.764,352.295 49.854 L 352.848 48.199 357.388 48.079 C 359.885 48.013,363.834 47.947,366.164 47.933 C 371.291 47.901,371.240 47.959,368.111 45.685 C 362.455 41.572,357.784 38.133,357.178 37.634 L 356.517 37.089 357.103 35.244 C 357.425 34.229,358.132 31.996,358.674 30.282 C 359.216 28.569,360.138 25.677,360.723 23.856 C 361.308 22.035,361.714 20.467,361.625 20.372 C 361.499 20.236,353.686 25.577,353.262 26.089 C 353.208 26.154,351.825 27.155,350.188 28.314 L 347.212 30.422 346.348 29.768 C 345.873 29.408,345.171 28.895,344.788 28.627 C 344.405 28.359,343.860 27.965,343.576 27.751 C 341.980 26.548,333.085 20.262,332.972 20.258 C 332.898 20.255,332.801 20.319,332.756 20.399 M171.276 22.368 C 177.770 27.066,182.478 30.380,182.658 30.380 C 182.844 30.380,185.532 28.534,185.784 28.233 C 185.837 28.169,187.590 26.902,189.679 25.417 C 191.767 23.932,194.169 22.206,195.017 21.581 C 196.705 20.336,196.824 20.311,196.526 21.263 C 196.415 21.618,195.873 23.354,195.321 25.122 C 194.770 26.889,194.158 28.817,193.963 29.406 C 193.145 31.872,191.626 36.771,191.626 36.944 C 191.626 37.046,192.042 37.425,192.551 37.786 C 193.060 38.146,193.520 38.494,193.574 38.559 C 193.627 38.624,194.756 39.461,196.082 40.419 C 203.062 45.463,205.446 47.264,205.316 47.395 C 205.248 47.462,201.418 47.518,196.803 47.520 C 192.188 47.522,188.316 47.587,188.197 47.666 C 188.078 47.745,187.214 50.175,186.276 53.067 C 185.339 55.959,184.500 58.500,184.413 58.715 C 184.326 58.929,183.888 60.227,183.441 61.599 C 182.994 62.972,182.591 64.058,182.547 64.014 C 182.503 63.970,181.280 60.352,179.829 55.974 C 178.378 51.597,177.098 47.903,176.985 47.766 C 176.823 47.571,174.953 47.517,168.342 47.517 C 163.702 47.517,159.868 47.451,159.821 47.371 C 159.747 47.244,168.579 40.602,172.057 38.169 C 173.822 36.935,173.857 37.264,171.081 28.919 C 170.044 25.804,168.452 20.744,168.452 20.566 C 168.452 20.370,168.975 20.704,171.276 22.368 M285.413 25.488 C 289.173 28.179,292.342 30.380,292.456 30.380 C 292.570 30.380,293.350 29.872,294.190 29.252 C 295.029 28.632,297.425 26.905,299.513 25.414 C 301.602 23.923,303.354 22.649,303.408 22.583 C 303.634 22.301,306.400 20.454,306.478 20.532 C 306.525 20.579,306.193 21.784,305.741 23.210 C 305.289 24.636,304.700 26.504,304.433 27.361 C 304.165 28.218,303.877 29.094,303.793 29.309 C 303.473 30.118,301.654 35.956,301.542 36.531 C 301.426 37.124,301.489 37.180,305.775 40.315 C 308.169 42.066,311.091 44.210,312.269 45.081 C 313.447 45.951,314.608 46.798,314.848 46.962 C 315.617 47.487,315.174 47.517,306.637 47.520 C 302.023 47.522,298.142 47.590,298.014 47.671 C 297.819 47.795,296.258 52.376,293.127 62.016 C 292.816 62.974,292.482 63.782,292.386 63.810 C 292.289 63.839,291.035 60.294,289.600 55.933 C 288.164 51.572,286.904 47.894,286.801 47.760 C 286.655 47.572,284.695 47.517,278.177 47.517 C 273.537 47.517,269.700 47.451,269.650 47.371 C 269.601 47.291,272.572 45.003,276.253 42.287 C 284.083 36.511,283.480 37.075,283.099 35.882 C 282.936 35.373,282.259 33.247,281.594 31.159 C 279.675 25.131,278.245 20.755,278.132 20.561 C 277.889 20.144,278.924 20.845,285.413 25.488 M118.403 24.060 C 120.063 25.252,122.776 27.206,124.432 28.401 C 126.087 29.596,127.534 30.574,127.647 30.574 C 127.761 30.574,129.225 29.589,130.901 28.384 C 132.577 27.179,135.468 25.106,137.325 23.778 C 139.182 22.450,140.898 21.186,141.138 20.970 C 141.379 20.753,141.627 20.628,141.690 20.691 C 141.782 20.782,140.237 25.957,139.438 28.238 C 139.344 28.505,138.816 30.170,138.264 31.938 C 137.712 33.705,137.137 35.526,136.985 35.985 C 136.833 36.444,136.709 36.938,136.709 37.082 C 136.709 37.314,139.275 39.284,143.720 42.465 C 144.523 43.040,145.224 43.562,145.278 43.624 C 145.331 43.687,146.441 44.505,147.744 45.442 C 149.048 46.379,150.219 47.273,150.349 47.429 C 150.553 47.675,149.487 47.712,142.039 47.715 C 137.340 47.716,133.393 47.783,133.268 47.863 C 133.143 47.942,132.409 49.934,131.638 52.290 C 128.580 61.625,127.779 63.963,127.622 64.009 C 127.532 64.035,126.284 60.489,124.848 56.128 C 123.412 51.767,122.153 48.089,122.049 47.955 C 121.904 47.767,119.922 47.712,113.316 47.712 C 108.616 47.712,104.774 47.646,104.778 47.566 C 104.783 47.485,105.807 46.675,107.056 45.764 C 108.305 44.854,110.207 43.449,111.284 42.642 C 112.361 41.836,114.119 40.550,115.190 39.785 C 116.261 39.020,117.480 38.098,117.899 37.735 L 118.660 37.076 118.029 35.042 C 117.682 33.924,117.108 32.132,116.753 31.061 C 115.727 27.968,113.764 21.768,113.615 21.149 L 113.478 20.585 114.431 21.238 C 114.956 21.597,116.743 22.867,118.403 24.060 M231.146 26.161 C 234.406 28.512,237.210 30.470,237.378 30.513 C 237.545 30.556,238.647 29.885,239.825 29.023 C 241.003 28.161,243.763 26.170,245.959 24.598 C 248.155 23.026,249.995 21.686,250.049 21.620 C 250.304 21.306,251.447 20.613,251.547 20.713 C 251.608 20.774,251.565 21.069,251.450 21.367 C 251.335 21.665,250.880 23.092,250.438 24.537 C 249.997 25.983,249.558 27.386,249.463 27.653 C 249.368 27.921,248.840 29.586,248.289 31.353 C 247.739 33.121,247.121 35.055,246.916 35.651 C 246.373 37.230,246.358 37.202,248.637 38.886 C 251.995 41.369,257.261 45.230,258.423 46.062 C 259.012 46.484,259.712 47.028,259.979 47.270 L 260.463 47.712 251.897 47.715 C 247.185 47.716,243.223 47.786,243.092 47.869 C 242.962 47.952,242.064 50.426,241.097 53.367 C 240.130 56.308,238.929 59.963,238.428 61.488 C 237.927 63.013,237.466 64.213,237.405 64.154 C 237.343 64.095,236.066 60.394,234.567 55.928 L 231.840 47.809 223.098 47.712 L 214.356 47.614 217.519 45.278 C 226.518 38.628,228.432 37.178,228.432 37.009 C 228.432 36.908,228.350 36.623,228.248 36.377 C 228.147 36.131,227.762 34.966,227.393 33.788 C 225.945 29.166,223.728 22.275,223.553 21.851 C 222.843 20.126,222.530 19.948,231.146 26.161 M334.934 21.853 C 342.378 27.225,347.133 30.573,347.309 30.568 C 347.423 30.565,347.999 30.208,348.588 29.775 C 349.177 29.342,351.412 27.724,353.554 26.179 C 355.696 24.635,358.281 22.766,359.299 22.027 C 361.485 20.440,361.516 20.472,360.597 23.318 C 360.225 24.471,359.555 26.597,359.107 28.043 C 358.660 29.489,358.133 31.154,357.936 31.743 C 355.941 37.709,355.870 37.066,358.749 39.164 C 368.116 45.990,369.895 47.317,369.977 47.537 C 370.015 47.638,366.431 47.712,361.464 47.712 C 353.201 47.712,352.879 47.726,352.686 48.086 C 352.497 48.438,351.897 50.231,348.702 59.969 C 347.984 62.158,347.345 64.033,347.282 64.135 C 347.219 64.238,345.931 60.606,344.421 56.065 L 341.675 47.809 333.057 47.758 C 328.318 47.731,324.440 47.636,324.440 47.548 C 324.440 47.460,324.856 47.090,325.365 46.726 C 325.874 46.361,326.422 45.955,326.582 45.823 C 326.743 45.691,329.402 43.724,332.490 41.452 L 338.106 37.320 338.024 36.625 C 337.980 36.243,337.482 34.528,336.918 32.814 C 336.355 31.100,335.595 28.756,335.230 27.605 C 333.570 22.367,333.228 21.302,333.102 20.983 C 332.888 20.441,333.151 20.566,334.934 21.853 " stroke="none" fill="#8c7cdc" fill-rule="evenodd"></path></g></svg>