<?xml version="1.0" encoding="iso-8859-1"?>
<!-- Generator: Adobe Illustrator 19.0.0, SVG Export Plug-In . SVG Version: 6.00 Build 0)  -->
<svg version="1.1" id="Layer_1" xmlns="http://www.w3.org/2000/svg" xmlns:xlink="http://www.w3.org/1999/xlink" x="0px" y="0px"
	 viewBox="0 0 512 512" style="enable-background:new 0 0 512 512;" xml:space="preserve">
<g>
	<path style="fill:#00B3E3;" d="M97.896,16.57c22.222,0,42.469,8.444,57.71,22.299c8.109-3.362,16.993-5.225,26.317-5.225
		c35.318,0,64.417,26.63,68.303,60.909c0.295,2.572,0.873,7.839-6.541,7.839c-6.634,0-186.797,0-224.669,0
		c-4.456,0-6.804-5.692-6.53-8.483C16.747,50.491,53.359,16.57,97.896,16.57z"/>
	<path style="fill:#00B3E3;" d="M419.863,122.003c-22.222,0-42.469,8.444-57.71,22.299c-8.109-3.362-16.993-5.225-26.317-5.225
		c-35.318,0-64.417,26.63-68.303,60.909c-0.295,2.572-0.873,7.839,6.541,7.839c6.634,0,186.797,0,224.669,0
		c4.456,0,6.804-5.692,6.53-8.483C501.012,155.923,464.401,122.003,419.863,122.003z"/>
</g>
<path style="fill:#F2D383;" d="M333.01,83.406c6.008,0,7.087-3.074,2.399-6.83L264.523,19.78c-4.688-3.755-12.36-3.755-17.048,0
	l-70.886,56.796c-4.688,3.755-3.609,6.83,2.399,6.83H333.01z"/>
<path style="opacity:0.2;enable-background:new    ;" d="M335.41,76.576l-20.786-16.655H197.376L176.59,76.576
	c-4.688,3.755-3.609,6.83,2.399,6.83H333.01C339.018,83.406,340.098,80.332,335.41,76.576z"/>
<rect x="155.758" y="121.315" style="fill:#0071CE;" width="200.49" height="361.709"/>
<rect x="226.335" y="420.574" style="fill:#F2D383;" width="59.325" height="62.537"/>
<g>
	<rect x="155.758" y="344.405" style="fill:#00B3E3;" width="200.49" height="49.01"/>
	<rect x="155.758" y="227.622" style="fill:#00B3E3;" width="200.49" height="49.01"/>
</g>
<path style="fill:#333E48;" d="M512,491.014c0,2.426-1.984,4.412-4.412,4.412H4.412c-2.427,0-4.412-1.986-4.412-4.412v-15.792
	c0-2.428,1.985-4.414,4.412-4.414h503.176c2.428,0,4.412,1.986,4.412,4.414V491.014z"/>
<rect x="123.479" y="470.811" style="fill:#A4A9AD;" width="265.047" height="24.618"/>
<g style="opacity:0.2;">
	<rect x="191.008" y="121.315" width="16.385" height="349.497"/>
</g>
<g style="opacity:0.2;">
	<rect x="304.612" y="121.315" width="16.385" height="349.497"/>
</g>
<path style="fill:#F2D383;" d="M356.248,121.312V81.309c0-6.008-4.916-10.923-10.923-10.923H166.676
	c-6.008,0-10.923,4.916-10.923,10.923v40.003H356.248z"/>
<g style="opacity:0.2;">
	<path d="M199.197,110.78c-4.526,0-8.193-3.667-8.193-8.193V90.203c0-4.526,3.667-8.193,8.193-8.193s8.193,3.667,8.193,8.193v12.384
		C207.39,107.113,203.723,110.78,199.197,110.78z"/>
</g>
<g style="opacity:0.2;">
	<path d="M255.999,110.78c-4.526,0-8.193-3.667-8.193-8.193V90.203c0-4.526,3.667-8.193,8.193-8.193s8.193,3.667,8.193,8.193v12.384
		C264.192,107.113,260.525,110.78,255.999,110.78z"/>
</g>
<g style="opacity:0.2;">
	<path d="M312.802,110.78c-4.526,0-8.193-3.667-8.193-8.193V90.203c0-4.526,3.667-8.193,8.193-8.193s8.193,3.667,8.193,8.193v12.384
		C320.994,107.113,317.327,110.78,312.802,110.78z"/>
</g>
<path style="fill:#00AD68;" d="M193.406,433.156c0-20.795-16.859-92.227-37.654-92.227c-20.793,0-37.652,71.432-37.652,92.227
	c0,20.795,16.859,37.652,37.652,37.652C176.546,470.808,193.406,453.951,193.406,433.156z"/>
<g>
	<path style="fill:#218649;" d="M95.752,433.156c0-20.795-16.859-92.227-37.654-92.227c-20.793,0-37.652,71.432-37.652,92.227
		c0,20.795,16.858,37.652,37.652,37.652C78.894,470.808,95.752,453.951,95.752,433.156z"/>
	<path style="fill:#218649;" d="M416.248,433.156c0-20.795,16.859-92.227,37.654-92.227c20.793,0,37.652,71.432,37.652,92.227
		c0,20.795-16.859,37.652-37.652,37.652C433.106,470.808,416.248,453.951,416.248,433.156z"/>
</g>
<path style="fill:#00AD68;" d="M318.594,433.156c0-20.795,16.859-92.227,37.654-92.227c20.793,0,37.652,71.432,37.652,92.227
	c0,20.795-16.859,37.652-37.652,37.652C335.454,470.808,318.594,453.951,318.594,433.156z"/>
<g style="opacity:0.2;">
	<rect x="247.81" y="420.574" width="16.385" height="50.228"/>
</g>
<g style="opacity:0.1;">
	<rect x="247.81" y="227.622" width="16.385" height="49.01"/>
</g>
<g style="opacity:0.1;">
	<rect x="247.81" y="344.405" width="16.385" height="49.01"/>
</g>
<g>
</g>
<g>
</g>
<g>
</g>
<g>
</g>
<g>
</g>
<g>
</g>
<g>
</g>
<g>
</g>
<g>
</g>
<g>
</g>
<g>
</g>
<g>
</g>
<g>
</g>
<g>
</g>
<g>
</g>
</svg>
