<svg xmlns="http://www.w3.org/2000/svg" viewBox="0 0 562.37 574.99"><defs><style>.cls-1{opacity:0.7;}.cls-2{fill:#cccccc;stroke:#333;stroke-width:0.87px;}</style></defs><title>Asset 2</title><g id="Layer_2" data-name="Layer 2"><g id="Layer_1-2" data-name="Layer 1"><g class="cls-1"><path class="cls-2" d="M216.45,88.61c-5.85-2.48-11,6.41-13.06,7.23-3.55,1.44-9.69.37-17,2.79,2.05,5.07,3.57,8,4.69,13.31.71,3.35,1.75,4.31,5.2,4.44-9.91,6.89,8.59,11.11,11.66,14.2-.45-.45-10,2.15-11.28,2.66,3,6.05-.19,9.15-1.1,10.9,4.58-1.78,8.66-3,9.72-.63,2.49,5.46,3,5-5.33,17.75-2.75,4.18,6.13,10.41,13.69,15.72,8.2,7.61-5.82,4-8,5.71-1.3.33,11.53,14.46,8.83,15.74-7.08,3.38-14.5,4-19.71,4.17,2.49-.38,8.83,7.32,18.28,14.88,3,2.41,3.69,4.92,10.47,7.21,5.37,3.2,15.09.15,16.7,6.43.69.44-7.44,4.49-6.94,4.69.71.29,4.91,7.19,3.43,7.94,9.68,3.13-1.92,9.08,15.07,12.31,5.13,1,5,23.87,5.53,18.33,7.34-6.2,6.78-17.41,23.8-11.27.18-5.47,5.9-4.56,8.94-6.7,3.45,3.52,7.27-3.61,12.61-2,3.33,1,25.82-1.42,20.16-9.76-3.26-4.8-4.07-10.45-1.27-13.44s6.1.28,9.13-3.55a49.25,49.25,0,0,0,7-11.28c-5-1.58-11.4-8.09-15.22-11.66-12.28-11.51-6.15-20.81.76-32.33-1.57-1.44-10.13-10.14-6.85-12.3,2.75-1.81,6.33-.67,9.13-2-2.76-3.38-10-7.94-14.2-4.56-1.33,1.07-5.21,7.67-6.59,7.61-1.89-.09-5.49-5.22-7.61-6.09-4.93-2-10.46-3.64-15.22-6.09-3.53-1.82-1.37-1.17-5-2.47,4.56-2.45,6.46-6.39.16-7.17,7.06-6.64,1.33-8-4.62-10.21-6.11-2.25-13.92-7.77-19.22-11.35,6.62-13.13-7.52-13.21-9.38-22.32-1.66-8.13-18.77-8.28-27.39-6.85Z"/><path class="cls-2" d="M252.48,286.89c4.52-.66,1.52-4.34,1.47-7-.07-3.76,6.56-5.64,7.47-10.25.79-4,4.18-6,7.55-7.61,7.45-3.57,6.1,1.13,12.85,1.35-1.43-5.45,2.44-3.42,5.08-6.16a4.78,4.78,0,0,1,4.65.08c3.71,1.07,4.08-2.43,7.27-3,3.62-.62,11.13.83,14.05-1.38,3.68-2.78,7.6,5.41,9.9,7.54,8.58,7.93,16.08,10.28,16,24.23,0,2.91,2,7.73.29,11-1,1.89-4.5-.23-4.18,2.93.45,4.41-8,7.46-13.06,6-5.67-1.7-11.37-.26-16.25,3.29-9.67,7-17.32,7.06-29.17,9-6.37,1-3.65-3.36-9-2-6.59,1.69-3.37-4-6.84-6.74-7-5.44-5.33-13.47-8.11-21.22"/><path class="cls-2" d="M451,322.39c3.76-1.79,8.95-6.93,10.08-11,1.76-6.36-3.12-11.14,5.7-15.12,4.82-2.18,3.06-2.21,1.85-7.28-.71-3-1.9-5.95-5.1-7-11.56-3.78,2.7-5.6,2-10.23-.18-1.29,12.37-4.87,14.41-5.53,6.66-2.17,10.58-4.4,15.41,1.08,4.51,5.12,7,1.84,12.77,1.27,2.67-.27,5.8,0,8,1.81,3.68,3-1.84,4.11.76,7.45,9.7,12.48,21,17.91,36.42,22.53,5.94,1.78,1,10.45-2.68,11.81-7,2.61-17.27-4.22-24.43-4.63-3.55-.21-5.72,2.26-8.64,3.76-3.6,1.84-7.36-1.35-11.49-.12-5,1.5-7.05,6.88-10.5,10.63-5.59,6.09-13.12,7.81-19.56,12.51-5.46,4-10.73,15.11-16.66,17.39-1.79-7.05,1.2-14.39,8.15-16.86,1.25-.44,14.57-4.47,10.18-8.09-7.12-5.87-23.2,9.86-26.66-4.4"/><path class="cls-2" d="M7.93,118.43c2.49.58,4.94,1.23,7.45,1.77,3.25.7,5.8-2.43,7.54-3,.87-.31,8.19,6.72,18.77-6.79,6.56,6.43,11.9,4.1,19,8.06,9.3,5.17,4.69-6.24,8.82-7.25-1.8-.41-3.32-2-5.08-2.54,14.36-10.3,17.76.56,12.55-19-.66-2.5,11.94-4.74,14-6.71,3.16-3-.11-2,3.18-4.13,0,0,5,1.24,5.81,1.27-9.54-10.9,8.4-6.55,12-3,2.53,2.54,16.21,10.74,18,13.22,7.28,8.19,17.88,12.2,29.26,15.91,27.08,1.51,14.81-5.6,26.8-7.25-.28-2.61,1.91,2.93,3.46,6.19,2.24,4.71.2,10.84,7.17,11.12-11.53,8,13.84,12.6,11.16,14.26l-11.16,2.77c3.66,6-1,15.84-8.65,9.94-5-8.91-4.86-4.21-7.39-6.63-4.71-1.73-9-2.72-13.8-1.47-5.17,1.36-4.83-2.62-9.88.16-3.73,2.05-6.27-.08-9.81-.92-8.53-.18-16-2.92-24-5.21-5.9.53,2.27,3-6.86.53-6.69-1.82-7.22-.11-9.52,4-4.94,8.91-5.66,5-14.2-1.33-11-8.13-9.48,6.76-8.8,12.32.42,3.43-.62,4.06,2.92,5.59,3.18,1.37,8.54,4.77,10.79,7.88,4.69,6.48-.2,15.54,9.8,21.38,9.56,5.59,15,14.9,23.81,21.51,7.13,5.32,10.39,11.92,16.55,17.29,7.43,6.48,3.71,13.93-4.7,4.12-8.7-10.15-30.37-25-44.4-19.79-3.68,1.37-5.61,0-8-3.1-2.93-3.8-1.11-4.82-6.66-7.57-8.09-4-19.19-13.13-22.38-21.78,5-.87,9.58-.14,14.54.73-6.52-4.79-14.56-8.38-19.11-15.41-3.8-5.87-1.29-13.39-5-19.22-3.25-5.12-10.51-10-16.34-11.6-4.3-1.17-8.23,11.19-7.41,14.35-1.85-.76-2.53-.22-4-1.81-.55,4.15-1.55,8.58-4.73,11.59-2.58-2-10.89-12.27-6.89-15.58-4.58,1.06-6.8-11.51-7.95-15.22l3.27.35"/><path class="cls-2" d="M151.74,229.65c3.76-3.31,8.36,1.71,13.5,6.24,6.42,5.65,20.76,6.83,16.24,12.24-5.81-.81-15.92-9-20.51-12.71-4-3.22-9.27-2.73-13.9-4.32-5-1.72-9.18-6.17-14.89-5.43,5.93-4.56,17.4,2.51,22.14,6.16l-2.57-2.18"/><path class="cls-2" d="M34.75,139.08a7.44,7.44,0,0,1-1.81-7.61c4.19,6.9,4.92,14.89,7.25,22.46-4.8-.72-9.48-11.3-5.43-14.85"/><path class="cls-2" d="M40.9,161.54q-2.91-3.76-6.14-7.25a18.93,18.93,0,0,1,6.14,7.25"/><path class="cls-2" d="M44.17,139.08c-3.25-.35-9.05-7-3.62-8.7,3.78-1.17,6.68,7.26,9.41,8.7q-2.94,3-5.79,0"/><path class="cls-2" d="M46.68,146.32l3.62,2.17q-4.89,2.31-3.62-2.17"/><path class="cls-2" d="M53.93,173.49l-3.62-2.9a6.17,6.17,0,0,1,3.62,2.9"/><path class="cls-2" d="M57.55,163c-3.52-3.38-7.05-6.89-9.41-11.23,4.43,6.14,12.23,8.36,16.66,14.49-3.52,2.7-5.61-.58-7.25-3.26"/><path class="cls-2" d="M57.9,180l-3.57-3.26c4.7.35,5.81,5.86,9.41,8A7.73,7.73,0,0,1,57.9,180"/><path class="cls-2" d="M66.26,187.26a33.31,33.31,0,0,1,7.6,5.8c-2.85-1.32-5.85-3.09-7.6-5.8"/><path class="cls-2" d="M66.26,181.1l-3.62-2.54a3.66,3.66,0,0,1,3.62,2.54"/><path class="cls-2" d="M80,196l4,1.81A18.53,18.53,0,0,1,80,196"/><path class="cls-2" d="M100.67,203.2l3.62-.36a6.23,6.23,0,0,1-3.62.36"/><path class="cls-2" d="M106.45,210.81,102.83,209a4.18,4.18,0,0,1,3.62,1.81"/><path class="cls-2" d="M117.33,213.71c-3.73,0-8.43-.94-9.06-5.43a40.88,40.88,0,0,1,14.84,2.17,8.89,8.89,0,0,1-5.79,3.26"/><path class="cls-2" d="M124.22,229.28a43.47,43.47,0,0,0-7.6-1.09c4.48-3.9,14-3.27,18.82-.36-3.75,1.18-7.69-.83-11.22,1.45"/><path class="cls-2" d="M130.76,219.87a69.68,69.68,0,0,1-22.14-2.54c8.51-2.8,17.17,1.74,25.76,1.45l-3.62,1.09"/><path class="cls-2" d="M155,238c-3.64-1.26-7.47-1.76-11.22-2.54,3.83-.84,8,.55,11.22,2.54"/><path class="cls-2" d="M235.82,91.25c3.93-2.7,6.94-2.47,10.91-1.44s4.1-4,7.21-5.08c3.42-1.19,7.12-.33,10.55-1.4,5-1.56,4-7.57,6.34-11.3,2.22-3.54,5.23-6.52,7.73-9.85,3.22-4.29,2.81-8.13,5.69-12,2.54-3.42,5.5-7.44,6.88-11.53,1.61-4.76-.28-7,3.12-8.78s4.33-3,6.64-5.93c3.63-4.62,10.24-1.33,14.58-5,3.58-3,6.07-7.22,10-9.81,5.45-3.58,11.62.95,17.21,1.68,5.32.69,10.59,1.81,15.93,2.35C365,13.83,373,11,378.78,14.72c10.87,7,11.87,11.25,22,1.59,6.33-6,19.5-3,27.51-4.31,5.27-.89,4.36-4.72,7.38-8.06,3.25-3.59,9.51-3.82,14-3.31,10,1.13,15.64,11.63,19.82,19.56,4.64,8.8,11.19,16.46,18.29,23.27,10.36,10,15.16,17.29,19.33,31,1.53,5-1.46,10.08-2.58,14.81C503.2,94.7,505.6,100.47,506,106c.67,9.12,2.91,12.84,10.11,17.91,2.76,1.95,9.36,6.7,13.49,4.31,4.6-2.66,28.08-15.66,31.34-2,4.14,17.37-5.17,23.86-21.21,23.73,2-1.58,3.65-11.12-.52-11-5,.17-2.31,11.67-6,14.6a45.16,45.16,0,0,1,7.24-1.09c-3.65,1.59-10.17,2.08-5.78,6.88a34.14,34.14,0,0,0,3.62-3.62c-1.55,5.73-7.68,8.88-8.7,14.85-1.09,6.38,3.73,16.82-.44,22.77-2.42-2.05-7.83.21-10.24-1a98.58,98.58,0,0,1-12.66-9.56c-5.15-1.59-10,.86-16.91-2.45-5.56-2.67-15.14-6.16-25.84-1.83-23.52,2.32-28.59,15.54-39.36,18-6.61,1.5-15.77-1.72-25.32-2.95-11.48-1.47-17.6,1.78-23.94,1.63-5.3-.12-11.77-5.47-21.05-5.84-4.71-.18-19.9,3.82-23.14-1.32-4.75-7.52,14.13-7.84-3.21-14.12-4.28-1.55-5.75-1.31-11.43-9.28-4.94-6.94,6.63-5.23,9-6.41-2.73-3.34-8.48-6.89-12.87-5.33-3,1.07-3.8,9-7.41,8.26S296,154.35,291.42,153c-5-1.44-10.88-2.76-14.69-6.7,4.2-1.22,5.18-6.61,0-7.24,4.82-4.53,2.22-7.69-3.49-9.69-7.69-2.69-13.5-7.21-20.14-11.68,5.93-11.76-10.51-18.89-17.28-26.45"/><path class="cls-2" d="M213.34,326.37c2-3.35,3.65-7.3,2.21-11.23,5.31.85,2.59-11.33,3.69-15.27.85-3-3.88-3.2-2.18-7.07a45.12,45.12,0,0,0,3-9.09c1.08-5.31.19-11.22-6.7-9.51-2.59-8-2.53-18.83,2.59-25.61,4.16-5.51,4.85-14.29,10.67-4,3.69,6.51,9.34-7.68,14.82,2.81,1.14,2.18,1,3.77,2.77,5.51,3.47,3.36,5.8-.13,11,7.26.88,1.24,2.32,9,2,15.1-5.73,3.65,1.33,9.44-4.59,12.26.27,2.19,2.12,3.87,3.08,5.72.17,1.59.67,2.44-.27,3.78-.71,3.5,2.17,8.13,4.52,10,2.77,2.2,2,7.69,7.06,7.09s4.68,2.42,6.23,5.92c6,13.6-3.64,10.42-7.1,19-1.16,2.89-4.13,9.59-7.39,11.31-8.43,4.46-8.12,4.12-4.81,12.21-7.53-.9,2.3,4.52-7.64,6.16-5.77,1-7.4-2.23-8.13-6.85-1.9-12-17.87-16.33-24.84-25.76a6.2,6.2,0,0,1,5.08,4c3.62-4.19-3.38-6.84.35-8.33a17.49,17.49,0,0,1-5.43-5.43"/><path class="cls-2" d="M83.26,135.81c-.41-11.79,9.45-3.42,14,.28,4.92,4,8.34.63,10.3-4.44,1.88-4.87,9.32-1.59,12.68-.91.59-4.74,20.5,3.26,25,3.26,3.11,0,8.8,3.17,11.32,1.39,5.82-4.09,4.31.83,9.48-.31,6.31-1.39,11.81.18,17.71,2.55,4.93,2,1.83,6.75,8.17,7.1,4,.21,9.34-4,12.8-2.3,5.55,2.78.91,10.44-1.39,13.53-7.65,10.27.81,13.78,8.3,19.48,12.92,9.84-3.73,5-5.63,7.7-.24.35,8.86,11.75,8.92,14.55.06,2.45-17.17,5.74-20.07,4.78-.7,4.57,5,6.42,2.92,11.23-2.81-9.27-16.22,2.49-12,10.14-14.17-3.13,3.94,19.83-4.85,19.67-5.57-.1-15.35-6.85-19.64-10.28-2.27-1.81-2.58-4-5.75-4.4-2.93-.38-3.7,2.49-6.69-1.73,9.45-.13-8.48-15.16-10.14-17.23-8.51-10.57-14.83-14.13-22.56-22.82-4-4.46-9.21-6.79-13.27-11-4.77-4.94-1.7-12.9-6.22-18.41-3.44-4.19-7.84-5.27-12-8.22-2.12-1.47-1-10.41-1.38-13.62"/><path class="cls-2" d="M314.42,191.24c-.27-5.92,4.85-14,8.53-18.46,1.18-1.42,11.15,3.4,11.75,4.69,1.64,3.53-5.3,7-3.22,10.65,3,5.25,19.85.24,25.07,1.33,8.5,1.77,17.81,7.76,26.43,4.66,6.94-2.5,15.73-.56,23.11,0,10.91.87,16.74,5.77,26.82-1.91,7.79-5.94,13.2-10.72,23.19-12.45,9.12-1.58,18.9-6.66,27.8-2,5.66,3,13.83,5.35,20.19,4.19,2.18-.4,10.42,8.45,13.56,9.71,4.24,1.7,11.72-1.71,12.46,4.41.79,6.61,1.73,11.68-6.28,11.06s-11.68,5.24-14.9,11.84c-2.78,5.69.23,12-3.21,18.28-1.06,1.91-2.28,3.73-3.42,5.59-1.83,3-5.56,1-7.44,4.55,9.86,2.24,11.73,9.35,18.08,16,7.8,8.12-9.38,8-14.49,6.59-5.53-1.56-6.1-7.26-13.1-5.25-5.19,1.49-9.31,2.92-14.67,4.65-8.08,2.6-2.69,3.58-4.45,4.51-3,1.57-9.14,4.5-5.82,6.88-24.66-4.88,3.71,10.63-11,16.11-6.62,2.46-4.91-1.7-23.89,2.36-5.48,1.17-9.85-4.74-14.73-4.46-6.34.36-6.85,2.63-12.82-5.09-3.49-4.52-7.37-3.6-12.49-2.78-7.07,1.15-11.49,9.38-19,9.22-9.72-.21-14-.46-17.09,2.17-1.67,1.44-6.69.06-11.2-1.31,3.68-4.1-.27-10.12.22-16.31s-6.1-12.11-10.46-15.7c-4.43-2.64-8.24-8.78-11.76-12.41,16.67-5-.52-8.88,4.18-20.39,1.62-4,5.47-1.15,8.16-2.86,3.29-2.09,7.52-9.14,9.09-12.67-9.7-3.09-21.85-16-23.2-25.38"/><path class="cls-2" d="M180.38,243.41c9.48-1.56-9.51-22.75,5.43-19.56-4.25-7.66,9.16-19.41,12-10.14,2-4.82-3.62-6.67-2.92-11.23,6.08,2,7.63,5.64,12.72,10.05,6.92,6,9.08,8.73,17.28,12.86,3.2,1.61,12.58.54,14.56,4,3,5.31-4.83,4.93-5.64,5.6-2.5,2,6.61,7.54,2,9.85-3.1,1.57-6.86,3.54-9.47-.15-1.43-2-2.4-6.23-5.6-2.61-8.14,9.21-10.88,19.45-7,31.39-5.89-3.35-12-9.35-15.95-14.81-1.2-1.67-11.26-10.09-13.35-9.81,3.59-1.59,2.84-1.28,6.85.7.4-6.13-12.65,4.12-10.88-6.15"/><path class="cls-2" d="M240.51,368c2.66.6,6.1,1.12,8.67-.11,5.47-2.62-3.52-6.17,4.77-5.32-2.92-7.25-4.91-7,2-10.75a17.64,17.64,0,0,0,8.91-10.44c2.16-6.59,4.54-6,8.73-10.73,4.06-4.55-2.19-10.09-2-14.76,3,2,7.85-.76,12.9-.65,11.24.25,17-6.5,26.33-10.65,6-2.67,13.05.9,19.67-1.35,4.22-1.44,1.53-7,7.44-6.92,3.92.08,8.55,4,12,1.51,4.67-3.28,11.73-1.29,17-2s10.3-6.57,15.35-8.17c4-1.26,10.71-3.49,14.16.11,3,3.14,5.36,9,10.87,7.26,6-1.89,9.59,2.76,15.2,3.86,5,1,9.52-2.15,14.55-1.95,4.52.18,10.73,1.53,14.66-1.49,4.89-3.77-.48-8.49-1.89-12.38-2.52-7,12.67-1.93,14.27-1,5.12,2.85,4.16,7.48,6.09,12.51-11.16,4.8-8.33,7.63-8.86,14.68-.41,5.5-3.67,9.88-10.49,13.12,2.12-5.79-24.43-7-28.56-8.59-8-3.17-7.89-1.57-15.07,3.15-5,3.26-9.54-6-14.22-3.68-6.57,3.27-6.82,12-16.8,8.4-7.47-2.73-6.94.81-5,5.78,1.05,2.69,5,.69,2.84,4.56-1.45,2.63,1.73,5.74,3.72,3.6,4.07-4.36,14.37,9.63,16.58,12.13-5.73,3.13-13-9.18-18.92-9.68-13.68-1.14,4.51,12.34,5.18,16.2-6.38,2.07-13.05-9.12-18.35-11.25-4.43-1.78-5,1-3.31,4.38,2.47,4.87,7.26,6.08,11.14,9.4-9.33,3.91-11.61-4.3-14.31-10.15-3-6.61-12.9-7.48-17.19-13,2.81-.82,4.25-2.86,3.62-5.8-20.19,2.77-10.91,25.26-3.46,35.06,4,5.2,30,29,11.42,30.87,8-2.78.43-13.68-5.43-12-7.67,2.25-1,16.57,5.08,14.13-3.9,5-10.37,8.06-16.7,6.16,4.15,2.13,15.63,5.28,17.38,9.34,1.41,3.26,5.36-2,7.59,1.29,2.1,3.13-3.23,3.46,4.11,5.53,7.72,2.18,12.49,6.63,19.78,9.9,5.39,2.42,5.07,6.95,4.39,12-.74,5.59,4,10.57,1.15,15.91-6.15-4.88-11.49-13.27-19.73-14.81-6-1.13-11.84,3.65-17.61,3.22-.11,5,4.51.48,4.83,5.85.21,3.48,6.15,15.92,7.15,6.84,1.25,2.49,7.78,5.2,5.38,8.69.55-.81-10.88,5-9.06,5.07-5.11-.11-1.65-5.3-5.56-6.87s-8.55-1.9-11.81-4.72c-.65,8.93,7.79,16.82,10.74,24.81,1.75,4.75,4,8.86,2.78,13.91-1.11,4.45,5.68,5.75,4.71,9.92-.43,1.85-13.26-11-14.35-12.78-6.39-10.15-12,6-10.08,12-5.46.78-7.38-14.68-11.34-17.46-2.54-1.78-1.55-6.69-5.67-6.27-5.37.54-4.45,7.38-4,11-10.87-1.85-14.62-14.37-10.27-23.34,3.54-7.29-17.83-21.29-21.28-26.3,4.3-1.35,6.46-7.4,9.55-10.29s6.54.22,9.84-2.67c2.27-2,4.76-6.56,8.39-5.86,6.65,1.28,11.17,8.11,18.55,8.77,5.76.51,9.51,4.72,14.18,7.52,3.7,2.22,5.49-2.19,9.34-4.51,3.1-1.87,7.28-4.63.36-5.49-3.77-.47-7,.1-10.44-2-3.93-2.46-4.76-6.82-7.95-1.73a31,31,0,0,0-6.54-6.88c.58,9.41-12.9,2-16.75,2.83-9.81,2.2-16.07,5.27-21.29-3.91-.68,3.3-3.72,5.73-6.49,7.25-1.85-6-3.37-12.51-8.63-16.43-2.78-2.07-10.63-7.68-6.61-11.83,1.51-1.57,21.39,4.69,12.33-3.62-2.8-2.56-13.35-3.2-12.68,3.26-3-8.78-11.12-10-16.83-15.71-4-4-3.36-14.83-10.35-15.45"/><path class="cls-2" d="M442,350.29c-2.92-4.78,6.38-9.9,8.2-4.93,1.06,2.89-6.45,4.81-8.2,4.93"/><path class="cls-2" d="M495.33,498.44C489.45,492.89,504.1,488,508,489c-3.08,2.47-12.39,4.65-12.68,9.42"/><path class="cls-2" d="M239.8,377.82l4,2.54c-7,1.36-16.28-10.69-16-17,14.09-1.39,2.07,11.3,12,14.49"/><path class="cls-2" d="M260.83,424.55v-3.62c2.62,2.16,1.3,6,3.77,8,2.72,2.18,5.33,4.48,6.34,8-3.17,1.23-11.85.19-11.58-4.71-1.2.74-2.41,1.46-3.62,2.17-3.51-6.54,2.81-5.46,5.08-9.78"/><path class="cls-2" d="M265.87,404.63c1.87,2.24,1.48,12.83-2.88,9.64-2.54-1.85-.93-10.39,2.88-9.64"/><path class="cls-2" d="M267.68,427.45a21.1,21.1,0,0,1-4-7.25,19.52,19.52,0,0,1,4,7.25"/><path class="cls-2" d="M272.93,456.08c-3.53-2.17-8-5.38-7.6-10.15,7.64,0,12.14,4,7.6,10.15"/><path class="cls-2" d="M351.93,511.12c2.48,2.91,6.12,8.46,0,9.78-.77-2.91-3.71-7.4,0-9.78"/><path class="cls-2" d="M367.66,440.86c2.4,3.8.5,4.75-2.87,4.71a5.55,5.55,0,0,1,2.87-4.71"/><path class="cls-2" d="M368.06,455a25.72,25.72,0,0,1-2.57-4q6.16-1.76,2.57,4"/><path class="cls-2" d="M370.22,420.57c1.7-7.46-18.53-21.18-24.66-15.94,3-3.27,6.23-8.45,11.2-8.59,5.72-.17,7.85,6.5,11.25,9.79,5.1,4.94,12.54,3,18.51,5.7,7,3.2,3.62,12.46,7.39,17.78,3,4.27,9.39,2.82,11.78,8.21,3.26,7.38-8.11,1.4-9.69,0-3.7-3.4-6-11.48-10.35-13.59-4.61-2.27-12.27,2.13-15.45-3.31"/><path class="cls-2" d="M373.09,394.48a33.75,33.75,0,0,1-3.63-3.26c2.74-.7,4.3.33,3.63,3.26"/><path class="cls-2" d="M396.69,562.22c-4.81,1.05-15,.38-19.54-1.57-4.71-2-1.67-9.68-1.49-13.28,1.19.74,2.41,1.47,3.62,2.17a12,12,0,0,0,1.46-7.61c3,8.9,10.19,5.16,17,4.35-6.77,2.64-1.77,3.83,1.08,6.44,4.32,4,8.37,3.22,13.6,1.35,10.82-3.87,22.1,2.92,33,3.45,3,.15,8.87-3,9,2.36.06,2.21-1.45,5.12,1.92,4.91,5.09-.32,10.8-4.84,15.86-3.87,2.42.46,3.07,5.72,1.61,7.35-2,2.18-5.91,2.09-8.54,2.08a153.89,153.89,0,0,0-30.83,3c-3.74.73-8.64,2.21-12.25.14-3.13-1.8-2.59-5.71-5.84-7.25-6.1-2.91-13.21-2.45-19.65-4"/><path class="cls-2" d="M397,461.51c-1.46-2.93.11-5.34,2.87-6.53a5.86,5.86,0,0,1-2.87,6.53"/><path class="cls-2" d="M400.67,499.55v-4c2.52,2.5,5.58,2.16,7.6-.72.26,4.77-4.47,3.88-7.6,4.7"/><path class="cls-2" d="M402.13,329.63c-5.05-1.41-5.56-10.66.71-9.42,5.66,1.13,4.55,8.66-.71,9.42"/><path class="cls-2" d="M403.89,407.89c-.26-4.1-5.88-4.24-4.33-8.7,4.48.3,6,4.94,7.6,8.33l-3.27.37"/><path class="cls-2" d="M413.7,488.32l-1.81-3.63q6.2,0,1.81,3.63"/><path class="cls-2" d="M419.84,354.27c4.1-.62,8.09,1.78,12-.36a15.44,15.44,0,0,0-2.17,7.61c-5.57-3.05-14.05,3.56-9.81-7.25"/><path class="cls-2" d="M420.59,454.62c-3.33-3.56-6.08-7.72-10.16-10.51a11.36,11.36,0,0,1,3.62-2.89c1.73,5.76,10.83,5.77,6.54,13.4"/><path class="cls-2" d="M422.05,455c3.33,1,8.47.64,8.66,5.43a7.94,7.94,0,0,1-8.66-5.43"/><path class="cls-2" d="M423.11,502.08l-4-2.17c2.7-.31,2.35.87,4,2.17"/><path class="cls-2" d="M430.71,485.42c-3.17-2.49-2.89-5.48.75-7.25,2.18,2.4,1.73,5.29-.75,7.25"/><path class="cls-2" d="M435.44,466.58q-4.15-5.65,2.52-3.26l-2.52,3.26"/><path class="cls-2" d="M437.6,499.55l-3.62-2.9c2.71-1.61,5.41-.23,3.62,2.9"/><path class="cls-2" d="M438,332.9v3.62a4.26,4.26,0,0,1-5.43-4,8,8,0,0,1,5.43.36"/><path class="cls-2" d="M440.12,488c-1.34-1.81-4.12-5.17-2.75-7.76.74-1.4,4.68-4.65,6.29-3.39,2.8,2.2-1.16,10-3.54,11.15"/><path class="cls-2" d="M453.07,494.47c1.42-4,5.39-5.81,9.41-5.8-3.47,1.41-6,4.2-9.41,5.8"/><path class="cls-2" d="M457.09,434.34c-8-3.1,1.72-12.46-7.25-15.94,9.48-12.27,16.59,10.09,7.25,15.94"/><path class="cls-2" d="M458.1,462.21c.48-6.54,8.33-5.57,12.69-7.61-2.09,4.69-7.85,7.23-12.69,7.61"/><path class="cls-2" d="M469.5,399.19c-4.12-.47-7.85-2.49-11.27-4.71,1.18-.91,2.41-1.75,3.67-2.54-3.33-.31-7.51,1.5-10.51-.61-5.58-3.94.6-5.76,4.2-6.73,11.19-3,14.68,1.25,20.75,12.06-2.91-1.79-5.47-.23-6.84,2.54"/><path class="cls-2" d="M487.26,456.44c-.62-.69-13.71-4.55-5.72-6.72,4.26-1.16,8.8,2.12,12.92.93a8.88,8.88,0,0,1-7.2,5.79"/><path class="cls-2" d="M490.48,480l-3.63-3.26c2.9,0,2.81,1,3.63,3.26"/><path class="cls-2" d="M494.86,487.59q-4.09-5.3,2.16-3.62l-2.16,3.62"/><path class="cls-2" d="M505,553.89c-1.46-6.85-1.17-12,1.46-18.48,1,3.9,2.12,16.3-1.46,18.48"/><path class="cls-2" d="M531.44,527.81c-3.68,10-6.77-1.16-7.28-5.07-1-7.51,10.37-12.94,16.69-14.14,1.05,4.4-1.43,8.51-2.63,12.54-2.16,7.28-2.81,1.24-6.78,6.66"/><path class="cls-2" d="M5.75,97.37c-.66-3.11,2.3-6.91,4.35-8.66C6.69,88,3.69,86.06.69,84.37,8.3,76.09,4.69,71,14.11,73.31c3.53.85,24.62,8.27,27.64,5.6,6-5.33,11.37-11.22,20.07-10.67,4.58.29,10.14,2.55,14.46-.08a13.3,13.3,0,0,1,14.29-.09c-3.88-4.87,2.16-12.51,7.43-8.3,4.09,3.28,9.13,11.49,12.18,15.91-4.06-.62-17.35-4-10.2,4.34-4-.15-6.27-2.81-7.95,1.85-.94,2.6-11,5-13.92,6.75C75.8,90,80,96.89,79.84,99.86c-.28,4.63-11.08,5-15.39,8.78,1.77.58,3.28,2.13,5.08,2.54-3.22.66-.89,12.27-7.11,8.29-7.14-4.57-14-2.47-20.82-9C39.31,116,31.31,120.76,25.18,118c-2.52-1.13-2.46-1.2-4.45.77-3,3-9.35.43-12.79-.37,3.8-3.36,11.63-4.62,8.7-9.78-2.3-4.08-12.81-3-7.6-9.78"/></g></g></g></svg>