<?xml version="1.0" encoding="utf-8"?>
<!-- Generator: Adobe Illustrator 24.1.0, SVG Export Plug-In . SVG Version: 6.00 Build 0)  -->
<svg version="1.1" id="Warstwa_1" xmlns="http://www.w3.org/2000/svg" xmlns:xlink="http://www.w3.org/1999/xlink" x="0px" y="0px"
	 viewBox="0 0 54 54" style="enable-background:new 0 0 54 54;" xml:space="preserve">
<style type="text/css">
	.st0{fill:#CCCCCC;stroke:#CCCCCC;stroke-width:1.5;stroke-linecap:round;stroke-linejoin:round;}
</style>
<desc>Created with Sketch.</desc>
<path class="st0" d="M24.2,1.7l0.7,1.7l2.4,0.4l1.7-0.7l4.4,0.5l5.4-0.5l0.9-0.3l1.8,0.9l0.2,1l1.9,4.9l0.2,2.6L42,13l-0.4,2.3
	l1.8,0.4l-0.3,2.1l0.5,2.3l1.8,2.3v1.3v1.4l-1.2,0.2l-3.2,5.1l0.2,2l0.6,1.3l-1.5-0.4l-3.9-1.8l-1.8,1L33,31.9l-1.3,1.4H30v-1.1
	l-1.2-0.8l-1.7,1L26,30.7c0,0-0.3-1.5-0.6-1.6c-0.3-0.1-2.1-0.2-2.1-0.2l-1.3-1c0,0,0.3-0.8,0.1-0.9c-0.2-0.2-2.8-1.1-2.8-1.1
	l0.9,1.1l-1.6,0.9L17,26.2l0.5-1.5l-1,0.2l-2.5-1.1l-1.4-1.5l0.1-1.8l-0.8-1.1L11.4,14l-1.5-2.1l0.8-2V8.4l0.9-0.7l-0.5-1.8l6.1-1.8
	l0.9-1.4l2.8-1.2l3.6-0.5l1.7,0.6"/>
<polyline class="st0" points="25.6,31.3 24,32.4 23.6,33.6 21.8,35.1 19.8,34.5 19,35.6 17.4,35.6 12.5,34 12.2,35.2 9.6,36.5 
	4.9,32.4 3.6,32 2.7,29.4 3.1,28.4 1.5,27 4.9,26 8,24.3 10.2,23.7 9.9,22.6 11.4,23.9 13.1,23 "/>
<polygon class="st0" points="19.7,39.5 19.7,41.5 18.4,41.5 17.5,41 17.9,42.5 17,43.5 17,45 15.8,45.8 16.4,46.3 16.8,47.7 
	20.9,51.7 24.3,53.1 25.6,52 27.2,51.6 29.4,50.6 33.1,50.7 34.8,50.1 39.9,41.6 41.6,40.9 41.9,39.5 39.6,37.6 37.6,37.6 
	36.6,36.5 32.8,36.5 31.9,38.3 30.5,39.1 29.2,38.8 26.4,39.5 26,41.2 23.6,41.5 22.1,41.3 "/>
<polyline class="st0" points="40.4,33.2 40.4,35.6 39.2,37.3 "/>
<polyline class="st0" points="19.8,34.5 18.6,37.5 19.7,39.5 "/>
</svg>
